<?xml version="1.0" encoding="utf-8"?>
<!-- Generator: Adobe Illustrator 16.0.0, SVG Export Plug-In . SVG Version: 6.00 Build 0)  -->
<!DOCTYPE svg PUBLIC "-//W3C//DTD SVG 1.1 Tiny//EN" "http://www.w3.org/Graphics/SVG/1.1/DTD/svg11-tiny.dtd">
<svg version="1.1" baseProfile="tiny" id="Layer_1" xmlns="http://www.w3.org/2000/svg" xmlns:xlink="http://www.w3.org/1999/xlink"
	 x="0px" y="0px" width="64px" height="64px" viewBox="0 0 64 64" xml:space="preserve">
<g>
	<g>
		<path fill="#3B5998" d="M32,0C14.325,0,0,14.327,0,32c0,17.672,14.325,32,32,32c17.674,0,32-14.328,32-32C64,14.327,49.674,0,32,0
			z M41.521,22.401h-3.782c-2.917,0-2.851,2.126-2.851,2.126v3.985h6.626l-1.151,4.989h-5.4v17.051h-8.182L26.69,33.502h-4.118
			l-0.016-4.989h4.062c0,0,0-3.017,0-4.749c0-8.108,9.157-7.423,9.157-7.423h5.805L41.521,22.401z"/>
	</g>
</g>
</svg>
