<?xml version="1.0" encoding="utf-8"?>
<!-- Generator: Adobe Illustrator 16.0.0, SVG Export Plug-In . SVG Version: 6.00 Build 0)  -->
<!DOCTYPE svg PUBLIC "-//W3C//DTD SVG 1.1 Tiny//EN" "http://www.w3.org/Graphics/SVG/1.1/DTD/svg11-tiny.dtd">
<svg version="1.1" baseProfile="tiny" id="Layer_1" xmlns="http://www.w3.org/2000/svg" xmlns:xlink="http://www.w3.org/1999/xlink"
	 x="0px" y="0px" width="64px" height="64px" viewBox="0 0 64 64" xml:space="preserve">
<g>
	<g>
		<path fill="#BB0000" d="M28.792,44.47c-0.156,0.191-0.438,0.349-0.63,0.475c-0.192,0.123-0.456,0.185-0.579,0.185
			c-0.16,0-0.274-0.044-0.351-0.14c-0.068-0.093-0.105-0.244-0.105-0.454v-7.583H25.47v8.197c0,0.528,0.151,0.918,0.352,1.188
			c0.202,0.262,0.496,0.394,0.895,0.394c0.319,0,0.653-0.091,0.991-0.28c0.34-0.193,0.666-0.562,0.981-0.92v-0.006h0.005
			c-0.001,0.002-0.003,0.004-0.005,0.006v1.171h1.708v-9.75h-1.604V44.47z M25.539,33.652h-4.903v1.627h1.61v11.416h1.637V35.279
			h1.656V33.652z M31.216,25.427c0.273,0,0.392-0.077,0.555-0.23c0.165-0.159,0.248-0.375,0.248-0.648v-4.553
			c0-0.223-0.083-0.406-0.25-0.541c-0.166-0.141-0.283-0.208-0.552-0.208c-0.25,0-0.452,0.068-0.613,0.208
			c-0.151,0.135-0.228,0.317-0.228,0.541v4.553c0,0.28,0.072,0.496,0.215,0.648C30.736,25.35,30.943,25.427,31.216,25.427z
			 M35.27,36.732c-0.266,0-0.528,0.069-0.789,0.212c-0.258,0.144-0.603,0.353-0.834,0.625v-3.916h-1.626v12.944h1.729V45.91
			c0.223,0.278,0.467,0.479,0.73,0.61c0.256,0.132,0.556,0.193,0.894,0.193c0.502,0,0.893-0.166,1.159-0.504
			c0.27-0.342,0.401-0.827,0.401-1.463v-5.764c0-0.737-0.139-1.296-0.428-1.676C36.224,36.924,35.811,36.732,35.27,36.732z
			 M35.325,39.079v5.42c0,0.288-0.2,0.494-0.302,0.619c-0.097,0.128-0.246,0.19-0.461,0.19c-0.142,0-0.278-0.034-0.414-0.096
			c-0.128-0.063-0.366-0.172-0.504-0.318v-6.373c0.118-0.127,0.339-0.219,0.457-0.275c0.117-0.063,0.238-0.089,0.36-0.089
			c0.231,0,0.41,0.078,0.53,0.232c0.124,0.157,0.335,0.386,0.335,0.689H35.325z M41.069,36.926c-0.742,0-1.346,0.232-1.812,0.704
			c-0.476,0.466-0.71,1.826-0.71,2.564v3.855c0,0.825,0.214,1.473,0.643,1.941c0.426,0.471,1.014,0.708,1.756,0.708
			c0.827,0,1.449-0.222,1.862-0.662c0.42-0.448,0.623-1.109,0.623-1.987v-0.44h-1.704v0.389c0,0.506-0.057,0.832-0.166,0.978
			c-0.107,0.146-0.302,0.224-0.576,0.224c-0.267,0-0.454-0.088-0.563-0.261c-0.106-0.178-0.163-0.488-0.163-0.94v-2.174h3.173v-1.63
			c0-0.809-0.199-2.185-0.61-2.619C42.417,37.145,41.832,36.926,41.069,36.926z M41.728,40.491h-1.469v-0.305
			c0-0.361,0.057-1.375,0.173-1.523c0.115-0.16,0.304-0.236,0.568-0.236c0.252,0,0.44,0.076,0.553,0.236
			c0.118,0.148,0.175,1.162,0.175,1.523V40.491z M32.001,0C14.327,0,0,14.327,0,32c0,17.672,14.327,32,32.001,32
			C49.673,64,64,49.672,64,32C64,14.327,49.673,0,32.001,0z M35.251,17.326h1.63v7.229c0,0.245,0.045,0.418,0.135,0.525
			c0.081,0.108,0.12,0.167,0.314,0.167c0.149,0,0.336-0.688,0.567-0.828c0.229-0.147,0.438-0.33,0.63-0.556v-6.538h1.639v9.615
			h-1.639v-1.74c-0.374,0.414-0.765,1.345-1.176,1.562c-0.405,0.216-0.802,0.327-1.185,0.327c-0.473,0-0.32-0.153-0.56-0.46
			c-0.237-0.302-0.356-0.757-0.356-1.37V17.326z M28.782,20.073c0-0.791,0.275-1.422,0.822-1.898
			c0.552-0.463,0.782-0.852,1.709-0.852c0.847,0,0.978,0.4,1.521,0.894c0.539,0.493,0.809,1.133,0.809,1.917v4.261
			c0,0.877-0.267,1.563-0.791,2.059c-0.535,0.496-0.651,0.744-1.583,0.744c-0.891,0-1.149-0.256-1.685-0.767
			c-0.534-0.516-0.802-1.208-0.802-2.075V20.073z M23.213,14.098l1.495,5.54h0.144l1.425-5.54h2.337l-3.084,8.928v4.12h-1.688
			v-3.864l-2.946-9.184H23.213z M49.978,43.278c0,3.698-2.932,6.7-6.552,6.7H20.655c-3.619,0-6.555-3.002-6.555-6.7v-6.203
			c0-3.702,2.934-6.703,6.555-6.703h22.771c3.62,0,6.552,3.001,6.552,6.703V43.278z"/>
	</g>
</g>
</svg>
