<?xml version="1.0" encoding="utf-8"?>
<!-- Generator: Adobe Illustrator 16.0.0, SVG Export Plug-In . SVG Version: 6.00 Build 0)  -->
<!DOCTYPE svg PUBLIC "-//W3C//DTD SVG 1.1 Tiny//EN" "http://www.w3.org/Graphics/SVG/1.1/DTD/svg11-tiny.dtd">
<svg version="1.1" baseProfile="tiny" id="Layer_1" xmlns="http://www.w3.org/2000/svg" xmlns:xlink="http://www.w3.org/1999/xlink"
	 x="0px" y="0px" width="64px" height="64px" viewBox="0 0 64 64" xml:space="preserve">
<g>
	<g>
		<path fill="#BB0000" d="M28.892,44.081c-0.151,0.185-0.424,0.337-0.61,0.46c-0.186,0.119-0.442,0.179-0.561,0.179
			c-0.155,0-0.266-0.043-0.34-0.136c-0.065-0.091-0.102-0.236-0.102-0.439v-7.346h-1.605v7.94c0,0.511,0.146,0.89,0.34,1.15
			c0.196,0.254,0.481,0.383,0.867,0.383c0.31,0,0.633-0.089,0.96-0.271c0.329-0.188,0.645-0.544,0.95-0.892v-0.007h0.005
			c-0.001,0.002-0.003,0.004-0.005,0.007v1.135h1.655v-9.445h-1.554L28.892,44.081L28.892,44.081z M25.741,33.601h-4.75v1.576h1.56
			v11.06h1.586v-11.06h1.604V33.601z M31.24,25.632c0.265,0,0.38-0.074,0.538-0.223c0.16-0.153,0.24-0.363,0.24-0.627v-4.411
			c0-0.216-0.081-0.394-0.242-0.524c-0.161-0.137-0.274-0.202-0.535-0.202c-0.242,0-0.438,0.066-0.594,0.202
			c-0.146,0.13-0.221,0.307-0.221,0.524v4.411c0,0.271,0.07,0.48,0.208,0.627C30.775,25.558,30.976,25.632,31.24,25.632z
			 M35.167,36.585c-0.257,0-0.511,0.065-0.764,0.204c-0.25,0.14-0.584,0.342-0.809,0.605v-3.794h-1.574v12.541h1.675v-0.666
			c0.216,0.269,0.452,0.464,0.708,0.59c0.247,0.129,0.538,0.188,0.865,0.188c0.486,0,0.865-0.161,1.123-0.488
			c0.261-0.331,0.388-0.801,0.388-1.417v-5.583c0-0.715-0.134-1.257-0.414-1.624C36.093,36.77,35.691,36.585,35.167,36.585z
			 M35.222,38.857v5.251c0,0.279-0.194,0.479-0.293,0.6c-0.095,0.124-0.238,0.185-0.446,0.185c-0.138,0-0.27-0.034-0.401-0.094
			c-0.125-0.062-0.354-0.166-0.488-0.308v-6.174c0.114-0.123,0.328-0.213,0.443-0.267c0.112-0.061,0.229-0.086,0.348-0.086
			c0.224,0,0.397,0.074,0.514,0.225C35.018,38.342,35.223,38.563,35.222,38.857L35.222,38.857L35.222,38.857z M40.785,36.771
			c-0.718,0-1.304,0.226-1.755,0.683c-0.461,0.451-0.688,1.769-0.688,2.483v3.734c0,0.8,0.209,1.427,0.623,1.881
			c0.413,0.456,0.982,0.687,1.701,0.687c0.802,0,1.403-0.215,1.805-0.642c0.407-0.435,0.604-1.075,0.604-1.926v-0.426h-1.651v0.377
			c0,0.49-0.055,0.806-0.161,0.948c-0.104,0.141-0.292,0.217-0.559,0.217c-0.258,0-0.438-0.087-0.545-0.253
			c-0.102-0.173-0.157-0.473-0.157-0.911v-2.105h3.073v-1.579c0-0.784-0.192-2.117-0.59-2.537
			C42.092,36.983,41.524,36.771,40.785,36.771z M41.425,40.226h-1.424V39.93c0-0.349,0.056-1.332,0.167-1.475
			c0.111-0.155,0.295-0.229,0.551-0.229c0.244,0,0.426,0.074,0.535,0.229c0.115,0.143,0.171,1.126,0.171,1.475V40.226z M32.001,1
			C14.879,1,1,14.879,1,32c0,17.119,13.879,31,31.001,31C49.12,63,63,49.119,63,32C63,14.879,49.12,1,32.001,1z M35.149,17.785
			h1.579v7.003c0,0.237,0.043,0.405,0.131,0.509c0.079,0.104,0.117,0.162,0.304,0.162c0.145,0,0.326-0.667,0.549-0.802
			c0.223-0.142,0.425-0.32,0.611-0.539v-6.333h1.588v9.314h-1.588v-1.686c-0.363,0.401-0.741,1.303-1.139,1.513
			c-0.394,0.209-0.778,0.316-1.148,0.316c-0.458,0-0.311-0.148-0.543-0.445c-0.229-0.292-0.345-0.733-0.345-1.328L35.149,17.785
			L35.149,17.785z M28.883,20.446c0-0.766,0.266-1.378,0.796-1.839c0.535-0.449,0.758-0.825,1.656-0.825
			c0.821,0,0.947,0.388,1.473,0.866c0.522,0.478,0.783,1.098,0.783,1.857v4.128c0,0.85-0.258,1.514-0.766,1.995
			c-0.518,0.48-0.63,0.721-1.533,0.721c-0.863,0-1.113-0.248-1.632-0.743c-0.518-0.5-0.777-1.17-0.777-2.01V20.446z M23.487,14.658
			l1.449,5.367h0.139l1.38-5.367h2.264l-2.988,8.648v3.992h-1.635v-3.743l-2.854-8.897H23.487z M49.417,42.925
			c0,3.584-2.841,6.492-6.349,6.492H21.009c-3.505,0-6.35-2.908-6.35-6.492v-6.008c0-3.587,2.842-6.494,6.35-6.494h22.059
			c3.508,0,6.349,2.907,6.349,6.494V42.925z"/>
	</g>
</g>
</svg>
