<?xml version="1.0" encoding="utf-8"?>
<!-- Generator: Adobe Illustrator 16.0.0, SVG Export Plug-In . SVG Version: 6.00 Build 0)  -->
<!DOCTYPE svg PUBLIC "-//W3C//DTD SVG 1.1//EN" "http://www.w3.org/Graphics/SVG/1.1/DTD/svg11.dtd">
<svg version="1.1" id="Layer_1" xmlns="http://www.w3.org/2000/svg" xmlns:xlink="http://www.w3.org/1999/xlink" x="0px" y="0px"
	 width="14.107px" height="14.098px" viewBox="22.788 21.417 14.107 14.098" enable-background="new 22.788 21.417 14.107 14.098"
	 xml:space="preserve">
<g>
	<path fill="#999999" d="M36.284,33.257l-3.653-3.654c0.5-0.797,0.789-1.743,0.789-2.754c0-2.874-2.329-5.204-5.202-5.204
		c-2.873,0-5.202,2.33-5.202,5.204c0,2.872,2.329,5.2,5.202,5.2c1.017,0,1.966-0.292,2.768-0.796l3.652,3.651
		c0.253,0.25,0.58,0.383,0.907,0.383c0.002,0,0.003,0,0.005,0c0.285,0,0.575-0.107,0.792-0.322c0.222-0.223,0.326-0.515,0.325-0.801
		C36.666,33.835,36.534,33.508,36.284,33.257z M31.119,26.85c-0.002,1.599-1.302,2.897-2.901,2.9
		c-1.599-0.003-2.897-1.302-2.901-2.9c0.002-1.6,1.302-2.898,2.901-2.902C29.817,23.951,31.117,25.25,31.119,26.85z"/>
</g>
</svg>
