<?xml version="1.0" encoding="utf-8"?>
<!-- Generator: Adobe Illustrator 16.0.0, SVG Export Plug-In . SVG Version: 6.00 Build 0)  -->
<!DOCTYPE svg PUBLIC "-//W3C//DTD SVG 1.1 Tiny//EN" "http://www.w3.org/Graphics/SVG/1.1/DTD/svg11-tiny.dtd">
<svg version="1.1" baseProfile="tiny" id="Layer_1" xmlns="http://www.w3.org/2000/svg" xmlns:xlink="http://www.w3.org/1999/xlink"
	 x="0px" y="0px" width="64px" height="64px" viewBox="0 0 64 64" xml:space="preserve">
<g>
	<g>
		<path fill="#3B5998" d="M32,1C14.877,1,1,14.879,1,32c0,17.119,13.877,31,31,31c17.121,0,31-13.881,31-31C63,14.879,49.121,1,32,1
			z M41.224,22.701h-3.665c-2.824,0-2.76,2.06-2.76,2.06v3.861h6.418l-1.115,4.833H34.87v16.518h-7.926l-0.088-16.517h-3.99
			l-0.015-4.833h3.935c0,0,0-2.923,0-4.601c0-7.854,8.871-7.191,8.871-7.191h5.623L41.224,22.701z"/>
	</g>
</g>
</svg>
