<?xml version="1.0" encoding="utf-8"?>
<!-- Generator: Adobe Illustrator 16.0.0, SVG Export Plug-In . SVG Version: 6.00 Build 0)  -->
<!DOCTYPE svg PUBLIC "-//W3C//DTD SVG 1.1 Tiny//EN" "http://www.w3.org/Graphics/SVG/1.1/DTD/svg11-tiny.dtd">
<svg version="1.1" baseProfile="tiny" id="Layer_1" xmlns="http://www.w3.org/2000/svg" xmlns:xlink="http://www.w3.org/1999/xlink"
	 x="0px" y="0px" width="64px" height="64px" viewBox="0 0 64 64" xml:space="preserve">
<g>
	<g>
		<path fill="#0063DC" d="M32.001,1C14.879,1,1,14.879,1,32c0,17.119,13.879,31,31.001,31C49.121,63,63,49.119,63,32
			C63,14.879,49.121,1,32.001,1z M21.258,41.089c-4.8,0-8.69-3.832-8.69-8.556c0-4.726,3.89-8.555,8.69-8.555
			c4.801,0,8.691,3.83,8.691,8.555C29.949,37.257,26.059,41.089,21.258,41.089z M42.984,41.089c-4.798,0-8.689-3.832-8.689-8.556
			c0-4.726,3.892-8.555,8.689-8.555c4.803,0,8.695,3.83,8.695,8.555C51.68,37.257,47.787,41.089,42.984,41.089z"/>
	</g>
</g>
</svg>
