<?xml version="1.0" encoding="utf-8"?>
<!-- Generator: Adobe Illustrator 16.0.0, SVG Export Plug-In . SVG Version: 6.00 Build 0)  -->
<!DOCTYPE svg PUBLIC "-//W3C//DTD SVG 1.1//EN" "http://www.w3.org/Graphics/SVG/1.1/DTD/svg11.dtd">
<svg version="1.1" id="Layer_1" xmlns="http://www.w3.org/2000/svg" xmlns:xlink="http://www.w3.org/1999/xlink" x="0px" y="0px"
	 width="22.554px" height="21.799px" viewBox="0 0 22.554 21.799" enable-background="new 0 0 22.554 21.799" xml:space="preserve">
<g>
	<path fill="#999999" d="M19.618,17.102l-4.73-4.73c0.646-1.032,1.021-2.257,1.021-3.565c0-3.721-3.016-6.737-6.734-6.737
		S2.441,5.085,2.441,8.806c0,3.718,3.015,6.732,6.734,6.732c1.316,0,2.545-0.378,3.584-1.03l4.729,4.726
		c0.326,0.323,0.75,0.497,1.172,0.497c0.004,0,0.004,0,0.008,0c0.369,0,0.744-0.14,1.025-0.418c0.287-0.288,0.422-0.666,0.42-1.036
		C20.112,17.851,19.94,17.427,19.618,17.102z M12.93,8.807c-0.002,2.071-1.686,3.751-3.756,3.755
		c-2.07-0.004-3.75-1.685-3.755-3.755c0.002-2.071,1.686-3.751,3.755-3.756C11.245,5.055,12.928,6.736,12.93,8.807z"/>
</g>
</svg>
