<?xml version="1.0" encoding="utf-8"?>
<!-- Generator: Adobe Illustrator 16.0.0, SVG Export Plug-In . SVG Version: 6.00 Build 0)  -->
<!DOCTYPE svg PUBLIC "-//W3C//DTD SVG 1.1//EN" "http://www.w3.org/Graphics/SVG/1.1/DTD/svg11.dtd">
<svg version="1.1" id="Layer_1" xmlns="http://www.w3.org/2000/svg" xmlns:xlink="http://www.w3.org/1999/xlink" x="0px" y="0px"
	 width="22.555px" height="21.799px" viewBox="0 0 22.555 21.799" enable-background="new 0 0 22.555 21.799" xml:space="preserve">
<g>
	<path fill="#999999" d="M20.396,17.679l-5.171-5.17c0.706-1.13,1.115-2.468,1.115-3.898c0-4.068-3.297-7.365-7.363-7.365
		c-4.064,0-7.361,3.296-7.361,7.364c0,4.065,3.296,7.36,7.361,7.36c1.44,0,2.784-0.415,3.919-1.128l5.17,5.167
		c0.357,0.354,0.82,0.545,1.281,0.545c0.005,0,0.005,0,0.008,0c0.404,0,0.814-0.153,1.122-0.458
		c0.313-0.316,0.461-0.728,0.459-1.134C20.936,18.496,20.748,18.032,20.396,17.679z M13.085,8.61
		c-0.002,2.264-1.844,4.101-4.107,4.104c-2.262-0.004-4.1-1.842-4.105-4.104C4.874,6.346,6.716,4.51,8.977,4.504
		C11.242,4.509,13.083,6.346,13.085,8.61z"/>
</g>
</svg>
