<?xml version="1.0" encoding="utf-8"?>
<!-- Generator: Adobe Illustrator 16.0.0, SVG Export Plug-In . SVG Version: 6.00 Build 0)  -->
<!DOCTYPE svg PUBLIC "-//W3C//DTD SVG 1.1 Tiny//EN" "http://www.w3.org/Graphics/SVG/1.1/DTD/svg11-tiny.dtd">
<svg version="1.1" baseProfile="tiny" id="Layer_1" xmlns="http://www.w3.org/2000/svg" xmlns:xlink="http://www.w3.org/1999/xlink"
	 x="0px" y="0px" width="64px" height="64px" viewBox="0 0 64 64" xml:space="preserve">
<g>
	<g>
		<path fill="#00ACED" d="M32,1C14.879,1,1,14.879,1,32c0,17.119,13.879,31,31,31c17.121,0,31-13.881,31-31C63,14.879,49.121,1,32,1
			z M46.925,25.818v0.531c0,0.58-0.096,1.135-0.229,1.674c-0.076,4.375-1.468,10.173-7.188,14.752
			c-11.252,9.006-23.31,1.06-23.31,1.06c9.534,0,9.534-3.181,9.534-3.181c-2.119,0-6.355-4.239-6.355-4.239
			c1.057,1.061,3.177,0,3.177,0c-5.299-3.179-5.299-6.358-5.299-6.358c1.062,1.061,3.179,0,3.179,0
			c-5.295-4.238-2.116-9.536-2.116-9.536c1.059,5.298,14.831,7.418,14.831,7.418l0.177-0.089c-0.105-0.484-0.177-1.513-0.177-2.031
			c0-3.805,3.084-6.358,6.891-6.358c2.091,0,3.944,0.953,5.205,2.429l0.621-0.31l3.178-2.119l-2.118,4.239l3.177-1.061
			L46.925,25.818z"/>
	</g>
</g>
</svg>
