<?xml version="1.0" encoding="utf-8"?>
<!-- Generator: Adobe Illustrator 16.0.0, SVG Export Plug-In . SVG Version: 6.00 Build 0)  -->
<!DOCTYPE svg PUBLIC "-//W3C//DTD SVG 1.1 Tiny//EN" "http://www.w3.org/Graphics/SVG/1.1/DTD/svg11-tiny.dtd">
<svg version="1.1" baseProfile="tiny" id="Layer_1" xmlns="http://www.w3.org/2000/svg" xmlns:xlink="http://www.w3.org/1999/xlink"
	 x="0px" y="0px" width="64px" height="64px" viewBox="0 0 64 64" xml:space="preserve">
<path fill="#FFFFFF" d="M32,63C14.879,63,1,49.12,1,32C1,14.879,14.879,1,32,1c17.12,0,31,13.879,31,31C63,49.12,49.12,63,32,63z
	 M32,12.625c-2.14,0-3.875,1.735-3.875,3.875S29.86,20.375,32,20.375s3.875-1.735,3.875-3.875S34.14,12.625,32,12.625z
	 M39.75,43.625h-3.875v-15.5v-3.875H32h-5.813l1.938,3.875H32v15.5h-3.875L22.313,47.5h1.938H32h3.875h7.75h1.938L39.75,43.625z"/>
</svg>
