<?xml version="1.0" encoding="utf-8"?>
<!-- Generator: Adobe Illustrator 16.0.0, SVG Export Plug-In . SVG Version: 6.00 Build 0)  -->
<!DOCTYPE svg PUBLIC "-//W3C//DTD SVG 1.1 Tiny//EN" "http://www.w3.org/Graphics/SVG/1.1/DTD/svg11-tiny.dtd">
<svg version="1.1" baseProfile="tiny" id="Layer_1" xmlns="http://www.w3.org/2000/svg" xmlns:xlink="http://www.w3.org/1999/xlink"
	 x="0px" y="0px" width="64px" height="64px" viewBox="0 0 64 64" xml:space="preserve">
<g>
	<g>
		<path fill="#00ACED" d="M32,0C14.327,0,0,14.327,0,32c0,17.672,14.327,32,32,32c17.674,0,32-14.328,32-32C64,14.327,49.674,0,32,0
			z M47.406,25.619v0.548c0,0.599-0.099,1.172-0.236,1.728c-0.078,4.516-1.515,10.502-7.419,15.229
			c-11.615,9.296-24.062,1.094-24.062,1.094c9.841,0,9.841-3.283,9.841-3.283c-2.187,0-6.56-4.376-6.56-4.376
			c1.091,1.095,3.279,0,3.279,0c-5.47-3.281-5.47-6.563-5.47-6.563c1.096,1.095,3.281,0,3.281,0
			c-5.466-4.375-2.184-9.844-2.184-9.844c1.093,5.469,15.309,7.657,15.309,7.657l0.183-0.092c-0.109-0.5-0.183-1.562-0.183-2.097
			c0-3.928,3.184-6.563,7.113-6.563c2.158,0,4.071,0.983,5.373,2.507l0.641-0.319l3.28-2.188l-2.187,4.376l3.279-1.095
			L47.406,25.619z"/>
	</g>
</g>
</svg>
