<?xml version="1.0" encoding="utf-8"?>
<!-- Generator: Adobe Illustrator 16.0.0, SVG Export Plug-In . SVG Version: 6.00 Build 0)  -->
<!DOCTYPE svg PUBLIC "-//W3C//DTD SVG 1.1 Tiny//EN" "http://www.w3.org/Graphics/SVG/1.1/DTD/svg11-tiny.dtd">
<svg version="1.1" baseProfile="tiny" id="Layer_1" xmlns="http://www.w3.org/2000/svg" xmlns:xlink="http://www.w3.org/1999/xlink"
	 x="0px" y="0px" width="64px" height="64px" viewBox="0 0 64 64" xml:space="preserve">
<g>
	<g>
		<path fill="#007BB6" d="M34.51,28.746v-0.061c-0.009,0.021-0.025,0.044-0.042,0.061H34.51z M32,1C14.88,1,1,14.879,1,32
			c0,17.119,13.88,31,31,31c17.123,0,31-13.881,31-31C63,14.879,49.123,1,32,1z M24.881,44.609h-6.874V25.362h6.874V44.609z
			 M21.444,22.613c-1.899,0-3.437-1.537-3.437-3.437s1.538-3.437,3.437-3.437c1.896,0,3.437,1.538,3.437,3.437
			S23.341,22.613,21.444,22.613z M48.253,44.604H41.34v-9.923c0-2.49-0.507-4.194-2.857-4.194c-1.79,0-3.288,1.152-3.758,2.256
			c-0.168,0.399-0.216,0.946-0.216,1.505v10.355h-6.91c0,0,0.083-17.493,0-19.23h6.91v3.312c0.868-1.265,2.84-3.318,6.278-3.318
			c4.267,0,7.466,2.906,7.466,8.605V44.604L48.253,44.604z"/>
	</g>
</g>
</svg>
