<?xml version="1.0" encoding="utf-8"?>
<!-- Generator: Adobe Illustrator 16.0.0, SVG Export Plug-In . SVG Version: 6.00 Build 0)  -->
<!DOCTYPE svg PUBLIC "-//W3C//DTD SVG 1.1 Tiny//EN" "http://www.w3.org/Graphics/SVG/1.1/DTD/svg11-tiny.dtd">
<svg version="1.1" baseProfile="tiny" id="Layer_1" xmlns="http://www.w3.org/2000/svg" xmlns:xlink="http://www.w3.org/1999/xlink"
	 x="0px" y="0px" width="64px" height="64px" viewBox="0 0 64 64" xml:space="preserve">
<g>
	<path fill="#555555" d="M38.038,36.041l-4.416-4.416c0.604-0.965,0.954-2.108,0.954-3.33c0-3.474-2.815-6.29-6.288-6.29
		c-3.472,0-6.288,2.816-6.288,6.29c0,3.472,2.816,6.286,6.288,6.286c1.229,0,2.377-0.354,3.346-0.963l4.415,4.414
		c0.304,0.303,0.7,0.462,1.096,0.462c0.002,0,0.004,0,0.005,0c0.345,0,0.695-0.127,0.958-0.389c0.267-0.268,0.395-0.62,0.393-0.968
		C38.5,36.743,38.342,36.346,38.038,36.041z M31.795,28.296c-0.003,1.932-1.574,3.503-3.507,3.506
		c-1.933-0.004-3.503-1.575-3.507-3.506c0.003-1.933,1.574-3.504,3.507-3.508C30.221,24.792,31.792,26.363,31.795,28.296z"/>
</g>
</svg>
