<?xml version="1.0" encoding="utf-8"?>
<!-- Generator: Adobe Illustrator 16.0.0, SVG Export Plug-In . SVG Version: 6.00 Build 0)  -->
<!DOCTYPE svg PUBLIC "-//W3C//DTD SVG 1.1//EN" "http://www.w3.org/Graphics/SVG/1.1/DTD/svg11.dtd">
<svg version="1.1" id="Layer_1" xmlns="http://www.w3.org/2000/svg" xmlns:xlink="http://www.w3.org/1999/xlink" x="0px" y="0px"
	 width="37px" height="37px" viewBox="0 0 37 37" enable-background="new 0 0 37 37" xml:space="preserve">
<g>
	<g>
		<g>
			<path fill="#28AAE2" d="M18.501,1.292c-9.504,0-17.209,7.704-17.209,17.207c0,9.504,7.705,17.209,17.209,17.209
				s17.207-7.705,17.207-17.209C35.708,8.996,28.005,1.292,18.501,1.292z M26.784,15.068v0.295c0,0.321-0.051,0.63-0.127,0.929
				c-0.041,2.428-0.813,5.647-3.988,8.189c-6.247,4.998-12.939,0.588-12.939,0.588c5.292,0,5.292-1.766,5.292-1.766
				c-1.175,0-3.528-2.353-3.528-2.353c0.588,0.588,1.765,0,1.765,0c-2.941-1.765-2.941-3.53-2.941-3.53c0.589,0.589,1.765,0,1.765,0
				c-2.939-2.353-1.175-5.294-1.175-5.294c0.587,2.941,8.232,4.118,8.232,4.118l0.099-0.049c-0.061-0.27-0.099-0.841-0.099-1.128
				c0-2.111,1.713-3.53,3.823-3.53c1.162,0,2.19,0.53,2.892,1.349l0.343-0.172l1.765-1.177l-1.176,2.354l1.764-0.589L26.784,15.068z
				"/>
		</g>
	</g>
</g>
</svg>
