<?xml version="1.0" encoding="utf-8"?>
<!-- Generator: Adobe Illustrator 16.0.0, SVG Export Plug-In . SVG Version: 6.00 Build 0)  -->
<!DOCTYPE svg PUBLIC "-//W3C//DTD SVG 1.1//EN" "http://www.w3.org/Graphics/SVG/1.1/DTD/svg11.dtd">
<svg version="1.1" id="Layer_1" xmlns="http://www.w3.org/2000/svg" xmlns:xlink="http://www.w3.org/1999/xlink" x="0px" y="0px"
	 width="37px" height="37px" viewBox="0 0 37 37" enable-background="new 0 0 37 37" xml:space="preserve">
<g>
	<g>
		<g>
			<path fill="#047CB7" d="M19.894,16.694V16.66c-0.005,0.011-0.015,0.024-0.023,0.034H19.894z M18.501,1.292
				c-9.505,0-17.209,7.704-17.209,17.207c0,9.504,7.704,17.209,17.209,17.209c9.503,0,17.207-7.705,17.207-17.209
				C35.708,8.996,28.004,1.292,18.501,1.292z M14.549,25.499h-3.815V14.815h3.815V25.499z M12.64,13.289
				c-1.054,0-1.906-0.854-1.906-1.908s0.853-1.907,1.906-1.907s1.909,0.853,1.909,1.907S13.693,13.289,12.64,13.289z M27.522,25.495
				h-3.839v-5.506c0-1.385-0.28-2.329-1.585-2.329c-0.994,0-1.824,0.64-2.085,1.253c-0.095,0.221-0.12,0.523-0.12,0.834v5.748
				h-3.836c0,0,0.047-9.71,0-10.674h3.836v1.839c0.479-0.702,1.575-1.843,3.484-1.843c2.368,0,4.145,1.613,4.145,4.777V25.495z"/>
		</g>
	</g>
</g>
</svg>
