<?xml version="1.0" encoding="utf-8"?>
<!-- Generator: Adobe Illustrator 16.0.0, SVG Export Plug-In . SVG Version: 6.00 Build 0)  -->
<!DOCTYPE svg PUBLIC "-//W3C//DTD SVG 1.1//EN" "http://www.w3.org/Graphics/SVG/1.1/DTD/svg11.dtd">
<svg version="1.1" id="Layer_1" xmlns="http://www.w3.org/2000/svg" xmlns:xlink="http://www.w3.org/1999/xlink" x="0px" y="0px"
	 width="37px" height="37px" viewBox="0 0 37 37" enable-background="new 0 0 37 37" xml:space="preserve">
<g>
	<g>
		<g>
			<path fill="#3866B0" d="M18.5,1.292c-9.503,0-17.207,7.704-17.207,17.207c0,9.504,7.704,17.209,17.207,17.209
				c9.504,0,17.208-7.705,17.208-17.209C35.707,8.996,28.004,1.292,18.5,1.292z M12.537,23.545c-2.665,0-4.825-2.127-4.825-4.749
				c0-2.623,2.16-4.749,4.825-4.749s4.825,2.126,4.825,4.749C17.362,21.418,15.202,23.545,12.537,23.545z M24.598,23.545
				c-2.664,0-4.824-2.127-4.824-4.749c0-2.623,2.16-4.749,4.824-4.749c2.666,0,4.826,2.126,4.826,4.749
				C29.424,21.418,27.264,23.545,24.598,23.545z"/>
		</g>
	</g>
</g>
</svg>
