<?xml version="1.0" encoding="utf-8"?>
<!-- Generator: Adobe Illustrator 16.0.0, SVG Export Plug-In . SVG Version: 6.00 Build 0)  -->
<!DOCTYPE svg PUBLIC "-//W3C//DTD SVG 1.1 Tiny//EN" "http://www.w3.org/Graphics/SVG/1.1/DTD/svg11-tiny.dtd">
<svg version="1.1" baseProfile="tiny" id="Layer_1" xmlns="http://www.w3.org/2000/svg" xmlns:xlink="http://www.w3.org/1999/xlink"
	 x="0px" y="0px" width="64px" height="64px" viewBox="0 0 64 64" xml:space="preserve">
<g>
	<path fill="#FFFFFF" d="M23.162,20.367h18.307c3.138-2.19,6.105-5.042,6.457-8.149c0.171-1.516-0.163-3.737-2.735-5.715
		c-1.429-1.099-2.876-1.654-4.301-1.654c-4.542,0-7.11,5.419-8.499,10.263C30.731,8.939,27.529,1,22.028,1
		c-1.604,0-3.204,0.675-4.757,2.01c-3.063,2.641-3.366,5.382-3.078,7.216C14.834,14.332,19.076,17.86,23.162,20.367z M40.89,9.496
		c0.438,0,1.006,0.258,1.639,0.744c1.026,0.789,0.97,1.275,0.954,1.437c-0.191,1.694-3.458,4.358-7.266,6.557
		C37.336,13.546,39.166,9.496,40.89,9.496z M20.129,6.588c0.502-0.429,1.236-0.943,1.899-0.943c2.462,0,4.996,6.295,6.471,12.416
		c-4.649-2.412-9.461-5.835-9.89-8.581C18.551,9.1,18.394,8.084,20.129,6.588z M57.865,20.389H6.133
		c-1.098,0-1.989,0.869-1.989,1.938v17.432c0,1.07,0.892,1.937,1.989,1.937h1.991v19.368c0,1.071,0.891,1.938,1.989,1.938h43.773
		c1.099,0,1.989-0.868,1.989-1.938V41.694h1.989c1.101,0,1.991-0.867,1.991-1.937V22.326C59.856,21.256,58.966,20.389,57.865,20.389
		z M28.021,57.188c0,1.071-0.891,1.939-1.989,1.939H14.093c-1.099,0-1.989-0.869-1.989-1.939V41.694c0-1.07,0.891-1.937,1.989-1.937
		h11.938c1.099,0,1.989,0.867,1.989,1.937V57.188z M28.021,33.946c0,1.07-0.891,1.937-1.989,1.937H10.113
		c-1.099,0-1.989-0.866-1.989-1.937v-7.748c0-1.07,0.891-1.937,1.989-1.937h15.918c1.099,0,1.989,0.868,1.989,1.937V33.946z
		 M51.896,57.188c0,1.071-0.891,1.939-1.989,1.939H37.97c-1.1,0-1.99-0.869-1.99-1.939V41.694c0-1.07,0.891-1.937,1.99-1.937h11.938
		c1.099,0,1.989,0.867,1.989,1.937V57.188z M55.876,33.946c0,1.07-0.891,1.937-1.989,1.937H37.97c-1.1,0-1.99-0.866-1.99-1.937
		v-7.748c0-1.07,0.891-1.937,1.99-1.937h15.917c1.099,0,1.989,0.868,1.989,1.937V33.946z"/>
</g>
</svg>
