<?xml version="1.0" encoding="utf-8"?>
<!-- Generator: Adobe Illustrator 16.0.0, SVG Export Plug-In . SVG Version: 6.00 Build 0)  -->
<!DOCTYPE svg PUBLIC "-//W3C//DTD SVG 1.1 Tiny//EN" "http://www.w3.org/Graphics/SVG/1.1/DTD/svg11-tiny.dtd">
<svg version="1.1" baseProfile="tiny" id="Layer_1" xmlns="http://www.w3.org/2000/svg" xmlns:xlink="http://www.w3.org/1999/xlink"
	 x="0px" y="0px" width="64px" height="64px" viewBox="0 0 64 64" xml:space="preserve">
<g>
	<g>
		<path fill="#0063DC" d="M32.001,0C14.327,0,0,14.327,0,32c0,17.672,14.327,32,32.001,32C49.674,64,64,49.672,64,32
			C64,14.327,49.674,0,32.001,0z M20.911,41.382c-4.955,0-8.971-3.955-8.971-8.832c0-4.878,4.016-8.831,8.971-8.831
			c4.956,0,8.972,3.953,8.972,8.831C29.883,37.427,25.867,41.382,20.911,41.382z M43.339,41.382c-4.953,0-8.97-3.955-8.97-8.832
			c0-4.878,4.017-8.831,8.97-8.831c4.957,0,8.976,3.953,8.976,8.831C52.314,37.427,48.296,41.382,43.339,41.382z"/>
	</g>
</g>
</svg>
