<?xml version="1.0" encoding="utf-8"?>
<!-- Generator: Adobe Illustrator 16.0.0, SVG Export Plug-In . SVG Version: 6.00 Build 0)  -->
<!DOCTYPE svg PUBLIC "-//W3C//DTD SVG 1.1//EN" "http://www.w3.org/Graphics/SVG/1.1/DTD/svg11.dtd">
<svg version="1.1" id="Layer_1" xmlns="http://www.w3.org/2000/svg" xmlns:xlink="http://www.w3.org/1999/xlink" x="0px" y="0px"
	 width="37px" height="37px" viewBox="0 0 37 37" enable-background="new 0 0 37 37" xml:space="preserve">
<g>
	<g>
		<g>
			<path fill="#BA2025" d="M20.256,21.044c-0.141,0-0.283,0.038-0.424,0.115c-0.139,0.076-0.322,0.189-0.447,0.335v-2.105H18.51
				v6.961h0.929v-0.37c0.121,0.15,0.25,0.258,0.393,0.328c0.139,0.07,0.299,0.104,0.48,0.104c0.271,0,0.482-0.089,0.625-0.271
				c0.145-0.184,0.215-0.444,0.215-0.786v-3.101c0-0.396-0.074-0.695-0.23-0.899C20.77,21.147,20.549,21.044,20.256,21.044z
				 M20.287,22.307v2.913c0,0.156-0.107,0.267-0.162,0.334c-0.053,0.068-0.133,0.103-0.248,0.103c-0.074,0-0.15-0.019-0.221-0.052
				s-0.199-0.092-0.273-0.17v-3.429c0.064-0.067,0.182-0.117,0.248-0.147c0.061-0.034,0.127-0.048,0.193-0.048
				c0.123,0,0.219,0.042,0.283,0.124c0.066,0.086,0.182,0.209,0.182,0.372H20.287z M16.775,25.206
				c-0.085,0.102-0.235,0.186-0.34,0.255c-0.102,0.065-0.245,0.099-0.311,0.099c-0.086,0-0.148-0.023-0.188-0.074
				c-0.036-0.051-0.057-0.132-0.057-0.244v-4.078h-0.891v4.407c0,0.285,0.08,0.493,0.188,0.64c0.108,0.141,0.267,0.211,0.48,0.211
				c0.171,0,0.351-0.047,0.534-0.15c0.183-0.104,0.358-0.304,0.527-0.496v-0.002h0.002c0,0.001-0.001,0.001-0.002,0.002v0.631h0.917
				v-5.242h-0.861V25.206z M15.024,19.388h-2.636v0.876h0.865v6.14h0.881v-6.14h0.89V19.388z M18.077,14.965
				c0.147,0,0.213-0.041,0.299-0.124c0.089-0.085,0.134-0.201,0.134-0.348v-2.448c0-0.12-0.045-0.219-0.136-0.291
				c-0.089-0.076-0.15-0.112-0.297-0.112c-0.133,0-0.242,0.036-0.328,0.112c-0.082,0.072-0.124,0.171-0.124,0.291v2.448
				c0,0.15,0.04,0.266,0.116,0.348C17.82,14.924,17.93,14.965,18.077,14.965z M23.377,21.148c-0.4,0-0.725,0.126-0.977,0.378
				c-0.254,0.251-0.379,0.982-0.379,1.379v2.074c0,0.444,0.115,0.792,0.344,1.043c0.23,0.254,0.547,0.382,0.943,0.382
				c0.445,0,0.781-0.12,1.002-0.356c0.227-0.24,0.336-0.596,0.336-1.068v-0.236H23.73v0.208c0,0.272-0.031,0.448-0.09,0.525
				c-0.059,0.079-0.162,0.12-0.309,0.12c-0.145,0-0.246-0.047-0.303-0.14c-0.059-0.095-0.09-0.262-0.09-0.506v-1.169h1.707v-0.877
				c0-0.434-0.105-1.174-0.328-1.408C24.102,21.267,23.787,21.148,23.377,21.148z M23.73,23.065h-0.791v-0.164
				c0-0.193,0.031-0.739,0.094-0.818c0.063-0.086,0.164-0.128,0.305-0.128c0.137,0,0.238,0.042,0.299,0.128
				c0.063,0.079,0.094,0.625,0.094,0.818V23.065z M18.499,1.292c-9.504,0-17.207,7.704-17.207,17.207
				c0,9.504,7.703,17.209,17.207,17.209c9.505,0,17.21-7.705,17.21-17.209C35.709,8.996,28.004,1.292,18.499,1.292z M20.246,10.608
				h0.877v3.888c0,0.133,0.025,0.225,0.072,0.283c0.045,0.058,0.066,0.089,0.17,0.089c0.08,0,0.182-0.37,0.305-0.445
				c0.123-0.079,0.236-0.177,0.338-0.298v-3.517h0.883v5.171h-0.883v-0.936c-0.201,0.223-0.41,0.725-0.631,0.84
				c-0.219,0.117-0.432,0.176-0.637,0.176c-0.256,0-0.172-0.082-0.301-0.247c-0.129-0.162-0.193-0.406-0.193-0.736V10.608z
				 M16.769,12.086c0-0.425,0.147-0.764,0.44-1.021c0.297-0.249,0.421-0.458,0.921-0.458c0.455,0,0.524,0.215,0.817,0.48
				c0.289,0.265,0.435,0.61,0.435,1.03v2.292c0,0.471-0.143,0.84-0.426,1.106c-0.287,0.267-0.349,0.4-0.851,0.4
				c-0.479,0-0.618-0.138-0.906-0.412c-0.287-0.277-0.431-0.649-0.431-1.115V12.086z M13.773,8.873l0.806,2.979h0.076l0.766-2.979
				h1.258l-1.658,4.801v2.216h-0.907v-2.078l-1.584-4.938H13.773z M28.166,24.565c0,1.988-1.576,3.603-3.523,3.603H12.398
				c-1.946,0-3.524-1.614-3.524-3.603v-3.338c0-1.99,1.577-3.604,3.524-3.604h12.245c1.947,0,3.523,1.613,3.523,3.604V24.565z"/>
		</g>
	</g>
</g>
</svg>
