<?xml version="1.0" encoding="utf-8"?>
<!-- Generator: Adobe Illustrator 16.0.0, SVG Export Plug-In . SVG Version: 6.00 Build 0)  -->
<!DOCTYPE svg PUBLIC "-//W3C//DTD SVG 1.1 Tiny//EN" "http://www.w3.org/Graphics/SVG/1.1/DTD/svg11-tiny.dtd">
<svg version="1.1" baseProfile="tiny" id="Layer_1" xmlns="http://www.w3.org/2000/svg" xmlns:xlink="http://www.w3.org/1999/xlink"
	 x="0px" y="0px" width="64px" height="64px" viewBox="0 0 64 64" xml:space="preserve">
<g>
	<g>
		<path fill="#007BB6" d="M34.591,28.641v-0.063c-0.009,0.021-0.027,0.046-0.043,0.063H34.591z M32,0C14.328,0,0,14.327,0,32
			c0,17.672,14.328,32,32,32c17.676,0,32-14.328,32-32C64,14.327,49.676,0,32,0z M24.652,45.015h-7.096V25.148h7.096V45.015z
			 M21.104,22.31c-1.961,0-3.548-1.587-3.548-3.548s1.587-3.547,3.548-3.547c1.957,0,3.548,1.587,3.548,3.547
			S23.062,22.31,21.104,22.31z M48.778,45.01h-7.138V34.768c0-2.571-0.522-4.33-2.948-4.33c-1.848,0-3.394,1.189-3.879,2.33
			c-0.175,0.412-0.223,0.976-0.223,1.552V45.01h-7.133c0,0,0.086-18.057,0-19.851h7.133v3.419c0.896-1.306,2.931-3.425,6.48-3.425
			c4.404,0,7.707,3,7.707,8.882V45.01z"/>
	</g>
</g>
</svg>
