<?xml version="1.0" encoding="utf-8"?>
<!-- Generator: Adobe Illustrator 16.0.3, SVG Export Plug-In . SVG Version: 6.00 Build 0)  -->
<!DOCTYPE svg PUBLIC "-//W3C//DTD SVG 1.1//EN" "http://www.w3.org/Graphics/SVG/1.1/DTD/svg11.dtd">
<svg version="1.1" id="Layer_1" xmlns="http://www.w3.org/2000/svg" xmlns:xlink="http://www.w3.org/1999/xlink" x="0px" y="0px"
	 width="65px" height="65px" viewBox="0 0 65 65" enable-background="new 0 0 65 65" xml:space="preserve">
<g>
	<path fill="#FFFFFF" d="M32.438,0.438C14.73,0.438,0.375,14.792,0.375,32.5S14.73,64.563,32.438,64.563S64.5,50.208,64.5,32.5
		S50.145,0.438,32.438,0.438z M34.562,51.667c-0.951,0.919-2.264,1.35-3.742,1.343c-0.011,0.001-0.023,0.001-0.034,0.001
		c-1.408,0-2.673-0.441-3.605-1.341c-0.955-0.903-1.432-2.167-1.423-3.565c-0.009-1.396,0.468-2.66,1.43-3.546
		c0.942-0.885,2.218-1.314,3.632-1.31c1.473-0.005,2.778,0.415,3.736,1.31c0.961,0.886,1.438,2.149,1.43,3.546
		C35.994,49.503,35.517,50.767,34.562,51.667z M43.143,27.146c-0.499,1.24-1.13,2.318-1.895,3.217
		c-0.737,0.866-1.55,1.634-2.438,2.298c-0.799,0.599-1.529,1.24-2.19,1.913c-0.633,0.654-1.172,1.404-1.62,2.272
		c-0.401,0.765-0.632,1.821-0.632,3.186v0.891h-6.676H26.88l-0.075-0.806c-0.062-0.628-0.093-1.229-0.093-1.803
		c0-1.148,0.12-2.193,0.379-3.13c0.368-1.346,0.881-2.528,1.551-3.543c0.65-0.983,1.398-1.847,2.245-2.582
		c0.777-0.674,1.499-1.317,2.169-1.935c0.635-0.583,1.151-1.183,1.559-1.794c0.343-0.519,0.525-1.135,0.531-1.932
		c-0.009-1.058-0.28-1.769-0.782-2.315c-0.39-0.443-1.341-0.815-2.971-0.808c-0.492,0-1.025,0.052-1.6,0.163
		c-0.581,0.115-1.164,0.278-1.747,0.487c-0.592,0.214-1.157,0.458-1.693,0.737c-0.547,0.28-1.028,0.566-1.443,0.851l-0.83,0.575
		l-3.438-6.601l0.652-0.445c1.395-0.956,2.99-1.738,4.777-2.352c1.842-0.63,4.017-0.933,6.52-0.933
		c3.402-0.002,6.197,0.831,8.243,2.588c2.045,1.739,3.088,4.188,3.076,7.063C43.911,24.259,43.669,25.836,43.143,27.146z"/>
</g>
</svg>
