<?xml version="1.0" encoding="utf-8"?>
<!-- Generator: Adobe Illustrator 16.0.0, SVG Export Plug-In . SVG Version: 6.00 Build 0)  -->
<!DOCTYPE svg PUBLIC "-//W3C//DTD SVG 1.1 Tiny//EN" "http://www.w3.org/Graphics/SVG/1.1/DTD/svg11-tiny.dtd">
<svg version="1.1" baseProfile="tiny" id="Layer_1" xmlns="http://www.w3.org/2000/svg" xmlns:xlink="http://www.w3.org/1999/xlink"
	 x="0px" y="0px" width="64px" height="64px" viewBox="0 0 64 64" xml:space="preserve">
<path fill="#FFFFFF" d="M32,63C14.879,63,1,49.12,1,32C1,14.879,14.879,1,32,1c17.12,0,31,13.879,31,31C63,49.12,49.12,63,32,63z
	 M57.125,29.402c0.049-0.025,0.079-0.066,0.099-0.136c0.04,0.216,0.14,0.406,0.297,0.545c0.004,0.02-0.006,0.016,0.004,0.043
	c0.015,0,0.026-0.011,0.042-0.012c0.164,0.131,0.364,0.22,0.59,0.22c0.348,0,0.639-0.193,0.81-0.468
	c0.011,0.015,0.03,0.032,0.039,0.046c-0.001-0.03-0.005-0.062-0.008-0.093c0.075-0.138,0.128-0.286,0.128-0.455
	c0-0.535-0.433-0.968-0.969-0.968c-0.339,0-0.625,0.185-0.796,0.45c-0.01-0.007-0.001-0.029-0.022-0.021
	c0.025-0.073-0.043-0.262-0.148-0.464v1.002C57.188,29.203,57.158,29.304,57.125,29.402z M12.61,29.111
	c0-0.293-0.668-0.791-0.839-0.791c0-0.052-0.27-0.65-0.374-0.65c0-0.2-0.706-1.105-0.82-0.71c-0.073,0.256,0.542,0.601,0.542,0.898
	c0.114,0,0.596,0.909,0.691,1.07c1.048,1.774-0.785,0.563-0.785-0.189c-0.235-0.117-0.605-1.008-0.605-1.253
	c-0.139-0.11-0.546-0.973-0.511-0.973c0-0.567-0.312-0.837-0.932-0.837c-0.028-0.057-0.551-0.788-0.561-0.788
	c0-0.232-0.418-0.953-0.65-1.068c0-0.481-0.249-1.077-0.139-1.58c0-0.525-0.028-1.118-0.205-1.658
	C5.803,24.055,4.875,27.915,4.875,32c0,11.706,7.43,21.649,17.818,25.451c0.011-0.961,0.083-2.111,0.302-2.111
	c0-0.142,0.123-0.743,0.233-0.743c0-0.37,0.045-0.812,0-1.254c-0.139-0.276,0.183-0.632,0.28-1.067
	c0.537-0.268,0.157-2.971,0.561-2.971c0-1.353,0.301-2.137,0.09-3.389c0.101,0-0.61-0.756-0.606-0.744
	c-0.685,0-1.162-1.098-1.162-1.577c-0.067-0.213-0.234-0.528-0.234-0.79c0.158,0-0.978-1.66-0.978-1.624
	c-0.601-0.333,0.034-0.799,0.094-1.345c-0.521-0.175,0.005-1.579,0.232-1.579c0.023-0.18,0.117-0.303,0.28-0.372
	c0.116,0.464,0.657-0.231,0.232-0.231c0-0.308-0.033-0.962,0-1.115c0-0.473-0.417-1.398-0.744-0.418
	c-0.35-0.173-1.229-0.143-1.306-0.697c0.056-0.271-0.501-0.83-0.698-0.929c0.183-0.477-0.945-1.114-1.35-1.114
	c0-0.104-0.215-0.056-0.279-0.186c-0.414,0-0.51-0.556-0.978-0.556c-0.541,0-1.085-0.372-1.583-0.372
	c-0.167-0.332-0.94-0.203-1.117-0.557c-0.406,0-0.563-0.769-0.576-1.052C13.37,30.315,13.093,29.111,12.61,29.111z M51.855,13.563
	c-0.005,0.013,0.005,0.004-0.015,0.042c0.028,0,0.063,0.033,0.097,0.047C51.911,13.623,51.882,13.593,51.855,13.563z M52.438,14.206
	c0.068,0.131,0.118,0.254,0.103,0.33c0.066,0.001,0.101-0.034,0.154-0.048C52.613,14.39,52.522,14.3,52.438,14.206z M54.124,23.03
	c0.028-0.836-0.699-0.696-0.932-1.161c-0.239,0-0.325-0.185-0.651-0.185c-0.213-0.071-0.38-0.021-0.501,0.15
	c-0.496,0.19-0.196-0.243-0.57-0.243c0.018-0.479-0.173-0.61-0.7-0.557c-0.305,0.682-0.77,1.091-0.699,1.857
	c0.222,0.052,0.184,0.101,0.141,0.325c0.298,0.016,2.095-0.093,2.095-0.279c0.061,0,0.374,0.64,0.374,0.093
	c0.251,0,0.383,0.587,0.979,0.417C53.658,23.567,54.655,23.03,54.124,23.03z M54.217,32.917c0.032-0.171-0.085-0.246-0.187-0.417
	c0.267,0-0.837-2.048-0.837-2.369c-0.166-0.083-0.383-0.668-0.42-0.881c-0.228-0.149-0.465-0.647-0.559-0.929
	c-0.232-0.153-0.792-0.838-0.885-1.16c0.333,0.037,0.839,0.104,0.839-0.325c-0.227,0-0.26-0.278-0.048-0.278
	c-0.07-0.284,0.152-0.491,0.198-0.712c0.059-0.27,0.173-0.683,0.173-1.005c-0.32,0-0.396,0.054-0.65,0.139
	c0,0.188-0.567-0.048-0.653-0.048c-0.121-0.243-1.004,0.318-1.255-0.186c-0.401-0.362-0.293-0.641-0.423-1.153
	c-0.065-0.259-0.419-0.274-0.634-0.318c-0.609-0.12-0.171,0.723-0.203,0.915c0.374,0-0.233,0.461-0.233,0.696
	c-0.628-0.135-0.418-0.835-0.79-1.021c-0.11-0.186-0.021-0.325-0.279-0.325c0-0.249,0.135-0.699-0.141-0.791
	c0-0.119-0.526-0.168-0.605-0.325c-0.333,0-1.108-1.259-1.346-0.834c-0.15,0.271,0.126,0.338,0.182,0.558
	c0.481-0.097,0.435,0.794,1.024,0.695c0.002,0.125,0.018,0.25,0.046,0.373c0.437-0.103,0.387,0.325,0.605,0.325
	c-0.159,0.212-0.662-0.337-0.525,0.124c0.079,0.268,0.036,0.496-0.312,0.758c0-0.289-0.023-1.068-0.325-1.068
	c-0.207-0.411-0.816-0.312-1.073-0.695c-0.212,0-0.292-0.65-0.651-0.697c-0.066,0.096-0.321,0.187-0.42,0.187
	c-0.194,0.392-1.302,0.04-1.302,0.091c-0.019,0.005-0.62,1.478-0.654,1.671c-0.068,0.416-0.405,0.426-0.507,0.819
	c-0.049,0.199-1.264,0.105-1.264,0.25c-0.523-0.175-0.979-0.542-0.979-1.115c-0.044,0,0.099-1.458,0.187-1.671
	c0.105,0.03,0.127,0.066,0.186,0.186c0.322-0.12,1.071,0.079,1.071-0.279c0.313,0.009,0.405,0.133,0.279,0.373
	c0.291,0.054,0.792,0.128,0.792-0.279c-0.171,0-0.186-0.017-0.186-0.186c0.556-0.58-0.421-1.103-0.421-1.393
	c-0.194-0.065-0.6-0.494-0.313-0.333c0.242,0.134,1.128,0.412,0.778-0.179c0.023-0.007,0.04-0.022,0.048-0.045
	c0.098,0.07,0.512,0.498,0.512,0.092c0.115,0,0.557-0.278,0.187-0.278c0.035-0.208,0.025-0.383,0.047-0.511
	c0.589,0.318,0.26-0.217,0.559-0.416c0,0.386,0.318-0.187,0.513-0.187c0.229-0.343,0.755-0.076,0.883-0.466
	c-0.285-0.093-0.231-0.806-0.231-1.065c0.343,0.058,0.724-0.464,0.776-0.106c0.021,0.138,0.036,0.517,0.108,0.57
	c0.507,0.267,0.374-0.154,0.374-0.417c-0.171,0-0.398-0.596-0.422-0.883c-0.14,0.021-0.363,0.078-0.419,0.185
	c-0.508,0-0.854-0.185-1.257-0.185c-0.029-0.061-0.515-0.605-0.467-0.605c-0.28-0.487,0.285-0.345,0.375-0.368
	c0-0.462,1.921-0.381,2.003-1.117c-0.63,0,0.65-1.069,0.65-1.064c0.43-0.367,0.654-0.682,1.189-0.722
	c0.225-0.017,2.724-0.705,2.724-0.394c0.102,0.003,0.435,0.008,0.781,0.021C45.593,7.646,39.127,4.875,32,4.875
	c-6.904,0-13.187,2.601-17.975,6.849c0.042,0.097,0.076,0.191,0.074,0.256c0.255-0.019,0.619-0.182,0.699,0.141
	c-0.125-0.001-0.25-0.016-0.371-0.048c0.088,0.72-0.314,0.279-0.652,0.279c0-0.018-0.15-0.078-0.309-0.121
	c-0.103,0.097-0.212,0.187-0.314,0.285c0.015,0.03-0.004,0.033,0.017,0.068c0.108,0,0.052,0.167,0.361,0.271
	c0.359,0.12,0.752,0.188,1.13,0.247c0.307,0.048,0.482-0.055,0.744-0.055c0-0.04,0.64-0.324,0.188-0.324
	c0.063-0.256-0.052-0.32-0.328-0.324c0.023-0.271,0.669-0.094,0.932-0.094c0.202-0.339,0.006-0.3,0.183-0.608
	c0.214-0.378,0.467-0.051,0.608-0.413c0.211,0.081,0.399,0.194,0.466,0.463c0.168,0.139,1.025,1.404,1.025,0.51
	c0.306,0.103,0.458,0.676,0.466,0.978c0.556-0.082,0.606-0.499,0.606-0.93c0.128,0-0.048-0.208-0.048-0.28
	c0.206-0.077,0.466,0.197,0.466-0.091c0.092,0,0.095,0.089,0.095,0.186c0.289,0.057,0.474-0.033,0.651,0.029
	c0.123,0.043,0.061,0.677,0.004,0.9c-0.07,0.284-0.611,0.288-0.611,0.417c-0.612,0.458,0.722,0.696,0.932,0.975
	c-0.126,0-0.606-0.061-0.606-0.092c-0.303,0-1.034,0.32-1.303,0.092c0.376,0,0.503-0.452,0.558-0.881
	c-0.345-0.129-0.755,0.084-0.853,0.428c-0.163,0.569-0.54-0.022-0.729,0.361c-0.074,0.023-0.746,0.335-0.746,0.23
	c-0.755,0.108-0.558,0.749-0.558,1.439c0.301,0.18,0.913,0.693,0.883,0.975c0.68,0.121,0.928,0.19,1.538,0.279
	c0.052,0.101,0.251,0.19,0.374,0.23c0,0.399,0.364,0.327,0.698,0.327c0-0.51,0.592,0.425,0.652,0.603
	c-0.082,0,0.139,0.521,0.186,0.698c-0.093-0.032-0.122,0-0.093,0.093c0.295,0.107,0.762,0.078,0.838-0.233
	c-0.283,0-0.187-0.323-0.187-0.511c-0.291-0.194-0.246-0.567,0.048-0.649c0,0.264,0.958-0.165,0.418-0.371
	c0.133-0.295,0.221-0.753,0.007-1.008c-0.138-0.164-0.31,0-0.379-0.245c0.366-0.092,0.097-0.789,0.092-1.114
	c0.116-0.044,0.42,0.074,0.42,0c0.358,0,0.954,0.453,1.164-0.095c0.599,0.273,0.122,0.532,0.745,0.326
	c0,0.147,0.704,0.835,0.792,0.835c0,0.033-0.016,0.231,0.139,0.231c0,0.149-0.091-0.086-0.091,0.185
	c0.086,0.008,0.558,0.095,0.558-0.093c0.301,0,0.513-0.369,0.513-0.649c0.188-0.122,0.516,1.021,0.744,1.021
	c0.167,0.26,0.701,0.637,0.701,0.881c0.11,0.115,0.232,0.083,0.232,0.418c0.141,0,0.42-0.556,0.42-0.046
	c0.132,0,0.512,0.282,0.559,0.51c-0.333,0-0.017,0.326-0.188,0.326c0,0.32-0.72,0.065-0.882,0.045
	c-0.224,0.999-1.566,0.281-2.38,0.54c-0.428,0.137-1.255,1.08-1.301,1.55c0.521,0.005,0.748-0.449,1.211-0.605
	c0.378,0,0.451-0.228,0.793-0.324c0,0.096,0.093,0.045,0.093,0.139c-0.664,0-0.261,0.429-0.067,0.741
	c0.121,0.194,0.26,0.288,0.413,0.347c-0.064,0.113-0.117,0.226-0.157,0.35c0,0.001-0.003,0-0.003,0.002
	c-0.125,0.042-0.372,0.134-0.42,0.232c-0.75,0.084-0.381,0.034-0.33-0.147c0.027,0.065,0.297,0.006,0.284,0.009
	c-0.044-0.225-0.113-0.193-0.045-0.325c-0.407,0-0.605,0.186-0.933,0.186c-0.056,0.111-0.339,0.372-0.466,0.372
	c-0.096,0.288-0.31,0.809-0.559,0.975c0-0.075-0.664,0.417-0.607,0.417c-0.147,0.239-0.308,0.23-0.373,0.603
	c-0.045,0.023-0.233,0.646-0.233,0.743c-0.288,0.192-0.396,0.975-0.884,0.975c-0.301,0.598-0.838,0.517-0.838,1.3
	c0.183,0.187,0.253,1.009,0.308,1.275c0.069,0.327,0.179,0.667-0.262,0.675c-0.029-0.05-0.336-0.51-0.28-0.51
	c0-0.193-0.233-0.805-0.373-0.997c-0.183-0.257-0.524,0.04-0.793-0.071c-0.114-0.229-0.886-0.279-1.162-0.279
	c0.044,0.172,0.171,0.227,0.186,0.418c-0.229,0.094-0.361,0.197-0.595,0.163c-0.405-0.057-0.357-0.372-0.803-0.327
	c-0.713,0.072-1.21,0.663-1.21,1.369c-0.078,0-0.078,1.392,0,1.392c0,0.394,0.326,0.677,0.326,0.975c0.317,0,0.67,0.695,0.979,0.695
	c0.035,0.245-0.155,0.285,0.372,0.279c0-0.027,0.288-0.179,0.327-0.373c-0.365-0.089-0.003-0.557,0.232-0.649
	c0,0.332,0.466-0.11,0.466-0.139c0.051-0.021,0.513-0.185,0.512-0.185c0-0.376,0.35,0.036,0.092,0.185
	c-0.253,0-0.233,0.418-0.372,0.418c-0.06,0.297-0.178,0.558-0.249,0.848c-0.09,0.357,0.202,0.394,0.109,0.729
	c0.372,0.068,0.745,0.003,1.118,0c0.001-0.066-0.013-0.129-0.046-0.185c0.54,0,0.046,1.021,0.374,1.021
	c0,0.386,0.185,0.688,0.185,0.929c0.251,0.167,0.405,0.39,0.326,0.697c0.309,0.042,0.978,0.122,0.978-0.279
	c0.469,0,0.504,0.321,0.468,0.649c0.938,0,0.351-0.929,0.743-0.929c0.036-0.151,0.1-0.18,0.19-0.079
	c0.191,0.102,0.337-0.191,0.49-0.287c0.049-0.031,0.219-0.129,0.25-0.129c0.133,0.075,0.145,0.056,0.201,0.143
	c0.256-0.002,0.513-0.143,0.733-0.299c0.335,0.044,0.227,0.76,0.855,0.806c0.253,0.019,0.835,0.089,1.053-0.061
	c0.055-0.036,0.253,0.124,0.275,0.193c0.209,0,0.191,0.183,0.284,0.179c0.021,0.041,0.051,0.057,0.093,0.045
	c0.026,0.079,0.195,0.103,0.281,0.323c0,0.202,0.418,0.239,0.418,0.372c0.301,0.15-0.103,0.191,0.357,0.333
	c0.255,0.078,0.489,0.207,0.763,0.224c0.084-0.33,0.37,0.048,0.511,0.048c0.074,0.149,0.111,0.035,0.184,0.186
	c0.431,0.357,0.146,0.221,0.326,0.602c0.207,0.137,0.272,0.61,0.327,0.883c-0.167,0-0.047,0.635-0.047,0.695
	c-0.202,0,0.513,0.385,0.513-0.092c0.295,0.048,0.487,0.371,0.698,0.371c-0.122,0.278,0.326,0.489,0.326,0.048
	c0.441,0.046,0.324,0.706,0.28,0.928c0.328,0,0.422-0.183,0.7-0.219c0.303-0.191,0.637-0.331,1.021-0.331
	c1.069,0,1.938,0.869,1.938,1.938c0,0.964-0.718,1.729-1.643,1.878c-0.125,0.143-0.237,0.262-0.244,0.262
	c0,0.093-0.022,1.022-0.05,1.022c0,0.183-0.142,1.206-0.278,1.206c0,0.524-0.344,0.622-0.466,1.114
	c-0.282,0.21-1.048,0.559-1.164,0.791c-0.222,0-0.384,0.185-0.607,0.185c-0.032,0.064-0.505,0.51-0.418,0.51
	c-0.037,0.33,0.022,1.104-0.156,1.321c-0.119,0.144-0.292,0.129-0.217,0.351c-0.262,0,0.014,0.183-0.396,0.183
	c-0.261,0-0.723,0.373-0.737,0.686c-0.019,0.385-0.121,0.66-0.451,0.896c0,0.132-0.606,0.17-0.606,0.509c0.057,0,0,0.632,0,0.699
	c-0.18-0.007-0.622,0.173-0.699,0.322c-0.608,0-0.534,0.062-0.931,0.325c0,0.082-0.056,0.372-0.14,0.372
	c0,0.47-0.333,0.042-0.606,0.277c0.106,0,0.243,0.466,0.187,0.466c0,0.408-0.253,0.442-0.512,0.742
	c-0.123,0.084-0.238,0.418-0.326,0.418c0,0.275-0.138,0.526-0.138,0.791c0.058,0,0.002,0.117,0.044,0.23
	c0.131-0.037,0.134-0.185,0.187-0.185c0-0.232,0.369,0.14,0.14,0.14c-0.192,0.289-0.398,0.296-0.513,0.697
	c-0.116,0-0.217,0.111-0.302,0.245c2.286,0.625,4.68,0.986,7.164,0.986c9.54,0,17.915-4.938,22.751-12.384
	c0.028-0.686,0.138-1.343,0.213-1.567c0.188,0.141,0.33,0.402,0.465,0c-0.334-0.066-0.253-0.182-0.14-0.463
	c0.128,0.078,0.386,0.17,0.593,0.157c0.063-0.119,0.114-0.249,0.177-0.368c-0.188-0.148,0.072-0.53,0.165-0.344
	c0.048-0.094,0.091-0.188,0.137-0.281c-0.021-0.006-0.018,0.009-0.048-0.002c0-0.167,0.029-0.147,0.141-0.232
	c0.004,0.018,0.002,0.018,0.006,0.032c1.69-3.54,2.667-7.488,2.667-11.673c0-0.137-0.018-0.27-0.02-0.406
	c-0.053,0.189-0.147,0.395-0.278,0.441c0,0.123-1.387,0.724-1.304,0.975c-0.243,0-1.102,0.245-1.257,0.559
	c-0.173,0-0.87,0.245-0.932,0.371C54.47,33.939,54.633,32.917,54.217,32.917z M58.156,22.313h-1.03
	c-0.008-0.011-0.015-0.013-0.022-0.025c-0.053,0-0.27-0.493-0.185-0.604c0.085,0,0.123,0.007,0.168,0.011
	c-0.088-0.213-0.183-0.423-0.275-0.633c-0.211,0.143-0.394,0.327-0.684,0.344c0,0.08-0.412,0.882,0,0.882
	c0,0.016,0.009,0.026,0.011,0.042c-0.495,0.043-0.887,0.445-0.887,0.952c0,0.535,0.433,0.969,0.969,0.969h0.383
	c0.021,0.176,0.117,0.329,0.457,0.404c0.107,0.449,0.905,0.607,1.026,0.138c-0.339,0-0.226-0.323-0.197-0.542h0.269
	c0.535,0,0.969-0.434,0.969-0.969C59.127,22.746,58.69,22.313,58.156,22.313z M55.334,34.909c0.066,0.005,0.513-0.007,0.513-0.089
	c0.404,0,0.952-0.057,1.353-0.185c0,0.599-0.506,0.938-0.422,1.532c-0.334,0-0.187,0.344-0.187,0.463
	c-0.218,0.135-0.251,0.38-0.511,0.511c0,0.271-0.604,0.715-0.783,0.947c-0.2,0.258-0.808,0.706-0.888,1.033
	c0.021-0.078-1.108,1.178-0.844,1.178c0,0.234-0.317,2.087,0.093,2.087c0,0.165,0.351,1.72,0.14,1.72
	c0,0.502-0.325,0.805-0.325,1.203c-0.158,0.107-0.386,0.169-0.466,0.327c-0.285,0-0.422,0.605-0.559,0.605
	c0,0.645-0.187,1.124-0.187,1.854c0.054,0-0.372,1.046-0.372,1.115c-0.342,0.229-1.211,1.058-1.211,1.487c0,0-0.605,0.849-0.7,0.974
	c-0.179,0-1.582,0.264-1.582,0.371c-0.303,0-1.071,0.237-1.258-0.046c0-0.296-0.161-0.667-0.187-1.068
	c-0.144,0-0.165-0.602-0.325-0.602c0-0.129-0.888-1.907-0.745-1.907c0-0.182-0.158-0.787-0.187-0.787
	c0-0.642-0.467-1.174-0.467-1.765c-0.138,0-0.42-1.299-0.277-1.299c0-0.68,0.239-1.128,0.338-1.886
	c0.108-0.829-0.054-1.337-0.197-1.923c-0.079,0-0.346-0.443-0.374-0.556c-0.375-0.249-0.512-0.741-0.512-1.206
	c0.244-0.277,0.342-1.325,0.279-1.672c-0.469-0.225-0.656-0.141-1.164-0.141c-0.301-0.602-2.317-0.231-2.89-0.231
	c0,0.33-1.403-0.063-1.536-0.326c-0.342,0-1.024-0.727-1.024-1.067c-0.376-0.25-0.976-1.492-0.976-1.903
	c-0.326-0.163-0.227-0.789-0.05-0.789c0.044-0.176-0.111-0.724-0.189-0.986c-0.056-0.194,0.189-0.408,0.189-0.639
	c0-0.647,0.017-0.947,0.379-1.637c0.113-0.218,0.26-0.421,0.365-0.692c0.196-0.486,0.253-0.022,0.516-0.456
	c0.249-0.124,0.395-0.539,0.652-0.743c0.11-0.149,0.114-0.211,0-0.327c0.051,0,0.325-0.713,0.325-0.879
	c0.361-0.506,0.104-0.276,0.466-0.233c0.131-0.145,0.351-0.511,0.559-0.511c0.091-0.179,0.319-0.278,0.511-0.278
	c0,0.278,0.76-0.092,0.84-0.092c0.129-0.263,0.965-0.557,1.163-0.557c0-0.319,1.647,0.088,1.91,0.045c0-0.045,0-0.094,0-0.14
	c0.352,0.084,0.994,1.498,0.932,1.811c0.27,0,0.521-0.045,0.7,0c0,0.301,0.565,0.375,0.822,0.387
	c0.357,0.019,1.411-0.036,1.411-0.527c0.275,0,0.521,0.194,0.467,0.511c0.314,0.034,2.182,0.071,2.046,0.462
	c0.274,0,0.345,0.467,0.608,0.467c-0.056,0.321,0.324,1.16,0.604,1.16c0,0.279,0.176,0.793,0.422,0.974
	c0.131,0.398,0.567,1.241,0.977,1.485c-0.174,0.33,0.264,0.602,0.374,0.929c-0.024,0,0.094,0.487,0.231,0.557
	c0,0.332,0.693,1.672,1.072,1.672C55.219,34.799,54.836,34.875,55.334,34.909z M45.275,24.516c0.068-0.276,0.232-0.062,0.386-0.012
	c0.356,0.116,0.233-0.005,0.498-0.126C46.161,25.132,45.726,24.56,45.275,24.516z M44.298,23.124c0.186,0,0.241,0.853-0.281,0.695
	c0-0.212-0.136-0.603,0.143-0.603C44.239,23.545,44.298,23.411,44.298,23.124z M44.063,22.565c0.218,0.094,0.31,0.063,0.277-0.092
	c0.285,0.092-0.036,0.295-0.093,0.51C44.106,22.841,44.15,22.79,44.063,22.565z M39.079,18.434
	c-0.459-0.117,0.472-0.253,0.512-0.371c-0.154,0-0.263-0.161-0.204-0.296c0.069-0.161,0.185,0.19,0.346,0.111
	c0.187-0.02,0.557-0.3,0.367,0.243c-0.193,0.55-0.37,0.952-1.067,0.963C38.783,18.833,39.022,18.702,39.079,18.434z M40.804,16.532
	c0.379,0,0.048,0.278-0.033,0.279c0.062,0.026-0.014,0.251-0.014,0.325c0.348-0.004,0.354-0.216,0.604-0.279
	c-0.054,0.311-0.4,0.373-0.062,0.639c0.182,0.142,0.367,0.309,0.295,0.522c0.445,0,0.509,0.427,0.42,0.929
	c0.244,0,0.232,0.011,0.232-0.233c0.24,0.066,0.223,0.279,0,0.279c-0.222,0.436-0.8,0.417-1.212,0.417
	c-0.002-0.337-0.067-0.358-0.379-0.264c-0.427,0.129-0.094-0.338-0.086-0.571c0.048,0,0.967,0.042,0.419-0.14
	c-0.028-0.5-0.142-0.65-0.605-0.65c0-0.342-0.118-0.316-0.176-0.689C40.128,16.542,40.64,17.132,40.804,16.532z M40.663,19.547
	c0,0.116-0.234,0.207-0.279,0.046c0.045,0.015,0.062,0,0.045-0.046C40.508,19.547,40.586,19.547,40.663,19.547z M36.844,14.562
	h-1.938c-0.536,0-0.969-0.434-0.969-0.968c0-0.535,0.433-0.969,0.969-0.969h1.938c0.534,0,0.969,0.434,0.969,0.969
	C37.813,14.128,37.378,14.562,36.844,14.562z M25.557,31.71c0.107,0,0.235,0.042,0.235,0.139
	C25.649,31.85,25.467,31.982,25.557,31.71z M23.788,31.804c-0.076,0.147-0.706,0.122-0.792-0.048c0.232,0,0.414,0.096,0.652,0
	c0-0.127-0.105-0.23-0.186-0.37c0.252,0,0.539,0.192,0.884,0.186c0-0.215-0.094,0.045,0-0.234c0.146,0.037,0.496,0.37,0.512,0.511
	C24.348,31.794,24.325,31.804,23.788,31.804z M21.739,30.69c-0.237,0-0.698-0.207-0.838-0.418c0.231,0.01,0.461,0.105,0.606-0.14
	c0.589,0.061,0.643,0.466,1.117,0.466c0.089,0.158,0.597,0.516,0.107,0.564C22.36,31.198,21.893,30.997,21.739,30.69z M22.112,31.99
	c-0.173,0-0.458,0.074-0.327-0.279C22.014,31.74,22.124,31.835,22.112,31.99z M22.437,31.942c-0.093,0.017-0.186,0.032-0.28,0.046
	C22.184,31.775,22.387,31.535,22.437,31.942z M24.159,33.985c-0.037,0.13-0.03,0.141-0.185,0.141
	c0.015-0.063,0.029-0.126,0.044-0.186C24.069,33.954,24.114,33.968,24.159,33.985z M19.968,30.132
	c0.045,0.016,0.094,0.033,0.14,0.045c0.061,0.232,0.186,0.117,0.327,0.049C20.434,30.494,19.808,30.573,19.968,30.132z"/>
</svg>
