<?xml version="1.0" encoding="utf-8"?>
<!-- Generator: Adobe Illustrator 16.0.0, SVG Export Plug-In . SVG Version: 6.00 Build 0)  -->
<!DOCTYPE svg PUBLIC "-//W3C//DTD SVG 1.1 Tiny//EN" "http://www.w3.org/Graphics/SVG/1.1/DTD/svg11-tiny.dtd">
<svg version="1.1" baseProfile="tiny" xmlns="http://www.w3.org/2000/svg" xmlns:xlink="http://www.w3.org/1999/xlink" x="0px"
	 y="0px" width="469.423px" height="48.342px" viewBox="0 0 469.423 48.342" xml:space="preserve">
<g id="Layer_1">
	<g>
		<rect y="2.205" fill="#AA0000" width="35.098" height="34.846"/>
		<polygon fill="none" stroke="#FFFFFF" stroke-width="1.0845" points="4.565,13.526 29.983,13.476 17.274,4.445 		"/>
		<path fill="none" stroke="#FFFFFF" stroke-width="1.0845" d="M13.878,33.904c1.017,0,1.839-0.822,1.839-1.839V16.849
			c0-1.016-0.822-1.84-1.839-1.84l0,0c-1.016,0-1.839,0.824-1.839,1.84v15.217C12.039,33.082,12.862,33.904,13.878,33.904
			L13.878,33.904z"/>
		<path fill="none" stroke="#FFFFFF" stroke-width="1.0845" d="M20.182,33.883c1.017,0,1.84-0.824,1.84-1.84V16.825
			c0-1.015-0.823-1.839-1.84-1.839l0,0c-1.016,0-1.841,0.824-1.841,1.839v15.218C18.341,33.059,19.167,33.883,20.182,33.883
			L20.182,33.883z"/>
		<path fill="none" stroke="#FFFFFF" stroke-width="1.0845" d="M25.889,15.081c-1.016,0-1.588,0.823-1.588,1.84v15.215
			c0,1.017,0.572,1.842,1.588,1.842"/>
		<path fill="none" stroke="#FFFFFF" stroke-width="1.0845" d="M8.053,34.01c1.017,0,1.589-0.821,1.589-1.837V16.955
			c0-1.018-0.572-1.841-1.589-1.841"/>
		<rect x="1.013" y="3.345" fill="none" stroke="#FFFFFF" stroke-width="1.0544" width="33.072" height="32.69"/>
	</g>
	<g>
		<path fill="#231F20" d="M51.055,21.755c0,5.218,0,7.214-0.967,9.499c-0.676,1.609-2.094,3.124-4.701,4.928
			c-0.418,0.289-0.935,0.644-1.256,0.803c-0.064,0.034-0.129,0.066-0.226,0.066s-0.226-0.066-0.226-0.193
			c0-0.193,0.161-0.291,0.451-0.484c0.386-0.225,0.838-0.611,1.127-0.9c2.094-2.125,3.092-3.832,3.092-12.138v-9.308
			c0-5.023,0-5.925-0.065-6.954c-0.063-1.096-0.32-1.611-1.384-1.837c-0.257-0.064-0.806-0.097-1.094-0.097
			c-0.131,0-0.258-0.064-0.258-0.193c0-0.194,0.161-0.257,0.514-0.257c1.448,0,3.479,0.097,3.64,0.097s2.188-0.097,3.154-0.097
			c0.354,0,0.515,0.063,0.515,0.257c0,0.129-0.129,0.193-0.258,0.193c-0.226,0-0.418,0.032-0.803,0.097
			c-0.871,0.161-1.127,0.708-1.19,1.837c-0.065,1.029-0.065,1.931-0.065,6.954V21.755z"/>
		<path fill="#231F20" d="M55.907,18.302c0-5.644,3.22-8.479,7.522-8.479c4.072,0,7.835,3.326,7.835,9.51
			c0,7.497-4.794,8.838-7.112,8.838C59.513,28.17,55.907,24.305,55.907,18.302z M53.458,19.022c0,4.638,2.937,10.127,9.998,10.127
			c6.209,0,10.28-4.768,10.28-10.538c0-6.006-4.329-9.663-10.129-9.663C56.497,8.948,53.458,14.848,53.458,19.022z"/>
		<path fill="#231F20" d="M91.901,21.315c0,2.474,0,4.509,0.128,5.592c0.076,0.748,0.232,1.314,1.006,1.417
			c0.359,0.052,0.926,0.103,1.159,0.103c0.154,0,0.204,0.078,0.204,0.156c0,0.129-0.129,0.205-0.41,0.205
			c-1.418,0-3.04-0.076-3.169-0.076c-0.131,0-1.753,0.076-2.526,0.076c-0.282,0-0.412-0.051-0.412-0.205
			c0-0.078,0.051-0.156,0.206-0.156c0.23,0,0.54-0.051,0.773-0.103c0.515-0.103,0.644-0.669,0.747-1.417
			c0.13-1.083,0.13-3.118,0.13-5.592v-2.704c0-0.104-0.079-0.155-0.155-0.155H78.656c-0.076,0-0.154,0.025-0.154,0.155v2.704
			c0,2.474,0,4.509,0.129,5.592c0.076,0.748,0.23,1.314,1.005,1.417c0.358,0.052,0.929,0.103,1.16,0.103
			c0.153,0,0.205,0.078,0.205,0.156c0,0.129-0.129,0.205-0.412,0.205c-1.419,0-3.04-0.076-3.169-0.076s-1.754,0.076-2.525,0.076
			c-0.284,0-0.413-0.051-0.413-0.205c0-0.078,0.051-0.156,0.205-0.156c0.234,0,0.543-0.051,0.774-0.103
			c0.517-0.103,0.643-0.669,0.748-1.417c0.129-1.083,0.129-3.118,0.129-5.592v-4.534c0-4.021,0-4.742-0.053-5.566
			c-0.053-0.876-0.258-1.288-1.107-1.469c-0.206-0.053-0.646-0.077-0.877-0.077c-0.102,0-0.205-0.051-0.205-0.154
			c0-0.155,0.128-0.208,0.412-0.208c1.158,0,2.783,0.079,2.912,0.079s1.75-0.079,2.524-0.079c0.285,0,0.414,0.053,0.414,0.208
			c0,0.104-0.104,0.154-0.208,0.154c-0.179,0-0.335,0.024-0.644,0.077c-0.695,0.13-0.903,0.567-0.953,1.469
			c-0.052,0.824-0.052,1.545-0.052,5.566v0.541c0,0.128,0.078,0.154,0.154,0.154h10.926c0.076,0,0.155-0.026,0.155-0.154v-0.541
			c0-4.021,0-4.742-0.053-5.566c-0.052-0.876-0.257-1.288-1.107-1.469c-0.206-0.053-0.646-0.077-0.877-0.077
			c-0.104,0-0.207-0.051-0.207-0.154c0-0.155,0.129-0.208,0.415-0.208c1.158,0,2.78,0.079,2.911,0.079
			c0.129,0,1.751-0.079,2.524-0.079c0.284,0,0.412,0.053,0.412,0.208c0,0.104-0.104,0.154-0.205,0.154
			c-0.183,0-0.337,0.024-0.645,0.077c-0.696,0.13-0.902,0.567-0.953,1.469c-0.052,0.824-0.052,1.545-0.052,5.566V21.315z"/>
		<path fill="#231F20" d="M98.19,25.285c0.053,2.112,0.31,2.78,1.006,2.988c0.489,0.129,1.055,0.153,1.287,0.153
			c0.13,0,0.205,0.053,0.205,0.156c0,0.154-0.151,0.205-0.461,0.205c-1.47,0-2.501-0.076-2.733-0.076
			c-0.231,0-1.313,0.076-2.473,0.076c-0.258,0-0.413-0.026-0.413-0.205c0-0.104,0.077-0.156,0.207-0.156
			c0.206,0,0.67-0.024,1.057-0.153c0.646-0.182,0.774-0.928,0.774-3.273l0.023-14.765c0-1.004,0.078-1.287,0.284-1.287
			s0.644,0.566,0.902,0.824c0.387,0.438,4.226,4.586,8.193,8.839c2.552,2.729,5.359,5.873,6.184,6.724l-0.281-13.089
			c-0.027-1.675-0.207-2.241-1.007-2.448c-0.464-0.104-1.056-0.129-1.262-0.129c-0.181,0-0.207-0.078-0.207-0.181
			c0-0.154,0.207-0.182,0.516-0.182c1.159,0,2.397,0.079,2.679,0.079c0.284,0,1.135-0.079,2.191-0.079
			c0.284,0,0.464,0.027,0.464,0.182c0,0.103-0.104,0.181-0.284,0.181c-0.128,0-0.308,0-0.617,0.077
			c-0.852,0.181-0.953,0.747-0.953,2.293l-0.052,15.099c0,1.703-0.053,1.831-0.233,1.831c-0.203,0-0.514-0.284-1.881-1.648
			c-0.283-0.258-3.993-4.047-6.726-6.983c-2.988-3.222-5.899-6.467-6.724-7.396L98.19,25.285z"/>
		<path fill="#231F20" d="M154.191,24.878c0.129,1.16,0.354,2.964,1.738,3.413c0.933,0.291,1.77,0.291,2.095,0.291
			c0.16,0,0.256,0.032,0.256,0.16c0,0.194-0.291,0.291-0.675,0.291c-0.711,0-4.187-0.097-5.379-0.193
			c-0.742-0.065-0.902-0.161-0.902-0.323c0-0.129,0.066-0.192,0.227-0.226c0.161-0.032,0.193-0.579,0.128-1.158l-1.544-16.616
			h-0.098l-7.889,16.744c-0.676,1.418-0.774,1.708-1.065,1.708c-0.223,0-0.384-0.323-0.996-1.481
			c-0.837-1.578-3.607-7.149-3.766-7.471c-0.291-0.579-3.897-8.308-4.251-9.177h-0.13l-1.287,14.94
			c-0.033,0.516-0.033,1.095-0.033,1.642c0,0.483,0.354,0.902,0.836,0.998c0.548,0.129,1.031,0.162,1.226,0.162
			c0.128,0,0.257,0.063,0.257,0.16c0,0.227-0.193,0.291-0.58,0.291c-1.188,0-2.735-0.097-2.993-0.097
			c-0.29,0-1.837,0.097-2.705,0.097c-0.324,0-0.548-0.064-0.548-0.291c0-0.097,0.161-0.16,0.324-0.16c0.258,0,0.481,0,0.963-0.097
			c1.063-0.194,1.161-1.449,1.289-2.673l2.319-20.995c0.064-0.353,0.162-0.579,0.354-0.579s0.321,0.129,0.482,0.482l9.854,20.256
			l9.467-20.225c0.128-0.287,0.258-0.514,0.482-0.514c0.227,0,0.321,0.258,0.389,0.869L154.191,24.878z"/>
		<path fill="#231F20" d="M164.321,20.26c-0.076,0-0.129-0.052-0.076-0.181l2.268-6.958c0.129-0.387,0.258-0.387,0.387,0
			l2.447,6.958c0.026,0.103,0.026,0.181-0.104,0.181H164.321z M160.714,25.953c-0.464,1.288-0.98,2.269-2.164,2.423
			c-0.207,0.026-0.567,0.051-0.748,0.051c-0.129,0-0.231,0.053-0.231,0.156c0,0.154,0.152,0.205,0.49,0.205
			c1.21,0,2.626-0.076,2.912-0.076c0.282,0,1.39,0.076,2.008,0.076c0.234,0,0.386-0.051,0.386-0.205
			c0-0.104-0.078-0.156-0.256-0.156h-0.259c-0.438,0-0.978-0.231-0.978-0.746c0-0.464,0.129-1.083,0.359-1.728l1.547-4.56
			c0.051-0.13,0.129-0.207,0.259-0.207h5.537c0.131,0,0.183,0.053,0.233,0.154l2.397,6.34c0.153,0.411,0,0.644-0.156,0.695
			c-0.104,0.026-0.182,0.077-0.182,0.18c0,0.156,0.286,0.156,0.773,0.182c1.78,0.051,3.66,0.051,4.047,0.051
			c0.284,0,0.515-0.051,0.515-0.205c0-0.13-0.102-0.156-0.258-0.156c-0.257,0-0.644-0.024-1.03-0.153
			c-0.54-0.155-1.286-0.567-2.216-2.859c-1.572-3.918-5.616-14.561-6.003-15.538c-0.311-0.8-0.414-0.928-0.569-0.928
			c-0.153,0-0.256,0.154-0.566,1.004L160.714,25.953z"/>
		<path fill="#231F20" d="M181.521,10.597c0-0.154,0.075-0.258,0.204-0.31c0.258-0.077,0.954-0.155,1.728-0.155
			c2.757,0,4.459,1.933,4.459,5.153c0,1.959-0.671,3.35-1.573,3.969c-0.594,0.413-1.315,0.489-1.934,0.489
			c-1.133,0-2.317-0.179-2.702-0.411c-0.129-0.078-0.182-0.181-0.182-0.31V10.597z M179.459,21.315c0,2.474,0,4.509-0.128,5.592
			c-0.105,0.748-0.233,1.314-0.748,1.417c-0.232,0.052-0.544,0.103-0.774,0.103c-0.152,0-0.206,0.078-0.206,0.156
			c0,0.154,0.129,0.205,0.413,0.205c0.772,0,2.396-0.076,2.423-0.076c0.127,0,1.751,0.076,3.169,0.076
			c0.281,0,0.412-0.076,0.412-0.205c0-0.078-0.053-0.156-0.207-0.156c-0.232,0-0.799-0.051-1.16-0.103
			c-0.771-0.103-0.928-0.669-1.003-1.417c-0.129-1.083-0.129-3.118-0.129-5.592v-0.617c0-0.129,0.053-0.207,0.182-0.207l3.168,0.052
			c0.152,0,0.231,0.051,0.335,0.155c0.515,0.669,1.726,2.395,2.808,3.813c1.468,1.932,2.371,3.195,3.479,3.788
			c0.67,0.36,1.314,0.489,2.757,0.489h1.83c0.465,0,0.618-0.051,0.618-0.205c0-0.078-0.104-0.156-0.232-0.156
			c-0.155,0-0.515,0-1.003-0.076c-0.646-0.104-1.753-0.387-3.146-1.854c-1.494-1.6-3.244-3.892-5.36-6.598
			c2.32-2.14,3.119-4.046,3.119-5.952c0-1.778-1.132-3.041-1.777-3.504c-1.366-0.98-3.092-1.136-4.717-1.136
			c-0.799,0-2.755,0.079-3.04,0.079c-0.128,0-1.752-0.079-2.912-0.079c-0.282,0-0.411,0.053-0.411,0.208
			c0,0.104,0.104,0.154,0.206,0.154c0.233,0,0.67,0.024,0.876,0.077c0.849,0.181,1.056,0.593,1.108,1.469
			c0.052,0.824,0.052,1.545,0.052,5.566V21.315z"/>
		<path fill="#231F20" d="M196.981,28.453c-0.361-0.18-0.386-0.283-0.386-0.979c0-1.289,0.103-2.318,0.128-2.732
			c0.027-0.283,0.078-0.412,0.206-0.412c0.154,0,0.181,0.079,0.181,0.283c0,0.233,0,0.593,0.077,0.953
			c0.388,1.908,2.087,2.629,3.814,2.629c2.474,0,3.686-1.778,3.686-3.428c0-1.776-0.748-2.809-2.965-4.636l-1.159-0.955
			c-2.73-2.242-3.352-3.84-3.352-5.591c0-2.757,2.063-4.638,5.335-4.638c1.006,0,1.753,0.103,2.397,0.257
			c0.488,0.102,0.696,0.129,0.901,0.129c0.206,0,0.257,0.052,0.257,0.181S206,10.493,206,12.246c0,0.412-0.051,0.593-0.182,0.593
			c-0.156,0-0.179-0.129-0.205-0.336c-0.026-0.31-0.182-1.004-0.335-1.288c-0.155-0.284-0.851-1.366-3.222-1.366
			c-1.777,0-3.17,1.107-3.17,2.99c0,1.468,0.723,2.345,3.143,4.328l0.723,0.567c3.042,2.397,3.762,3.994,3.762,6.055
			c0,1.058-0.412,3.016-2.189,4.276c-1.107,0.775-2.499,1.084-3.891,1.084C199.223,29.149,198.038,28.969,196.981,28.453z"/>
		<path fill="#231F20" d="M225.302,21.315c0,2.474,0,4.509,0.129,5.592c0.076,0.748,0.232,1.314,1.004,1.417
			c0.36,0.052,0.929,0.103,1.16,0.103c0.153,0,0.206,0.078,0.206,0.156c0,0.129-0.128,0.205-0.413,0.205
			c-1.415,0-3.039-0.076-3.168-0.076s-1.754,0.076-2.524,0.076c-0.284,0-0.413-0.051-0.413-0.205c0-0.078,0.052-0.156,0.205-0.156
			c0.232,0,0.543-0.051,0.775-0.103c0.513-0.103,0.643-0.669,0.746-1.417c0.129-1.083,0.129-3.118,0.129-5.592v-2.704
			c0-0.104-0.078-0.155-0.155-0.155h-10.925c-0.077,0-0.155,0.025-0.155,0.155v2.704c0,2.474,0,4.509,0.128,5.592
			c0.079,0.748,0.233,1.314,1.006,1.417c0.361,0.052,0.927,0.103,1.16,0.103c0.154,0,0.205,0.078,0.205,0.156
			c0,0.129-0.129,0.205-0.41,0.205c-1.418,0-3.042-0.076-3.171-0.076s-1.751,0.076-2.524,0.076c-0.284,0-0.413-0.051-0.413-0.205
			c0-0.078,0.051-0.156,0.207-0.156c0.23,0,0.541-0.051,0.772-0.103c0.517-0.103,0.646-0.669,0.747-1.417
			c0.129-1.083,0.129-3.118,0.129-5.592v-4.534c0-4.021,0-4.742-0.052-5.566c-0.05-0.876-0.257-1.288-1.108-1.469
			c-0.207-0.053-0.645-0.077-0.875-0.077c-0.104,0-0.207-0.051-0.207-0.154c0-0.155,0.129-0.208,0.413-0.208
			c1.16,0,2.782,0.079,2.911,0.079s1.753-0.079,2.525-0.079c0.283,0,0.412,0.053,0.412,0.208c0,0.104-0.103,0.154-0.206,0.154
			c-0.18,0-0.335,0.024-0.645,0.077c-0.695,0.13-0.9,0.567-0.953,1.469c-0.052,0.824-0.052,1.545-0.052,5.566v0.541
			c0,0.128,0.078,0.154,0.155,0.154h10.925c0.077,0,0.155-0.026,0.155-0.154v-0.541c0-4.021,0-4.742-0.052-5.566
			c-0.053-0.876-0.26-1.288-1.108-1.469c-0.207-0.053-0.644-0.077-0.874-0.077c-0.105,0-0.208-0.051-0.208-0.154
			c0-0.155,0.129-0.208,0.412-0.208c1.158,0,2.783,0.079,2.912,0.079s1.753-0.079,2.525-0.079c0.283,0,0.412,0.053,0.412,0.208
			c0,0.104-0.103,0.154-0.207,0.154c-0.178,0-0.334,0.024-0.645,0.077c-0.695,0.13-0.901,0.567-0.952,1.469
			c-0.052,0.824-0.052,1.545-0.052,5.566V21.315z"/>
		<path fill="#231F20" d="M234.513,20.26c-0.078,0-0.128-0.052-0.078-0.181l2.269-6.958c0.128-0.387,0.257-0.387,0.387,0
			l2.448,6.958c0.026,0.103,0.026,0.181-0.104,0.181H234.513z M230.906,25.953c-0.465,1.288-0.979,2.269-2.165,2.423
			c-0.206,0.026-0.567,0.051-0.745,0.051c-0.129,0-0.233,0.053-0.233,0.156c0,0.154,0.153,0.205,0.49,0.205
			c1.211,0,2.627-0.076,2.911-0.076c0.283,0,1.392,0.076,2.011,0.076c0.231,0,0.384-0.051,0.384-0.205
			c0-0.104-0.076-0.156-0.255-0.156h-0.259c-0.438,0-0.979-0.231-0.979-0.746c0-0.464,0.129-1.083,0.359-1.728l1.547-4.56
			c0.053-0.13,0.13-0.207,0.259-0.207h5.539c0.13,0,0.182,0.053,0.232,0.154l2.396,6.34c0.154,0.411,0,0.644-0.155,0.695
			c-0.103,0.026-0.18,0.077-0.18,0.18c0,0.156,0.283,0.156,0.773,0.182c1.777,0.051,3.658,0.051,4.046,0.051
			c0.282,0,0.514-0.051,0.514-0.205c0-0.13-0.103-0.156-0.258-0.156c-0.256,0-0.644-0.024-1.028-0.153
			c-0.543-0.155-1.289-0.567-2.218-2.859c-1.571-3.918-5.616-14.561-6.004-15.538c-0.309-0.8-0.41-0.928-0.565-0.928
			c-0.157,0-0.259,0.154-0.567,1.004L230.906,25.953z"/>
		<path fill="#231F20" d="M252.532,21.367c0,3.789,0.102,5.438,0.564,5.899c0.414,0.414,1.084,0.594,3.093,0.594
			c1.366,0,2.499-0.025,3.117-0.772c0.336-0.412,0.593-1.057,0.671-1.546c0.026-0.207,0.077-0.336,0.233-0.336
			c0.126,0,0.154,0.104,0.154,0.387s-0.181,1.829-0.388,2.577c-0.18,0.592-0.259,0.695-1.623,0.695
			c-3.712,0-5.412-0.153-6.907-0.153c-0.103,0-0.54,0.025-1.056,0.025c-0.516,0.024-1.082,0.051-1.469,0.051
			c-0.282,0-0.411-0.051-0.411-0.205c0-0.078,0.051-0.156,0.205-0.156c0.231,0,0.542-0.051,0.772-0.103
			c0.516-0.103,0.645-0.669,0.747-1.417c0.13-1.083,0.13-3.118,0.13-5.592v-4.534c0-4.021,0-4.742-0.053-5.566
			c-0.051-0.876-0.258-1.288-1.108-1.469c-0.204-0.053-0.643-0.077-0.874-0.077c-0.104,0-0.207-0.051-0.207-0.154
			c0-0.155,0.129-0.208,0.412-0.208c1.16,0,2.785,0.079,2.911,0.079c0.131,0,2.011-0.079,2.783-0.079
			c0.285,0,0.412,0.053,0.412,0.208c0,0.104-0.102,0.154-0.205,0.154c-0.181,0-0.542,0.024-0.851,0.077
			c-0.746,0.13-0.953,0.567-1.005,1.469c-0.05,0.824-0.05,1.545-0.05,5.566V21.367z"/>
		<path fill="#231F20" d="M265.636,21.367c0,3.789,0.104,5.438,0.569,5.899c0.411,0.414,1.082,0.594,3.09,0.594
			c1.368,0,2.5-0.025,3.119-0.772c0.336-0.412,0.593-1.057,0.669-1.546c0.026-0.207,0.079-0.336,0.233-0.336
			c0.129,0,0.153,0.104,0.153,0.387s-0.18,1.829-0.387,2.577c-0.181,0.592-0.257,0.695-1.623,0.695
			c-3.711,0-5.412-0.153-6.905-0.153c-0.104,0-0.542,0.025-1.057,0.025c-0.516,0.024-1.082,0.051-1.468,0.051
			c-0.284,0-0.412-0.051-0.412-0.205c0-0.078,0.05-0.156,0.206-0.156c0.232,0,0.539-0.051,0.771-0.103
			c0.516-0.103,0.646-0.669,0.748-1.417c0.129-1.083,0.129-3.118,0.129-5.592v-4.534c0-4.021,0-4.742-0.053-5.566
			c-0.051-0.876-0.257-1.288-1.107-1.469c-0.207-0.053-0.645-0.077-0.875-0.077c-0.105,0-0.207-0.051-0.207-0.154
			c0-0.155,0.129-0.208,0.412-0.208c1.16,0,2.783,0.079,2.912,0.079c0.131,0,2.011-0.079,2.782-0.079
			c0.283,0,0.412,0.053,0.412,0.208c0,0.104-0.103,0.154-0.205,0.154c-0.18,0-0.541,0.024-0.851,0.077
			c-0.747,0.13-0.953,0.567-1.006,1.469c-0.052,0.824-0.052,1.545-0.052,5.566V21.367z"/>
		<path fill="#231F20" d="M290.364,19.76c0,4.733,0.129,6.794,0.707,7.373c0.517,0.515,1.354,0.741,3.864,0.741
			c1.706,0,3.124-0.032,3.897-0.967c0.418-0.517,0.74-1.32,0.837-1.931c0.032-0.258,0.096-0.419,0.29-0.419
			c0.16,0,0.19,0.129,0.19,0.481c0,0.355-0.223,2.288-0.48,3.22c-0.226,0.741-0.322,0.87-2.029,0.87
			c-4.637,0-6.762-0.192-8.631-0.192c-0.287,0-2.188,0.097-3.154,0.097c-0.354,0-0.515-0.064-0.515-0.259
			c0-0.096,0.064-0.192,0.258-0.192c0.291,0,0.675-0.065,0.965-0.129c0.646-0.129,0.807-0.838,0.936-1.772
			c0.159-1.352,0.159-3.896,0.159-6.986v-5.667c0-5.023,0-5.925-0.063-6.954c-0.064-1.096-0.322-1.611-1.386-1.837
			c-0.257-0.064-0.804-0.097-1.094-0.097c-0.129,0-0.258-0.064-0.258-0.193c0-0.194,0.159-0.257,0.516-0.257
			c1.448,0,3.478,0.097,3.637,0.097c0.162,0,2.514-0.097,3.48-0.097c0.354,0,0.514,0.063,0.514,0.257
			c0,0.129-0.129,0.193-0.257,0.193c-0.227,0-0.677,0.032-1.064,0.097c-0.932,0.161-1.189,0.708-1.255,1.837
			c-0.063,1.029-0.063,1.931-0.063,6.954V19.76z"/>
		<path fill="#231F20" d="M306.946,20.26c-0.078,0-0.128-0.052-0.078-0.181l2.268-6.958c0.129-0.387,0.258-0.387,0.387,0
			l2.449,6.958c0.025,0.103,0.025,0.181-0.103,0.181H306.946z M303.338,25.953c-0.464,1.288-0.981,2.269-2.164,2.423
			c-0.206,0.026-0.567,0.051-0.746,0.051c-0.131,0-0.233,0.053-0.233,0.156c0,0.154,0.154,0.205,0.49,0.205
			c1.211,0,2.627-0.076,2.911-0.076c0.282,0,1.392,0.076,2.011,0.076c0.23,0,0.384-0.051,0.384-0.205
			c0-0.104-0.075-0.156-0.255-0.156h-0.259c-0.438,0-0.979-0.231-0.979-0.746c0-0.464,0.128-1.083,0.361-1.728l1.547-4.56
			c0.051-0.13,0.128-0.207,0.256-0.207h5.54c0.129,0,0.181,0.053,0.231,0.154l2.398,6.34c0.152,0.411,0,0.644-0.156,0.695
			c-0.102,0.026-0.18,0.077-0.18,0.18c0,0.156,0.283,0.156,0.773,0.182c1.777,0.051,3.659,0.051,4.045,0.051
			c0.283,0,0.516-0.051,0.516-0.205c0-0.13-0.103-0.156-0.258-0.156c-0.258,0-0.644-0.024-1.03-0.153
			c-0.542-0.155-1.288-0.567-2.218-2.859c-1.57-3.918-5.615-14.561-6.003-15.538c-0.309-0.8-0.413-0.928-0.565-0.928
			c-0.155,0-0.259,0.154-0.567,1.004L303.338,25.953z"/>
		<path fill="#231F20" d="M335.467,25.233h0.103c0.697-2.371,3.068-9.845,3.969-13.143c0.258-0.953,0.284-1.314,0.284-1.648
			c0-0.465-0.284-0.773-1.469-0.773c-0.129,0-0.232-0.078-0.232-0.181c0-0.129,0.129-0.182,0.438-0.182
			c1.315,0,2.397,0.079,2.628,0.079c0.181,0,1.289-0.079,2.089-0.079c0.231,0,0.36,0.053,0.36,0.155
			c0,0.129-0.078,0.207-0.233,0.207c-0.103,0-0.591,0.024-0.875,0.129c-0.773,0.283-1.185,1.365-1.676,2.783
			c-1.133,3.271-3.736,11.466-4.74,14.353c-0.669,1.907-0.798,2.216-1.084,2.216c-0.257,0-0.411-0.336-0.771-1.339l-5.051-14.328
			h-0.051c-0.928,2.475-4.458,11.904-5.386,14.301c-0.413,1.082-0.541,1.366-0.85,1.366c-0.259,0-0.388-0.284-0.902-2.036
			l-4.585-15.28c-0.413-1.365-0.749-1.752-1.418-2.011c-0.337-0.129-0.98-0.153-1.161-0.153c-0.129,0-0.231-0.025-0.231-0.181
			c0-0.129,0.155-0.182,0.412-0.182c1.339,0,2.757,0.079,3.04,0.079c0.233,0,1.365-0.079,2.656-0.079
			c0.359,0,0.463,0.079,0.463,0.182c0,0.155-0.13,0.181-0.258,0.181c-0.205,0-0.695,0-1.006,0.153
			c-0.153,0.078-0.334,0.284-0.334,0.62c0,0.334,0.232,1.235,0.489,2.37c0.387,1.648,3.065,11.105,3.453,12.473h0.052l5.462-14.688
			c0.387-1.056,0.49-1.186,0.645-1.186c0.182,0,0.335,0.335,0.644,1.212L335.467,25.233z"/>
		<path fill="#231F20" d="M355.043,28.614c-0.449-0.227-0.481-0.355-0.481-1.225c0-1.609,0.13-2.896,0.161-3.412
			c0.031-0.354,0.096-0.516,0.257-0.516c0.194,0,0.226,0.097,0.226,0.354c0,0.29,0,0.741,0.098,1.19
			c0.483,2.383,2.607,3.284,4.766,3.284c3.092,0,4.604-2.221,4.604-4.282c0-2.221-0.936-3.51-3.702-5.795l-1.45-1.193
			c-3.413-2.799-4.187-4.797-4.187-6.986c0-3.444,2.577-5.796,6.667-5.796c1.254,0,2.189,0.129,2.993,0.323
			c0.612,0.128,0.871,0.159,1.128,0.159s0.322,0.064,0.322,0.226s-0.129,1.224-0.129,3.414c0,0.516-0.064,0.741-0.226,0.741
			c-0.192,0-0.225-0.162-0.258-0.419c-0.032-0.387-0.226-1.258-0.419-1.609c-0.192-0.356-1.061-1.708-4.025-1.708
			c-2.222,0-3.959,1.386-3.959,3.736c0,1.835,0.899,2.93,3.928,5.407l0.901,0.71c3.801,2.995,4.701,4.99,4.701,7.566
			c0,1.321-0.515,3.769-2.737,5.345c-1.385,0.968-3.124,1.353-4.862,1.353C357.846,29.482,356.364,29.258,355.043,28.614z"/>
		<path fill="#231F20" d="M371.793,26.366c-2.499-2.241-3.116-5.18-3.116-7.626c0-1.729,0.592-4.741,2.886-7.036
			c1.545-1.546,3.89-2.756,7.859-2.756c1.029,0,2.474,0.076,3.735,0.309c0.979,0.181,1.804,0.334,2.628,0.387
			c0.284,0.025,0.335,0.129,0.335,0.283c0,0.205-0.077,0.516-0.13,1.442c-0.049,0.851-0.049,2.268-0.075,2.654
			s-0.077,0.541-0.233,0.541c-0.18,0-0.206-0.181-0.206-0.541c0-1.006-0.411-2.062-1.081-2.628
			c-0.902-0.772-2.886-1.469-5.153-1.469c-3.427,0-5.024,1.004-5.927,1.882c-1.88,1.802-2.32,4.097-2.32,6.724
			c0,4.923,3.789,9.432,9.303,9.432c1.932,0,3.451-0.232,4.482-1.288c0.543-0.566,0.878-1.7,0.954-2.165
			c0.052-0.283,0.104-0.386,0.257-0.386c0.13,0,0.182,0.18,0.182,0.386c0,0.181-0.31,2.423-0.567,3.3
			c-0.153,0.488-0.205,0.54-0.669,0.745c-1.031,0.413-2.988,0.594-4.639,0.594C376.433,29.149,373.831,28.195,371.793,26.366z"/>
		<path fill="#231F20" d="M406.49,21.315c0,2.474,0,4.509,0.129,5.592c0.075,0.748,0.23,1.314,1.004,1.417
			c0.36,0.052,0.927,0.103,1.159,0.103c0.154,0,0.207,0.078,0.207,0.156c0,0.129-0.129,0.205-0.412,0.205
			c-1.419,0-3.041-0.076-3.169-0.076c-0.129,0-1.754,0.076-2.525,0.076c-0.284,0-0.413-0.051-0.413-0.205
			c0-0.078,0.05-0.156,0.206-0.156c0.23,0,0.541-0.051,0.773-0.103c0.515-0.103,0.644-0.669,0.748-1.417
			c0.127-1.083,0.127-3.118,0.127-5.592v-2.704c0-0.104-0.076-0.155-0.153-0.155h-10.926c-0.076,0-0.155,0.025-0.155,0.155v2.704
			c0,2.474,0,4.509,0.129,5.592c0.079,0.748,0.232,1.314,1.005,1.417c0.362,0.052,0.928,0.103,1.159,0.103
			c0.156,0,0.206,0.078,0.206,0.156c0,0.129-0.129,0.205-0.411,0.205c-1.418,0-3.04-0.076-3.169-0.076s-1.753,0.076-2.525,0.076
			c-0.284,0-0.413-0.051-0.413-0.205c0-0.078,0.052-0.156,0.208-0.156c0.23,0,0.54-0.051,0.771-0.103
			c0.518-0.103,0.645-0.669,0.748-1.417c0.129-1.083,0.129-3.118,0.129-5.592v-4.534c0-4.021,0-4.742-0.053-5.566
			c-0.051-0.876-0.257-1.288-1.107-1.469c-0.206-0.053-0.645-0.077-0.877-0.077c-0.102,0-0.205-0.051-0.205-0.154
			c0-0.155,0.129-0.208,0.412-0.208c1.159,0,2.783,0.079,2.912,0.079s1.751-0.079,2.524-0.079c0.284,0,0.413,0.053,0.413,0.208
			c0,0.104-0.105,0.154-0.207,0.154c-0.179,0-0.335,0.024-0.644,0.077c-0.695,0.13-0.903,0.567-0.953,1.469
			c-0.053,0.824-0.053,1.545-0.053,5.566v0.541c0,0.128,0.079,0.154,0.155,0.154h10.926c0.077,0,0.153-0.026,0.153-0.154v-0.541
			c0-4.021,0-4.742-0.05-5.566c-0.053-0.876-0.258-1.288-1.108-1.469c-0.207-0.053-0.646-0.077-0.877-0.077
			c-0.104,0-0.207-0.051-0.207-0.154c0-0.155,0.131-0.208,0.413-0.208c1.159,0,2.784,0.079,2.913,0.079
			c0.128,0,1.75-0.079,2.525-0.079c0.282,0,0.411,0.053,0.411,0.208c0,0.104-0.104,0.154-0.205,0.154
			c-0.182,0-0.335,0.024-0.645,0.077c-0.696,0.13-0.902,0.567-0.954,1.469c-0.051,0.824-0.051,1.545-0.051,5.566V21.315z"/>
		<path fill="#231F20" d="M412.381,18.302c0-5.644,3.222-8.479,7.524-8.479c4.072,0,7.834,3.326,7.834,9.51
			c0,7.497-4.793,8.838-7.111,8.838C415.99,28.17,412.381,24.305,412.381,18.302z M409.933,19.022
			c0,4.638,2.938,10.127,9.998,10.127c6.21,0,10.282-4.768,10.282-10.538c0-6.006-4.329-9.663-10.128-9.663
			C412.974,8.948,409.933,14.848,409.933,19.022z"/>
		<path fill="#231F20" d="M434.527,18.302c0-5.644,3.221-8.479,7.524-8.479c4.07,0,7.833,3.326,7.833,9.51
			c0,7.497-4.793,8.838-7.111,8.838C438.135,28.17,434.527,24.305,434.527,18.302z M432.081,19.022
			c0,4.638,2.936,10.127,9.996,10.127c6.212,0,10.281-4.768,10.281-10.538c0-6.006-4.329-9.663-10.126-9.663
			C435.12,8.948,432.081,14.848,432.081,19.022z"/>
		<path fill="#231F20" d="M457.837,21.367c0,3.789,0.104,5.438,0.569,5.899c0.411,0.414,1.08,0.594,3.091,0.594
			c1.365,0,2.499-0.025,3.119-0.772c0.333-0.412,0.592-1.057,0.667-1.546c0.028-0.207,0.079-0.336,0.232-0.336
			c0.13,0,0.156,0.104,0.156,0.387s-0.182,1.829-0.389,2.577c-0.179,0.592-0.256,0.695-1.622,0.695c-3.711,0-5.41-0.153-6.903-0.153
			c-0.105,0-0.543,0.025-1.06,0.025c-0.515,0.024-1.081,0.051-1.468,0.051c-0.283,0-0.412-0.051-0.412-0.205
			c0-0.078,0.052-0.156,0.205-0.156c0.233,0,0.541-0.051,0.773-0.103c0.516-0.103,0.645-0.669,0.749-1.417
			c0.129-1.083,0.129-3.118,0.129-5.592v-4.534c0-4.021,0-4.742-0.054-5.566c-0.051-0.876-0.257-1.288-1.105-1.469
			c-0.207-0.053-0.646-0.077-0.877-0.077c-0.104,0-0.206-0.051-0.206-0.154c0-0.155,0.129-0.208,0.411-0.208
			c1.16,0,2.783,0.079,2.914,0.079c0.126,0,2.008-0.079,2.781-0.079c0.283,0,0.411,0.053,0.411,0.208
			c0,0.104-0.102,0.154-0.207,0.154c-0.179,0-0.539,0.024-0.85,0.077c-0.746,0.13-0.952,0.567-1.003,1.469
			c-0.054,0.824-0.054,1.545-0.054,5.566V21.367z"/>
		<g>
			<path fill="#231F20" d="M58.621,4.337c0,0.867,0,1.581,0.045,1.96c0.026,0.263,0.081,0.462,0.352,0.498
				c0.128,0.018,0.326,0.035,0.407,0.035c0.053,0,0.072,0.027,0.072,0.055c0,0.046-0.046,0.072-0.146,0.072
				c-0.497,0-1.065-0.026-1.11-0.026s-0.616,0.026-0.886,0.026c-0.101,0-0.146-0.019-0.146-0.072c0-0.027,0.018-0.055,0.074-0.055
				c0.08,0,0.188-0.018,0.271-0.035c0.181-0.036,0.227-0.235,0.262-0.498c0.045-0.379,0.045-1.093,0.045-1.96V0.516l-1.336,0.017
				c-0.562,0.009-0.778,0.072-0.921,0.29c-0.101,0.153-0.128,0.217-0.156,0.279c-0.026,0.073-0.055,0.091-0.091,0.091
				c-0.026,0-0.044-0.025-0.044-0.082c0-0.09,0.18-0.866,0.199-0.939C55.53,0.118,55.566,0,55.604,0C55.666,0,55.755,0.091,56,0.108
				c0.262,0.027,0.605,0.045,0.713,0.045h3.39c0.578,0,0.821-0.091,0.894-0.091c0.046,0,0.046,0.055,0.046,0.109
				c0,0.271-0.027,0.893-0.027,0.996c0,0.08-0.028,0.115-0.063,0.115c-0.047,0-0.064-0.026-0.073-0.152l-0.009-0.1
				c-0.037-0.271-0.243-0.479-1.109-0.498l-1.14-0.017V4.337z"/>
			<path fill="#231F20" d="M65.512,4.884c0,0.656,0,1.194,0.034,1.48c0.021,0.198,0.06,0.348,0.266,0.376
				c0.095,0.014,0.246,0.026,0.308,0.026c0.04,0,0.054,0.02,0.054,0.041c0,0.035-0.034,0.054-0.108,0.054
				c-0.375,0-0.805-0.019-0.839-0.019c-0.033,0-0.464,0.019-0.67,0.019c-0.074,0-0.107-0.012-0.107-0.054
				c0-0.021,0.014-0.041,0.055-0.041c0.061,0,0.142-0.013,0.204-0.026c0.137-0.028,0.171-0.178,0.197-0.376
				c0.033-0.286,0.033-0.824,0.033-1.48V4.169c0-0.028-0.019-0.042-0.04-0.042h-2.892c-0.021,0-0.039,0.008-0.039,0.042v0.715
				c0,0.656,0,1.194,0.031,1.48c0.021,0.198,0.063,0.348,0.267,0.376c0.097,0.014,0.246,0.026,0.309,0.026
				c0.039,0,0.054,0.02,0.054,0.041c0,0.035-0.034,0.054-0.11,0.054c-0.373,0-0.803-0.019-0.838-0.019s-0.465,0.019-0.668,0.019
				c-0.076,0-0.11-0.012-0.11-0.054c0-0.021,0.016-0.041,0.056-0.041c0.063,0,0.143-0.013,0.204-0.026
				c0.137-0.028,0.17-0.178,0.199-0.376c0.031-0.286,0.031-0.824,0.031-1.48V3.685c0-1.064,0-1.255-0.013-1.474
				c-0.014-0.233-0.067-0.341-0.293-0.389c-0.056-0.014-0.169-0.021-0.23-0.021c-0.029,0-0.056-0.015-0.056-0.042
				c0-0.04,0.033-0.053,0.109-0.053c0.306,0,0.735,0.021,0.771,0.021s0.465-0.021,0.668-0.021c0.076,0,0.109,0.013,0.109,0.053
				c0,0.027-0.027,0.042-0.054,0.042c-0.051,0-0.09,0.007-0.17,0.021c-0.187,0.034-0.24,0.149-0.253,0.389
				c-0.013,0.219-0.013,0.409-0.013,1.474v0.142c0,0.035,0.019,0.043,0.039,0.043h2.892c0.021,0,0.04-0.008,0.04-0.043V3.685
				c0-1.064,0-1.255-0.014-1.474c-0.014-0.233-0.067-0.341-0.292-0.389c-0.055-0.014-0.17-0.021-0.23-0.021
				c-0.028,0-0.056-0.015-0.056-0.042c0-0.04,0.033-0.053,0.108-0.053c0.308,0,0.738,0.021,0.771,0.021
				c0.034,0,0.464-0.021,0.668-0.021c0.075,0,0.11,0.013,0.11,0.053c0,0.027-0.028,0.042-0.058,0.042
				c-0.046,0-0.088,0.007-0.169,0.021c-0.185,0.034-0.238,0.149-0.251,0.389c-0.015,0.219-0.015,0.409-0.015,1.474V4.884z"/>
			<path fill="#231F20" d="M67.183,3.685c0-1.064,0-1.255-0.015-1.474c-0.013-0.233-0.069-0.341-0.293-0.389
				c-0.056-0.014-0.171-0.021-0.232-0.021c-0.026,0-0.054-0.015-0.054-0.042c0-0.04,0.035-0.053,0.109-0.053
				c0.308,0,0.737,0.021,0.77,0.021c0.049,0,1.406,0,1.562-0.008c0.13-0.008,0.239-0.021,0.294-0.034
				c0.034-0.006,0.063-0.035,0.096-0.035c0.021,0,0.027,0.029,0.027,0.062c0,0.048-0.034,0.131-0.055,0.322
				c-0.006,0.067-0.021,0.368-0.034,0.45c-0.006,0.034-0.021,0.074-0.048,0.074c-0.041,0-0.054-0.034-0.054-0.089
				c0-0.047-0.007-0.164-0.04-0.245c-0.049-0.109-0.117-0.19-0.486-0.231c-0.116-0.016-0.858-0.021-0.935-0.021
				c-0.027,0-0.041,0.021-0.041,0.068v1.883c0,0.048,0.008,0.067,0.041,0.067c0.089,0,0.929,0,1.085-0.013
				c0.163-0.015,0.26-0.027,0.32-0.096c0.049-0.056,0.075-0.089,0.104-0.089c0.02,0,0.032,0.015,0.032,0.056
				c0,0.04-0.032,0.157-0.054,0.38c-0.014,0.139-0.026,0.39-0.026,0.438c0,0.055,0,0.13-0.05,0.13c-0.033,0-0.047-0.027-0.047-0.061
				c0-0.069,0-0.137-0.027-0.227c-0.027-0.095-0.089-0.21-0.354-0.237c-0.184-0.021-0.86-0.034-0.976-0.034
				c-0.035,0-0.049,0.019-0.049,0.048v0.599c0,0.232-0.005,1.023,0,1.167c0.021,0.47,0.124,0.559,0.792,0.559
				c0.178,0,0.478,0,0.654-0.073c0.177-0.075,0.259-0.212,0.307-0.494c0.015-0.072,0.027-0.1,0.062-0.1
				c0.042,0,0.042,0.054,0.042,0.1c0,0.056-0.055,0.521-0.089,0.664c-0.049,0.177-0.103,0.177-0.368,0.177
				c-1.032,0-1.487-0.04-1.686-0.04c-0.014,0-0.13,0.007-0.272,0.007c-0.137,0.006-0.294,0.012-0.396,0.012
				c-0.074,0-0.109-0.012-0.109-0.054c0-0.021,0.014-0.041,0.055-0.041c0.061,0,0.144-0.013,0.206-0.026
				c0.136-0.028,0.169-0.178,0.196-0.376c0.035-0.286,0.035-0.824,0.035-1.48V3.685z"/>
		</g>
	</g>
	<g id="Layer_3" display="none">
		<g display="inline">
			<path d="M228.482,43.85c0,1.345,0,2.451,0.07,3.04c0.042,0.406,0.126,0.714,0.547,0.771c0.195,0.028,0.504,0.056,0.63,0.056
				c0.084,0,0.112,0.042,0.112,0.084c0,0.07-0.07,0.112-0.225,0.112c-0.771,0-1.652-0.042-1.723-0.042s-0.952,0.042-1.373,0.042
				c-0.154,0-0.224-0.028-0.224-0.112c0-0.042,0.027-0.084,0.112-0.084c0.126,0,0.294-0.027,0.42-0.056
				c0.28-0.057,0.35-0.364,0.406-0.771c0.07-0.589,0.07-1.695,0.07-3.04v-5.925l-2.073,0.028c-0.869,0.014-1.205,0.111-1.429,0.448
				c-0.154,0.237-0.196,0.336-0.238,0.434c-0.042,0.112-0.084,0.141-0.141,0.141c-0.042,0-0.069-0.042-0.069-0.126
				c0-0.141,0.279-1.345,0.308-1.457c0.028-0.084,0.084-0.267,0.141-0.267c0.098,0,0.237,0.141,0.616,0.168
				c0.406,0.042,0.938,0.07,1.106,0.07h5.253c0.448,0,0.771-0.028,0.994-0.07c0.21-0.027,0.336-0.069,0.393-0.069
				c0.07,0,0.07,0.084,0.07,0.168c0,0.42-0.042,1.387-0.042,1.541c0,0.126-0.043,0.182-0.099,0.182c-0.07,0-0.098-0.042-0.112-0.238
				l-0.014-0.153c-0.042-0.421-0.378-0.743-1.723-0.771l-1.766-0.028V43.85z"/>
			<path d="M241.896,44.452c0,1.148,0.014,2.087,0.07,2.577c0.042,0.351,0.069,0.574,0.448,0.631
				c0.168,0.028,0.448,0.056,0.546,0.056c0.084,0,0.112,0.057,0.112,0.099c0,0.056-0.07,0.098-0.21,0.098
				c-0.673,0-1.457-0.042-1.527-0.042c-0.056,0-0.854,0.042-1.219,0.042c-0.14,0-0.196-0.028-0.196-0.098
				c0-0.042,0.028-0.099,0.099-0.099c0.112,0,0.252-0.027,0.364-0.056c0.252-0.057,0.294-0.294,0.336-0.645
				c0.056-0.49,0.056-1.387,0.056-2.535v-1.19c0-0.057-0.027-0.07-0.069-0.07h-5.142c-0.042,0-0.069,0.014-0.069,0.07v1.19
				c0,1.148,0,2.059,0.056,2.549c0.042,0.351,0.084,0.574,0.448,0.631c0.183,0.028,0.448,0.056,0.561,0.056
				c0.07,0,0.098,0.057,0.098,0.099c0,0.056-0.056,0.098-0.196,0.098c-0.686,0-1.471-0.042-1.526-0.042
				c-0.07,0-0.854,0.042-1.232,0.042c-0.126,0-0.196-0.028-0.196-0.098c0-0.042,0.028-0.099,0.098-0.099
				c0.112,0,0.267-0.027,0.379-0.056c0.238-0.057,0.266-0.28,0.322-0.631c0.069-0.49,0.069-1.429,0.069-2.577v-2.101
				c0-1.85,0-2.186-0.027-2.563c-0.028-0.406-0.099-0.603-0.505-0.659c-0.098-0.014-0.308-0.027-0.42-0.027
				c-0.042,0-0.098-0.057-0.098-0.099c0-0.069,0.056-0.098,0.195-0.098c0.561,0,1.345,0.028,1.415,0.028
				c0.056,0,0.841-0.028,1.219-0.028c0.14,0,0.196,0.028,0.196,0.098c0,0.042-0.057,0.099-0.099,0.099c-0.084,0-0.168,0-0.308,0.027
				c-0.336,0.07-0.406,0.238-0.435,0.659c-0.014,0.378-0.014,0.742-0.014,2.591v0.252c0,0.07,0.027,0.07,0.069,0.07h5.142
				c0.042,0,0.069,0,0.069-0.07v-0.252c0-1.849-0.014-2.213-0.027-2.591c-0.028-0.406-0.084-0.603-0.49-0.659
				c-0.099-0.014-0.309-0.027-0.421-0.027c-0.056,0-0.098-0.057-0.098-0.099c0-0.069,0.056-0.098,0.196-0.098
				c0.546,0,1.345,0.028,1.4,0.028c0.07,0,0.854-0.028,1.219-0.028c0.14,0,0.21,0.028,0.21,0.098c0,0.042-0.056,0.099-0.112,0.099
				c-0.084,0-0.153,0-0.308,0.027c-0.322,0.07-0.393,0.238-0.42,0.659c-0.028,0.378-0.028,0.714-0.028,2.563V44.452z"/>
			<path d="M245.756,42.352c0-1.85,0-2.186-0.027-2.563c-0.028-0.406-0.099-0.603-0.505-0.659c-0.098-0.014-0.308-0.027-0.42-0.027
				c-0.042,0-0.098-0.057-0.098-0.099c0-0.069,0.056-0.098,0.195-0.098c0.561,0,1.359,0.028,1.429,0.028
				c0.084,0,2.662,0.014,2.942,0c0.237-0.015,0.462-0.057,0.56-0.07c0.057-0.014,0.112-0.056,0.168-0.056
				c0.042,0,0.057,0.056,0.057,0.111c0,0.084-0.07,0.225-0.099,0.561c-0.014,0.112-0.042,0.645-0.069,0.784
				c-0.015,0.057-0.057,0.126-0.112,0.126c-0.07,0-0.098-0.056-0.098-0.153c0-0.084-0.015-0.28-0.07-0.421
				c-0.084-0.195-0.21-0.28-0.883-0.364c-0.21-0.027-1.639-0.042-1.779-0.042c-0.056,0-0.069,0.042-0.069,0.126v3.236
				c0,0.084,0,0.126,0.069,0.126c0.154,0,1.779,0,2.06-0.028c0.294-0.027,0.477-0.042,0.603-0.168
				c0.084-0.084,0.14-0.154,0.182-0.154s0.07,0.028,0.07,0.099c0,0.069-0.07,0.266-0.098,0.658
				c-0.028,0.238-0.057,0.687-0.057,0.771c0,0.098-0.027,0.224-0.112,0.224c-0.056,0-0.084-0.042-0.084-0.111
				c0-0.112,0-0.238-0.056-0.393c-0.042-0.168-0.154-0.309-0.63-0.364c-0.337-0.042-1.653-0.056-1.863-0.056
				c-0.07,0-0.084,0.042-0.084,0.084v0.994c0,0.406-0.015,1.793,0,2.031c0.027,0.799,0.252,0.952,1.471,0.952
				c0.322,0,0.91,0,1.232-0.126c0.322-0.14,0.49-0.35,0.561-0.826c0.028-0.14,0.056-0.183,0.126-0.183s0.084,0.099,0.084,0.183
				s-0.098,0.896-0.168,1.148c-0.084,0.309-0.21,0.309-0.687,0.309c-0.925,0-1.639-0.028-2.144-0.042
				c-0.518-0.028-0.84-0.028-1.022-0.028c-0.027,0-0.266,0-0.532,0.014c-0.238,0.015-0.518,0.028-0.714,0.028
				c-0.126,0-0.196-0.028-0.196-0.098c0-0.042,0.028-0.099,0.098-0.099c0.112,0,0.267-0.042,0.379-0.056
				c0.238-0.042,0.266-0.28,0.322-0.631c0.069-0.49,0.069-1.429,0.069-2.577V42.352z"/>
			<path d="M261.872,37.126c3.152,0,5.506,1.989,5.506,5.253c0,3.138-2.214,5.729-5.59,5.729c-3.838,0-5.435-2.983-5.435-5.505
				C256.353,40.334,258.006,37.126,261.872,37.126z M262.167,47.576c1.261,0,3.866-0.729,3.866-4.805
				c0-3.362-2.046-5.169-4.259-5.169c-2.339,0-4.09,1.541-4.09,4.608C257.684,45.475,259.645,47.576,262.167,47.576z"/>
			<path d="M269.779,42.352c0-1.85,0-2.186-0.027-2.563c-0.028-0.406-0.099-0.603-0.505-0.659c-0.098-0.014-0.308-0.027-0.42-0.027
				c-0.042,0-0.099-0.057-0.099-0.099c0-0.069,0.057-0.098,0.196-0.098c0.561,0,1.331,0.028,1.401,0.028
				c0.238,0,2.913,0.014,3.193,0c0.238-0.015,0.448-0.015,0.561-0.057c0.07-0.014,0.126-0.069,0.168-0.069
				c0.056,0,0.084,0.056,0.084,0.111c0,0.084-0.056,0.225-0.098,0.561c-0.015,0.112-0.028,0.645-0.057,0.784
				c-0.014,0.057-0.056,0.126-0.112,0.126c-0.056,0-0.098-0.056-0.098-0.14c0-0.098-0.042-0.294-0.112-0.448
				c-0.069-0.154-0.364-0.351-0.84-0.351l-2.018-0.027c-0.07,0-0.098,0.027-0.098,0.126v3.25c0,0.069,0,0.111,0.084,0.111
				l1.681-0.014c0.21,0,0.393,0,0.561-0.014c0.294-0.028,0.462-0.07,0.574-0.211c0.056-0.069,0.112-0.126,0.154-0.126
				c0.056,0,0.069,0.042,0.069,0.099c0,0.069-0.084,0.266-0.111,0.658c-0.028,0.238-0.042,0.714-0.042,0.799
				c0,0.111-0.028,0.237-0.112,0.237c-0.07,0-0.084-0.056-0.084-0.111c-0.014-0.126-0.028-0.295-0.084-0.435
				c-0.057-0.168-0.252-0.322-0.631-0.378c-0.308-0.042-1.765-0.028-1.975-0.028c-0.07,0-0.084,0.028-0.084,0.112v0.952
				c0,1.177,0,2.115,0.056,2.577c0.042,0.351,0.112,0.574,0.448,0.631c0.183,0.028,0.448,0.056,0.561,0.056
				c0.07,0,0.098,0.057,0.098,0.099c0,0.056-0.056,0.098-0.195,0.098c-0.687,0-1.485-0.042-1.541-0.042
				c-0.07,0-0.841,0.042-1.219,0.042c-0.126,0-0.196-0.028-0.196-0.098c0-0.042,0.028-0.099,0.098-0.099
				c0.112,0,0.267-0.042,0.379-0.056c0.237-0.042,0.266-0.28,0.322-0.631c0.069-0.49,0.069-1.429,0.069-2.577V42.352z"/>
			<path d="M277.074,42.352c0-1.85,0-2.186-0.027-2.563c-0.028-0.406-0.099-0.603-0.505-0.659c-0.098-0.014-0.308-0.027-0.42-0.027
				c-0.042,0-0.099-0.057-0.099-0.099c0-0.069,0.057-0.098,0.196-0.098c0.561,0,1.331,0.028,1.401,0.028
				c0.238,0,2.913,0.014,3.193,0c0.238-0.015,0.448-0.015,0.561-0.057c0.07-0.014,0.126-0.069,0.168-0.069
				c0.056,0,0.084,0.056,0.084,0.111c0,0.084-0.056,0.225-0.098,0.561c-0.015,0.112-0.028,0.645-0.057,0.784
				c-0.014,0.057-0.056,0.126-0.112,0.126c-0.056,0-0.098-0.056-0.098-0.14c0-0.098-0.042-0.294-0.112-0.448
				c-0.069-0.154-0.364-0.351-0.84-0.351l-2.018-0.027c-0.07,0-0.098,0.027-0.098,0.126v3.25c0,0.069,0,0.111,0.084,0.111
				l1.681-0.014c0.21,0,0.393,0,0.561-0.014c0.294-0.028,0.462-0.07,0.574-0.211c0.056-0.069,0.112-0.126,0.154-0.126
				c0.056,0,0.069,0.042,0.069,0.099c0,0.069-0.084,0.266-0.111,0.658c-0.028,0.238-0.042,0.714-0.042,0.799
				c0,0.111-0.028,0.237-0.112,0.237c-0.07,0-0.084-0.056-0.084-0.111c-0.014-0.126-0.028-0.295-0.084-0.435
				c-0.057-0.168-0.252-0.322-0.631-0.378c-0.308-0.042-1.765-0.028-1.975-0.028c-0.07,0-0.084,0.028-0.084,0.112v0.952
				c0,1.177,0,2.115,0.056,2.577c0.042,0.351,0.112,0.574,0.448,0.631c0.183,0.028,0.448,0.056,0.561,0.056
				c0.07,0,0.098,0.057,0.098,0.099c0,0.056-0.056,0.098-0.195,0.098c-0.687,0-1.485-0.042-1.541-0.042
				c-0.07,0-0.841,0.042-1.219,0.042c-0.126,0-0.196-0.028-0.196-0.098c0-0.042,0.028-0.099,0.098-0.099
				c0.112,0,0.267-0.042,0.379-0.056c0.237-0.042,0.266-0.28,0.322-0.631c0.069-0.49,0.069-1.429,0.069-2.577V42.352z"/>
			<path d="M285.489,44.452c0,1.148,0,2.087,0.056,2.577c0.042,0.351,0.084,0.574,0.448,0.631c0.183,0.028,0.448,0.056,0.561,0.056
				c0.07,0,0.098,0.057,0.098,0.099c0,0.056-0.056,0.098-0.196,0.098c-0.686,0-1.484-0.042-1.54-0.042
				c-0.07,0-0.841,0.042-1.219,0.042c-0.126,0-0.196-0.028-0.196-0.098c0-0.042,0.028-0.099,0.098-0.099
				c0.112,0,0.267-0.027,0.379-0.056c0.238-0.057,0.28-0.28,0.322-0.631c0.056-0.49,0.069-1.429,0.069-2.577v-2.101
				c0-1.85,0-2.186-0.027-2.563c-0.028-0.406-0.126-0.589-0.393-0.645c-0.14-0.028-0.294-0.042-0.378-0.042
				c-0.057,0-0.099-0.057-0.099-0.099c0-0.069,0.057-0.098,0.196-0.098c0.406,0,1.177,0.028,1.247,0.028
				c0.056,0,0.854-0.028,1.232-0.028c0.14,0,0.196,0.028,0.196,0.098c0,0.042-0.057,0.099-0.099,0.099c-0.084,0-0.168,0-0.308,0.027
				c-0.336,0.07-0.406,0.238-0.435,0.659c-0.014,0.378-0.014,0.714-0.014,2.563V44.452z"/>
			<path d="M289.52,46.792c-1.205-1.037-1.499-2.396-1.499-3.53c0-0.799,0.294-2.186,1.387-3.25
				c0.742-0.714,1.863-1.274,3.754-1.274c0.49,0,1.19,0.042,1.793,0.14c0.462,0.084,0.854,0.168,1.261,0.183
				c0.126,0,0.154,0.056,0.154,0.126c0,0.098-0.028,0.238-0.057,0.672c-0.014,0.393-0.014,1.051-0.027,1.219
				c-0.015,0.183-0.07,0.252-0.141,0.252c-0.084,0-0.098-0.084-0.098-0.252c0-0.462-0.196-0.938-0.519-1.19
				c-0.434-0.364-1.33-0.658-2.423-0.658c-1.583,0-2.34,0.42-2.773,0.826c-0.911,0.841-1.107,1.905-1.107,3.11
				c0,2.283,1.808,4.313,4.44,4.313c0.925,0,1.541-0.069,2.031-0.56c0.267-0.267,0.435-0.771,0.477-0.995
				c0.028-0.126,0.042-0.168,0.126-0.168c0.056,0,0.112,0.084,0.112,0.168s-0.168,1.121-0.294,1.527
				c-0.07,0.224-0.099,0.266-0.309,0.35c-0.504,0.196-1.429,0.267-2.228,0.267C291.733,48.066,290.486,47.632,289.52,46.792z"/>
			<path d="M299.138,42.352c0-1.85,0-2.186-0.027-2.563c-0.028-0.406-0.099-0.603-0.505-0.659c-0.098-0.014-0.308-0.027-0.42-0.027
				c-0.042,0-0.099-0.057-0.099-0.099c0-0.069,0.057-0.098,0.196-0.098c0.561,0,1.359,0.028,1.429,0.028
				c0.084,0,2.662,0.014,2.942,0c0.237-0.015,0.462-0.057,0.56-0.07c0.057-0.014,0.112-0.056,0.168-0.056
				c0.042,0,0.057,0.056,0.057,0.111c0,0.084-0.07,0.225-0.099,0.561c-0.014,0.112-0.042,0.645-0.069,0.784
				c-0.015,0.057-0.057,0.126-0.112,0.126c-0.07,0-0.098-0.056-0.098-0.153c0-0.084-0.015-0.28-0.07-0.421
				c-0.084-0.195-0.21-0.28-0.883-0.364c-0.21-0.027-1.639-0.042-1.778-0.042c-0.057,0-0.07,0.042-0.07,0.126v3.236
				c0,0.084,0,0.126,0.07,0.126c0.153,0,1.778,0,2.059-0.028c0.294-0.027,0.477-0.042,0.603-0.168
				c0.084-0.084,0.14-0.154,0.182-0.154s0.07,0.028,0.07,0.099c0,0.069-0.07,0.266-0.098,0.658
				c-0.028,0.238-0.057,0.687-0.057,0.771c0,0.098-0.027,0.224-0.112,0.224c-0.056,0-0.084-0.042-0.084-0.111
				c0-0.112,0-0.238-0.056-0.393c-0.042-0.168-0.154-0.309-0.63-0.364c-0.337-0.042-1.653-0.056-1.863-0.056
				c-0.07,0-0.084,0.042-0.084,0.084v0.994c0,0.406-0.015,1.793,0,2.031c0.027,0.799,0.252,0.952,1.471,0.952
				c0.322,0,0.91,0,1.232-0.126c0.322-0.14,0.49-0.35,0.561-0.826c0.028-0.14,0.056-0.183,0.126-0.183s0.084,0.099,0.084,0.183
				s-0.098,0.896-0.168,1.148c-0.084,0.309-0.21,0.309-0.687,0.309c-0.925,0-1.639-0.028-2.144-0.042
				c-0.518-0.028-0.84-0.028-1.022-0.028c-0.027,0-0.266,0-0.532,0.014c-0.238,0.015-0.518,0.028-0.714,0.028
				c-0.126,0-0.196-0.028-0.196-0.098c0-0.042,0.028-0.099,0.098-0.099c0.112,0,0.267-0.042,0.379-0.056
				c0.237-0.042,0.266-0.28,0.322-0.631c0.069-0.49,0.069-1.429,0.069-2.577V42.352z"/>
			<path d="M314.498,38.737c2.773,0,4.875,1.694,4.875,4.469c0,2.661-1.976,4.86-4.945,4.86c-3.376,0-4.818-2.535-4.818-4.679
				C309.609,41.469,311.093,38.737,314.498,38.737z M314.778,47.576c1.106,0,3.334-0.589,3.334-4.034
				c0-2.857-1.737-4.356-3.685-4.356c-2.059,0-3.544,1.289-3.544,3.88C310.883,45.839,312.55,47.576,314.778,47.576z"/>
			<path d="M321.748,42.352c0-1.85,0-2.186-0.027-2.563c-0.028-0.406-0.099-0.603-0.505-0.659c-0.098-0.014-0.308-0.027-0.42-0.027
				c-0.042,0-0.099-0.057-0.099-0.099c0-0.069,0.057-0.098,0.196-0.098c0.561,0,1.331,0.028,1.401,0.028
				c0.238,0,2.913,0.014,3.193,0c0.238-0.015,0.448-0.015,0.561-0.057c0.07-0.014,0.126-0.069,0.168-0.069
				c0.056,0,0.084,0.056,0.084,0.111c0,0.084-0.056,0.225-0.098,0.561c-0.015,0.112-0.028,0.645-0.057,0.784
				c-0.014,0.057-0.056,0.126-0.112,0.126c-0.056,0-0.098-0.056-0.098-0.14c0-0.098-0.042-0.294-0.112-0.448
				c-0.069-0.154-0.364-0.351-0.84-0.351l-2.018-0.027c-0.07,0-0.098,0.027-0.098,0.126v3.25c0,0.069,0,0.111,0.084,0.111
				l1.681-0.014c0.21,0,0.393,0,0.561-0.014c0.294-0.028,0.462-0.07,0.574-0.211c0.056-0.069,0.112-0.126,0.154-0.126
				c0.056,0,0.069,0.042,0.069,0.099c0,0.069-0.084,0.266-0.111,0.658c-0.028,0.238-0.042,0.714-0.042,0.799
				c0,0.111-0.028,0.237-0.112,0.237c-0.07,0-0.084-0.056-0.084-0.111c-0.014-0.126-0.028-0.295-0.084-0.435
				c-0.057-0.168-0.252-0.322-0.631-0.378c-0.308-0.042-1.765-0.028-1.975-0.028c-0.07,0-0.084,0.028-0.084,0.112v0.952
				c0,1.177,0,2.115,0.056,2.577c0.042,0.351,0.112,0.574,0.448,0.631c0.183,0.028,0.448,0.056,0.561,0.056
				c0.07,0,0.098,0.057,0.098,0.099c0,0.056-0.056,0.098-0.195,0.098c-0.687,0-1.485-0.042-1.541-0.042
				c-0.07,0-0.841,0.042-1.219,0.042c-0.126,0-0.196-0.028-0.196-0.098c0-0.042,0.028-0.099,0.098-0.099
				c0.112,0,0.267-0.042,0.379-0.056c0.237-0.042,0.266-0.28,0.322-0.631c0.069-0.49,0.069-1.429,0.069-2.577V42.352z"/>
			<path d="M335.735,37.673c0.168-0.463,0.224-0.547,0.308-0.547s0.141,0.07,0.309,0.505c0.21,0.532,2.409,6.317,3.264,8.446
				c0.504,1.247,0.91,1.471,1.204,1.555c0.211,0.07,0.421,0.084,0.561,0.084c0.084,0,0.141,0.015,0.141,0.084
				c0,0.084-0.126,0.112-0.28,0.112c-0.21,0-1.232,0-2.199-0.028c-0.267-0.014-0.42-0.014-0.42-0.098
				c0-0.056,0.042-0.084,0.098-0.098c0.084-0.028,0.168-0.154,0.084-0.379l-1.303-3.445c-0.028-0.057-0.056-0.084-0.126-0.084
				h-3.012c-0.07,0-0.112,0.042-0.14,0.111l-0.841,2.479c-0.126,0.351-0.196,0.687-0.196,0.938c0,0.28,0.294,0.406,0.532,0.406
				h0.141c0.098,0,0.14,0.028,0.14,0.084c0,0.084-0.084,0.112-0.21,0.112c-0.336,0-0.938-0.042-1.093-0.042
				s-0.925,0.042-1.583,0.042c-0.182,0-0.266-0.028-0.266-0.112c0-0.056,0.056-0.084,0.126-0.084c0.098,0,0.294-0.014,0.406-0.027
				c0.645-0.085,0.924-0.617,1.177-1.317L335.735,37.673z M337.191,43.275c0.07,0,0.07-0.042,0.057-0.098l-1.331-3.782
				c-0.07-0.21-0.14-0.21-0.21,0l-1.232,3.782c-0.028,0.07,0,0.098,0.042,0.098H337.191z"/>
			<path d="M344.12,44.48c0,1.751,0.027,2.465,0.252,2.675c0.196,0.196,0.672,0.28,1.639,0.28c0.645,0,1.19-0.014,1.485-0.364
				c0.153-0.182,0.252-0.434,0.294-0.672c0.014-0.084,0.056-0.154,0.126-0.154c0.056,0,0.084,0.056,0.084,0.183
				c0,0.126-0.084,0.84-0.182,1.19c-0.085,0.28-0.127,0.322-0.785,0.322c-0.882,0-1.568-0.015-2.143-0.042
				c-0.561-0.015-0.98-0.028-1.345-0.028c-0.057,0-0.267,0-0.505,0.014c-0.252,0.015-0.518,0.028-0.714,0.028
				c-0.126,0-0.196-0.028-0.196-0.098c0-0.042,0.028-0.099,0.098-0.099c0.112,0,0.267-0.027,0.379-0.056
				c0.238-0.057,0.266-0.28,0.322-0.631c0.069-0.49,0.069-1.429,0.069-2.577v-2.101c0-1.85,0-2.186-0.027-2.563
				c-0.028-0.406-0.099-0.603-0.505-0.659c-0.098-0.014-0.308-0.027-0.42-0.027c-0.042,0-0.098-0.057-0.098-0.099
				c0-0.069,0.056-0.098,0.195-0.098c0.561,0,1.331,0.028,1.401,0.028c0.056,0,0.98-0.028,1.358-0.028
				c0.126,0,0.196,0.028,0.196,0.098c0,0.042-0.057,0.084-0.099,0.084c-0.084,0-0.266,0.015-0.406,0.028
				c-0.363,0.07-0.434,0.252-0.462,0.673c-0.014,0.378-0.014,0.714-0.014,2.563V44.48z"/>
			<path d="M349.594,42.352c0-1.85,0-2.186-0.028-2.563c-0.028-0.379-0.098-0.603-0.504-0.659c-0.099-0.014-0.309-0.027-0.421-0.027
				c-0.042,0-0.098-0.057-0.098-0.099c0-0.069,0.056-0.098,0.196-0.098c0.561,0,1.303,0.028,1.415,0.028
				c0.111,0,0.882-0.028,1.246-0.028c0.141,0,0.21,0.028,0.21,0.098c0,0.042-0.056,0.099-0.111,0.099c-0.084,0-0.154,0-0.309,0.027
				c-0.322,0.057-0.393,0.267-0.42,0.659c-0.028,0.378-0.028,0.714-0.028,2.563v1.666c0,1.724,0.378,2.438,0.91,2.914
				c0.603,0.546,1.135,0.645,1.835,0.645c0.757,0,1.485-0.336,1.905-0.841c0.574-0.687,0.7-1.667,0.7-2.886v-1.498
				c0-1.85-0.014-2.186-0.027-2.563c-0.015-0.379-0.084-0.603-0.49-0.659c-0.099-0.014-0.309-0.027-0.421-0.027
				c-0.056,0-0.098-0.057-0.098-0.099c0-0.069,0.056-0.098,0.196-0.098c0.546,0,1.261,0.028,1.33,0.028
				c0.084,0,0.673-0.028,1.037-0.028c0.14,0,0.196,0.028,0.196,0.098c0,0.042-0.042,0.099-0.099,0.099c-0.084,0-0.154,0-0.308,0.027
				c-0.337,0.07-0.406,0.267-0.435,0.659c-0.028,0.378-0.014,0.714-0.014,2.563v1.274c0,1.288-0.168,2.731-1.149,3.571
				c-0.896,0.771-1.849,0.869-2.577,0.869c-0.406,0-1.694-0.028-2.563-0.841c-0.603-0.561-1.078-1.387-1.078-3.123V42.352z"/>
			<path d="M369.297,46.386c0.042,0.42,0.126,1.064,0.63,1.232c0.351,0.112,0.673,0.112,0.799,0.112
				c0.056,0,0.098,0.027,0.098,0.084c0,0.069-0.111,0.111-0.252,0.111c-0.28,0-1.652-0.014-2.101-0.056
				c-0.295-0.028-0.351-0.07-0.351-0.126c0-0.042,0.028-0.084,0.084-0.098c0.07-0.015,0.084-0.196,0.056-0.421l-0.588-6.051h-0.028
				l-2.97,6.079c-0.252,0.519-0.322,0.63-0.434,0.63c-0.112,0-0.183-0.111-0.421-0.546c-0.322-0.588-1.134-2.115-1.442-2.76
				c-0.364-0.756-1.358-2.76-1.569-3.25h-0.056l-0.477,5.379c-0.014,0.183-0.014,0.406-0.014,0.603c0,0.183,0.112,0.294,0.294,0.337
				c0.21,0.056,0.393,0.069,0.477,0.069c0.042,0,0.098,0.042,0.098,0.084c0,0.084-0.084,0.112-0.224,0.112
				c-0.462,0-1.051-0.042-1.148-0.042c-0.112,0-0.7,0.042-1.037,0.042c-0.126,0-0.21-0.028-0.21-0.112
				c0-0.042,0.057-0.084,0.126-0.084c0.099,0,0.183-0.014,0.364-0.042c0.406-0.07,0.42-0.504,0.477-0.952l0.896-7.774
				c0.014-0.126,0.07-0.21,0.14-0.21c0.084,0,0.183,0.042,0.252,0.182l3.727,7.396l3.586-7.382c0.056-0.112,0.112-0.196,0.196-0.196
				s0.154,0.098,0.182,0.322L369.297,46.386z"/>
			<path d="M373.324,46.287c0.028,0.98,0.14,1.274,0.477,1.359c0.224,0.056,0.504,0.069,0.616,0.069
				c0.056,0,0.098,0.042,0.098,0.099c0,0.069-0.084,0.098-0.224,0.098c-0.7,0-1.191-0.042-1.303-0.042
				c-0.112,0-0.631,0.042-1.19,0.042c-0.127,0-0.196-0.014-0.196-0.098c0-0.057,0.042-0.099,0.098-0.099
				c0.099,0,0.322-0.014,0.504-0.069c0.309-0.085,0.351-0.406,0.351-1.485V39.34c0-0.477,0.07-0.603,0.168-0.603
				c0.141,0,0.351,0.238,0.477,0.364c0.196,0.196,1.989,2.101,3.894,4.063c1.219,1.26,2.536,2.675,2.914,3.067l-0.126-5.968
				c-0.014-0.771-0.084-1.036-0.462-1.106c-0.225-0.042-0.505-0.056-0.603-0.056c-0.084,0-0.099-0.07-0.099-0.112
				c0-0.07,0.099-0.084,0.238-0.084c0.561,0,1.148,0.028,1.289,0.028c0.14,0,0.546-0.028,1.051-0.028
				c0.126,0,0.224,0.014,0.224,0.084c0,0.042-0.056,0.112-0.14,0.112c-0.057,0-0.154,0-0.295,0.027
				c-0.406,0.085-0.434,0.322-0.434,1.037l-0.028,6.976c0,0.784-0.014,0.854-0.098,0.854c-0.126,0-0.253-0.098-0.938-0.729
				c-0.126-0.112-1.905-1.863-3.208-3.222c-1.429-1.499-2.815-2.955-3.193-3.376L373.324,46.287z"/>
			<path d="M385.113,44.452c0,1.148,0,2.087,0.056,2.577c0.042,0.351,0.084,0.574,0.448,0.631c0.183,0.028,0.448,0.056,0.561,0.056
				c0.07,0,0.098,0.057,0.098,0.099c0,0.056-0.056,0.098-0.195,0.098c-0.687,0-1.485-0.042-1.541-0.042
				c-0.07,0-0.841,0.042-1.219,0.042c-0.126,0-0.196-0.028-0.196-0.098c0-0.042,0.028-0.099,0.098-0.099
				c0.112,0,0.267-0.027,0.379-0.056c0.237-0.057,0.28-0.28,0.322-0.631c0.056-0.49,0.069-1.429,0.069-2.577v-2.101
				c0-1.85,0-2.186-0.027-2.563c-0.028-0.406-0.127-0.589-0.393-0.645c-0.14-0.028-0.294-0.042-0.378-0.042
				c-0.057,0-0.099-0.057-0.099-0.099c0-0.069,0.057-0.098,0.196-0.098c0.406,0,1.177,0.028,1.247,0.028
				c0.056,0,0.854-0.028,1.232-0.028c0.14,0,0.196,0.028,0.196,0.098c0,0.042-0.057,0.099-0.099,0.099c-0.084,0-0.168,0-0.308,0.027
				c-0.336,0.07-0.406,0.238-0.435,0.659c-0.014,0.378-0.014,0.714-0.014,2.563V44.452z"/>
			<path d="M393.917,41.385c0-2.186,0-2.577-0.027-3.025c-0.028-0.477-0.141-0.701-0.603-0.799
				c-0.112-0.028-0.351-0.042-0.477-0.042c-0.056,0-0.112-0.028-0.112-0.084c0-0.084,0.07-0.112,0.225-0.112
				c0.63,0,1.513,0.042,1.583,0.042c0.153,0,1.219-0.042,1.652-0.042c0.883,0,1.821,0.084,2.563,0.616
				c0.351,0.252,0.967,0.938,0.967,1.905c0,1.036-0.435,2.073-1.695,3.235c1.148,1.472,2.102,2.718,2.914,3.586
				c0.756,0.799,1.358,0.953,1.709,1.009c0.266,0.042,0.462,0.042,0.546,0.042c0.07,0,0.126,0.042,0.126,0.084
				c0,0.084-0.084,0.112-0.336,0.112h-0.994c-0.785,0-1.135-0.07-1.499-0.266c-0.603-0.322-1.093-1.009-1.892-2.06
				c-0.588-0.771-1.246-1.709-1.526-2.073c-0.057-0.056-0.099-0.084-0.183-0.084l-1.723-0.028c-0.07,0-0.098,0.042-0.098,0.112
				v0.336c0,1.345,0,2.451,0.069,3.04c0.042,0.406,0.126,0.714,0.547,0.771c0.196,0.028,0.504,0.056,0.63,0.056
				c0.084,0,0.112,0.042,0.112,0.084c0,0.07-0.07,0.112-0.224,0.112c-0.771,0-1.653-0.042-1.724-0.042
				c-0.014,0-0.896,0.042-1.316,0.042c-0.154,0-0.225-0.028-0.225-0.112c0-0.042,0.028-0.084,0.112-0.084
				c0.126,0,0.294-0.027,0.42-0.056c0.28-0.057,0.351-0.364,0.406-0.771c0.07-0.589,0.07-1.695,0.07-3.04V41.385z M395.039,42.604
				c0,0.069,0.027,0.126,0.098,0.168c0.21,0.126,0.854,0.224,1.471,0.224c0.336,0,0.729-0.042,1.051-0.266
				c0.49-0.336,0.854-1.093,0.854-2.157c0-1.751-0.925-2.802-2.424-2.802c-0.42,0-0.798,0.042-0.938,0.084
				c-0.069,0.028-0.111,0.084-0.111,0.168V42.604z"/>
			<path d="M403.956,42.352c0-1.85,0-2.186-0.027-2.563c-0.028-0.406-0.099-0.603-0.505-0.659c-0.098-0.014-0.308-0.027-0.42-0.027
				c-0.042,0-0.098-0.057-0.098-0.099c0-0.069,0.056-0.098,0.195-0.098c0.561,0,1.359,0.028,1.429,0.028
				c0.084,0,2.662,0.014,2.942,0c0.237-0.015,0.462-0.057,0.56-0.07c0.057-0.014,0.112-0.056,0.168-0.056
				c0.042,0,0.057,0.056,0.057,0.111c0,0.084-0.07,0.225-0.099,0.561c-0.014,0.112-0.042,0.645-0.069,0.784
				c-0.015,0.057-0.057,0.126-0.112,0.126c-0.07,0-0.098-0.056-0.098-0.153c0-0.084-0.015-0.28-0.07-0.421
				c-0.084-0.195-0.21-0.28-0.883-0.364c-0.21-0.027-1.639-0.042-1.779-0.042c-0.056,0-0.069,0.042-0.069,0.126v3.236
				c0,0.084,0,0.126,0.069,0.126c0.154,0,1.779,0,2.06-0.028c0.294-0.027,0.477-0.042,0.603-0.168
				c0.084-0.084,0.14-0.154,0.182-0.154s0.07,0.028,0.07,0.099c0,0.069-0.07,0.266-0.098,0.658
				c-0.028,0.238-0.057,0.687-0.057,0.771c0,0.098-0.027,0.224-0.112,0.224c-0.056,0-0.084-0.042-0.084-0.111
				c0-0.112,0-0.238-0.056-0.393c-0.042-0.168-0.154-0.309-0.63-0.364c-0.337-0.042-1.653-0.056-1.863-0.056
				c-0.07,0-0.084,0.042-0.084,0.084v0.994c0,0.406-0.015,1.793,0,2.031c0.027,0.799,0.252,0.952,1.471,0.952
				c0.322,0,0.91,0,1.232-0.126c0.322-0.14,0.49-0.35,0.561-0.826c0.028-0.14,0.056-0.183,0.126-0.183s0.084,0.099,0.084,0.183
				s-0.098,0.896-0.168,1.148c-0.084,0.309-0.21,0.309-0.687,0.309c-0.925,0-1.639-0.028-2.144-0.042
				c-0.518-0.028-0.84-0.028-1.022-0.028c-0.027,0-0.266,0-0.532,0.014c-0.238,0.015-0.518,0.028-0.714,0.028
				c-0.126,0-0.196-0.028-0.196-0.098c0-0.042,0.028-0.099,0.098-0.099c0.112,0,0.267-0.042,0.379-0.056
				c0.238-0.042,0.266-0.28,0.322-0.631c0.069-0.49,0.069-1.429,0.069-2.577V42.352z"/>
			<path d="M412.594,44.48c0,1.751,0.027,2.465,0.252,2.675c0.196,0.196,0.672,0.28,1.639,0.28c0.645,0,1.19-0.014,1.485-0.364
				c0.153-0.182,0.252-0.434,0.294-0.672c0.014-0.084,0.056-0.154,0.126-0.154c0.056,0,0.084,0.056,0.084,0.183
				c0,0.126-0.084,0.84-0.182,1.19c-0.085,0.28-0.127,0.322-0.785,0.322c-0.882,0-1.568-0.015-2.143-0.042
				c-0.561-0.015-0.98-0.028-1.345-0.028c-0.057,0-0.267,0-0.505,0.014c-0.252,0.015-0.518,0.028-0.714,0.028
				c-0.126,0-0.196-0.028-0.196-0.098c0-0.042,0.028-0.099,0.098-0.099c0.112,0,0.267-0.027,0.379-0.056
				c0.238-0.057,0.266-0.28,0.322-0.631c0.069-0.49,0.069-1.429,0.069-2.577v-2.101c0-1.85,0-2.186-0.027-2.563
				c-0.028-0.406-0.099-0.603-0.505-0.659c-0.098-0.014-0.308-0.027-0.42-0.027c-0.042,0-0.098-0.057-0.098-0.099
				c0-0.069,0.056-0.098,0.195-0.098c0.561,0,1.331,0.028,1.401,0.028c0.056,0,0.98-0.028,1.358-0.028
				c0.126,0,0.196,0.028,0.196,0.098c0,0.042-0.057,0.084-0.099,0.084c-0.084,0-0.266,0.015-0.406,0.028
				c-0.363,0.07-0.434,0.252-0.462,0.673c-0.014,0.378-0.014,0.714-0.014,2.563V44.48z"/>
			<path d="M420.77,39.144c0.154-0.393,0.21-0.462,0.295-0.462c0.126,0,0.168,0.168,0.294,0.434
				c0.224,0.505,2.199,5.421,2.955,7.229c0.448,1.064,0.785,1.218,1.051,1.303c0.183,0.056,0.364,0.069,0.49,0.069
				c0.07,0,0.154,0.028,0.154,0.099c0,0.069-0.141,0.098-0.28,0.098c-0.182,0-1.093,0-1.947-0.028
				c-0.238-0.014-0.434-0.014-0.434-0.084c0-0.056,0.027-0.056,0.084-0.084c0.069-0.027,0.195-0.126,0.111-0.322l-1.106-2.731
				c-0.027-0.056-0.042-0.069-0.111-0.069h-2.844c-0.057,0-0.099,0.027-0.126,0.098l-0.701,1.905
				c-0.111,0.294-0.182,0.588-0.182,0.798c0,0.238,0.21,0.322,0.42,0.322h0.112c0.098,0,0.126,0.042,0.126,0.099
				c0,0.069-0.07,0.098-0.182,0.098c-0.295,0-0.967-0.042-1.106-0.042c-0.127,0-0.743,0.042-1.247,0.042
				c-0.154,0-0.238-0.028-0.238-0.098c0-0.057,0.056-0.099,0.112-0.099c0.084,0,0.266-0.014,0.364-0.027
				c0.56-0.07,0.798-0.491,1.036-1.093L420.77,39.144z M422.143,44.103c0.056,0,0.056-0.028,0.042-0.085l-1.219-3.264
				c-0.07-0.182-0.14-0.182-0.21,0l-1.148,3.264c-0.015,0.057,0,0.085,0.042,0.085H422.143z"/>
			<path d="M429.227,44.452c0,1.148,0,2.087,0.057,2.577c0.042,0.351,0.098,0.574,0.476,0.631c0.168,0.028,0.448,0.056,0.561,0.056
				c0.084,0,0.098,0.057,0.098,0.099c0,0.056-0.056,0.098-0.195,0.098c-0.673,0-1.457-0.042-1.527-0.042
				c-0.056,0-0.91,0.042-1.274,0.042c-0.14,0-0.196-0.028-0.196-0.098c0-0.042,0.028-0.084,0.099-0.084
				c0.111,0,0.252-0.028,0.363-0.057c0.253-0.056,0.322-0.294,0.364-0.645c0.057-0.49,0.057-1.429,0.057-2.577v-5.001l-1.779,0.028
				c-0.771,0.014-1.064,0.099-1.246,0.378c-0.141,0.211-0.154,0.295-0.196,0.379c-0.028,0.098-0.07,0.111-0.126,0.111
				c-0.028,0-0.084-0.027-0.084-0.098c0-0.126,0.237-1.19,0.266-1.289c0.014-0.069,0.084-0.224,0.126-0.224
				c0.084,0,0.21,0.098,0.547,0.14c0.35,0.042,0.826,0.057,0.966,0.057h4.65c0.406,0,0.687-0.028,0.883-0.057
				c0.183-0.027,0.294-0.056,0.351-0.056c0.056,0,0.056,0.07,0.056,0.14c0,0.364-0.042,1.219-0.042,1.359
				c0,0.098-0.056,0.154-0.112,0.154c-0.056,0-0.084-0.043-0.098-0.211l-0.014-0.126c-0.043-0.364-0.309-0.63-1.485-0.658
				l-1.541-0.028V44.452z"/>
			<path d="M436.003,44.452c0,1.148,0,2.087,0.056,2.577c0.042,0.351,0.084,0.574,0.448,0.631c0.183,0.028,0.448,0.056,0.561,0.056
				c0.07,0,0.098,0.057,0.098,0.099c0,0.056-0.056,0.098-0.195,0.098c-0.687,0-1.485-0.042-1.541-0.042
				c-0.07,0-0.841,0.042-1.219,0.042c-0.126,0-0.196-0.028-0.196-0.098c0-0.042,0.028-0.099,0.098-0.099
				c0.112,0,0.267-0.027,0.379-0.056c0.237-0.057,0.28-0.28,0.322-0.631c0.056-0.49,0.069-1.429,0.069-2.577v-2.101
				c0-1.85,0-2.186-0.027-2.563c-0.028-0.406-0.127-0.589-0.393-0.645c-0.14-0.028-0.294-0.042-0.378-0.042
				c-0.057,0-0.099-0.057-0.099-0.099c0-0.069,0.057-0.098,0.196-0.098c0.406,0,1.177,0.028,1.247,0.028
				c0.056,0,0.854-0.028,1.232-0.028c0.14,0,0.196,0.028,0.196,0.098c0,0.042-0.057,0.099-0.099,0.099c-0.084,0-0.168,0-0.308,0.027
				c-0.336,0.07-0.406,0.238-0.435,0.659c-0.014,0.378-0.014,0.714-0.014,2.563V44.452z"/>
			<path d="M443.424,38.737c2.773,0,4.874,1.694,4.874,4.469c0,2.661-1.975,4.86-4.944,4.86c-3.376,0-4.818-2.535-4.818-4.679
				C438.536,41.469,440.02,38.737,443.424,38.737z M443.705,47.576c1.106,0,3.334-0.589,3.334-4.034
				c0-2.857-1.737-4.356-3.685-4.356c-2.059,0-3.544,1.289-3.544,3.88C439.81,45.839,441.477,47.576,443.705,47.576z"/>
			<path d="M451.192,46.287c0.028,0.98,0.14,1.274,0.477,1.359c0.224,0.056,0.504,0.069,0.616,0.069
				c0.056,0,0.098,0.042,0.098,0.099c0,0.069-0.084,0.098-0.224,0.098c-0.7,0-1.19-0.042-1.303-0.042s-0.631,0.042-1.19,0.042
				c-0.127,0-0.196-0.014-0.196-0.098c0-0.057,0.042-0.099,0.098-0.099c0.099,0,0.322-0.014,0.505-0.069
				c0.308-0.085,0.35-0.406,0.35-1.485V39.34c0-0.477,0.07-0.603,0.168-0.603c0.141,0,0.351,0.238,0.477,0.364
				c0.196,0.196,1.989,2.101,3.894,4.063c1.219,1.26,2.536,2.675,2.914,3.067l-0.126-5.968c-0.014-0.771-0.084-1.036-0.462-1.106
				c-0.225-0.042-0.505-0.056-0.603-0.056c-0.084,0-0.099-0.07-0.099-0.112c0-0.07,0.099-0.084,0.238-0.084
				c0.561,0,1.148,0.028,1.289,0.028c0.14,0,0.546-0.028,1.051-0.028c0.126,0,0.224,0.014,0.224,0.084
				c0,0.042-0.056,0.112-0.14,0.112c-0.057,0-0.154,0-0.295,0.027c-0.406,0.085-0.434,0.322-0.434,1.037l-0.028,6.976
				c0,0.784-0.014,0.854-0.098,0.854c-0.126,0-0.252-0.098-0.938-0.729c-0.126-0.112-1.905-1.863-3.208-3.222
				c-1.429-1.499-2.815-2.955-3.193-3.376L451.192,46.287z"/>
			<path d="M461.104,47.744c-0.168-0.084-0.183-0.126-0.183-0.448c0-0.589,0.057-1.064,0.07-1.261c0-0.126,0.028-0.196,0.098-0.196
				c0.07,0,0.112,0.042,0.112,0.141c0,0.098,0,0.266,0.042,0.434c0.196,0.869,1.121,1.177,1.947,1.177
				c1.219,0,1.849-0.687,1.849-1.583c0-0.854-0.462-1.261-1.555-2.073l-0.56-0.42c-1.331-0.994-1.766-1.723-1.766-2.549
				c0-1.401,1.106-2.241,2.731-2.241c0.49,0,0.98,0.069,1.275,0.14c0.237,0.056,0.336,0.056,0.434,0.056
				c0.099,0,0.126,0.015,0.126,0.084c0,0.057-0.056,0.448-0.056,1.261c0,0.183-0.014,0.267-0.099,0.267
				c-0.084,0-0.098-0.056-0.111-0.154c-0.015-0.14-0.112-0.462-0.183-0.588c-0.084-0.141-0.49-0.589-1.597-0.589
				c-0.896,0-1.639,0.448-1.639,1.289c0,0.756,0.378,1.19,1.597,2.017l0.351,0.238c1.498,1.022,2.017,1.85,2.017,2.872
				c0,0.7-0.266,1.456-1.148,2.031c-0.519,0.336-1.289,0.42-1.961,0.42C462.323,48.066,461.608,47.982,461.104,47.744z"/>
		</g>
	</g>
</g>
<g id="Layer_4">
	<g>
		<path d="M115.658,44.083c0,1.345,0,2.452,0.07,3.04c0.042,0.406,0.126,0.714,0.547,0.771c0.195,0.028,0.504,0.056,0.63,0.056
			c0.084,0,0.112,0.042,0.112,0.084c0,0.07-0.07,0.112-0.225,0.112c-0.771,0-1.652-0.042-1.723-0.042s-0.952,0.042-1.373,0.042
			c-0.154,0-0.224-0.028-0.224-0.112c0-0.042,0.027-0.084,0.112-0.084c0.126,0,0.294-0.027,0.42-0.056
			c0.28-0.057,0.35-0.364,0.406-0.771c0.07-0.588,0.07-1.695,0.07-3.04v-5.925l-2.073,0.028c-0.869,0.014-1.205,0.111-1.429,0.448
			c-0.154,0.237-0.196,0.336-0.238,0.434c-0.042,0.112-0.084,0.141-0.141,0.141c-0.042,0-0.069-0.042-0.069-0.126
			c0-0.141,0.279-1.345,0.308-1.457c0.028-0.084,0.084-0.267,0.141-0.267c0.098,0,0.237,0.141,0.616,0.168
			c0.406,0.043,0.938,0.07,1.106,0.07h5.253c0.448,0,0.771-0.027,0.994-0.07c0.21-0.027,0.336-0.069,0.393-0.069
			c0.07,0,0.07,0.084,0.07,0.168c0,0.42-0.042,1.387-0.042,1.541c0,0.126-0.043,0.182-0.099,0.182c-0.07,0-0.098-0.042-0.112-0.238
			l-0.014-0.153c-0.042-0.421-0.378-0.743-1.723-0.771l-1.766-0.028V44.083z"/>
		<path d="M128.918,44.686c0,1.148,0.014,2.087,0.07,2.577c0.042,0.351,0.069,0.574,0.448,0.631
			c0.168,0.028,0.448,0.056,0.546,0.056c0.084,0,0.112,0.057,0.112,0.099c0,0.056-0.07,0.098-0.21,0.098
			c-0.673,0-1.457-0.042-1.527-0.042c-0.056,0-0.854,0.042-1.219,0.042c-0.14,0-0.196-0.028-0.196-0.098
			c0-0.042,0.028-0.099,0.099-0.099c0.112,0,0.252-0.027,0.364-0.056c0.252-0.057,0.294-0.294,0.336-0.645
			c0.056-0.49,0.056-1.387,0.056-2.535v-1.19c0-0.057-0.027-0.07-0.069-0.07h-5.141c-0.043,0-0.07,0.014-0.07,0.07v1.19
			c0,1.148,0,2.059,0.056,2.549c0.042,0.351,0.084,0.574,0.448,0.631c0.183,0.028,0.448,0.056,0.561,0.056
			c0.07,0,0.098,0.057,0.098,0.099c0,0.056-0.056,0.098-0.195,0.098c-0.687,0-1.472-0.042-1.527-0.042
			c-0.07,0-0.854,0.042-1.232,0.042c-0.126,0-0.196-0.028-0.196-0.098c0-0.042,0.028-0.099,0.098-0.099
			c0.112,0,0.267-0.027,0.379-0.056c0.237-0.057,0.266-0.28,0.322-0.631c0.069-0.49,0.069-1.429,0.069-2.577v-2.101
			c0-1.85,0-2.186-0.027-2.563c-0.028-0.406-0.099-0.603-0.505-0.658c-0.098-0.015-0.308-0.028-0.42-0.028
			c-0.042,0-0.099-0.057-0.099-0.099c0-0.069,0.057-0.098,0.196-0.098c0.561,0,1.345,0.028,1.415,0.028
			c0.056,0,0.841-0.028,1.219-0.028c0.14,0,0.196,0.028,0.196,0.098c0,0.042-0.057,0.099-0.099,0.099c-0.084,0-0.168,0-0.308,0.028
			c-0.336,0.069-0.406,0.237-0.435,0.658c-0.014,0.378-0.014,0.742-0.014,2.591v0.252c0,0.07,0.027,0.07,0.07,0.07h5.141
			c0.042,0,0.069,0,0.069-0.07v-0.252c0-1.849-0.014-2.213-0.027-2.591c-0.028-0.406-0.084-0.603-0.49-0.658
			c-0.099-0.015-0.309-0.028-0.421-0.028c-0.056,0-0.098-0.057-0.098-0.099c0-0.069,0.056-0.098,0.196-0.098
			c0.546,0,1.345,0.028,1.4,0.028c0.07,0,0.854-0.028,1.219-0.028c0.14,0,0.21,0.028,0.21,0.098c0,0.042-0.056,0.099-0.112,0.099
			c-0.084,0-0.153,0-0.308,0.028c-0.322,0.069-0.393,0.237-0.42,0.658c-0.028,0.378-0.028,0.714-0.028,2.563V44.686z"/>
		<path d="M132.624,42.585c0-1.85,0-2.186-0.027-2.563c-0.028-0.406-0.099-0.603-0.505-0.658c-0.098-0.015-0.308-0.028-0.42-0.028
			c-0.042,0-0.098-0.057-0.098-0.099c0-0.069,0.056-0.098,0.195-0.098c0.561,0,1.359,0.028,1.429,0.028c0.084,0,2.662,0.014,2.942,0
			c0.237-0.015,0.462-0.057,0.56-0.07c0.057-0.014,0.112-0.056,0.168-0.056c0.042,0,0.057,0.056,0.057,0.111
			c0,0.084-0.07,0.225-0.099,0.561c-0.014,0.112-0.042,0.645-0.069,0.784c-0.015,0.057-0.057,0.126-0.112,0.126
			c-0.07,0-0.098-0.056-0.098-0.153c0-0.084-0.015-0.28-0.07-0.421c-0.084-0.195-0.21-0.28-0.883-0.364
			c-0.21-0.027-1.639-0.042-1.779-0.042c-0.056,0-0.069,0.042-0.069,0.126v3.236c0,0.084,0,0.126,0.069,0.126
			c0.154,0,1.779,0,2.06-0.028c0.294-0.027,0.477-0.042,0.603-0.168c0.084-0.084,0.14-0.154,0.182-0.154s0.07,0.028,0.07,0.099
			s-0.07,0.266-0.098,0.658c-0.028,0.238-0.057,0.687-0.057,0.771c0,0.098-0.027,0.224-0.112,0.224
			c-0.056,0-0.084-0.042-0.084-0.111c0-0.112,0-0.238-0.056-0.393c-0.042-0.168-0.154-0.309-0.63-0.364
			c-0.337-0.042-1.653-0.056-1.863-0.056c-0.07,0-0.084,0.042-0.084,0.084v0.994c0,0.406-0.015,1.793,0,2.031
			c0.027,0.799,0.252,0.952,1.471,0.952c0.322,0,0.91,0,1.232-0.126c0.322-0.14,0.49-0.35,0.561-0.826
			c0.028-0.14,0.056-0.182,0.126-0.182s0.084,0.098,0.084,0.182s-0.098,0.896-0.168,1.148c-0.084,0.309-0.21,0.309-0.687,0.309
			c-0.925,0-1.639-0.028-2.144-0.042c-0.518-0.028-0.84-0.028-1.022-0.028c-0.027,0-0.266,0-0.532,0.014
			c-0.238,0.015-0.518,0.028-0.714,0.028c-0.126,0-0.196-0.028-0.196-0.098c0-0.042,0.028-0.099,0.098-0.099
			c0.112,0,0.267-0.042,0.379-0.056c0.238-0.042,0.266-0.28,0.322-0.631c0.069-0.49,0.069-1.429,0.069-2.577V42.585z"/>
		<path d="M148.431,37.359c3.152,0,5.506,1.989,5.506,5.253c0,3.138-2.214,5.729-5.59,5.729c-3.838,0-5.435-2.983-5.435-5.505
			C142.913,40.567,144.566,37.359,148.431,37.359z M148.726,47.81c1.261,0,3.866-0.729,3.866-4.805c0-3.362-2.046-5.169-4.259-5.169
			c-2.339,0-4.09,1.541-4.09,4.608C144.244,45.708,146.205,47.81,148.726,47.81z"/>
		<path d="M156.185,42.585c0-1.85,0-2.186-0.027-2.563c-0.028-0.406-0.099-0.603-0.505-0.658c-0.098-0.015-0.308-0.028-0.42-0.028
			c-0.042,0-0.099-0.057-0.099-0.099c0-0.069,0.057-0.098,0.196-0.098c0.561,0,1.331,0.028,1.401,0.028c0.238,0,2.913,0.014,3.193,0
			c0.238-0.015,0.448-0.015,0.561-0.057c0.07-0.014,0.126-0.069,0.168-0.069c0.056,0,0.084,0.056,0.084,0.111
			c0,0.084-0.056,0.225-0.098,0.561c-0.015,0.112-0.028,0.645-0.057,0.784c-0.014,0.057-0.056,0.126-0.112,0.126
			c-0.056,0-0.098-0.056-0.098-0.14c0-0.098-0.042-0.294-0.112-0.448c-0.069-0.154-0.364-0.351-0.84-0.351l-2.018-0.027
			c-0.07,0-0.098,0.027-0.098,0.126v3.25c0,0.069,0,0.111,0.084,0.111l1.681-0.014c0.21,0,0.393,0,0.561-0.014
			c0.294-0.028,0.462-0.07,0.574-0.211c0.056-0.069,0.112-0.126,0.154-0.126c0.056,0,0.069,0.042,0.069,0.099
			c0,0.07-0.084,0.266-0.111,0.658c-0.028,0.238-0.042,0.714-0.042,0.799c0,0.111-0.028,0.237-0.112,0.237
			c-0.07,0-0.084-0.056-0.084-0.111c-0.014-0.126-0.028-0.295-0.084-0.435c-0.057-0.168-0.252-0.322-0.631-0.378
			c-0.308-0.042-1.765-0.028-1.975-0.028c-0.07,0-0.084,0.028-0.084,0.112v0.952c0,1.177,0,2.115,0.056,2.577
			c0.042,0.351,0.112,0.574,0.448,0.631c0.183,0.028,0.448,0.056,0.561,0.056c0.07,0,0.098,0.057,0.098,0.099
			c0,0.056-0.056,0.098-0.195,0.098c-0.687,0-1.485-0.042-1.541-0.042c-0.07,0-0.841,0.042-1.219,0.042
			c-0.126,0-0.196-0.028-0.196-0.098c0-0.042,0.028-0.099,0.098-0.099c0.112,0,0.267-0.042,0.379-0.056
			c0.237-0.042,0.266-0.28,0.322-0.631c0.069-0.49,0.069-1.429,0.069-2.577V42.585z"/>
		<path d="M163.326,42.585c0-1.85,0-2.186-0.027-2.563c-0.028-0.406-0.099-0.603-0.505-0.658c-0.098-0.015-0.308-0.028-0.42-0.028
			c-0.042,0-0.099-0.057-0.099-0.099c0-0.069,0.057-0.098,0.196-0.098c0.561,0,1.331,0.028,1.401,0.028c0.238,0,2.913,0.014,3.193,0
			c0.238-0.015,0.448-0.015,0.561-0.057c0.07-0.014,0.126-0.069,0.168-0.069c0.056,0,0.084,0.056,0.084,0.111
			c0,0.084-0.056,0.225-0.098,0.561c-0.015,0.112-0.028,0.645-0.057,0.784c-0.014,0.057-0.056,0.126-0.112,0.126
			c-0.056,0-0.098-0.056-0.098-0.14c0-0.098-0.042-0.294-0.112-0.448c-0.069-0.154-0.364-0.351-0.84-0.351l-2.018-0.027
			c-0.07,0-0.098,0.027-0.098,0.126v3.25c0,0.069,0,0.111,0.084,0.111l1.681-0.014c0.21,0,0.393,0,0.561-0.014
			c0.294-0.028,0.462-0.07,0.574-0.211c0.056-0.069,0.112-0.126,0.154-0.126c0.056,0,0.069,0.042,0.069,0.099
			c0,0.07-0.084,0.266-0.111,0.658c-0.028,0.238-0.042,0.714-0.042,0.799c0,0.111-0.028,0.237-0.112,0.237
			c-0.07,0-0.084-0.056-0.084-0.111c-0.014-0.126-0.028-0.295-0.084-0.435c-0.057-0.168-0.252-0.322-0.631-0.378
			c-0.308-0.042-1.765-0.028-1.975-0.028c-0.07,0-0.084,0.028-0.084,0.112v0.952c0,1.177,0,2.115,0.056,2.577
			c0.042,0.351,0.112,0.574,0.448,0.631c0.183,0.028,0.448,0.056,0.561,0.056c0.07,0,0.098,0.057,0.098,0.099
			c0,0.056-0.056,0.098-0.195,0.098c-0.687,0-1.485-0.042-1.541-0.042c-0.07,0-0.841,0.042-1.219,0.042
			c-0.126,0-0.196-0.028-0.196-0.098c0-0.042,0.028-0.099,0.098-0.099c0.112,0,0.267-0.042,0.379-0.056
			c0.237-0.042,0.266-0.28,0.322-0.631c0.069-0.49,0.069-1.429,0.069-2.577V42.585z"/>
		<path d="M171.586,44.686c0,1.148,0,2.087,0.056,2.577c0.042,0.351,0.084,0.574,0.448,0.631c0.183,0.028,0.448,0.056,0.561,0.056
			c0.07,0,0.098,0.057,0.098,0.099c0,0.056-0.056,0.098-0.196,0.098c-0.686,0-1.484-0.042-1.54-0.042
			c-0.07,0-0.841,0.042-1.219,0.042c-0.126,0-0.196-0.028-0.196-0.098c0-0.042,0.028-0.099,0.098-0.099
			c0.112,0,0.267-0.027,0.379-0.056c0.238-0.057,0.28-0.28,0.322-0.631c0.056-0.49,0.069-1.429,0.069-2.577v-2.101
			c0-1.85,0-2.186-0.027-2.563c-0.028-0.406-0.126-0.589-0.393-0.645c-0.14-0.028-0.294-0.042-0.378-0.042
			c-0.057,0-0.099-0.057-0.099-0.099c0-0.069,0.057-0.098,0.196-0.098c0.406,0,1.177,0.028,1.247,0.028
			c0.056,0,0.854-0.028,1.232-0.028c0.14,0,0.196,0.028,0.196,0.098c0,0.042-0.057,0.099-0.099,0.099c-0.084,0-0.168,0-0.308,0.028
			c-0.336,0.069-0.406,0.237-0.435,0.658c-0.014,0.378-0.014,0.714-0.014,2.563V44.686z"/>
		<path d="M175.464,47.025c-1.205-1.037-1.499-2.396-1.499-3.53c0-0.799,0.294-2.186,1.387-3.25
			c0.742-0.714,1.863-1.274,3.754-1.274c0.49,0,1.19,0.042,1.793,0.14c0.462,0.084,0.854,0.168,1.261,0.183
			c0.126,0,0.154,0.056,0.154,0.126c0,0.098-0.028,0.238-0.057,0.672c-0.014,0.393-0.014,1.051-0.027,1.219
			c-0.015,0.183-0.07,0.252-0.141,0.252c-0.084,0-0.098-0.084-0.098-0.252c0-0.462-0.196-0.938-0.519-1.19
			c-0.435-0.364-1.331-0.658-2.423-0.658c-1.583,0-2.34,0.42-2.773,0.826c-0.911,0.841-1.107,1.905-1.107,3.109
			c0,2.284,1.808,4.314,4.44,4.314c0.925,0,1.541-0.069,2.031-0.56c0.267-0.267,0.435-0.771,0.477-0.995
			c0.028-0.126,0.042-0.168,0.126-0.168c0.056,0,0.112,0.084,0.112,0.168s-0.168,1.121-0.294,1.527
			c-0.07,0.224-0.099,0.266-0.309,0.35c-0.504,0.196-1.429,0.267-2.228,0.267C177.677,48.3,176.43,47.865,175.464,47.025z"/>
		<path d="M184.927,42.585c0-1.85,0-2.186-0.027-2.563c-0.028-0.406-0.099-0.603-0.505-0.658c-0.098-0.015-0.308-0.028-0.42-0.028
			c-0.042,0-0.099-0.057-0.099-0.099c0-0.069,0.057-0.098,0.196-0.098c0.561,0,1.359,0.028,1.429,0.028c0.084,0,2.662,0.014,2.942,0
			c0.237-0.015,0.462-0.057,0.56-0.07c0.057-0.014,0.112-0.056,0.168-0.056c0.042,0,0.057,0.056,0.057,0.111
			c0,0.084-0.07,0.225-0.099,0.561c-0.014,0.112-0.042,0.645-0.069,0.784c-0.015,0.057-0.057,0.126-0.112,0.126
			c-0.07,0-0.098-0.056-0.098-0.153c0-0.084-0.015-0.28-0.07-0.421c-0.084-0.195-0.21-0.28-0.883-0.364
			c-0.21-0.027-1.639-0.042-1.778-0.042c-0.057,0-0.07,0.042-0.07,0.126v3.236c0,0.084,0,0.126,0.07,0.126
			c0.153,0,1.778,0,2.059-0.028c0.294-0.027,0.477-0.042,0.603-0.168c0.084-0.084,0.14-0.154,0.182-0.154s0.07,0.028,0.07,0.099
			s-0.07,0.266-0.098,0.658c-0.028,0.238-0.057,0.687-0.057,0.771c0,0.098-0.027,0.224-0.112,0.224
			c-0.056,0-0.084-0.042-0.084-0.111c0-0.112,0-0.238-0.056-0.393c-0.042-0.168-0.154-0.309-0.63-0.364
			c-0.337-0.042-1.653-0.056-1.863-0.056c-0.07,0-0.084,0.042-0.084,0.084v0.994c0,0.406-0.015,1.793,0,2.031
			c0.027,0.799,0.252,0.952,1.471,0.952c0.322,0,0.91,0,1.232-0.126c0.322-0.14,0.49-0.35,0.561-0.826
			c0.028-0.14,0.056-0.182,0.126-0.182s0.084,0.098,0.084,0.182s-0.098,0.896-0.168,1.148c-0.084,0.309-0.21,0.309-0.687,0.309
			c-0.925,0-1.639-0.028-2.144-0.042c-0.518-0.028-0.84-0.028-1.022-0.028c-0.027,0-0.266,0-0.532,0.014
			c-0.238,0.015-0.518,0.028-0.714,0.028c-0.126,0-0.196-0.028-0.196-0.098c0-0.042,0.028-0.099,0.098-0.099
			c0.112,0,0.267-0.042,0.379-0.056c0.237-0.042,0.266-0.28,0.322-0.631c0.069-0.49,0.069-1.429,0.069-2.577V42.585z"/>
		<path d="M199.98,38.971c2.773,0,4.875,1.694,4.875,4.469c0,2.661-1.976,4.86-4.945,4.86c-3.376,0-4.818-2.535-4.818-4.679
			C195.091,41.702,196.576,38.971,199.98,38.971z M200.26,47.81c1.106,0,3.334-0.589,3.334-4.034c0-2.857-1.737-4.356-3.685-4.356
			c-2.059,0-3.544,1.288-3.544,3.88C196.366,46.072,198.033,47.81,200.26,47.81z"/>
		<path d="M207.075,42.585c0-1.85,0-2.186-0.027-2.563c-0.028-0.406-0.099-0.603-0.505-0.658c-0.098-0.015-0.308-0.028-0.42-0.028
			c-0.042,0-0.098-0.057-0.098-0.099c0-0.069,0.056-0.098,0.195-0.098c0.561,0,1.331,0.028,1.401,0.028c0.238,0,2.913,0.014,3.193,0
			c0.238-0.015,0.448-0.015,0.561-0.057c0.07-0.014,0.126-0.069,0.168-0.069c0.056,0,0.084,0.056,0.084,0.111
			c0,0.084-0.056,0.225-0.098,0.561c-0.015,0.112-0.028,0.645-0.057,0.784c-0.014,0.057-0.056,0.126-0.112,0.126
			c-0.056,0-0.098-0.056-0.098-0.14c0-0.098-0.042-0.294-0.112-0.448c-0.069-0.154-0.364-0.351-0.84-0.351l-2.018-0.027
			c-0.07,0-0.098,0.027-0.098,0.126v3.25c0,0.069,0,0.111,0.084,0.111l1.681-0.014c0.21,0,0.393,0,0.561-0.014
			c0.294-0.028,0.462-0.07,0.574-0.211c0.056-0.069,0.112-0.126,0.154-0.126c0.056,0,0.069,0.042,0.069,0.099
			c0,0.07-0.084,0.266-0.111,0.658c-0.028,0.238-0.042,0.714-0.042,0.799c0,0.111-0.028,0.237-0.112,0.237
			c-0.07,0-0.084-0.056-0.084-0.111c-0.015-0.126-0.028-0.295-0.084-0.435c-0.057-0.168-0.252-0.322-0.631-0.378
			c-0.308-0.042-1.765-0.028-1.975-0.028c-0.07,0-0.084,0.028-0.084,0.112v0.952c0,1.177,0,2.115,0.056,2.577
			c0.042,0.351,0.112,0.574,0.448,0.631c0.183,0.028,0.448,0.056,0.561,0.056c0.07,0,0.098,0.057,0.098,0.099
			c0,0.056-0.056,0.098-0.196,0.098c-0.686,0-1.484-0.042-1.54-0.042c-0.07,0-0.841,0.042-1.219,0.042
			c-0.126,0-0.196-0.028-0.196-0.098c0-0.042,0.028-0.099,0.098-0.099c0.112,0,0.267-0.042,0.379-0.056
			c0.238-0.042,0.266-0.28,0.322-0.631c0.069-0.49,0.069-1.429,0.069-2.577V42.585z"/>
		<path d="M220.754,37.906c0.168-0.463,0.224-0.547,0.308-0.547s0.141,0.07,0.309,0.505c0.21,0.532,2.409,6.317,3.264,8.446
			c0.504,1.247,0.91,1.471,1.204,1.555c0.211,0.07,0.421,0.084,0.561,0.084c0.084,0,0.141,0.015,0.141,0.084
			c0,0.084-0.126,0.112-0.28,0.112c-0.21,0-1.232,0-2.199-0.028c-0.267-0.014-0.42-0.014-0.42-0.098
			c0-0.056,0.042-0.084,0.098-0.098c0.084-0.028,0.168-0.154,0.084-0.379l-1.303-3.445c-0.028-0.057-0.056-0.084-0.126-0.084h-3.012
			c-0.07,0-0.112,0.042-0.14,0.111l-0.841,2.479c-0.126,0.351-0.196,0.687-0.196,0.938c0,0.28,0.294,0.406,0.532,0.406h0.141
			c0.098,0,0.14,0.028,0.14,0.084c0,0.084-0.084,0.112-0.21,0.112c-0.336,0-0.938-0.042-1.093-0.042s-0.925,0.042-1.583,0.042
			c-0.182,0-0.266-0.028-0.266-0.112c0-0.056,0.056-0.084,0.126-0.084c0.098,0,0.294-0.014,0.406-0.027
			c0.645-0.085,0.924-0.617,1.177-1.317L220.754,37.906z M222.21,43.509c0.07,0,0.07-0.042,0.057-0.098l-1.331-3.782
			c-0.07-0.21-0.14-0.21-0.21,0l-1.232,3.782c-0.028,0.07,0,0.098,0.042,0.098H222.21z"/>
		<path d="M228.986,44.714c0,1.751,0.027,2.465,0.252,2.675c0.196,0.196,0.672,0.28,1.639,0.28c0.645,0,1.19-0.014,1.485-0.364
			c0.153-0.182,0.252-0.434,0.294-0.672c0.014-0.084,0.056-0.154,0.126-0.154c0.056,0,0.084,0.057,0.084,0.183
			s-0.084,0.84-0.182,1.19c-0.085,0.28-0.127,0.322-0.785,0.322c-0.882,0-1.568-0.015-2.143-0.042
			c-0.561-0.015-0.98-0.028-1.345-0.028c-0.057,0-0.267,0-0.505,0.014c-0.252,0.015-0.518,0.028-0.714,0.028
			c-0.126,0-0.196-0.028-0.196-0.098c0-0.042,0.028-0.099,0.098-0.099c0.112,0,0.267-0.027,0.379-0.056
			c0.237-0.057,0.266-0.28,0.322-0.631c0.069-0.49,0.069-1.429,0.069-2.577v-2.101c0-1.85,0-2.186-0.027-2.563
			c-0.028-0.406-0.099-0.603-0.505-0.658c-0.098-0.015-0.308-0.028-0.42-0.028c-0.042,0-0.099-0.057-0.099-0.099
			c0-0.069,0.057-0.098,0.196-0.098c0.561,0,1.331,0.028,1.401,0.028c0.056,0,0.98-0.028,1.358-0.028
			c0.126,0,0.196,0.028,0.196,0.098c0,0.042-0.057,0.084-0.099,0.084c-0.084,0-0.266,0.015-0.406,0.028
			c-0.363,0.07-0.434,0.252-0.462,0.673c-0.014,0.378-0.014,0.714-0.014,2.563V44.714z"/>
		<path d="M234.306,42.585c0-1.85,0-2.186-0.028-2.563c-0.028-0.379-0.098-0.603-0.504-0.658c-0.099-0.015-0.309-0.028-0.421-0.028
			c-0.042,0-0.098-0.057-0.098-0.099c0-0.069,0.056-0.098,0.196-0.098c0.561,0,1.303,0.028,1.415,0.028
			c0.111,0,0.882-0.028,1.246-0.028c0.141,0,0.21,0.028,0.21,0.098c0,0.042-0.056,0.099-0.111,0.099c-0.085,0-0.154,0-0.309,0.028
			c-0.322,0.056-0.393,0.266-0.42,0.658c-0.028,0.378-0.028,0.714-0.028,2.563v1.666c0,1.724,0.378,2.438,0.91,2.914
			c0.603,0.546,1.135,0.645,1.835,0.645c0.757,0,1.485-0.336,1.905-0.841c0.574-0.687,0.7-1.667,0.7-2.886v-1.498
			c0-1.85-0.014-2.186-0.027-2.563c-0.015-0.379-0.084-0.603-0.49-0.658c-0.099-0.015-0.309-0.028-0.421-0.028
			c-0.056,0-0.098-0.057-0.098-0.099c0-0.069,0.056-0.098,0.196-0.098c0.546,0,1.261,0.028,1.33,0.028
			c0.084,0,0.673-0.028,1.037-0.028c0.14,0,0.196,0.028,0.196,0.098c0,0.042-0.042,0.099-0.099,0.099c-0.084,0-0.154,0-0.308,0.028
			c-0.337,0.069-0.406,0.266-0.435,0.658c-0.028,0.378-0.014,0.714-0.014,2.563v1.274c0,1.288-0.169,2.731-1.149,3.572
			c-0.896,0.77-1.849,0.868-2.577,0.868c-0.406,0-1.694-0.028-2.563-0.841c-0.602-0.561-1.078-1.387-1.078-3.123V42.585z"/>
		<path d="M253.855,46.619c0.042,0.42,0.126,1.064,0.63,1.232c0.351,0.112,0.673,0.112,0.799,0.112c0.056,0,0.098,0.027,0.098,0.084
			c0,0.069-0.111,0.111-0.252,0.111c-0.28,0-1.652-0.014-2.101-0.056c-0.295-0.028-0.351-0.07-0.351-0.126
			c0-0.042,0.028-0.084,0.084-0.099c0.07-0.014,0.084-0.195,0.056-0.42l-0.588-6.051h-0.028l-2.97,6.079
			c-0.252,0.519-0.322,0.63-0.434,0.63c-0.112,0-0.183-0.111-0.421-0.546c-0.321-0.589-1.134-2.115-1.442-2.76
			c-0.364-0.756-1.358-2.759-1.568-3.25h-0.057l-0.477,5.379c-0.014,0.183-0.014,0.406-0.014,0.603c0,0.183,0.112,0.294,0.294,0.336
			c0.21,0.057,0.393,0.07,0.477,0.07c0.042,0,0.098,0.042,0.098,0.084c0,0.084-0.084,0.112-0.224,0.112
			c-0.462,0-1.051-0.042-1.148-0.042c-0.112,0-0.7,0.042-1.037,0.042c-0.126,0-0.21-0.028-0.21-0.112
			c0-0.042,0.056-0.084,0.126-0.084c0.099,0,0.183-0.014,0.364-0.042c0.406-0.07,0.42-0.504,0.477-0.952l0.896-7.774
			c0.014-0.126,0.07-0.21,0.14-0.21c0.084,0,0.183,0.042,0.252,0.182l3.727,7.396l3.586-7.382c0.056-0.112,0.112-0.196,0.196-0.196
			s0.153,0.098,0.182,0.322L253.855,46.619z"/>
		<path d="M257.728,46.521c0.028,0.98,0.14,1.274,0.477,1.358c0.224,0.057,0.504,0.07,0.616,0.07c0.056,0,0.098,0.042,0.098,0.099
			c0,0.069-0.084,0.098-0.224,0.098c-0.7,0-1.191-0.042-1.303-0.042c-0.112,0-0.631,0.042-1.19,0.042
			c-0.127,0-0.196-0.014-0.196-0.098c0-0.057,0.042-0.099,0.098-0.099c0.099,0,0.322-0.014,0.504-0.07
			c0.309-0.084,0.351-0.405,0.351-1.484v-6.821c0-0.477,0.07-0.603,0.168-0.603c0.141,0,0.351,0.238,0.477,0.364
			c0.196,0.196,1.989,2.101,3.894,4.062c1.219,1.261,2.536,2.676,2.914,3.068l-0.126-5.968c-0.014-0.771-0.084-1.036-0.462-1.106
			c-0.225-0.042-0.505-0.056-0.603-0.056c-0.084,0-0.099-0.07-0.099-0.112c0-0.07,0.099-0.084,0.238-0.084
			c0.561,0,1.148,0.028,1.289,0.028c0.14,0,0.546-0.028,1.051-0.028c0.126,0,0.224,0.014,0.224,0.084
			c0,0.042-0.056,0.112-0.14,0.112c-0.057,0-0.154,0-0.295,0.028c-0.406,0.084-0.434,0.321-0.434,1.036l-0.028,6.976
			c0,0.784-0.014,0.854-0.098,0.854c-0.126,0-0.253-0.098-0.938-0.729c-0.126-0.112-1.905-1.862-3.208-3.222
			c-1.429-1.499-2.815-2.955-3.193-3.376L257.728,46.521z"/>
		<path d="M269.362,44.686c0,1.148,0,2.087,0.056,2.577c0.042,0.351,0.084,0.574,0.448,0.631c0.183,0.028,0.448,0.056,0.561,0.056
			c0.07,0,0.098,0.057,0.098,0.099c0,0.056-0.056,0.098-0.196,0.098c-0.686,0-1.484-0.042-1.54-0.042
			c-0.07,0-0.841,0.042-1.219,0.042c-0.126,0-0.196-0.028-0.196-0.098c0-0.042,0.028-0.099,0.098-0.099
			c0.112,0,0.267-0.027,0.379-0.056c0.238-0.057,0.28-0.28,0.322-0.631c0.056-0.49,0.069-1.429,0.069-2.577v-2.101
			c0-1.85,0-2.186-0.027-2.563c-0.028-0.406-0.126-0.589-0.393-0.645c-0.14-0.028-0.294-0.042-0.378-0.042
			c-0.057,0-0.099-0.057-0.099-0.099c0-0.069,0.057-0.098,0.196-0.098c0.406,0,1.177,0.028,1.247,0.028
			c0.056,0,0.854-0.028,1.232-0.028c0.14,0,0.196,0.028,0.196,0.098c0,0.042-0.057,0.099-0.099,0.099c-0.084,0-0.168,0-0.308,0.028
			c-0.336,0.069-0.406,0.237-0.435,0.658c-0.014,0.378-0.014,0.714-0.014,2.563V44.686z"/>
		<path d="M277.86,41.618c0-2.186,0-2.577-0.028-3.025c-0.027-0.477-0.14-0.701-0.602-0.799c-0.112-0.028-0.351-0.042-0.477-0.042
			c-0.056,0-0.112-0.028-0.112-0.084c0-0.084,0.07-0.112,0.225-0.112c0.63,0,1.513,0.042,1.583,0.042
			c0.153,0,1.219-0.042,1.652-0.042c0.883,0,1.821,0.084,2.563,0.616c0.351,0.252,0.967,0.938,0.967,1.905
			c0,1.036-0.435,2.073-1.695,3.235c1.148,1.472,2.102,2.718,2.914,3.586c0.756,0.799,1.358,0.953,1.709,1.009
			c0.266,0.042,0.462,0.042,0.546,0.042c0.07,0,0.126,0.042,0.126,0.084c0,0.084-0.084,0.112-0.336,0.112H285.9
			c-0.784,0-1.134-0.07-1.498-0.267c-0.603-0.321-1.093-1.008-1.892-2.059c-0.588-0.771-1.246-1.709-1.526-2.073
			c-0.057-0.056-0.099-0.084-0.183-0.084l-1.723-0.028c-0.07,0-0.098,0.042-0.098,0.112v0.336c0,1.345,0,2.452,0.069,3.04
			c0.042,0.406,0.127,0.714,0.547,0.771c0.196,0.028,0.504,0.056,0.63,0.056c0.084,0,0.112,0.042,0.112,0.084
			c0,0.07-0.07,0.112-0.224,0.112c-0.771,0-1.653-0.042-1.724-0.042c-0.014,0-0.896,0.042-1.316,0.042
			c-0.154,0-0.225-0.028-0.225-0.112c0-0.042,0.028-0.084,0.112-0.084c0.126,0,0.294-0.027,0.421-0.056
			c0.279-0.057,0.35-0.364,0.405-0.771c0.07-0.588,0.07-1.695,0.07-3.04V41.618z M278.981,42.837c0,0.069,0.027,0.126,0.098,0.168
			c0.21,0.126,0.854,0.224,1.471,0.224c0.336,0,0.729-0.042,1.051-0.266c0.49-0.336,0.854-1.093,0.854-2.157
			c0-1.751-0.925-2.802-2.424-2.802c-0.42,0-0.798,0.042-0.938,0.084c-0.069,0.028-0.111,0.084-0.111,0.168V42.837z"/>
		<path d="M287.743,42.585c0-1.85,0-2.186-0.027-2.563c-0.028-0.406-0.099-0.603-0.505-0.658c-0.098-0.015-0.308-0.028-0.42-0.028
			c-0.042,0-0.098-0.057-0.098-0.099c0-0.069,0.056-0.098,0.195-0.098c0.561,0,1.359,0.028,1.429,0.028c0.084,0,2.662,0.014,2.942,0
			c0.237-0.015,0.462-0.057,0.56-0.07c0.057-0.014,0.112-0.056,0.168-0.056c0.042,0,0.057,0.056,0.057,0.111
			c0,0.084-0.07,0.225-0.099,0.561c-0.014,0.112-0.042,0.645-0.069,0.784c-0.015,0.057-0.057,0.126-0.112,0.126
			c-0.07,0-0.098-0.056-0.098-0.153c0-0.084-0.015-0.28-0.07-0.421c-0.084-0.195-0.21-0.28-0.883-0.364
			c-0.21-0.027-1.639-0.042-1.779-0.042c-0.056,0-0.069,0.042-0.069,0.126v3.236c0,0.084,0,0.126,0.069,0.126
			c0.154,0,1.779,0,2.06-0.028c0.294-0.027,0.477-0.042,0.603-0.168c0.084-0.084,0.14-0.154,0.182-0.154s0.07,0.028,0.07,0.099
			s-0.07,0.266-0.098,0.658c-0.028,0.238-0.057,0.687-0.057,0.771c0,0.098-0.027,0.224-0.112,0.224
			c-0.056,0-0.084-0.042-0.084-0.111c0-0.112,0-0.238-0.056-0.393c-0.042-0.168-0.154-0.309-0.63-0.364
			c-0.337-0.042-1.653-0.056-1.863-0.056c-0.07,0-0.084,0.042-0.084,0.084v0.994c0,0.406-0.015,1.793,0,2.031
			c0.027,0.799,0.252,0.952,1.471,0.952c0.322,0,0.91,0,1.232-0.126c0.322-0.14,0.49-0.35,0.561-0.826
			c0.028-0.14,0.056-0.182,0.126-0.182s0.084,0.098,0.084,0.182s-0.098,0.896-0.168,1.148c-0.084,0.309-0.21,0.309-0.687,0.309
			c-0.925,0-1.639-0.028-2.144-0.042c-0.518-0.028-0.84-0.028-1.022-0.028c-0.027,0-0.266,0-0.532,0.014
			c-0.238,0.015-0.518,0.028-0.714,0.028c-0.126,0-0.196-0.028-0.196-0.098c0-0.042,0.028-0.099,0.098-0.099
			c0.112,0,0.267-0.042,0.379-0.056c0.238-0.042,0.266-0.28,0.322-0.631c0.069-0.49,0.069-1.429,0.069-2.577V42.585z"/>
		<path d="M296.228,44.714c0,1.751,0.027,2.465,0.252,2.675c0.196,0.196,0.672,0.28,1.639,0.28c0.645,0,1.19-0.014,1.485-0.364
			c0.153-0.182,0.252-0.434,0.294-0.672c0.014-0.084,0.056-0.154,0.126-0.154c0.056,0,0.084,0.057,0.084,0.183
			s-0.084,0.84-0.182,1.19c-0.085,0.28-0.127,0.322-0.785,0.322c-0.882,0-1.568-0.015-2.143-0.042
			c-0.561-0.015-0.98-0.028-1.345-0.028c-0.057,0-0.267,0-0.505,0.014c-0.252,0.015-0.518,0.028-0.714,0.028
			c-0.126,0-0.196-0.028-0.196-0.098c0-0.042,0.028-0.099,0.098-0.099c0.112,0,0.267-0.027,0.379-0.056
			c0.237-0.057,0.266-0.28,0.322-0.631c0.069-0.49,0.069-1.429,0.069-2.577v-2.101c0-1.85,0-2.186-0.027-2.563
			c-0.028-0.406-0.099-0.603-0.505-0.658c-0.098-0.015-0.308-0.028-0.42-0.028c-0.042,0-0.099-0.057-0.099-0.099
			c0-0.069,0.057-0.098,0.196-0.098c0.561,0,1.331,0.028,1.401,0.028c0.056,0,0.98-0.028,1.358-0.028
			c0.126,0,0.196,0.028,0.196,0.098c0,0.042-0.057,0.084-0.099,0.084c-0.084,0-0.266,0.015-0.406,0.028
			c-0.363,0.07-0.434,0.252-0.462,0.673c-0.014,0.378-0.014,0.714-0.014,2.563V44.714z"/>
		<path d="M304.25,39.377c0.154-0.393,0.211-0.463,0.295-0.463c0.126,0,0.168,0.169,0.294,0.435
			c0.224,0.505,2.199,5.421,2.955,7.229c0.448,1.064,0.785,1.218,1.051,1.302c0.183,0.057,0.364,0.07,0.49,0.07
			c0.07,0,0.154,0.028,0.154,0.099c0,0.069-0.141,0.098-0.28,0.098c-0.182,0-1.093,0-1.947-0.028
			c-0.238-0.014-0.434-0.014-0.434-0.084c0-0.056,0.027-0.056,0.084-0.084c0.069-0.027,0.195-0.126,0.111-0.322l-1.106-2.731
			c-0.027-0.056-0.042-0.069-0.112-0.069h-2.843c-0.057,0-0.099,0.027-0.126,0.098l-0.701,1.905
			c-0.111,0.294-0.182,0.588-0.182,0.798c0,0.238,0.21,0.322,0.42,0.322h0.112c0.098,0,0.126,0.042,0.126,0.099
			c0,0.069-0.07,0.098-0.182,0.098c-0.295,0-0.967-0.042-1.107-0.042c-0.126,0-0.742,0.042-1.246,0.042
			c-0.154,0-0.238-0.028-0.238-0.098c0-0.057,0.056-0.099,0.112-0.099c0.084,0,0.266-0.014,0.364-0.027
			c0.561-0.07,0.798-0.49,1.036-1.093L304.25,39.377z M305.623,44.336c0.056,0,0.056-0.028,0.042-0.085l-1.219-3.264
			c-0.07-0.182-0.14-0.182-0.21,0l-1.148,3.264c-0.015,0.057,0,0.085,0.042,0.085H305.623z"/>
		<path d="M312.553,44.686c0,1.148,0,2.087,0.057,2.577c0.042,0.351,0.098,0.574,0.476,0.631c0.168,0.028,0.448,0.056,0.561,0.056
			c0.084,0,0.098,0.057,0.098,0.099c0,0.056-0.056,0.098-0.195,0.098c-0.673,0-1.457-0.042-1.527-0.042
			c-0.056,0-0.91,0.042-1.274,0.042c-0.14,0-0.196-0.028-0.196-0.098c0-0.042,0.028-0.084,0.099-0.084
			c0.111,0,0.252-0.028,0.363-0.057c0.253-0.056,0.322-0.294,0.364-0.645c0.057-0.49,0.057-1.429,0.057-2.577v-5.001l-1.779,0.028
			c-0.771,0.014-1.064,0.098-1.246,0.378c-0.141,0.211-0.154,0.295-0.196,0.379c-0.028,0.098-0.07,0.111-0.126,0.111
			c-0.028,0-0.084-0.027-0.084-0.098c0-0.126,0.237-1.19,0.266-1.289c0.014-0.069,0.084-0.224,0.126-0.224
			c0.084,0,0.21,0.098,0.547,0.14c0.35,0.042,0.826,0.057,0.966,0.057h4.65c0.406,0,0.687-0.028,0.883-0.057
			c0.183-0.027,0.294-0.056,0.351-0.056c0.056,0,0.056,0.07,0.056,0.14c0,0.364-0.042,1.219-0.042,1.359
			c0,0.098-0.056,0.153-0.112,0.153c-0.056,0-0.084-0.042-0.098-0.21l-0.014-0.126c-0.043-0.364-0.309-0.63-1.485-0.658
			l-1.541-0.028V44.686z"/>
		<path d="M319.175,44.686c0,1.148,0,2.087,0.056,2.577c0.042,0.351,0.084,0.574,0.448,0.631c0.183,0.028,0.448,0.056,0.561,0.056
			c0.07,0,0.098,0.057,0.098,0.099c0,0.056-0.056,0.098-0.195,0.098c-0.687,0-1.485-0.042-1.541-0.042
			c-0.07,0-0.841,0.042-1.219,0.042c-0.126,0-0.196-0.028-0.196-0.098c0-0.042,0.028-0.099,0.098-0.099
			c0.112,0,0.267-0.027,0.379-0.056c0.237-0.057,0.28-0.28,0.322-0.631c0.056-0.49,0.069-1.429,0.069-2.577v-2.101
			c0-1.85,0-2.186-0.027-2.563c-0.028-0.406-0.127-0.589-0.393-0.645c-0.14-0.028-0.294-0.042-0.378-0.042
			c-0.057,0-0.099-0.057-0.099-0.099c0-0.069,0.057-0.098,0.196-0.098c0.406,0,1.177,0.028,1.247,0.028
			c0.056,0,0.854-0.028,1.232-0.028c0.14,0,0.196,0.028,0.196,0.098c0,0.042-0.057,0.099-0.099,0.099c-0.084,0-0.168,0-0.308,0.028
			c-0.336,0.069-0.406,0.237-0.435,0.658c-0.014,0.378-0.014,0.714-0.014,2.563V44.686z"/>
		<path d="M326.442,38.971c2.773,0,4.874,1.694,4.874,4.469c0,2.661-1.975,4.86-4.944,4.86c-3.376,0-4.818-2.535-4.818-4.679
			C321.553,41.702,323.038,38.971,326.442,38.971z M326.722,47.81c1.106,0,3.334-0.589,3.334-4.034c0-2.857-1.737-4.356-3.685-4.356
			c-2.059,0-3.544,1.288-3.544,3.88C322.828,46.072,324.495,47.81,326.722,47.81z"/>
		<path d="M334.056,46.521c0.028,0.98,0.14,1.274,0.477,1.358c0.224,0.057,0.504,0.07,0.616,0.07c0.056,0,0.098,0.042,0.098,0.099
			c0,0.069-0.084,0.098-0.224,0.098c-0.7,0-1.191-0.042-1.303-0.042c-0.112,0-0.631,0.042-1.19,0.042
			c-0.127,0-0.196-0.014-0.196-0.098c0-0.057,0.042-0.099,0.098-0.099c0.099,0,0.322-0.014,0.504-0.07
			c0.309-0.084,0.351-0.405,0.351-1.484v-6.821c0-0.477,0.07-0.603,0.168-0.603c0.141,0,0.351,0.238,0.477,0.364
			c0.196,0.196,1.989,2.101,3.894,4.062c1.219,1.261,2.536,2.676,2.914,3.068l-0.126-5.968c-0.014-0.771-0.084-1.036-0.462-1.106
			c-0.225-0.042-0.505-0.056-0.603-0.056c-0.084,0-0.099-0.07-0.099-0.112c0-0.07,0.099-0.084,0.238-0.084
			c0.561,0,1.148,0.028,1.289,0.028c0.14,0,0.546-0.028,1.051-0.028c0.126,0,0.224,0.014,0.224,0.084
			c0,0.042-0.056,0.112-0.14,0.112c-0.057,0-0.154,0-0.295,0.028c-0.406,0.084-0.434,0.321-0.434,1.036l-0.028,6.976
			c0,0.784-0.014,0.854-0.098,0.854c-0.126,0-0.253-0.098-0.938-0.729c-0.126-0.112-1.905-1.862-3.208-3.222
			c-1.429-1.499-2.815-2.955-3.193-3.376L334.056,46.521z"/>
		<path d="M343.813,47.978c-0.168-0.084-0.183-0.126-0.183-0.448c0-0.589,0.057-1.064,0.07-1.261c0-0.126,0.028-0.196,0.098-0.196
			c0.07,0,0.112,0.042,0.112,0.141c0,0.098,0,0.266,0.042,0.434c0.196,0.869,1.121,1.177,1.947,1.177
			c1.219,0,1.849-0.687,1.849-1.583c0-0.854-0.462-1.261-1.555-2.073l-0.56-0.42c-1.331-0.994-1.766-1.723-1.766-2.549
			c0-1.401,1.106-2.241,2.731-2.241c0.49,0,0.98,0.069,1.275,0.14c0.237,0.056,0.336,0.056,0.434,0.056
			c0.099,0,0.126,0.015,0.126,0.084c0,0.057-0.056,0.448-0.056,1.261c0,0.183-0.014,0.267-0.099,0.267
			c-0.084,0-0.098-0.057-0.111-0.154c-0.015-0.14-0.112-0.462-0.183-0.588c-0.084-0.141-0.49-0.589-1.597-0.589
			c-0.896,0-1.639,0.448-1.639,1.289c0,0.756,0.378,1.19,1.597,2.017l0.351,0.238c1.498,1.022,2.017,1.85,2.017,2.872
			c0,0.7-0.266,1.456-1.148,2.03c-0.519,0.337-1.289,0.421-1.961,0.421C345.032,48.3,344.317,48.216,343.813,47.978z"/>
		<path d="M354.565,45.246c0-1.639,1.051-2.731,2.144-3.376c-0.519-0.729-0.687-1.303-0.687-1.933c0-1.107,1.135-2.578,3.012-2.578
			c0.714,0,1.316,0.141,1.694,0.351c0.169,0.098,0.183,0.182,0.183,0.351c0,0.42-0.056,1.4-0.099,1.61
			c-0.042,0.21-0.084,0.238-0.14,0.238c-0.07,0-0.084-0.056-0.084-0.267c0-0.364-0.084-0.826-0.435-1.19
			c-0.308-0.322-0.784-0.616-1.4-0.616c-0.841,0-1.779,0.519-1.779,1.835c0,1.093,0.757,2.003,2.214,3.586
			c0.476,0.519,2.199,2.129,2.647,2.508c0.392-0.532,0.714-1.472,0.714-2.325c0-0.211-0.056-0.477-0.266-0.687
			c-0.183-0.183-0.477-0.225-0.687-0.225c-0.084,0-0.168-0.028-0.168-0.098c0-0.07,0.111-0.099,0.224-0.099
			c0.336,0,0.896,0.015,1.681,0.099c0.211,0.027,0.253,0.14,0.253,0.28c0,1.135-0.771,2.549-1.387,3.306
			c0.924,0.784,1.54,1.162,1.933,1.387c0.448,0.266,1.162,0.546,1.667,0.546c0.126,0,0.196,0.015,0.196,0.099
			c0,0.056-0.112,0.098-0.238,0.098h-1.373c-1.036,0-1.373-0.098-2.913-1.316c-0.322,0.322-1.429,1.513-3.502,1.513
			C355.518,48.342,354.565,46.465,354.565,45.246z M361.107,46.563c-0.785-0.645-2.172-1.975-2.535-2.367
			c-0.364-0.393-1.261-1.387-1.653-1.961c-0.729,0.477-1.261,1.232-1.261,2.354c0,1.751,1.232,3.012,2.802,3.012
			C359.762,47.6,360.63,47.053,361.107,46.563z"/>
		<path d="M371.057,41.618c0-2.186,0-2.577-0.028-3.025c-0.027-0.477-0.14-0.701-0.602-0.799c-0.112-0.028-0.351-0.042-0.477-0.042
			c-0.056,0-0.112-0.028-0.112-0.084c0-0.084,0.07-0.112,0.225-0.112c0.63,0,1.513,0.042,1.583,0.042
			c0.168,0,1.05-0.042,1.891-0.042c1.387,0,3.95-0.126,5.617,1.597c0.7,0.729,1.358,1.892,1.358,3.559
			c0,1.765-0.729,3.123-1.513,3.95c-0.603,0.63-1.863,1.61-4.244,1.61c-0.603,0-1.345-0.042-1.947-0.084
			c-0.616-0.042-1.093-0.084-1.162-0.084c-0.028,0-0.267,0-0.561,0.014c-0.28,0-0.603,0.028-0.813,0.028
			c-0.154,0-0.225-0.028-0.225-0.112c0-0.042,0.028-0.084,0.112-0.084c0.126,0,0.294-0.027,0.421-0.056
			c0.279-0.057,0.35-0.364,0.405-0.771c0.07-0.588,0.07-1.695,0.07-3.04V41.618z M372.234,43.131c0,1.484,0.014,2.773,0.028,3.04
			c0.014,0.35,0.042,0.91,0.154,1.064c0.182,0.266,0.728,0.56,2.381,0.56c1.303,0,2.507-0.476,3.334-1.303
			c0.729-0.714,1.12-2.059,1.12-3.348c0-1.778-0.771-2.928-1.345-3.529c-1.316-1.387-2.913-1.583-4.58-1.583
			c-0.28,0-0.799,0.042-0.91,0.098c-0.127,0.057-0.169,0.126-0.169,0.28c-0.014,0.477-0.014,1.905-0.014,2.983V43.131z"/>
		<path d="M383.069,42.585c0-1.85,0-2.186-0.027-2.563c-0.028-0.406-0.099-0.603-0.505-0.658c-0.098-0.015-0.308-0.028-0.42-0.028
			c-0.042,0-0.098-0.057-0.098-0.099c0-0.069,0.056-0.098,0.195-0.098c0.561,0,1.359,0.028,1.429,0.028c0.084,0,2.662,0.014,2.942,0
			c0.237-0.015,0.462-0.057,0.56-0.07c0.057-0.014,0.112-0.056,0.168-0.056c0.042,0,0.057,0.056,0.057,0.111
			c0,0.084-0.07,0.225-0.099,0.561c-0.014,0.112-0.042,0.645-0.069,0.784c-0.015,0.057-0.057,0.126-0.112,0.126
			c-0.07,0-0.098-0.056-0.098-0.153c0-0.084-0.015-0.28-0.07-0.421c-0.084-0.195-0.21-0.28-0.883-0.364
			c-0.21-0.027-1.639-0.042-1.779-0.042c-0.056,0-0.069,0.042-0.069,0.126v3.236c0,0.084,0,0.126,0.069,0.126
			c0.154,0,1.779,0,2.06-0.028c0.294-0.027,0.477-0.042,0.603-0.168c0.084-0.084,0.14-0.154,0.182-0.154s0.07,0.028,0.07,0.099
			s-0.07,0.266-0.098,0.658c-0.028,0.238-0.057,0.687-0.057,0.771c0,0.098-0.027,0.224-0.112,0.224
			c-0.056,0-0.084-0.042-0.084-0.111c0-0.112,0-0.238-0.056-0.393c-0.042-0.168-0.154-0.309-0.63-0.364
			c-0.337-0.042-1.653-0.056-1.863-0.056c-0.07,0-0.084,0.042-0.084,0.084v0.994c0,0.406-0.015,1.793,0,2.031
			c0.027,0.799,0.252,0.952,1.471,0.952c0.322,0,0.91,0,1.232-0.126c0.322-0.14,0.49-0.35,0.561-0.826
			c0.028-0.14,0.056-0.182,0.126-0.182s0.084,0.098,0.084,0.182s-0.098,0.896-0.168,1.148c-0.084,0.309-0.21,0.309-0.687,0.309
			c-0.925,0-1.639-0.028-2.144-0.042c-0.518-0.028-0.84-0.028-1.022-0.028c-0.027,0-0.266,0-0.532,0.014
			c-0.238,0.015-0.518,0.028-0.714,0.028c-0.126,0-0.196-0.028-0.196-0.098c0-0.042,0.028-0.099,0.098-0.099
			c0.112,0,0.267-0.042,0.379-0.056c0.238-0.042,0.266-0.28,0.322-0.631c0.069-0.49,0.069-1.429,0.069-2.577V42.585z"/>
		<path d="M393.458,46.591c0.714-1.597,2.325-5.659,2.591-6.514c0.057-0.182,0.112-0.351,0.112-0.448s-0.042-0.21-0.168-0.252
			c-0.141-0.042-0.28-0.042-0.42-0.042c-0.07,0-0.141-0.042-0.141-0.099c0-0.069,0.084-0.098,0.28-0.098
			c0.49,0,1.051,0.028,1.205,0.028c0.069,0,0.602-0.028,0.966-0.028c0.126,0,0.196,0.028,0.196,0.084s-0.042,0.112-0.14,0.112
			c-0.084,0-0.364,0-0.589,0.14c-0.168,0.112-0.364,0.28-0.687,1.093c-0.14,0.336-0.742,1.765-1.372,3.222
			c-0.757,1.737-1.303,3.025-1.583,3.614c-0.336,0.714-0.406,0.896-0.532,0.896c-0.141,0-0.225-0.154-0.463-0.729l-3.025-7.298
			c-0.28-0.673-0.448-0.799-0.854-0.896c-0.196-0.042-0.406-0.042-0.477-0.042c-0.069,0-0.098-0.07-0.098-0.112
			c0-0.07,0.126-0.084,0.322-0.084c0.588,0,1.289,0.028,1.442,0.028c0.126,0,0.673-0.028,1.149-0.028
			c0.224,0,0.336,0.028,0.336,0.084s-0.042,0.112-0.126,0.112c-0.141,0-0.337,0.014-0.448,0.056
			c-0.126,0.057-0.141,0.126-0.141,0.21c0,0.154,0.154,0.519,0.337,0.995L393.458,46.591z"/>
		<path d="M399.546,42.585c0-1.85,0-2.186-0.027-2.563c-0.028-0.406-0.099-0.603-0.505-0.658c-0.098-0.015-0.308-0.028-0.42-0.028
			c-0.042,0-0.099-0.057-0.099-0.099c0-0.069,0.057-0.098,0.196-0.098c0.561,0,1.359,0.028,1.429,0.028c0.084,0,2.662,0.014,2.942,0
			c0.237-0.015,0.462-0.057,0.56-0.07c0.057-0.014,0.112-0.056,0.168-0.056c0.042,0,0.057,0.056,0.057,0.111
			c0,0.084-0.07,0.225-0.099,0.561c-0.014,0.112-0.042,0.645-0.069,0.784c-0.015,0.057-0.057,0.126-0.112,0.126
			c-0.07,0-0.098-0.056-0.098-0.153c0-0.084-0.015-0.28-0.07-0.421c-0.084-0.195-0.21-0.28-0.883-0.364
			c-0.21-0.027-1.639-0.042-1.778-0.042c-0.057,0-0.07,0.042-0.07,0.126v3.236c0,0.084,0,0.126,0.07,0.126
			c0.153,0,1.778,0,2.059-0.028c0.294-0.027,0.477-0.042,0.603-0.168c0.084-0.084,0.14-0.154,0.182-0.154s0.07,0.028,0.07,0.099
			s-0.07,0.266-0.098,0.658c-0.028,0.238-0.057,0.687-0.057,0.771c0,0.098-0.027,0.224-0.112,0.224
			c-0.056,0-0.084-0.042-0.084-0.111c0-0.112,0-0.238-0.056-0.393c-0.042-0.168-0.154-0.309-0.63-0.364
			c-0.337-0.042-1.653-0.056-1.863-0.056c-0.07,0-0.084,0.042-0.084,0.084v0.994c0,0.406-0.015,1.793,0,2.031
			c0.027,0.799,0.252,0.952,1.471,0.952c0.322,0,0.91,0,1.232-0.126c0.322-0.14,0.49-0.35,0.561-0.826
			c0.028-0.14,0.056-0.182,0.126-0.182s0.084,0.098,0.084,0.182s-0.098,0.896-0.168,1.148c-0.084,0.309-0.21,0.309-0.687,0.309
			c-0.925,0-1.639-0.028-2.144-0.042c-0.518-0.028-0.84-0.028-1.022-0.028c-0.027,0-0.266,0-0.532,0.014
			c-0.238,0.015-0.518,0.028-0.714,0.028c-0.126,0-0.196-0.028-0.196-0.098c0-0.042,0.028-0.099,0.098-0.099
			c0.112,0,0.267-0.042,0.379-0.056c0.237-0.042,0.266-0.28,0.322-0.631c0.069-0.49,0.069-1.429,0.069-2.577V42.585z"/>
		<path d="M408.031,44.714c0,1.751,0.027,2.465,0.252,2.675c0.196,0.196,0.672,0.28,1.639,0.28c0.645,0,1.19-0.014,1.485-0.364
			c0.153-0.182,0.252-0.434,0.294-0.672c0.014-0.084,0.056-0.154,0.126-0.154c0.056,0,0.084,0.057,0.084,0.183
			s-0.084,0.84-0.182,1.19c-0.085,0.28-0.127,0.322-0.785,0.322c-0.882,0-1.568-0.015-2.143-0.042
			c-0.561-0.015-0.98-0.028-1.345-0.028c-0.057,0-0.267,0-0.505,0.014c-0.252,0.015-0.518,0.028-0.714,0.028
			c-0.126,0-0.196-0.028-0.196-0.098c0-0.042,0.028-0.099,0.098-0.099c0.112,0,0.267-0.027,0.379-0.056
			c0.237-0.057,0.266-0.28,0.322-0.631c0.069-0.49,0.069-1.429,0.069-2.577v-2.101c0-1.85,0-2.186-0.027-2.563
			c-0.028-0.406-0.099-0.603-0.505-0.658c-0.098-0.015-0.308-0.028-0.42-0.028c-0.042,0-0.099-0.057-0.099-0.099
			c0-0.069,0.057-0.098,0.196-0.098c0.561,0,1.331,0.028,1.401,0.028c0.056,0,0.98-0.028,1.358-0.028
			c0.126,0,0.196,0.028,0.196,0.098c0,0.042-0.057,0.084-0.099,0.084c-0.084,0-0.266,0.015-0.406,0.028
			c-0.363,0.07-0.434,0.252-0.462,0.673c-0.014,0.378-0.014,0.714-0.014,2.563V44.714z"/>
		<path d="M417.231,38.971c2.773,0,4.874,1.694,4.874,4.469c0,2.661-1.975,4.86-4.944,4.86c-3.376,0-4.818-2.535-4.818-4.679
			C412.342,41.702,413.827,38.971,417.231,38.971z M417.511,47.81c1.106,0,3.334-0.589,3.334-4.034c0-2.857-1.737-4.356-3.685-4.356
			c-2.059,0-3.544,1.288-3.544,3.88C413.617,46.072,415.284,47.81,417.511,47.81z"/>
		<path d="M424.326,42.585c0-1.85,0-2.186-0.027-2.563c-0.028-0.406-0.099-0.603-0.505-0.658c-0.098-0.015-0.308-0.028-0.42-0.028
			c-0.042,0-0.099-0.057-0.099-0.099c0-0.069,0.057-0.098,0.196-0.098c0.561,0,1.331,0.028,1.429,0.028
			c0.267,0,1.191-0.028,1.751-0.028c1.583,0,2.144,0.49,2.354,0.672c0.28,0.253,0.616,0.785,0.616,1.43
			c0,1.709-1.288,2.843-3.18,2.843c-0.07,0-0.28,0-0.35-0.014c-0.057,0-0.127-0.056-0.127-0.112c0-0.098,0.07-0.126,0.322-0.126
			c1.331,0,2.283-0.84,2.283-1.919c0-0.393-0.042-1.162-0.7-1.807c-0.645-0.645-1.387-0.574-1.667-0.574
			c-0.21,0-0.56,0.056-0.686,0.084c-0.07,0.014-0.099,0.098-0.099,0.224v4.847c0,1.148,0,2.087,0.056,2.577
			c0.043,0.351,0.112,0.574,0.49,0.631c0.169,0.028,0.435,0.056,0.547,0.056c0.07,0,0.098,0.057,0.098,0.099
			c0,0.056-0.056,0.098-0.195,0.098c-0.673,0-1.485-0.042-1.541-0.042c-0.042,0-0.841,0.042-1.219,0.042
			c-0.126,0-0.196-0.028-0.196-0.098c0-0.042,0.028-0.099,0.098-0.099c0.112,0,0.267-0.027,0.379-0.056
			c0.237-0.057,0.266-0.28,0.322-0.631c0.069-0.49,0.069-1.429,0.069-2.577V42.585z"/>
		<path d="M441.412,46.619c0.042,0.42,0.126,1.064,0.63,1.232c0.351,0.112,0.673,0.112,0.799,0.112c0.056,0,0.098,0.027,0.098,0.084
			c0,0.069-0.111,0.111-0.252,0.111c-0.28,0-1.652-0.014-2.101-0.056c-0.295-0.028-0.351-0.07-0.351-0.126
			c0-0.042,0.028-0.084,0.084-0.099c0.07-0.014,0.084-0.195,0.056-0.42l-0.588-6.051h-0.028l-2.97,6.079
			c-0.252,0.519-0.322,0.63-0.434,0.63c-0.112,0-0.183-0.111-0.421-0.546c-0.321-0.589-1.134-2.115-1.442-2.76
			c-0.364-0.756-1.358-2.759-1.568-3.25h-0.057l-0.477,5.379c-0.014,0.183-0.014,0.406-0.014,0.603c0,0.183,0.112,0.294,0.294,0.336
			c0.21,0.057,0.393,0.07,0.477,0.07c0.042,0,0.098,0.042,0.098,0.084c0,0.084-0.084,0.112-0.224,0.112
			c-0.462,0-1.051-0.042-1.148-0.042c-0.112,0-0.7,0.042-1.037,0.042c-0.126,0-0.21-0.028-0.21-0.112
			c0-0.042,0.056-0.084,0.126-0.084c0.099,0,0.183-0.014,0.364-0.042c0.406-0.07,0.42-0.504,0.477-0.952l0.896-7.774
			c0.014-0.126,0.07-0.21,0.14-0.21c0.084,0,0.183,0.042,0.252,0.182l3.727,7.396l3.586-7.382c0.056-0.112,0.112-0.196,0.196-0.196
			s0.153,0.098,0.182,0.322L441.412,46.619z"/>
		<path d="M444.766,42.585c0-1.85,0-2.186-0.027-2.563c-0.028-0.406-0.099-0.603-0.505-0.658c-0.098-0.015-0.308-0.028-0.42-0.028
			c-0.042,0-0.098-0.057-0.098-0.099c0-0.069,0.056-0.098,0.195-0.098c0.561,0,1.359,0.028,1.429,0.028c0.084,0,2.662,0.014,2.942,0
			c0.237-0.015,0.462-0.057,0.56-0.07c0.057-0.014,0.112-0.056,0.168-0.056c0.042,0,0.057,0.056,0.057,0.111
			c0,0.084-0.07,0.225-0.099,0.561c-0.014,0.112-0.042,0.645-0.069,0.784c-0.015,0.057-0.057,0.126-0.112,0.126
			c-0.07,0-0.098-0.056-0.098-0.153c0-0.084-0.015-0.28-0.07-0.421c-0.084-0.195-0.21-0.28-0.883-0.364
			c-0.21-0.027-1.639-0.042-1.779-0.042c-0.056,0-0.069,0.042-0.069,0.126v3.236c0,0.084,0,0.126,0.069,0.126
			c0.154,0,1.779,0,2.06-0.028c0.294-0.027,0.477-0.042,0.603-0.168c0.084-0.084,0.14-0.154,0.182-0.154s0.07,0.028,0.07,0.099
			s-0.07,0.266-0.098,0.658c-0.028,0.238-0.057,0.687-0.057,0.771c0,0.098-0.027,0.224-0.112,0.224
			c-0.056,0-0.084-0.042-0.084-0.111c0-0.112,0-0.238-0.056-0.393c-0.042-0.168-0.154-0.309-0.63-0.364
			c-0.337-0.042-1.653-0.056-1.863-0.056c-0.07,0-0.084,0.042-0.084,0.084v0.994c0,0.406-0.015,1.793,0,2.031
			c0.027,0.799,0.252,0.952,1.471,0.952c0.322,0,0.91,0,1.232-0.126c0.322-0.14,0.49-0.35,0.561-0.826
			c0.028-0.14,0.056-0.182,0.126-0.182s0.084,0.098,0.084,0.182s-0.098,0.896-0.168,1.148c-0.084,0.309-0.21,0.309-0.687,0.309
			c-0.925,0-1.639-0.028-2.144-0.042c-0.518-0.028-0.84-0.028-1.022-0.028c-0.027,0-0.266,0-0.532,0.014
			c-0.238,0.015-0.518,0.028-0.714,0.028c-0.126,0-0.196-0.028-0.196-0.098c0-0.042,0.028-0.099,0.098-0.099
			c0.112,0,0.267-0.042,0.379-0.056c0.238-0.042,0.266-0.28,0.322-0.631c0.069-0.49,0.069-1.429,0.069-2.577V42.585z"/>
		<path d="M452.648,46.521c0.028,0.98,0.14,1.274,0.477,1.358c0.224,0.057,0.504,0.07,0.616,0.07c0.056,0,0.098,0.042,0.098,0.099
			c0,0.069-0.084,0.098-0.224,0.098c-0.7,0-1.191-0.042-1.303-0.042c-0.112,0-0.631,0.042-1.19,0.042
			c-0.127,0-0.196-0.014-0.196-0.098c0-0.057,0.042-0.099,0.098-0.099c0.099,0,0.322-0.014,0.504-0.07
			c0.309-0.084,0.351-0.405,0.351-1.484v-6.821c0-0.477,0.07-0.603,0.168-0.603c0.141,0,0.351,0.238,0.477,0.364
			c0.196,0.196,1.989,2.101,3.894,4.062c1.219,1.261,2.536,2.676,2.914,3.068l-0.126-5.968c-0.014-0.771-0.084-1.036-0.462-1.106
			c-0.225-0.042-0.505-0.056-0.603-0.056c-0.084,0-0.099-0.07-0.099-0.112c0-0.07,0.099-0.084,0.238-0.084
			c0.561,0,1.148,0.028,1.289,0.028c0.14,0,0.546-0.028,1.051-0.028c0.126,0,0.224,0.014,0.224,0.084
			c0,0.042-0.056,0.112-0.14,0.112c-0.057,0-0.154,0-0.295,0.028c-0.406,0.084-0.434,0.321-0.434,1.036l-0.028,6.976
			c0,0.784-0.014,0.854-0.098,0.854c-0.126,0-0.253-0.098-0.938-0.729c-0.126-0.112-1.905-1.862-3.208-3.222
			c-1.429-1.499-2.815-2.955-3.193-3.376L452.648,46.521z"/>
		<path d="M466.131,44.686c0,1.148,0,2.087,0.057,2.577c0.042,0.351,0.098,0.574,0.476,0.631c0.168,0.028,0.448,0.056,0.561,0.056
			c0.084,0,0.098,0.057,0.098,0.099c0,0.056-0.056,0.098-0.195,0.098c-0.673,0-1.457-0.042-1.527-0.042
			c-0.056,0-0.91,0.042-1.274,0.042c-0.14,0-0.196-0.028-0.196-0.098c0-0.042,0.028-0.084,0.099-0.084
			c0.111,0,0.252-0.028,0.363-0.057c0.253-0.056,0.322-0.294,0.364-0.645c0.057-0.49,0.057-1.429,0.057-2.577v-5.001l-1.779,0.028
			c-0.771,0.014-1.064,0.098-1.246,0.378c-0.141,0.211-0.154,0.295-0.196,0.379c-0.028,0.098-0.07,0.111-0.126,0.111
			c-0.028,0-0.084-0.027-0.084-0.098c0-0.126,0.237-1.19,0.266-1.289c0.014-0.069,0.084-0.224,0.126-0.224
			c0.084,0,0.21,0.098,0.547,0.14c0.35,0.042,0.826,0.057,0.966,0.057h4.65c0.406,0,0.687-0.028,0.883-0.057
			c0.183-0.027,0.294-0.056,0.351-0.056c0.056,0,0.056,0.07,0.056,0.14c0,0.364-0.042,1.219-0.042,1.359
			c0,0.098-0.056,0.153-0.112,0.153c-0.056,0-0.084-0.042-0.098-0.21l-0.014-0.126c-0.043-0.364-0.309-0.63-1.485-0.658
			l-1.541-0.028V44.686z"/>
	</g>
</g>
</svg>
