<?xml version="1.0" encoding="utf-8"?>
<!-- Generator: Adobe Illustrator 16.0.3, SVG Export Plug-In . SVG Version: 6.00 Build 0)  -->
<!DOCTYPE svg PUBLIC "-//W3C//DTD SVG 1.1//EN" "http://www.w3.org/Graphics/SVG/1.1/DTD/svg11.dtd">
<svg version="1.1" id="Layer_1" xmlns="http://www.w3.org/2000/svg" xmlns:xlink="http://www.w3.org/1999/xlink" x="0px" y="0px"
	 width="470.428px" height="48.343px" viewBox="0 0 470.428 48.343" enable-background="new 0 0 470.428 48.343"
	 xml:space="preserve">
<g id="Layer_1_1_">
	<g>
		<rect y="2.205" fill="#AA0000" width="35.098" height="34.846"/>
		<polygon fill="none" stroke="#FFFFFF" stroke-width="1.0845" points="4.565,13.526 29.983,13.476 17.274,4.445 		"/>
		<path fill="none" stroke="#FFFFFF" stroke-width="1.0845" d="M13.878,33.903c1.017,0,1.839-0.821,1.839-1.838V16.849
			c0-1.016-0.822-1.84-1.839-1.84l0,0c-1.016,0-1.839,0.824-1.839,1.84v15.216C12.039,33.082,12.862,33.903,13.878,33.903
			L13.878,33.903z"/>
		<path fill="none" stroke="#FFFFFF" stroke-width="1.0845" d="M20.182,33.883c1.017,0,1.84-0.823,1.84-1.84V16.825
			c0-1.015-0.823-1.839-1.84-1.839l0,0c-1.016,0-1.841,0.824-1.841,1.839v15.218C18.341,33.06,19.167,33.883,20.182,33.883
			L20.182,33.883z"/>
		<path fill="none" stroke="#FFFFFF" stroke-width="1.0845" d="M25.889,15.081c-1.016,0-1.588,0.823-1.588,1.84v15.215
			c0,1.018,0.572,1.842,1.588,1.842"/>
		<path fill="none" stroke="#FFFFFF" stroke-width="1.0845" d="M8.053,34.01c1.017,0,1.589-0.821,1.589-1.837V16.955
			c0-1.018-0.572-1.841-1.589-1.841"/>
		<rect x="1.013" y="3.345" fill="none" stroke="#FFFFFF" stroke-width="1.0544" width="33.072" height="32.69"/>
	</g>
	<g>
		<path fill="#231F20" d="M51.055,21.755c0,5.219,0,7.214-0.967,9.499c-0.676,1.608-2.094,3.124-4.701,4.929
			c-0.418,0.289-0.935,0.644-1.256,0.803c-0.064,0.033-0.129,0.065-0.226,0.065c-0.097,0-0.226-0.065-0.226-0.192
			c0-0.193,0.161-0.291,0.451-0.484c0.386-0.225,0.838-0.611,1.127-0.9c2.094-2.125,3.092-3.832,3.092-12.138v-9.308
			c0-5.023,0-5.925-0.065-6.954c-0.063-1.096-0.32-1.611-1.384-1.837c-0.257-0.064-0.806-0.097-1.094-0.097
			c-0.131,0-0.258-0.064-0.258-0.193c0-0.194,0.161-0.257,0.514-0.257c1.448,0,3.479,0.097,3.64,0.097
			c0.161,0,2.188-0.097,3.154-0.097c0.354,0,0.515,0.063,0.515,0.257c0,0.129-0.129,0.193-0.258,0.193
			c-0.226,0-0.418,0.032-0.803,0.097c-0.871,0.161-1.127,0.708-1.19,1.837c-0.065,1.029-0.065,1.931-0.065,6.954V21.755z"/>
		<path fill="#231F20" d="M55.907,18.302c0-5.644,3.22-8.479,7.522-8.479c4.072,0,7.835,3.326,7.835,9.51
			c0,7.497-4.794,8.838-7.112,8.838C59.513,28.17,55.907,24.305,55.907,18.302z M53.458,19.022c0,4.638,2.937,10.127,9.998,10.127
			c6.209,0,10.28-4.769,10.28-10.539c0-6.006-4.329-9.663-10.129-9.663C56.497,8.948,53.458,14.848,53.458,19.022z"/>
		<path fill="#231F20" d="M91.901,21.315c0,2.474,0,4.509,0.128,5.592c0.076,0.748,0.232,1.314,1.006,1.417
			c0.359,0.052,0.926,0.103,1.159,0.103c0.154,0,0.204,0.078,0.204,0.156c0,0.129-0.129,0.205-0.41,0.205
			c-1.418,0-3.04-0.076-3.169-0.076c-0.131,0-1.753,0.076-2.526,0.076c-0.282,0-0.412-0.051-0.412-0.205
			c0-0.078,0.051-0.156,0.206-0.156c0.23,0,0.54-0.051,0.773-0.103c0.515-0.103,0.644-0.669,0.747-1.417
			c0.13-1.083,0.13-3.118,0.13-5.592v-2.704c0-0.104-0.079-0.155-0.155-0.155H78.656c-0.076,0-0.154,0.025-0.154,0.155v2.704
			c0,2.474,0,4.509,0.129,5.592c0.076,0.748,0.23,1.314,1.005,1.417c0.358,0.052,0.929,0.103,1.16,0.103
			c0.153,0,0.205,0.078,0.205,0.156c0,0.129-0.129,0.205-0.412,0.205c-1.419,0-3.04-0.076-3.169-0.076s-1.754,0.076-2.525,0.076
			c-0.284,0-0.413-0.051-0.413-0.205c0-0.078,0.051-0.156,0.205-0.156c0.234,0,0.543-0.051,0.774-0.103
			c0.517-0.103,0.643-0.669,0.748-1.417c0.129-1.083,0.129-3.118,0.129-5.592v-4.534c0-4.021,0-4.742-0.053-5.566
			c-0.053-0.876-0.258-1.288-1.107-1.469c-0.206-0.053-0.646-0.077-0.877-0.077c-0.102,0-0.205-0.051-0.205-0.154
			c0-0.155,0.128-0.208,0.412-0.208c1.158,0,2.783,0.079,2.912,0.079s1.75-0.079,2.524-0.079c0.285,0,0.414,0.053,0.414,0.208
			c0,0.104-0.104,0.154-0.208,0.154c-0.179,0-0.335,0.024-0.644,0.077c-0.695,0.13-0.903,0.567-0.953,1.469
			c-0.052,0.824-0.052,1.545-0.052,5.566v0.541c0,0.128,0.078,0.154,0.154,0.154h10.926c0.076,0,0.155-0.026,0.155-0.154v-0.541
			c0-4.021,0-4.742-0.053-5.566c-0.052-0.876-0.257-1.288-1.107-1.469c-0.206-0.053-0.646-0.077-0.877-0.077
			c-0.104,0-0.207-0.051-0.207-0.154c0-0.155,0.129-0.208,0.415-0.208c1.158,0,2.78,0.079,2.911,0.079
			c0.129,0,1.751-0.079,2.524-0.079c0.284,0,0.412,0.053,0.412,0.208c0,0.104-0.104,0.154-0.205,0.154
			c-0.183,0-0.337,0.024-0.645,0.077c-0.696,0.13-0.902,0.567-0.953,1.469c-0.052,0.824-0.052,1.545-0.052,5.566v4.534H91.901z"/>
		<path fill="#231F20" d="M98.19,25.285c0.053,2.112,0.31,2.78,1.006,2.987c0.489,0.129,1.055,0.153,1.287,0.153
			c0.13,0,0.205,0.054,0.205,0.156c0,0.153-0.151,0.205-0.461,0.205c-1.47,0-2.501-0.076-2.733-0.076
			c-0.231,0-1.313,0.076-2.473,0.076c-0.258,0-0.413-0.026-0.413-0.205c0-0.104,0.077-0.156,0.207-0.156
			c0.206,0,0.67-0.024,1.057-0.153c0.646-0.182,0.774-0.928,0.774-3.272l0.023-14.765c0-1.004,0.078-1.287,0.284-1.287
			s0.644,0.566,0.902,0.824c0.387,0.438,4.226,4.586,8.193,8.839c2.552,2.729,5.359,5.873,6.184,6.724l-0.281-13.089
			c-0.027-1.675-0.207-2.241-1.007-2.448c-0.464-0.104-1.056-0.129-1.262-0.129c-0.181,0-0.207-0.078-0.207-0.181
			c0-0.154,0.207-0.182,0.516-0.182c1.159,0,2.397,0.079,2.679,0.079c0.284,0,1.135-0.079,2.191-0.079
			c0.284,0,0.464,0.027,0.464,0.182c0,0.103-0.104,0.181-0.284,0.181c-0.128,0-0.308,0-0.617,0.077
			c-0.852,0.181-0.953,0.747-0.953,2.293l-0.052,15.099c0,1.703-0.053,1.831-0.233,1.831c-0.203,0-0.514-0.284-1.881-1.647
			c-0.283-0.258-3.993-4.047-6.726-6.983c-2.988-3.222-5.899-6.467-6.724-7.396L98.19,25.285z"/>
		<path fill="#231F20" d="M154.191,24.878c0.129,1.16,0.354,2.964,1.738,3.413c0.933,0.291,1.77,0.291,2.095,0.291
			c0.16,0,0.256,0.032,0.256,0.16c0,0.194-0.291,0.291-0.675,0.291c-0.711,0-4.187-0.097-5.379-0.193
			c-0.742-0.065-0.902-0.161-0.902-0.323c0-0.129,0.066-0.191,0.227-0.226c0.161-0.032,0.193-0.579,0.128-1.158l-1.544-16.616
			h-0.098l-7.889,16.744c-0.676,1.418-0.774,1.708-1.065,1.708c-0.223,0-0.384-0.323-0.996-1.481
			c-0.837-1.577-3.607-7.148-3.766-7.47c-0.291-0.579-3.897-8.308-4.251-9.177h-0.13l-1.287,14.94
			c-0.033,0.516-0.033,1.095-0.033,1.642c0,0.483,0.354,0.902,0.836,0.998c0.548,0.129,1.031,0.162,1.226,0.162
			c0.128,0,0.257,0.063,0.257,0.16c0,0.227-0.193,0.291-0.58,0.291c-1.188,0-2.735-0.097-2.993-0.097
			c-0.29,0-1.837,0.097-2.705,0.097c-0.324,0-0.548-0.064-0.548-0.291c0-0.097,0.161-0.16,0.324-0.16c0.258,0,0.481,0,0.963-0.097
			c1.063-0.194,1.161-1.449,1.289-2.674l2.319-20.995c0.064-0.353,0.162-0.579,0.354-0.579c0.192,0,0.321,0.129,0.482,0.482
			l9.854,20.256l9.467-20.225c0.128-0.287,0.258-0.514,0.482-0.514c0.227,0,0.321,0.258,0.389,0.869L154.191,24.878z"/>
		<path fill="#231F20" d="M164.321,20.26c-0.076,0-0.129-0.052-0.076-0.181l2.268-6.958c0.129-0.387,0.258-0.387,0.387,0
			l2.447,6.958c0.026,0.103,0.026,0.181-0.104,0.181H164.321z M160.714,25.953c-0.464,1.288-0.98,2.269-2.164,2.423
			c-0.207,0.025-0.567,0.051-0.748,0.051c-0.129,0-0.231,0.053-0.231,0.156c0,0.154,0.152,0.205,0.49,0.205
			c1.21,0,2.626-0.076,2.912-0.076c0.282,0,1.39,0.076,2.008,0.076c0.234,0,0.386-0.051,0.386-0.205
			c0-0.104-0.078-0.156-0.256-0.156h-0.259c-0.438,0-0.978-0.23-0.978-0.746c0-0.464,0.129-1.082,0.359-1.728l1.547-4.56
			c0.051-0.13,0.129-0.207,0.259-0.207h5.537c0.131,0,0.183,0.053,0.233,0.154l2.397,6.341c0.153,0.41,0,0.644-0.156,0.694
			c-0.104,0.026-0.182,0.077-0.182,0.181c0,0.155,0.286,0.155,0.773,0.182c1.78,0.051,3.66,0.051,4.047,0.051
			c0.284,0,0.515-0.051,0.515-0.205c0-0.13-0.102-0.156-0.258-0.156c-0.257,0-0.644-0.023-1.03-0.152
			c-0.54-0.155-1.286-0.567-2.216-2.859c-1.572-3.918-5.616-14.561-6.003-15.538c-0.311-0.8-0.414-0.928-0.569-0.928
			c-0.153,0-0.256,0.154-0.566,1.004L160.714,25.953z"/>
		<path fill="#231F20" d="M181.521,10.597c0-0.154,0.075-0.258,0.204-0.31c0.258-0.077,0.954-0.155,1.728-0.155
			c2.757,0,4.459,1.933,4.459,5.153c0,1.959-0.671,3.35-1.573,3.969c-0.594,0.413-1.315,0.489-1.934,0.489
			c-1.133,0-2.317-0.179-2.702-0.411c-0.129-0.078-0.182-0.181-0.182-0.31V10.597L181.521,10.597z M179.459,21.315
			c0,2.474,0,4.509-0.128,5.592c-0.105,0.748-0.233,1.314-0.748,1.417c-0.232,0.052-0.544,0.103-0.774,0.103
			c-0.152,0-0.206,0.078-0.206,0.156c0,0.154,0.129,0.205,0.413,0.205c0.772,0,2.396-0.076,2.423-0.076
			c0.127,0,1.751,0.076,3.169,0.076c0.281,0,0.412-0.076,0.412-0.205c0-0.078-0.053-0.156-0.207-0.156
			c-0.232,0-0.799-0.051-1.16-0.103c-0.771-0.103-0.928-0.669-1.003-1.417c-0.129-1.083-0.129-3.118-0.129-5.592v-0.617
			c0-0.129,0.053-0.207,0.182-0.207l3.168,0.052c0.152,0,0.231,0.051,0.335,0.155c0.515,0.669,1.726,2.395,2.808,3.813
			c1.468,1.932,2.371,3.195,3.479,3.788c0.67,0.36,1.314,0.489,2.757,0.489h1.83c0.465,0,0.618-0.051,0.618-0.205
			c0-0.078-0.104-0.156-0.232-0.156c-0.155,0-0.515,0-1.003-0.076c-0.646-0.104-1.753-0.387-3.146-1.854
			c-1.494-1.6-3.244-3.892-5.36-6.598c2.32-2.14,3.119-4.046,3.119-5.952c0-1.778-1.132-3.041-1.777-3.504
			c-1.366-0.98-3.092-1.136-4.717-1.136c-0.799,0-2.755,0.079-3.04,0.079c-0.128,0-1.752-0.079-2.912-0.079
			c-0.282,0-0.411,0.053-0.411,0.208c0,0.104,0.104,0.154,0.206,0.154c0.233,0,0.67,0.024,0.876,0.077
			c0.849,0.181,1.056,0.593,1.108,1.469c0.052,0.824,0.052,1.545,0.052,5.566v4.534H179.459z"/>
		<path fill="#231F20" d="M196.981,28.453c-0.361-0.181-0.386-0.283-0.386-0.979c0-1.289,0.103-2.317,0.128-2.731
			c0.027-0.283,0.078-0.412,0.206-0.412c0.154,0,0.181,0.079,0.181,0.283c0,0.234,0,0.593,0.077,0.953
			c0.388,1.908,2.087,2.629,3.814,2.629c2.474,0,3.686-1.777,3.686-3.428c0-1.775-0.748-2.809-2.965-4.636l-1.159-0.955
			c-2.73-2.242-3.352-3.84-3.352-5.591c0-2.757,2.063-4.638,5.335-4.638c1.006,0,1.753,0.103,2.397,0.257
			c0.488,0.102,0.696,0.129,0.901,0.129c0.206,0,0.257,0.052,0.257,0.181c0,0.129-0.101,0.979-0.101,2.732
			c0,0.412-0.051,0.593-0.182,0.593c-0.156,0-0.179-0.129-0.205-0.336c-0.026-0.31-0.182-1.004-0.335-1.288
			c-0.155-0.284-0.851-1.366-3.222-1.366c-1.777,0-3.17,1.107-3.17,2.99c0,1.468,0.723,2.345,3.143,4.328l0.723,0.567
			c3.042,2.397,3.762,3.994,3.762,6.055c0,1.058-0.412,3.017-2.189,4.276c-1.107,0.774-2.499,1.084-3.891,1.084
			C199.223,29.149,198.038,28.969,196.981,28.453z"/>
		<path fill="#231F20" d="M225.302,21.315c0,2.474,0,4.509,0.129,5.592c0.076,0.748,0.232,1.314,1.004,1.417
			c0.36,0.052,0.929,0.103,1.16,0.103c0.153,0,0.206,0.078,0.206,0.156c0,0.129-0.128,0.205-0.413,0.205
			c-1.415,0-3.039-0.076-3.168-0.076c-0.129,0-1.754,0.076-2.524,0.076c-0.284,0-0.413-0.051-0.413-0.205
			c0-0.078,0.052-0.156,0.205-0.156c0.232,0,0.543-0.051,0.775-0.103c0.513-0.103,0.643-0.669,0.746-1.417
			c0.129-1.083,0.129-3.118,0.129-5.592v-2.704c0-0.104-0.078-0.155-0.155-0.155h-10.925c-0.077,0-0.155,0.025-0.155,0.155v2.704
			c0,2.474,0,4.509,0.128,5.592c0.079,0.748,0.233,1.314,1.006,1.417c0.361,0.052,0.927,0.103,1.16,0.103
			c0.154,0,0.205,0.078,0.205,0.156c0,0.129-0.129,0.205-0.41,0.205c-1.418,0-3.042-0.076-3.171-0.076
			c-0.129,0-1.751,0.076-2.524,0.076c-0.284,0-0.413-0.051-0.413-0.205c0-0.078,0.051-0.156,0.207-0.156
			c0.23,0,0.541-0.051,0.772-0.103c0.517-0.103,0.646-0.669,0.747-1.417c0.129-1.083,0.129-3.118,0.129-5.592v-4.534
			c0-4.021,0-4.742-0.052-5.566c-0.05-0.876-0.257-1.288-1.108-1.469c-0.207-0.053-0.645-0.077-0.875-0.077
			c-0.104,0-0.207-0.051-0.207-0.154c0-0.155,0.129-0.208,0.413-0.208c1.16,0,2.782,0.079,2.911,0.079
			c0.129,0,1.753-0.079,2.525-0.079c0.283,0,0.412,0.053,0.412,0.208c0,0.104-0.103,0.154-0.206,0.154
			c-0.18,0-0.335,0.024-0.645,0.077c-0.695,0.13-0.9,0.567-0.953,1.469c-0.052,0.824-0.052,1.545-0.052,5.566v0.541
			c0,0.128,0.078,0.154,0.155,0.154h10.925c0.077,0,0.155-0.026,0.155-0.154v-0.541c0-4.021,0-4.742-0.052-5.566
			c-0.053-0.876-0.26-1.288-1.108-1.469c-0.207-0.053-0.644-0.077-0.874-0.077c-0.105,0-0.208-0.051-0.208-0.154
			c0-0.155,0.129-0.208,0.412-0.208c1.158,0,2.783,0.079,2.912,0.079c0.129,0,1.753-0.079,2.525-0.079
			c0.283,0,0.412,0.053,0.412,0.208c0,0.104-0.103,0.154-0.207,0.154c-0.178,0-0.334,0.024-0.645,0.077
			c-0.695,0.13-0.901,0.567-0.952,1.469c-0.052,0.824-0.052,1.545-0.052,5.566v4.534H225.302z"/>
		<path fill="#231F20" d="M234.513,20.26c-0.078,0-0.128-0.052-0.078-0.181l2.269-6.958c0.129-0.387,0.258-0.387,0.387,0
			l2.449,6.958c0.025,0.103,0.025,0.181-0.104,0.181H234.513z M230.906,25.953c-0.465,1.288-0.979,2.269-2.165,2.423
			c-0.206,0.025-0.567,0.051-0.745,0.051c-0.129,0-0.233,0.053-0.233,0.156c0,0.154,0.153,0.205,0.49,0.205
			c1.211,0,2.627-0.076,2.911-0.076c0.283,0,1.392,0.076,2.011,0.076c0.231,0,0.384-0.051,0.384-0.205
			c0-0.104-0.076-0.156-0.255-0.156h-0.259c-0.438,0-0.979-0.23-0.979-0.746c0-0.464,0.129-1.082,0.359-1.728l1.547-4.56
			c0.053-0.13,0.13-0.207,0.259-0.207h5.539c0.13,0,0.182,0.053,0.232,0.154l2.396,6.341c0.153,0.41,0,0.644-0.155,0.694
			c-0.103,0.026-0.18,0.077-0.18,0.181c0,0.155,0.283,0.155,0.773,0.182c1.776,0.051,3.658,0.051,4.045,0.051
			c0.283,0,0.515-0.051,0.515-0.205c0-0.13-0.103-0.156-0.258-0.156c-0.257,0-0.644-0.023-1.028-0.152
			c-0.543-0.155-1.289-0.567-2.218-2.859c-1.571-3.918-5.616-14.561-6.004-15.538c-0.31-0.8-0.41-0.928-0.565-0.928
			c-0.156,0-0.259,0.154-0.566,1.004L230.906,25.953z"/>
		<path fill="#231F20" d="M252.532,21.367c0,3.789,0.102,5.438,0.564,5.899c0.414,0.414,1.084,0.594,3.093,0.594
			c1.366,0,2.499-0.025,3.117-0.772c0.336-0.412,0.593-1.057,0.671-1.546c0.025-0.207,0.077-0.336,0.232-0.336
			c0.127,0,0.154,0.104,0.154,0.387s-0.181,1.829-0.388,2.577c-0.181,0.593-0.259,0.695-1.623,0.695
			c-3.712,0-5.412-0.153-6.907-0.153c-0.104,0-0.539,0.025-1.056,0.025c-0.517,0.023-1.082,0.051-1.47,0.051
			c-0.281,0-0.41-0.051-0.41-0.205c0-0.078,0.051-0.156,0.205-0.156c0.23,0,0.541-0.051,0.771-0.103
			c0.516-0.103,0.645-0.669,0.747-1.417c0.13-1.083,0.13-3.118,0.13-5.592v-4.534c0-4.021,0-4.742-0.053-5.566
			c-0.051-0.876-0.258-1.288-1.107-1.469c-0.205-0.053-0.644-0.077-0.875-0.077c-0.104,0-0.207-0.051-0.207-0.154
			c0-0.155,0.129-0.208,0.412-0.208c1.16,0,2.785,0.079,2.911,0.079c0.132,0,2.011-0.079,2.783-0.079
			c0.285,0,0.412,0.053,0.412,0.208c0,0.104-0.103,0.154-0.205,0.154c-0.181,0-0.542,0.024-0.851,0.077
			c-0.746,0.13-0.953,0.567-1.006,1.469c-0.05,0.824-0.05,1.545-0.05,5.566v4.586H252.532z"/>
		<path fill="#231F20" d="M265.635,21.367c0,3.789,0.105,5.438,0.57,5.899c0.41,0.414,1.082,0.594,3.09,0.594
			c1.367,0,2.5-0.025,3.119-0.772c0.336-0.412,0.592-1.057,0.668-1.546c0.026-0.207,0.08-0.336,0.233-0.336
			c0.129,0,0.153,0.104,0.153,0.387s-0.18,1.829-0.387,2.577c-0.182,0.593-0.258,0.695-1.623,0.695
			c-3.711,0-5.412-0.153-6.905-0.153c-0.104,0-0.542,0.025-1.058,0.025c-0.516,0.023-1.082,0.051-1.468,0.051
			c-0.284,0-0.411-0.051-0.411-0.205c0-0.078,0.049-0.156,0.205-0.156c0.232,0,0.539-0.051,0.771-0.103
			c0.516-0.103,0.646-0.669,0.748-1.417c0.129-1.083,0.129-3.118,0.129-5.592v-4.534c0-4.021,0-4.742-0.053-5.566
			c-0.051-0.876-0.258-1.288-1.107-1.469c-0.207-0.053-0.645-0.077-0.875-0.077c-0.105,0-0.207-0.051-0.207-0.154
			c0-0.155,0.129-0.208,0.412-0.208c1.16,0,2.783,0.079,2.912,0.079c0.131,0,2.011-0.079,2.781-0.079
			c0.283,0,0.412,0.053,0.412,0.208c0,0.104-0.103,0.154-0.205,0.154c-0.18,0-0.541,0.024-0.851,0.077
			c-0.747,0.13-0.953,0.567-1.006,1.469c-0.052,0.824-0.052,1.545-0.052,5.566v4.586H265.635z"/>
		<path fill="#231F20" d="M290.364,19.76c0,4.733,0.129,6.794,0.707,7.373c0.518,0.515,1.354,0.741,3.864,0.741
			c1.706,0,3.124-0.032,3.897-0.967c0.418-0.518,0.74-1.32,0.836-1.932c0.033-0.258,0.097-0.418,0.291-0.418
			c0.16,0,0.189,0.129,0.189,0.481c0,0.355-0.223,2.288-0.48,3.22c-0.226,0.741-0.321,0.87-2.028,0.87
			c-4.638,0-6.763-0.191-8.632-0.191c-0.286,0-2.188,0.097-3.153,0.097c-0.354,0-0.515-0.064-0.515-0.259
			c0-0.097,0.063-0.192,0.258-0.192c0.291,0,0.675-0.065,0.965-0.129c0.646-0.129,0.807-0.838,0.936-1.772
			c0.16-1.352,0.16-3.896,0.16-6.986v-5.667c0-5.023,0-5.925-0.063-6.954c-0.063-1.096-0.322-1.611-1.386-1.837
			c-0.258-0.064-0.805-0.097-1.094-0.097c-0.13,0-0.259-0.064-0.259-0.193c0-0.194,0.159-0.257,0.517-0.257
			c1.447,0,3.478,0.097,3.637,0.097c0.162,0,2.514-0.097,3.48-0.097c0.354,0,0.514,0.063,0.514,0.257
			c0,0.129-0.129,0.193-0.258,0.193c-0.227,0-0.676,0.032-1.063,0.097c-0.933,0.161-1.188,0.708-1.255,1.837
			c-0.063,1.029-0.063,1.931-0.063,6.954v5.732H290.364z"/>
		<path fill="#231F20" d="M306.946,20.26c-0.078,0-0.127-0.052-0.078-0.181l2.268-6.958c0.129-0.387,0.258-0.387,0.389,0
			l2.447,6.958c0.025,0.103,0.025,0.181-0.102,0.181H306.946z M303.338,25.953c-0.465,1.288-0.981,2.269-2.164,2.423
			c-0.207,0.025-0.567,0.051-0.746,0.051c-0.131,0-0.233,0.053-0.233,0.156c0,0.154,0.154,0.205,0.49,0.205
			c1.211,0,2.627-0.076,2.911-0.076c0.281,0,1.392,0.076,2.011,0.076c0.229,0,0.384-0.051,0.384-0.205
			c0-0.104-0.074-0.156-0.255-0.156h-0.259c-0.438,0-0.979-0.23-0.979-0.746c0-0.464,0.127-1.082,0.36-1.728l1.548-4.56
			c0.051-0.13,0.127-0.207,0.256-0.207h5.539c0.129,0,0.182,0.053,0.23,0.154l2.398,6.341c0.152,0.41,0,0.644-0.156,0.694
			c-0.102,0.026-0.18,0.077-0.18,0.181c0,0.155,0.283,0.155,0.773,0.182c1.777,0.051,3.658,0.051,4.045,0.051
			c0.283,0,0.516-0.051,0.516-0.205c0-0.13-0.104-0.156-0.258-0.156c-0.258,0-0.645-0.023-1.029-0.152
			c-0.543-0.155-1.289-0.567-2.219-2.859c-1.57-3.918-5.615-14.561-6.002-15.538c-0.311-0.8-0.414-0.928-0.566-0.928
			c-0.154,0-0.258,0.154-0.566,1.004L303.338,25.953z"/>
		<path fill="#231F20" d="M335.467,25.233h0.104c0.695-2.372,3.066-9.845,3.969-13.144c0.258-0.953,0.283-1.314,0.283-1.648
			c0-0.465-0.283-0.773-1.469-0.773c-0.129,0-0.232-0.078-0.232-0.181c0-0.129,0.129-0.182,0.438-0.182
			c1.316,0,2.398,0.079,2.629,0.079c0.182,0,1.289-0.079,2.09-0.079c0.23,0,0.359,0.053,0.359,0.155
			c0,0.129-0.078,0.207-0.232,0.207c-0.104,0-0.592,0.024-0.875,0.129c-0.773,0.283-1.186,1.365-1.678,2.783
			c-1.133,3.271-3.734,11.466-4.738,14.353c-0.67,1.907-0.799,2.217-1.084,2.217c-0.258,0-0.412-0.336-0.771-1.34l-5.051-14.328
			h-0.051c-0.93,2.475-4.459,11.904-5.387,14.301c-0.412,1.082-0.541,1.366-0.85,1.366c-0.26,0-0.389-0.284-0.902-2.037
			l-4.586-15.279c-0.412-1.365-0.748-1.752-1.418-2.011c-0.336-0.129-0.979-0.153-1.16-0.153c-0.129,0-0.23-0.025-0.23-0.181
			c0-0.129,0.154-0.182,0.412-0.182c1.338,0,2.756,0.079,3.039,0.079c0.232,0,1.365-0.079,2.656-0.079
			c0.359,0,0.463,0.079,0.463,0.182c0,0.155-0.129,0.181-0.258,0.181c-0.205,0-0.695,0-1.006,0.153
			c-0.152,0.078-0.334,0.284-0.334,0.62c0,0.334,0.232,1.235,0.488,2.37c0.387,1.648,3.066,11.105,3.453,12.473h0.053l5.461-14.688
			c0.389-1.056,0.49-1.186,0.646-1.186c0.182,0,0.334,0.335,0.643,1.212L335.467,25.233z"/>
		<path fill="#231F20" d="M355.043,28.614c-0.449-0.227-0.48-0.355-0.48-1.225c0-1.609,0.129-2.896,0.16-3.413
			c0.031-0.354,0.096-0.516,0.258-0.516c0.193,0,0.225,0.097,0.225,0.354c0,0.29,0,0.741,0.098,1.19
			c0.484,2.383,2.607,3.284,4.768,3.284c3.092,0,4.604-2.222,4.604-4.282c0-2.221-0.936-3.51-3.703-5.795l-1.449-1.193
			c-3.412-2.799-4.188-4.797-4.188-6.986c0-3.444,2.578-5.796,6.668-5.796c1.254,0,2.189,0.129,2.992,0.323
			c0.613,0.128,0.871,0.159,1.129,0.159c0.256,0,0.322,0.064,0.322,0.226c0,0.162-0.129,1.224-0.129,3.414
			c0,0.516-0.064,0.741-0.227,0.741c-0.191,0-0.225-0.162-0.258-0.419c-0.033-0.387-0.227-1.258-0.42-1.609
			c-0.191-0.356-1.061-1.708-4.025-1.708c-2.221,0-3.959,1.386-3.959,3.736c0,1.835,0.9,2.93,3.93,5.407l0.9,0.71
			c3.801,2.995,4.701,4.99,4.701,7.566c0,1.321-0.516,3.769-2.738,5.345c-1.385,0.969-3.123,1.354-4.861,1.354
			C357.846,29.481,356.364,29.258,355.043,28.614z"/>
		<path fill="#231F20" d="M371.793,26.366c-2.5-2.241-3.117-5.18-3.117-7.626c0-1.729,0.592-4.741,2.887-7.036
			c1.545-1.546,3.891-2.756,7.859-2.756c1.029,0,2.475,0.076,3.734,0.309c0.979,0.181,1.805,0.334,2.629,0.387
			c0.283,0.025,0.334,0.129,0.334,0.283c0,0.205-0.076,0.516-0.129,1.442c-0.049,0.851-0.049,2.268-0.076,2.654
			c-0.025,0.386-0.076,0.541-0.232,0.541c-0.18,0-0.207-0.181-0.207-0.541c0-1.006-0.41-2.062-1.08-2.628
			c-0.902-0.772-2.887-1.469-5.152-1.469c-3.428,0-5.025,1.004-5.928,1.882c-1.881,1.802-2.32,4.097-2.32,6.724
			c0,4.923,3.789,9.432,9.303,9.432c1.932,0,3.451-0.232,4.482-1.288c0.543-0.565,0.879-1.7,0.955-2.165
			c0.051-0.283,0.104-0.386,0.256-0.386c0.131,0,0.182,0.18,0.182,0.386c0,0.182-0.309,2.424-0.566,3.301
			c-0.152,0.487-0.205,0.539-0.67,0.744c-1.029,0.413-2.986,0.594-4.639,0.594C376.432,29.149,373.831,28.194,371.793,26.366z"/>
		<path fill="#231F20" d="M406.491,21.315c0,2.474,0,4.509,0.129,5.592c0.074,0.748,0.229,1.314,1.004,1.417
			c0.359,0.052,0.926,0.103,1.158,0.103c0.154,0,0.207,0.078,0.207,0.156c0,0.129-0.129,0.205-0.412,0.205
			c-1.418,0-3.041-0.076-3.168-0.076c-0.129,0-1.754,0.076-2.525,0.076c-0.285,0-0.414-0.051-0.414-0.205
			c0-0.078,0.051-0.156,0.207-0.156c0.23,0,0.541-0.051,0.773-0.103c0.514-0.103,0.643-0.669,0.748-1.417
			c0.127-1.083,0.127-3.118,0.127-5.592v-2.704c0-0.104-0.076-0.155-0.154-0.155h-10.926c-0.076,0-0.154,0.025-0.154,0.155v2.704
			c0,2.474,0,4.509,0.129,5.592c0.078,0.748,0.232,1.314,1.004,1.417c0.363,0.052,0.93,0.103,1.16,0.103
			c0.156,0,0.205,0.078,0.205,0.156c0,0.129-0.129,0.205-0.41,0.205c-1.418,0-3.041-0.076-3.17-0.076s-1.752,0.076-2.523,0.076
			c-0.285,0-0.414-0.051-0.414-0.205c0-0.078,0.053-0.156,0.209-0.156c0.229,0,0.539-0.051,0.77-0.103
			c0.52-0.103,0.646-0.669,0.748-1.417c0.129-1.083,0.129-3.118,0.129-5.592v-4.534c0-4.021,0-4.742-0.053-5.566
			c-0.051-0.876-0.256-1.288-1.107-1.469c-0.205-0.053-0.645-0.077-0.877-0.077c-0.102,0-0.205-0.051-0.205-0.154
			c0-0.155,0.131-0.208,0.412-0.208c1.16,0,2.783,0.079,2.912,0.079s1.752-0.079,2.525-0.079c0.283,0,0.412,0.053,0.412,0.208
			c0,0.104-0.105,0.154-0.207,0.154c-0.18,0-0.334,0.024-0.645,0.077c-0.693,0.13-0.902,0.567-0.953,1.469
			c-0.053,0.824-0.053,1.545-0.053,5.566v0.541c0,0.128,0.08,0.154,0.156,0.154h10.926c0.076,0,0.152-0.026,0.152-0.154v-0.541
			c0-4.021,0-4.742-0.051-5.566c-0.053-0.876-0.258-1.288-1.107-1.469c-0.207-0.053-0.646-0.077-0.877-0.077
			c-0.104,0-0.207-0.051-0.207-0.154c0-0.155,0.131-0.208,0.414-0.208c1.158,0,2.783,0.079,2.912,0.079s1.75-0.079,2.525-0.079
			c0.281,0,0.41,0.053,0.41,0.208c0,0.104-0.104,0.154-0.205,0.154c-0.182,0-0.334,0.024-0.645,0.077
			c-0.695,0.13-0.902,0.567-0.953,1.469c-0.051,0.824-0.051,1.545-0.051,5.566v4.534H406.491z"/>
		<path fill="#231F20" d="M412.381,18.302c0-5.644,3.221-8.479,7.523-8.479c4.072,0,7.834,3.326,7.834,9.51
			c0,7.497-4.793,8.838-7.111,8.838C415.991,28.17,412.381,24.305,412.381,18.302z M409.932,19.022
			c0,4.638,2.939,10.127,9.998,10.127c6.211,0,10.283-4.769,10.283-10.539c0-6.006-4.33-9.663-10.129-9.663
			C412.973,8.948,409.932,14.848,409.932,19.022z"/>
		<path fill="#231F20" d="M434.528,18.302c0-5.644,3.221-8.479,7.523-8.479c4.07,0,7.832,3.326,7.832,9.51
			c0,7.497-4.793,8.838-7.109,8.838C438.135,28.17,434.528,24.305,434.528,18.302z M432.081,19.022
			c0,4.638,2.936,10.127,9.996,10.127c6.213,0,10.281-4.769,10.281-10.539c0-6.006-4.328-9.663-10.125-9.663
			C435.12,8.948,432.081,14.848,432.081,19.022z"/>
		<path fill="#231F20" d="M457.836,21.367c0,3.789,0.105,5.438,0.57,5.899c0.41,0.414,1.08,0.594,3.09,0.594
			c1.365,0,2.5-0.025,3.119-0.772c0.334-0.412,0.592-1.057,0.668-1.546c0.027-0.207,0.078-0.336,0.23-0.336
			c0.131,0,0.156,0.104,0.156,0.387s-0.182,1.829-0.389,2.577c-0.18,0.593-0.256,0.695-1.621,0.695c-3.711,0-5.41-0.153-6.904-0.153
			c-0.104,0-0.543,0.025-1.059,0.025c-0.516,0.023-1.082,0.051-1.469,0.051c-0.283,0-0.412-0.051-0.412-0.205
			c0-0.078,0.053-0.156,0.205-0.156c0.232,0,0.541-0.051,0.773-0.103c0.516-0.103,0.645-0.669,0.748-1.417
			c0.129-1.083,0.129-3.118,0.129-5.592v-4.534c0-4.021,0-4.742-0.053-5.566c-0.051-0.876-0.258-1.288-1.105-1.469
			c-0.207-0.053-0.646-0.077-0.877-0.077c-0.104,0-0.207-0.051-0.207-0.154c0-0.155,0.129-0.208,0.412-0.208
			c1.16,0,2.783,0.079,2.914,0.079c0.125,0,2.008-0.079,2.781-0.079c0.283,0,0.41,0.053,0.41,0.208c0,0.104-0.102,0.154-0.207,0.154
			c-0.178,0-0.539,0.024-0.85,0.077c-0.746,0.13-0.951,0.567-1.004,1.469c-0.053,0.824-0.053,1.545-0.053,5.566v4.586H457.836z"/>
		<g>
			<path fill="#231F20" d="M58.621,4.337c0,0.867,0,1.581,0.045,1.96c0.026,0.263,0.081,0.462,0.352,0.498
				c0.128,0.018,0.326,0.035,0.407,0.035c0.053,0,0.072,0.027,0.072,0.055c0,0.046-0.046,0.072-0.146,0.072
				c-0.497,0-1.065-0.026-1.11-0.026c-0.045,0-0.616,0.026-0.886,0.026c-0.101,0-0.146-0.019-0.146-0.072
				c0-0.027,0.018-0.055,0.074-0.055c0.08,0,0.188-0.018,0.271-0.035c0.181-0.036,0.227-0.235,0.262-0.498
				c0.045-0.379,0.045-1.093,0.045-1.96V0.516l-1.336,0.017c-0.562,0.009-0.778,0.072-0.921,0.29
				c-0.101,0.153-0.128,0.217-0.156,0.279c-0.026,0.073-0.055,0.091-0.091,0.091c-0.026,0-0.044-0.025-0.044-0.082
				c0-0.09,0.18-0.866,0.199-0.939C55.53,0.118,55.566,0,55.604,0C55.666,0,55.755,0.091,56,0.108
				c0.262,0.027,0.605,0.045,0.713,0.045h3.39c0.578,0,0.821-0.091,0.894-0.091c0.046,0,0.046,0.055,0.046,0.109
				c0,0.271-0.027,0.893-0.027,0.996c0,0.08-0.028,0.115-0.063,0.115c-0.047,0-0.064-0.026-0.073-0.152l-0.009-0.1
				c-0.037-0.271-0.243-0.479-1.109-0.498l-1.14-0.017L58.621,4.337L58.621,4.337z"/>
			<path fill="#231F20" d="M65.512,4.884c0,0.656,0,1.194,0.034,1.48c0.021,0.198,0.06,0.348,0.266,0.376
				c0.095,0.014,0.246,0.026,0.308,0.026c0.04,0,0.054,0.02,0.054,0.041c0,0.035-0.034,0.054-0.108,0.054
				c-0.375,0-0.805-0.019-0.839-0.019c-0.033,0-0.464,0.019-0.67,0.019c-0.074,0-0.107-0.012-0.107-0.054
				c0-0.021,0.014-0.041,0.055-0.041c0.061,0,0.142-0.013,0.204-0.026c0.137-0.028,0.171-0.178,0.197-0.376
				c0.033-0.286,0.033-0.824,0.033-1.48V4.169c0-0.028-0.019-0.042-0.04-0.042h-2.892c-0.021,0-0.039,0.008-0.039,0.042v0.715
				c0,0.656,0,1.194,0.031,1.48c0.021,0.198,0.063,0.348,0.267,0.376c0.097,0.014,0.246,0.026,0.309,0.026
				c0.039,0,0.054,0.02,0.054,0.041c0,0.035-0.034,0.054-0.11,0.054c-0.373,0-0.803-0.019-0.838-0.019
				c-0.035,0-0.465,0.019-0.668,0.019c-0.076,0-0.11-0.012-0.11-0.054c0-0.021,0.016-0.041,0.056-0.041
				c0.063,0,0.143-0.013,0.204-0.026c0.137-0.028,0.17-0.178,0.199-0.376c0.031-0.286,0.031-0.824,0.031-1.48V3.685
				c0-1.064,0-1.255-0.013-1.474c-0.014-0.233-0.067-0.341-0.293-0.389c-0.056-0.014-0.169-0.021-0.23-0.021
				c-0.029,0-0.056-0.015-0.056-0.042c0-0.04,0.033-0.053,0.109-0.053c0.306,0,0.735,0.021,0.771,0.021
				c0.036,0,0.465-0.021,0.668-0.021c0.076,0,0.109,0.013,0.109,0.053c0,0.027-0.027,0.042-0.054,0.042
				c-0.051,0-0.09,0.007-0.17,0.021c-0.187,0.034-0.24,0.149-0.253,0.389c-0.013,0.219-0.013,0.409-0.013,1.474v0.142
				c0,0.035,0.019,0.043,0.039,0.043h2.892c0.021,0,0.04-0.008,0.04-0.043V3.685c0-1.064,0-1.255-0.014-1.474
				c-0.014-0.233-0.067-0.341-0.292-0.389c-0.055-0.014-0.17-0.021-0.23-0.021c-0.028,0-0.056-0.015-0.056-0.042
				c0-0.04,0.033-0.053,0.108-0.053c0.308,0,0.738,0.021,0.771,0.021c0.034,0,0.464-0.021,0.668-0.021
				c0.075,0,0.11,0.013,0.11,0.053c0,0.027-0.028,0.042-0.058,0.042c-0.046,0-0.088,0.007-0.169,0.021
				c-0.185,0.034-0.238,0.149-0.251,0.389c-0.015,0.219-0.015,0.409-0.015,1.474L65.512,4.884L65.512,4.884z"/>
			<path fill="#231F20" d="M67.183,3.685c0-1.064,0-1.255-0.015-1.474c-0.013-0.233-0.069-0.341-0.293-0.389
				c-0.056-0.014-0.171-0.021-0.232-0.021c-0.026,0-0.054-0.015-0.054-0.042c0-0.04,0.035-0.053,0.109-0.053
				c0.308,0,0.737,0.021,0.77,0.021c0.049,0,1.406,0,1.562-0.008c0.13-0.008,0.239-0.021,0.294-0.034
				c0.034-0.006,0.063-0.035,0.096-0.035c0.021,0,0.027,0.029,0.027,0.062c0,0.048-0.034,0.131-0.055,0.322
				c-0.006,0.067-0.021,0.368-0.034,0.45c-0.006,0.034-0.021,0.074-0.048,0.074c-0.041,0-0.054-0.034-0.054-0.089
				c0-0.047-0.007-0.164-0.04-0.245c-0.049-0.109-0.117-0.19-0.486-0.231c-0.116-0.016-0.858-0.021-0.935-0.021
				c-0.027,0-0.041,0.021-0.041,0.068v1.883c0,0.048,0.008,0.067,0.041,0.067c0.089,0,0.929,0,1.085-0.013
				c0.163-0.015,0.26-0.027,0.32-0.096c0.049-0.056,0.075-0.089,0.104-0.089c0.02,0,0.032,0.015,0.032,0.056
				c0,0.04-0.032,0.157-0.054,0.38c-0.014,0.139-0.026,0.39-0.026,0.438c0,0.055,0,0.13-0.05,0.13c-0.033,0-0.047-0.027-0.047-0.061
				c0-0.069,0-0.137-0.027-0.227c-0.027-0.095-0.089-0.21-0.354-0.237c-0.184-0.021-0.86-0.034-0.976-0.034
				c-0.035,0-0.049,0.019-0.049,0.048v0.599c0,0.232-0.005,1.023,0,1.167c0.021,0.47,0.124,0.559,0.792,0.559
				c0.178,0,0.478,0,0.654-0.073c0.177-0.075,0.259-0.212,0.307-0.494c0.015-0.072,0.027-0.1,0.062-0.1
				c0.042,0,0.042,0.054,0.042,0.1c0,0.056-0.055,0.521-0.089,0.664c-0.049,0.177-0.103,0.177-0.368,0.177
				c-1.032,0-1.487-0.04-1.686-0.04c-0.014,0-0.13,0.007-0.272,0.007c-0.137,0.006-0.294,0.012-0.396,0.012
				c-0.074,0-0.109-0.012-0.109-0.054c0-0.021,0.014-0.041,0.055-0.041c0.061,0,0.144-0.013,0.206-0.026
				c0.136-0.028,0.169-0.178,0.196-0.376c0.035-0.286,0.035-0.824,0.035-1.48L67.183,3.685L67.183,3.685z"/>
		</g>
	</g>
	<g id="Layer_3" display="none">
		<g display="inline">
			<path d="M228.482,43.851c0,1.344,0,2.45,0.07,3.039c0.042,0.406,0.126,0.715,0.547,0.771c0.195,0.027,0.504,0.056,0.63,0.056
				c0.084,0,0.112,0.042,0.112,0.084c0,0.07-0.07,0.112-0.225,0.112c-0.771,0-1.652-0.042-1.723-0.042
				c-0.071,0-0.952,0.042-1.373,0.042c-0.154,0-0.224-0.028-0.224-0.112c0-0.042,0.027-0.084,0.112-0.084
				c0.126,0,0.294-0.026,0.42-0.056c0.28-0.057,0.35-0.364,0.406-0.771c0.07-0.589,0.07-1.695,0.07-3.039v-5.926l-2.073,0.028
				c-0.869,0.014-1.205,0.11-1.429,0.448c-0.154,0.236-0.196,0.336-0.238,0.434c-0.042,0.112-0.084,0.141-0.141,0.141
				c-0.042,0-0.069-0.041-0.069-0.125c0-0.142,0.279-1.346,0.308-1.457c0.028-0.084,0.084-0.268,0.141-0.268
				c0.098,0,0.237,0.141,0.616,0.168c0.406,0.042,0.938,0.07,1.106,0.07h5.253c0.448,0,0.771-0.028,0.994-0.07
				c0.21-0.027,0.336-0.068,0.393-0.068c0.07,0,0.07,0.084,0.07,0.168c0,0.42-0.042,1.387-0.042,1.541
				c0,0.125-0.043,0.182-0.099,0.182c-0.07,0-0.098-0.042-0.112-0.238l-0.014-0.152c-0.042-0.422-0.378-0.744-1.723-0.771
				l-1.766-0.028v5.925H228.482z"/>
			<path d="M241.896,44.452c0,1.148,0.015,2.087,0.069,2.576c0.043,0.352,0.07,0.574,0.449,0.632
				c0.168,0.028,0.447,0.056,0.545,0.056c0.084,0,0.112,0.057,0.112,0.1c0,0.056-0.069,0.098-0.21,0.098
				c-0.673,0-1.457-0.042-1.527-0.042c-0.056,0-0.854,0.042-1.219,0.042c-0.14,0-0.195-0.028-0.195-0.098
				c0-0.043,0.027-0.1,0.099-0.1c0.112,0,0.252-0.027,0.364-0.056c0.252-0.058,0.294-0.294,0.336-0.646
				c0.056-0.49,0.056-1.387,0.056-2.535V43.29c0-0.057-0.026-0.07-0.069-0.07h-5.142c-0.042,0-0.069,0.014-0.069,0.07v1.189
				c0,1.148,0,2.06,0.057,2.549c0.041,0.352,0.084,0.574,0.447,0.632c0.184,0.028,0.448,0.056,0.562,0.056
				c0.069,0,0.099,0.057,0.099,0.1c0,0.056-0.057,0.098-0.197,0.098c-0.686,0-1.47-0.042-1.525-0.042
				c-0.07,0-0.854,0.042-1.232,0.042c-0.126,0-0.196-0.028-0.196-0.098c0-0.043,0.028-0.1,0.098-0.1
				c0.112,0,0.267-0.027,0.379-0.056c0.238-0.058,0.266-0.28,0.322-0.632c0.069-0.489,0.069-1.428,0.069-2.576v-2.102
				c0-1.85,0-2.186-0.027-2.563c-0.028-0.406-0.099-0.604-0.505-0.659c-0.098-0.014-0.308-0.026-0.42-0.026
				c-0.042,0-0.098-0.058-0.098-0.1c0-0.068,0.056-0.098,0.195-0.098c0.561,0,1.345,0.027,1.415,0.027
				c0.056,0,0.841-0.027,1.219-0.027c0.141,0,0.196,0.027,0.196,0.098c0,0.042-0.058,0.1-0.099,0.1c-0.084,0-0.168,0-0.309,0.026
				c-0.336,0.07-0.406,0.238-0.436,0.659c-0.014,0.378-0.014,0.742-0.014,2.591v0.252c0,0.07,0.027,0.07,0.069,0.07h5.142
				c0.043,0,0.069,0,0.069-0.07v-0.252c0-1.849-0.014-2.213-0.026-2.591c-0.028-0.406-0.084-0.604-0.49-0.659
				c-0.1-0.014-0.309-0.026-0.422-0.026c-0.055,0-0.098-0.058-0.098-0.1c0-0.068,0.057-0.098,0.196-0.098
				c0.546,0,1.345,0.027,1.399,0.027c0.07,0,0.854-0.027,1.22-0.027c0.14,0,0.21,0.027,0.21,0.098c0,0.042-0.057,0.1-0.112,0.1
				c-0.084,0-0.153,0-0.308,0.026c-0.322,0.07-0.393,0.238-0.42,0.659c-0.028,0.378-0.028,0.714-0.028,2.563V44.452L241.896,44.452z
				"/>
			<path d="M245.756,42.353c0-1.851,0-2.187-0.027-2.563c-0.027-0.406-0.1-0.603-0.505-0.659c-0.099-0.014-0.308-0.027-0.42-0.027
				c-0.042,0-0.099-0.057-0.099-0.099c0-0.069,0.057-0.098,0.195-0.098c0.561,0,1.359,0.028,1.43,0.028c0.084,0,2.662,0.014,2.941,0
				c0.236-0.016,0.462-0.058,0.561-0.07c0.057-0.014,0.111-0.057,0.168-0.057c0.041,0,0.057,0.057,0.057,0.111
				c0,0.084-0.07,0.225-0.1,0.561c-0.014,0.112-0.041,0.646-0.068,0.785c-0.016,0.057-0.057,0.125-0.112,0.125
				c-0.069,0-0.098-0.056-0.098-0.152c0-0.084-0.015-0.28-0.07-0.422c-0.084-0.194-0.21-0.279-0.883-0.363
				c-0.21-0.027-1.64-0.042-1.779-0.042c-0.056,0-0.069,0.042-0.069,0.126v3.236c0,0.084,0,0.125,0.069,0.125
				c0.154,0,1.779,0,2.06-0.027c0.295-0.027,0.478-0.042,0.604-0.168c0.084-0.084,0.141-0.154,0.182-0.154
				c0.043,0,0.07,0.028,0.07,0.1c0,0.068-0.07,0.266-0.098,0.658c-0.028,0.237-0.057,0.687-0.057,0.771
				c0,0.098-0.027,0.224-0.112,0.224c-0.056,0-0.085-0.042-0.085-0.111c0-0.111,0-0.237-0.055-0.393
				c-0.043-0.168-0.154-0.309-0.631-0.363c-0.337-0.043-1.652-0.057-1.863-0.057c-0.069,0-0.084,0.042-0.084,0.084v0.994
				c0,0.406-0.015,1.793,0,2.031c0.027,0.799,0.252,0.951,1.472,0.951c0.321,0,0.909,0,1.231-0.125
				c0.322-0.141,0.49-0.351,0.562-0.826c0.028-0.141,0.056-0.184,0.126-0.184s0.084,0.1,0.084,0.184s-0.098,0.896-0.168,1.147
				c-0.084,0.31-0.21,0.31-0.688,0.31c-0.925,0-1.639-0.028-2.144-0.043c-0.519-0.027-0.84-0.027-1.022-0.027
				c-0.026,0-0.266,0-0.531,0.014c-0.238,0.016-0.519,0.028-0.715,0.028c-0.125,0-0.195-0.028-0.195-0.099
				c0-0.041,0.027-0.099,0.098-0.099c0.112,0,0.268-0.042,0.379-0.056c0.238-0.042,0.266-0.28,0.322-0.631
				c0.068-0.49,0.068-1.43,0.068-2.577V42.353L245.756,42.353z"/>
			<path d="M261.872,37.126c3.152,0,5.506,1.989,5.506,5.253c0,3.138-2.213,5.729-5.59,5.729c-3.838,0-5.435-2.983-5.435-5.506
				C256.353,40.334,258.006,37.126,261.872,37.126z M262.167,47.576c1.262,0,3.867-0.729,3.867-4.806
				c0-3.361-2.047-5.168-4.26-5.168c-2.339,0-4.09,1.541-4.09,4.607C257.684,45.476,259.645,47.576,262.167,47.576z"/>
			<path d="M269.779,42.353c0-1.851,0-2.187-0.026-2.563c-0.028-0.406-0.1-0.603-0.506-0.659c-0.098-0.014-0.308-0.027-0.42-0.027
				c-0.041,0-0.099-0.057-0.099-0.099c0-0.069,0.058-0.098,0.196-0.098c0.561,0,1.33,0.028,1.4,0.028c0.238,0,2.913,0.014,3.193,0
				c0.238-0.016,0.447-0.016,0.561-0.058c0.07-0.015,0.127-0.069,0.168-0.069c0.057,0,0.084,0.057,0.084,0.111
				c0,0.084-0.056,0.225-0.098,0.561c-0.016,0.112-0.027,0.646-0.057,0.785c-0.014,0.057-0.057,0.125-0.112,0.125
				s-0.099-0.056-0.099-0.14c0-0.099-0.041-0.294-0.111-0.448c-0.068-0.154-0.363-0.351-0.84-0.351l-2.018-0.027
				c-0.07,0-0.099,0.027-0.099,0.126v3.25c0,0.069,0,0.111,0.084,0.111l1.681-0.014c0.211,0,0.394,0,0.562-0.015
				c0.294-0.028,0.462-0.069,0.573-0.211c0.057-0.069,0.113-0.126,0.154-0.126c0.057,0,0.069,0.042,0.069,0.1
				c0,0.068-0.084,0.266-0.11,0.657c-0.029,0.238-0.043,0.714-0.043,0.8c0,0.11-0.027,0.236-0.111,0.236
				c-0.07,0-0.084-0.056-0.084-0.111c-0.014-0.125-0.028-0.295-0.084-0.435c-0.057-0.168-0.252-0.321-0.631-0.378
				c-0.309-0.042-1.766-0.027-1.976-0.027c-0.069,0-0.084,0.027-0.084,0.111v0.952c0,1.177,0,2.114,0.056,2.577
				c0.043,0.351,0.112,0.574,0.448,0.631c0.183,0.027,0.448,0.056,0.562,0.056c0.07,0,0.098,0.058,0.098,0.099
				c0,0.057-0.057,0.099-0.195,0.099c-0.688,0-1.484-0.042-1.541-0.042c-0.07,0-0.841,0.042-1.219,0.042
				c-0.126,0-0.195-0.028-0.195-0.099c0-0.041,0.027-0.099,0.098-0.099c0.111,0,0.267-0.042,0.379-0.056
				c0.236-0.042,0.266-0.28,0.322-0.631c0.068-0.49,0.068-1.43,0.068-2.577L269.779,42.353L269.779,42.353z"/>
			<path d="M277.075,42.353c0-1.851,0-2.187-0.027-2.563c-0.028-0.406-0.1-0.603-0.506-0.659c-0.098-0.014-0.308-0.027-0.42-0.027
				c-0.041,0-0.099-0.057-0.099-0.099c0-0.069,0.058-0.098,0.196-0.098c0.561,0,1.33,0.028,1.4,0.028c0.238,0,2.914,0.014,3.193,0
				c0.238-0.016,0.447-0.016,0.561-0.058c0.07-0.015,0.127-0.069,0.168-0.069c0.057,0,0.084,0.057,0.084,0.111
				c0,0.084-0.056,0.225-0.098,0.561c-0.015,0.112-0.027,0.646-0.057,0.785c-0.014,0.057-0.057,0.125-0.112,0.125
				s-0.098-0.056-0.098-0.14c0-0.099-0.042-0.294-0.112-0.448c-0.068-0.154-0.363-0.351-0.84-0.351l-2.018-0.027
				c-0.07,0-0.099,0.027-0.099,0.126v3.25c0,0.069,0,0.111,0.084,0.111l1.681-0.014c0.211,0,0.394,0,0.562-0.015
				c0.294-0.028,0.462-0.069,0.574-0.211c0.056-0.069,0.112-0.126,0.153-0.126c0.057,0,0.069,0.042,0.069,0.1
				c0,0.068-0.084,0.266-0.11,0.657c-0.028,0.238-0.043,0.714-0.043,0.8c0,0.11-0.027,0.236-0.111,0.236
				c-0.07,0-0.084-0.056-0.084-0.111c-0.014-0.125-0.028-0.295-0.084-0.435c-0.057-0.168-0.252-0.321-0.631-0.378
				c-0.309-0.042-1.766-0.027-1.976-0.027c-0.069,0-0.084,0.027-0.084,0.111v0.952c0,1.177,0,2.114,0.056,2.577
				c0.043,0.351,0.112,0.574,0.448,0.631c0.183,0.027,0.448,0.056,0.562,0.056c0.07,0,0.098,0.058,0.098,0.099
				c0,0.057-0.057,0.099-0.195,0.099c-0.687,0-1.484-0.042-1.541-0.042c-0.07,0-0.841,0.042-1.219,0.042
				c-0.126,0-0.195-0.028-0.195-0.099c0-0.041,0.027-0.099,0.098-0.099c0.111,0,0.267-0.042,0.379-0.056
				c0.236-0.042,0.266-0.28,0.322-0.631c0.068-0.49,0.068-1.43,0.068-2.577v-2.099H277.075z"/>
			<path d="M285.489,44.452c0,1.148,0,2.087,0.057,2.576c0.041,0.352,0.084,0.574,0.447,0.632c0.184,0.028,0.448,0.056,0.562,0.056
				c0.069,0,0.098,0.057,0.098,0.1c0,0.056-0.056,0.098-0.196,0.098c-0.686,0-1.483-0.042-1.539-0.042
				c-0.07,0-0.842,0.042-1.22,0.042c-0.126,0-0.196-0.028-0.196-0.098c0-0.043,0.028-0.1,0.099-0.1c0.112,0,0.267-0.027,0.379-0.056
				c0.237-0.058,0.28-0.28,0.321-0.632c0.057-0.489,0.07-1.428,0.07-2.576v-2.102c0-1.85,0-2.186-0.027-2.563
				c-0.028-0.406-0.127-0.589-0.394-0.645c-0.14-0.028-0.294-0.043-0.378-0.043c-0.057,0-0.099-0.057-0.099-0.099
				c0-0.069,0.057-0.099,0.196-0.099c0.406,0,1.176,0.029,1.246,0.029c0.057,0,0.854-0.029,1.232-0.029
				c0.141,0,0.195,0.029,0.195,0.099c0,0.042-0.057,0.099-0.098,0.099c-0.084,0-0.168,0-0.309,0.027
				c-0.336,0.07-0.406,0.238-0.436,0.659c-0.014,0.378-0.014,0.714-0.014,2.563v2.102H285.489z"/>
			<path d="M289.52,46.792c-1.205-1.037-1.499-2.396-1.499-3.529c0-0.8,0.294-2.187,1.388-3.25c0.741-0.715,1.862-1.275,3.754-1.275
				c0.489,0,1.189,0.043,1.793,0.141c0.461,0.084,0.854,0.168,1.26,0.184c0.127,0,0.154,0.056,0.154,0.125
				c0,0.099-0.027,0.238-0.057,0.672c-0.014,0.394-0.014,1.052-0.027,1.22c-0.015,0.183-0.07,0.252-0.141,0.252
				c-0.084,0-0.098-0.084-0.098-0.252c0-0.462-0.196-0.938-0.52-1.19c-0.434-0.363-1.33-0.658-2.423-0.658
				c-1.583,0-2.34,0.42-2.772,0.826c-0.912,0.842-1.107,1.905-1.107,3.11c0,2.283,1.809,4.313,4.439,4.313
				c0.926,0,1.541-0.069,2.031-0.561c0.268-0.268,0.436-0.771,0.477-0.995c0.029-0.126,0.043-0.168,0.127-0.168
				c0.056,0,0.111,0.084,0.111,0.168s-0.168,1.121-0.293,1.527c-0.07,0.224-0.1,0.266-0.31,0.35
				c-0.505,0.196-1.429,0.267-2.228,0.267C291.733,48.065,290.486,47.632,289.52,46.792z"/>
			<path d="M299.138,42.353c0-1.851,0-2.187-0.027-2.563c-0.028-0.406-0.099-0.603-0.505-0.659c-0.098-0.014-0.309-0.027-0.42-0.027
				c-0.042,0-0.1-0.057-0.1-0.099c0-0.069,0.058-0.098,0.197-0.098c0.561,0,1.358,0.028,1.428,0.028c0.084,0,2.662,0.014,2.942,0
				c0.237-0.016,0.462-0.058,0.56-0.07c0.058-0.014,0.113-0.057,0.168-0.057c0.043,0,0.058,0.057,0.058,0.111
				c0,0.084-0.069,0.225-0.099,0.561c-0.014,0.112-0.043,0.646-0.069,0.785c-0.015,0.057-0.058,0.125-0.112,0.125
				c-0.07,0-0.098-0.056-0.098-0.152c0-0.084-0.016-0.28-0.07-0.422c-0.084-0.194-0.21-0.279-0.883-0.363
				c-0.21-0.027-1.639-0.042-1.777-0.042c-0.058,0-0.07,0.042-0.07,0.126v3.236c0,0.084,0,0.125,0.07,0.125
				c0.152,0,1.777,0,2.059-0.027c0.294-0.027,0.477-0.042,0.604-0.168c0.084-0.084,0.139-0.154,0.182-0.154
				c0.041,0,0.07,0.028,0.07,0.1c0,0.068-0.07,0.266-0.099,0.658c-0.028,0.237-0.058,0.687-0.058,0.771
				c0,0.098-0.026,0.224-0.111,0.224c-0.057,0-0.084-0.042-0.084-0.111c0-0.111,0-0.237-0.057-0.393
				c-0.041-0.168-0.153-0.309-0.629-0.363c-0.338-0.043-1.654-0.057-1.863-0.057c-0.07,0-0.084,0.042-0.084,0.084v0.994
				c0,0.406-0.016,1.793,0,2.031c0.027,0.799,0.252,0.951,1.471,0.951c0.322,0,0.91,0,1.232-0.125
				c0.322-0.141,0.49-0.351,0.561-0.826c0.027-0.141,0.057-0.184,0.126-0.184s0.084,0.1,0.084,0.184s-0.099,0.896-0.168,1.147
				c-0.084,0.31-0.21,0.31-0.687,0.31c-0.926,0-1.64-0.028-2.145-0.043c-0.518-0.027-0.84-0.027-1.021-0.027
				c-0.027,0-0.267,0-0.533,0.014c-0.237,0.016-0.518,0.028-0.713,0.028c-0.127,0-0.196-0.028-0.196-0.099
				c0-0.041,0.028-0.099,0.099-0.099c0.111,0,0.266-0.042,0.379-0.056c0.236-0.042,0.266-0.28,0.321-0.631
				c0.069-0.49,0.069-1.43,0.069-2.577L299.138,42.353L299.138,42.353z"/>
			<path d="M314.499,38.737c2.773,0,4.875,1.693,4.875,4.469c0,2.661-1.977,4.859-4.945,4.859c-3.377,0-4.818-2.534-4.818-4.678
				C309.61,41.469,311.092,38.737,314.499,38.737z M314.778,47.576c1.105,0,3.334-0.589,3.334-4.034
				c0-2.857-1.736-4.355-3.686-4.355c-2.059,0-3.543,1.289-3.543,3.879C310.883,45.839,312.549,47.576,314.778,47.576z"/>
			<path d="M321.749,42.353c0-1.851,0-2.187-0.027-2.563c-0.027-0.406-0.1-0.603-0.506-0.659c-0.098-0.014-0.307-0.027-0.42-0.027
				c-0.041,0-0.098-0.057-0.098-0.099c0-0.069,0.057-0.098,0.195-0.098c0.561,0,1.33,0.028,1.4,0.028c0.238,0,2.914,0.014,3.193,0
				c0.238-0.016,0.447-0.016,0.561-0.058c0.07-0.015,0.127-0.069,0.168-0.069c0.057,0,0.084,0.057,0.084,0.111
				c0,0.084-0.055,0.225-0.098,0.561c-0.016,0.112-0.027,0.646-0.057,0.785c-0.014,0.057-0.057,0.125-0.111,0.125
				c-0.057,0-0.1-0.056-0.1-0.14c0-0.099-0.041-0.294-0.111-0.448c-0.068-0.154-0.363-0.351-0.84-0.351l-2.018-0.027
				c-0.07,0-0.098,0.027-0.098,0.126v3.25c0,0.069,0,0.111,0.084,0.111l1.68-0.014c0.211,0,0.395,0,0.563-0.015
				c0.293-0.028,0.461-0.069,0.572-0.211c0.057-0.069,0.113-0.126,0.154-0.126c0.057,0,0.07,0.042,0.07,0.1
				c0,0.068-0.084,0.266-0.111,0.657c-0.029,0.238-0.043,0.714-0.043,0.8c0,0.11-0.027,0.236-0.111,0.236
				c-0.07,0-0.084-0.056-0.084-0.111c-0.014-0.125-0.027-0.295-0.084-0.435c-0.057-0.168-0.252-0.321-0.631-0.378
				c-0.309-0.042-1.766-0.027-1.975-0.027c-0.07,0-0.084,0.027-0.084,0.111v0.952c0,1.177,0,2.114,0.055,2.577
				c0.043,0.351,0.113,0.574,0.449,0.631c0.182,0.027,0.447,0.056,0.561,0.056c0.07,0,0.098,0.058,0.098,0.099
				c0,0.057-0.057,0.099-0.195,0.099c-0.686,0-1.484-0.042-1.541-0.042c-0.07,0-0.84,0.042-1.219,0.042
				c-0.125,0-0.195-0.028-0.195-0.099c0-0.041,0.027-0.099,0.098-0.099c0.111,0,0.268-0.042,0.379-0.056
				c0.236-0.042,0.266-0.28,0.322-0.631c0.068-0.49,0.068-1.43,0.068-2.577v-2.099H321.749z"/>
			<path d="M335.735,37.673c0.168-0.463,0.225-0.547,0.309-0.547s0.141,0.07,0.309,0.505c0.209,0.532,2.408,6.317,3.264,8.446
				c0.504,1.247,0.91,1.471,1.205,1.555c0.211,0.07,0.42,0.084,0.561,0.084c0.084,0,0.141,0.016,0.141,0.084
				c0,0.084-0.125,0.112-0.279,0.112c-0.211,0-1.232,0-2.199-0.028c-0.268-0.014-0.42-0.014-0.42-0.098
				c0-0.057,0.041-0.084,0.098-0.098c0.084-0.028,0.168-0.154,0.084-0.379l-1.303-3.445c-0.029-0.057-0.057-0.084-0.127-0.084
				h-3.012c-0.07,0-0.111,0.042-0.141,0.111l-0.84,2.479c-0.127,0.352-0.197,0.688-0.197,0.938c0,0.28,0.295,0.406,0.533,0.406
				h0.141c0.098,0,0.141,0.028,0.141,0.084c0,0.084-0.084,0.112-0.211,0.112c-0.336,0-0.938-0.042-1.092-0.042
				c-0.156,0-0.926,0.042-1.584,0.042c-0.182,0-0.266-0.028-0.266-0.112c0-0.056,0.057-0.084,0.125-0.084
				c0.1,0,0.295-0.014,0.406-0.027c0.646-0.084,0.924-0.617,1.178-1.316L335.735,37.673z M337.192,43.274
				c0.068,0,0.068-0.041,0.057-0.098l-1.332-3.781c-0.07-0.211-0.139-0.211-0.209,0l-1.232,3.781c-0.027,0.07,0,0.098,0.041,0.098
				H337.192z"/>
			<path d="M344.12,44.479c0,1.752,0.027,2.465,0.252,2.676c0.197,0.195,0.672,0.279,1.639,0.279c0.646,0,1.191-0.014,1.486-0.363
				c0.152-0.182,0.252-0.434,0.293-0.672c0.014-0.084,0.057-0.154,0.127-0.154c0.055,0,0.084,0.056,0.084,0.183
				c0,0.126-0.084,0.841-0.182,1.19c-0.086,0.279-0.127,0.322-0.785,0.322c-0.883,0-1.568-0.016-2.145-0.043
				c-0.561-0.015-0.979-0.027-1.344-0.027c-0.057,0-0.268,0-0.506,0.014c-0.252,0.016-0.518,0.028-0.713,0.028
				c-0.127,0-0.197-0.028-0.197-0.099c0-0.041,0.029-0.099,0.098-0.099c0.113,0,0.268-0.026,0.381-0.056
				c0.236-0.057,0.266-0.28,0.32-0.631c0.07-0.49,0.07-1.43,0.07-2.577v-2.101c0-1.851,0-2.187-0.027-2.563
				c-0.027-0.406-0.1-0.603-0.506-0.659c-0.098-0.014-0.307-0.027-0.42-0.027c-0.041,0-0.098-0.057-0.098-0.099
				c0-0.069,0.057-0.099,0.195-0.099c0.561,0,1.33,0.029,1.4,0.029c0.057,0,0.98-0.029,1.359-0.029c0.125,0,0.195,0.029,0.195,0.099
				c0,0.042-0.057,0.084-0.1,0.084c-0.084,0-0.266,0.015-0.406,0.028c-0.361,0.07-0.434,0.252-0.461,0.673
				c-0.014,0.378-0.014,0.714-0.014,2.563v2.129H344.12z"/>
			<path d="M349.594,42.353c0-1.851,0-2.187-0.027-2.563c-0.029-0.379-0.1-0.603-0.506-0.659c-0.098-0.014-0.309-0.027-0.42-0.027
				c-0.043,0-0.098-0.057-0.098-0.099c0-0.069,0.055-0.098,0.195-0.098c0.561,0,1.303,0.028,1.416,0.028
				c0.109,0,0.881-0.028,1.246-0.028c0.141,0,0.209,0.028,0.209,0.098c0,0.042-0.057,0.099-0.111,0.099
				c-0.084,0-0.154,0-0.309,0.027c-0.322,0.057-0.393,0.268-0.42,0.659c-0.027,0.378-0.027,0.714-0.027,2.563v1.666
				c0,1.724,0.377,2.438,0.91,2.914c0.602,0.545,1.135,0.645,1.834,0.645c0.758,0,1.484-0.336,1.904-0.842
				c0.574-0.687,0.701-1.666,0.701-2.885v-1.498c0-1.851-0.014-2.187-0.027-2.563c-0.016-0.379-0.084-0.603-0.49-0.659
				c-0.1-0.014-0.309-0.027-0.42-0.027c-0.057,0-0.1-0.057-0.1-0.099c0-0.069,0.057-0.098,0.197-0.098
				c0.545,0,1.26,0.028,1.33,0.028c0.084,0,0.672-0.028,1.037-0.028c0.139,0,0.195,0.028,0.195,0.098c0,0.042-0.041,0.099-0.1,0.099
				c-0.084,0-0.152,0-0.307,0.027c-0.338,0.07-0.406,0.268-0.436,0.659c-0.027,0.378-0.014,0.714-0.014,2.563v1.273
				c0,1.288-0.168,2.73-1.15,3.571c-0.895,0.771-1.848,0.868-2.576,0.868c-0.406,0-1.693-0.027-2.563-0.84
				c-0.604-0.562-1.078-1.388-1.078-3.123v-1.75H349.594z"/>
			<path d="M369.297,46.386c0.041,0.42,0.125,1.064,0.629,1.232c0.352,0.111,0.674,0.111,0.799,0.111c0.057,0,0.1,0.027,0.1,0.084
				c0,0.069-0.111,0.111-0.252,0.111c-0.281,0-1.652-0.014-2.102-0.056c-0.295-0.028-0.352-0.07-0.352-0.126
				c0-0.042,0.029-0.084,0.084-0.098c0.07-0.016,0.084-0.196,0.057-0.422l-0.588-6.051h-0.029l-2.969,6.079
				c-0.252,0.519-0.322,0.63-0.434,0.63c-0.113,0-0.184-0.111-0.422-0.546c-0.322-0.588-1.135-2.114-1.441-2.76
				c-0.365-0.757-1.359-2.761-1.57-3.25h-0.055l-0.477,5.379c-0.016,0.183-0.016,0.405-0.016,0.603c0,0.184,0.113,0.295,0.295,0.338
				c0.209,0.056,0.393,0.068,0.477,0.068c0.043,0,0.098,0.042,0.098,0.084c0,0.084-0.084,0.112-0.223,0.112
				c-0.463,0-1.051-0.042-1.148-0.042c-0.113,0-0.701,0.042-1.037,0.042c-0.127,0-0.211-0.028-0.211-0.112
				c0-0.042,0.059-0.084,0.127-0.084c0.1,0,0.184-0.014,0.363-0.042c0.406-0.069,0.42-0.504,0.477-0.952l0.896-7.773
				c0.014-0.127,0.07-0.211,0.141-0.211c0.084,0,0.184,0.043,0.252,0.183l3.727,7.396l3.586-7.381
				c0.057-0.113,0.113-0.197,0.197-0.197s0.152,0.099,0.182,0.322L369.297,46.386z"/>
			<path d="M373.325,46.287c0.027,0.979,0.139,1.274,0.477,1.358c0.225,0.057,0.504,0.069,0.615,0.069
				c0.057,0,0.098,0.042,0.098,0.099c0,0.069-0.084,0.099-0.223,0.099c-0.701,0-1.191-0.042-1.303-0.042
				c-0.113,0-0.631,0.042-1.191,0.042c-0.127,0-0.195-0.015-0.195-0.099c0-0.057,0.041-0.099,0.098-0.099
				c0.1,0,0.322-0.014,0.504-0.069c0.309-0.084,0.352-0.405,0.352-1.484V39.34c0-0.478,0.07-0.603,0.168-0.603
				c0.141,0,0.352,0.238,0.477,0.363c0.195,0.196,1.99,2.102,3.895,4.063c1.219,1.26,2.535,2.675,2.914,3.067l-0.127-5.969
				c-0.014-0.771-0.084-1.035-0.461-1.105c-0.225-0.042-0.506-0.057-0.604-0.057c-0.084,0-0.1-0.069-0.1-0.111
				c0-0.07,0.1-0.084,0.238-0.084c0.561,0,1.148,0.027,1.289,0.027s0.547-0.027,1.051-0.027c0.127,0,0.225,0.014,0.225,0.084
				c0,0.042-0.057,0.111-0.141,0.111c-0.057,0-0.154,0-0.295,0.027c-0.406,0.085-0.434,0.322-0.434,1.037l-0.027,6.977
				c0,0.783-0.014,0.854-0.098,0.854c-0.127,0-0.254-0.098-0.939-0.729c-0.125-0.113-1.904-1.863-3.207-3.223
				c-1.43-1.499-2.816-2.955-3.193-3.376L373.325,46.287z"/>
			<path d="M385.114,44.452c0,1.148,0,2.087,0.055,2.576c0.043,0.352,0.084,0.574,0.449,0.632c0.182,0.028,0.447,0.056,0.561,0.056
				c0.07,0,0.098,0.057,0.098,0.1c0,0.056-0.057,0.098-0.195,0.098c-0.688,0-1.484-0.042-1.541-0.042
				c-0.07,0-0.84,0.042-1.219,0.042c-0.125,0-0.195-0.028-0.195-0.098c0-0.043,0.027-0.1,0.098-0.1c0.111,0,0.268-0.027,0.379-0.056
				c0.236-0.058,0.279-0.28,0.322-0.632c0.057-0.489,0.068-1.428,0.068-2.576v-2.102c0-1.85,0-2.186-0.027-2.563
				c-0.027-0.406-0.127-0.589-0.393-0.645c-0.141-0.028-0.293-0.043-0.377-0.043c-0.059,0-0.1-0.057-0.1-0.099
				c0-0.069,0.057-0.099,0.195-0.099c0.406,0,1.178,0.029,1.248,0.029c0.055,0,0.854-0.029,1.232-0.029
				c0.139,0,0.195,0.029,0.195,0.099c0,0.042-0.057,0.099-0.1,0.099c-0.084,0-0.168,0-0.309,0.027
				c-0.336,0.07-0.404,0.238-0.434,0.659c-0.014,0.378-0.014,0.714-0.014,2.563v2.102H385.114z"/>
			<path d="M393.917,41.385c0-2.186,0-2.577-0.027-3.024c-0.027-0.478-0.141-0.701-0.602-0.799
				c-0.113-0.028-0.352-0.043-0.479-0.043c-0.055,0-0.111-0.027-0.111-0.084c0-0.084,0.07-0.111,0.225-0.111
				c0.631,0,1.514,0.042,1.584,0.042c0.152,0,1.219-0.042,1.652-0.042c0.883,0,1.82,0.084,2.563,0.615
				c0.352,0.252,0.967,0.938,0.967,1.905c0,1.036-0.436,2.073-1.695,3.235c1.148,1.472,2.102,2.718,2.914,3.586
				c0.756,0.799,1.357,0.953,1.709,1.009c0.266,0.042,0.463,0.042,0.547,0.042c0.07,0,0.125,0.042,0.125,0.084
				c0,0.084-0.084,0.112-0.336,0.112h-0.994c-0.785,0-1.135-0.07-1.498-0.267c-0.604-0.321-1.094-1.008-1.893-2.06
				c-0.588-0.771-1.246-1.709-1.525-2.073c-0.057-0.056-0.1-0.084-0.184-0.084l-1.723-0.027c-0.07,0-0.098,0.041-0.098,0.111v0.336
				c0,1.346,0,2.451,0.068,3.041c0.043,0.405,0.127,0.713,0.547,0.771c0.195,0.028,0.504,0.056,0.631,0.056
				c0.084,0,0.111,0.042,0.111,0.084c0,0.07-0.07,0.112-0.225,0.112c-0.77,0-1.652-0.042-1.723-0.042
				c-0.016,0-0.896,0.042-1.316,0.042c-0.154,0-0.225-0.028-0.225-0.112c0-0.042,0.027-0.084,0.111-0.084
				c0.127,0,0.295-0.027,0.42-0.056c0.279-0.058,0.352-0.364,0.406-0.771c0.07-0.59,0.07-1.695,0.07-3.041v-2.464H393.917z
				 M395.04,42.604c0,0.068,0.027,0.125,0.098,0.168c0.209,0.125,0.854,0.224,1.471,0.224c0.336,0,0.729-0.042,1.051-0.267
				c0.49-0.336,0.854-1.092,0.854-2.156c0-1.751-0.924-2.803-2.424-2.803c-0.42,0-0.797,0.043-0.938,0.084
				c-0.068,0.028-0.111,0.084-0.111,0.168V42.604L395.04,42.604z"/>
			<path d="M403.956,42.353c0-1.851,0-2.187-0.027-2.563c-0.027-0.406-0.098-0.603-0.504-0.659c-0.098-0.014-0.309-0.027-0.42-0.027
				c-0.043,0-0.098-0.057-0.098-0.099c0-0.069,0.055-0.098,0.193-0.098c0.563,0,1.359,0.028,1.43,0.028c0.084,0,2.662,0.014,2.941,0
				c0.238-0.016,0.463-0.058,0.561-0.07c0.057-0.014,0.111-0.057,0.168-0.057c0.043,0,0.057,0.057,0.057,0.111
				c0,0.084-0.07,0.225-0.098,0.561c-0.016,0.112-0.043,0.646-0.07,0.785c-0.014,0.057-0.057,0.125-0.111,0.125
				c-0.07,0-0.098-0.056-0.098-0.152c0-0.084-0.016-0.28-0.07-0.422c-0.084-0.194-0.211-0.279-0.883-0.363
				c-0.211-0.027-1.639-0.042-1.779-0.042c-0.057,0-0.068,0.042-0.068,0.126v3.236c0,0.084,0,0.125,0.068,0.125
				c0.154,0,1.779,0,2.061-0.027c0.293-0.027,0.477-0.042,0.602-0.168c0.084-0.084,0.141-0.154,0.184-0.154
				c0.041,0,0.068,0.028,0.068,0.1c0,0.068-0.068,0.266-0.098,0.658c-0.027,0.237-0.057,0.687-0.057,0.771
				c0,0.098-0.027,0.224-0.111,0.224c-0.057,0-0.084-0.042-0.084-0.111c0-0.111,0-0.237-0.057-0.393
				c-0.041-0.168-0.154-0.309-0.629-0.363c-0.338-0.043-1.654-0.057-1.863-0.057c-0.07,0-0.084,0.042-0.084,0.084v0.994
				c0,0.406-0.016,1.793,0,2.031c0.025,0.799,0.252,0.951,1.471,0.951c0.322,0,0.91,0,1.232-0.125
				c0.32-0.141,0.488-0.351,0.561-0.826c0.027-0.141,0.057-0.184,0.125-0.184c0.07,0,0.084,0.1,0.084,0.184
				s-0.098,0.896-0.168,1.147c-0.084,0.31-0.209,0.31-0.686,0.31c-0.926,0-1.641-0.028-2.145-0.043
				c-0.518-0.027-0.84-0.027-1.021-0.027c-0.027,0-0.268,0-0.533,0.014c-0.238,0.016-0.518,0.028-0.713,0.028
				c-0.127,0-0.197-0.028-0.197-0.099c0-0.041,0.029-0.099,0.098-0.099c0.113,0,0.268-0.042,0.381-0.056
				c0.236-0.042,0.266-0.28,0.32-0.631c0.07-0.49,0.07-1.43,0.07-2.577v-2.101H403.956z"/>
			<path d="M412.594,44.479c0,1.752,0.027,2.465,0.252,2.676c0.195,0.195,0.672,0.279,1.639,0.279c0.645,0,1.189-0.014,1.484-0.363
				c0.154-0.182,0.252-0.434,0.295-0.672c0.014-0.084,0.057-0.154,0.125-0.154c0.057,0,0.084,0.056,0.084,0.183
				c0,0.126-0.084,0.841-0.182,1.19c-0.084,0.279-0.127,0.322-0.785,0.322c-0.881,0-1.566-0.016-2.143-0.043
				c-0.561-0.015-0.98-0.027-1.346-0.027c-0.057,0-0.266,0-0.504,0.014c-0.252,0.016-0.518,0.028-0.715,0.028
				c-0.125,0-0.195-0.028-0.195-0.099c0-0.041,0.027-0.099,0.098-0.099c0.113,0,0.268-0.026,0.379-0.056
				c0.238-0.057,0.266-0.28,0.322-0.631c0.068-0.49,0.068-1.43,0.068-2.577v-2.101c0-1.851,0-2.187-0.025-2.563
				c-0.029-0.406-0.1-0.603-0.506-0.659c-0.098-0.014-0.309-0.027-0.42-0.027c-0.043,0-0.098-0.057-0.098-0.099
				c0-0.069,0.055-0.099,0.195-0.099c0.561,0,1.33,0.029,1.4,0.029c0.057,0,0.98-0.029,1.357-0.029c0.127,0,0.197,0.029,0.197,0.099
				c0,0.042-0.059,0.084-0.1,0.084c-0.084,0-0.266,0.015-0.406,0.028c-0.363,0.07-0.434,0.252-0.461,0.673
				c-0.016,0.378-0.016,0.714-0.016,2.563v2.129H412.594z"/>
			<path d="M420.77,39.144c0.154-0.393,0.211-0.461,0.295-0.461c0.127,0,0.168,0.168,0.295,0.434
				c0.223,0.505,2.197,5.421,2.955,7.229c0.447,1.064,0.783,1.219,1.051,1.303c0.182,0.057,0.363,0.069,0.49,0.069
				c0.068,0,0.152,0.028,0.152,0.099c0,0.069-0.141,0.099-0.279,0.099c-0.182,0-1.094,0-1.947-0.028
				c-0.238-0.014-0.434-0.014-0.434-0.084c0-0.056,0.027-0.056,0.084-0.084c0.068-0.027,0.195-0.126,0.111-0.322l-1.105-2.73
				c-0.027-0.057-0.043-0.068-0.111-0.068h-2.844c-0.059,0-0.1,0.026-0.127,0.098l-0.701,1.904
				c-0.111,0.295-0.182,0.588-0.182,0.799c0,0.237,0.209,0.321,0.42,0.321h0.111c0.1,0,0.127,0.042,0.127,0.099
				c0,0.07-0.07,0.099-0.182,0.099c-0.295,0-0.967-0.042-1.107-0.042c-0.127,0-0.742,0.042-1.246,0.042
				c-0.154,0-0.238-0.028-0.238-0.099c0-0.057,0.057-0.099,0.111-0.099c0.084,0,0.268-0.014,0.365-0.026
				c0.561-0.07,0.797-0.491,1.035-1.094L420.77,39.144z M422.143,44.103c0.057,0,0.057-0.027,0.041-0.084l-1.219-3.265
				c-0.068-0.182-0.139-0.182-0.209,0l-1.148,3.265c-0.016,0.057,0,0.084,0.043,0.084H422.143z"/>
			<path d="M429.227,44.452c0,1.148,0,2.087,0.057,2.576c0.043,0.352,0.098,0.574,0.477,0.632c0.168,0.028,0.447,0.056,0.561,0.056
				c0.084,0,0.098,0.057,0.098,0.1c0,0.056-0.055,0.098-0.195,0.098c-0.672,0-1.457-0.042-1.525-0.042
				c-0.057,0-0.91,0.042-1.275,0.042c-0.139,0-0.195-0.028-0.195-0.098c0-0.043,0.027-0.084,0.1-0.084
				c0.109,0,0.252-0.028,0.363-0.058c0.252-0.056,0.32-0.294,0.363-0.646c0.057-0.489,0.057-1.428,0.057-2.576v-5.001l-1.779,0.028
				c-0.771,0.014-1.064,0.099-1.246,0.377c-0.141,0.211-0.154,0.295-0.195,0.379c-0.027,0.099-0.07,0.111-0.127,0.111
				c-0.027,0-0.084-0.027-0.084-0.098c0-0.126,0.238-1.189,0.268-1.289c0.014-0.068,0.084-0.225,0.125-0.225
				c0.084,0,0.211,0.099,0.547,0.141c0.35,0.042,0.826,0.057,0.967,0.057h4.65c0.404,0,0.686-0.027,0.883-0.057
				c0.182-0.027,0.293-0.057,0.35-0.057s0.057,0.07,0.057,0.141c0,0.364-0.041,1.219-0.041,1.359c0,0.098-0.057,0.154-0.113,0.154
				c-0.055,0-0.084-0.043-0.098-0.211l-0.014-0.127c-0.043-0.363-0.309-0.63-1.484-0.658l-1.541-0.027v5.002H429.227z"/>
			<path d="M436.002,44.452c0,1.148,0,2.087,0.057,2.576c0.041,0.352,0.084,0.574,0.447,0.632c0.184,0.028,0.449,0.056,0.563,0.056
				c0.068,0,0.098,0.057,0.098,0.1c0,0.056-0.057,0.098-0.195,0.098c-0.688,0-1.484-0.042-1.541-0.042
				c-0.07,0-0.842,0.042-1.219,0.042c-0.127,0-0.197-0.028-0.197-0.098c0-0.043,0.029-0.1,0.1-0.1c0.111,0,0.266-0.027,0.379-0.056
				c0.236-0.058,0.279-0.28,0.322-0.632c0.055-0.489,0.068-1.428,0.068-2.576v-2.102c0-1.85,0-2.186-0.027-2.563
				c-0.027-0.406-0.127-0.589-0.393-0.645c-0.141-0.028-0.295-0.043-0.379-0.043c-0.057,0-0.098-0.057-0.098-0.099
				c0-0.069,0.057-0.099,0.195-0.099c0.406,0,1.178,0.029,1.246,0.029c0.057,0,0.855-0.029,1.232-0.029
				c0.141,0,0.197,0.029,0.197,0.099c0,0.042-0.059,0.099-0.1,0.099c-0.084,0-0.168,0-0.309,0.027
				c-0.336,0.07-0.406,0.238-0.436,0.659C436,40.165,436,40.501,436,42.351v2.102H436.002z"/>
			<path d="M443.424,38.737c2.773,0,4.873,1.693,4.873,4.469c0,2.661-1.975,4.859-4.943,4.859c-3.377,0-4.818-2.534-4.818-4.678
				C438.536,41.469,440.02,38.737,443.424,38.737z M443.706,47.576c1.105,0,3.334-0.589,3.334-4.034
				c0-2.857-1.738-4.355-3.686-4.355c-2.059,0-3.545,1.289-3.545,3.879C439.809,45.839,441.477,47.576,443.706,47.576z"/>
			<path d="M451.192,46.287c0.027,0.979,0.141,1.274,0.477,1.358c0.225,0.057,0.504,0.069,0.617,0.069
				c0.055,0,0.098,0.042,0.098,0.099c0,0.069-0.084,0.099-0.225,0.099c-0.699,0-1.189-0.042-1.303-0.042s-0.631,0.042-1.189,0.042
				c-0.127,0-0.197-0.015-0.197-0.099c0-0.057,0.043-0.099,0.1-0.099c0.098,0,0.32-0.014,0.504-0.069
				c0.309-0.084,0.35-0.405,0.35-1.484V39.34c0-0.478,0.07-0.603,0.168-0.603c0.143,0,0.352,0.238,0.479,0.363
				c0.195,0.196,1.988,2.102,3.893,4.063c1.219,1.26,2.537,2.675,2.914,3.067l-0.125-5.969c-0.014-0.771-0.084-1.035-0.463-1.105
				c-0.225-0.042-0.504-0.057-0.604-0.057c-0.084,0-0.098-0.069-0.098-0.111c0-0.07,0.098-0.084,0.238-0.084
				c0.561,0,1.146,0.027,1.289,0.027c0.139,0,0.545-0.027,1.051-0.027c0.125,0,0.223,0.014,0.223,0.084
				c0,0.042-0.055,0.111-0.139,0.111c-0.057,0-0.154,0-0.295,0.027c-0.406,0.085-0.436,0.322-0.436,1.037l-0.027,6.977
				c0,0.783-0.014,0.854-0.098,0.854c-0.127,0-0.252-0.098-0.938-0.729c-0.127-0.113-1.906-1.863-3.209-3.223
				c-1.428-1.499-2.814-2.955-3.193-3.376L451.192,46.287z"/>
			<path d="M461.104,47.744c-0.168-0.084-0.184-0.126-0.184-0.448c0-0.589,0.057-1.064,0.07-1.261c0-0.126,0.027-0.196,0.098-0.196
				s0.113,0.042,0.113,0.141s0,0.267,0.041,0.435c0.197,0.869,1.121,1.177,1.947,1.177c1.219,0,1.85-0.688,1.85-1.583
				c0-0.854-0.463-1.261-1.555-2.073l-0.561-0.42c-1.332-0.994-1.766-1.723-1.766-2.549c0-1.4,1.105-2.24,2.73-2.24
				c0.49,0,0.98,0.068,1.275,0.14c0.236,0.056,0.336,0.056,0.434,0.056c0.1,0,0.125,0.016,0.125,0.084
				c0,0.057-0.055,0.448-0.055,1.262c0,0.183-0.014,0.267-0.1,0.267c-0.084,0-0.098-0.056-0.111-0.154
				c-0.014-0.14-0.111-0.462-0.182-0.588c-0.084-0.142-0.49-0.589-1.598-0.589c-0.896,0-1.639,0.447-1.639,1.289
				c0,0.756,0.377,1.189,1.596,2.017l0.352,0.238c1.498,1.022,2.018,1.851,2.018,2.872c0,0.699-0.266,1.456-1.148,2.031
				c-0.52,0.336-1.289,0.42-1.961,0.42C462.323,48.065,461.608,47.981,461.104,47.744z"/>
		</g>
	</g>
</g>
<g id="Layer_4">
	<g>
		<path d="M149.431,37.358c3.152,0,5.506,1.99,5.506,5.254c0,3.138-2.214,5.729-5.59,5.729c-3.838,0-5.435-2.982-5.435-5.505
			C143.913,40.567,145.566,37.358,149.431,37.358z M149.726,47.81c1.261,0,3.866-0.729,3.866-4.805c0-3.361-2.046-5.169-4.259-5.169
			c-2.339,0-4.09,1.541-4.09,4.608C145.244,45.708,147.205,47.81,149.726,47.81z"/>
		<path d="M157.185,42.585c0-1.85,0-2.186-0.027-2.563c-0.028-0.406-0.099-0.604-0.505-0.658c-0.098-0.016-0.308-0.028-0.42-0.028
			c-0.042,0-0.099-0.058-0.099-0.099c0-0.069,0.057-0.098,0.196-0.098c0.561,0,1.331,0.027,1.401,0.027c0.238,0,2.913,0.014,3.193,0
			c0.238-0.016,0.448-0.016,0.561-0.057c0.07-0.014,0.126-0.069,0.168-0.069c0.056,0,0.084,0.056,0.084,0.11
			c0,0.084-0.056,0.226-0.098,0.562c-0.015,0.112-0.028,0.646-0.057,0.784c-0.014,0.057-0.056,0.126-0.112,0.126
			c-0.056,0-0.098-0.056-0.098-0.14c0-0.099-0.042-0.295-0.112-0.448c-0.069-0.154-0.364-0.351-0.84-0.351l-2.018-0.027
			c-0.07,0-0.098,0.027-0.098,0.126v3.25c0,0.069,0,0.11,0.084,0.11l1.681-0.014c0.21,0,0.393,0,0.561-0.014
			c0.294-0.028,0.462-0.07,0.574-0.211c0.056-0.069,0.112-0.127,0.154-0.127c0.056,0,0.069,0.043,0.069,0.1
			c0,0.07-0.084,0.266-0.111,0.658c-0.028,0.238-0.042,0.714-0.042,0.799c0,0.111-0.028,0.237-0.112,0.237
			c-0.07,0-0.084-0.056-0.084-0.111c-0.014-0.126-0.028-0.295-0.084-0.435c-0.057-0.168-0.252-0.322-0.631-0.379
			c-0.308-0.041-1.765-0.027-1.975-0.027c-0.07,0-0.084,0.027-0.084,0.111v0.953c0,1.176,0,2.114,0.056,2.576
			c0.042,0.352,0.112,0.574,0.448,0.631c0.183,0.028,0.448,0.057,0.561,0.057c0.07,0,0.098,0.057,0.098,0.099
			c0,0.056-0.056,0.099-0.195,0.099c-0.687,0-1.485-0.043-1.541-0.043c-0.07,0-0.841,0.043-1.219,0.043
			c-0.126,0-0.196-0.028-0.196-0.099c0-0.042,0.028-0.099,0.098-0.099c0.112,0,0.267-0.042,0.379-0.057
			c0.237-0.041,0.266-0.279,0.322-0.631c0.069-0.49,0.069-1.429,0.069-2.576L157.185,42.585L157.185,42.585z"/>
		<path d="M164.326,42.585c0-1.85,0-2.186-0.027-2.563c-0.028-0.406-0.099-0.604-0.505-0.658c-0.098-0.016-0.308-0.028-0.42-0.028
			c-0.042,0-0.099-0.058-0.099-0.099c0-0.069,0.057-0.098,0.196-0.098c0.561,0,1.331,0.027,1.401,0.027c0.238,0,2.913,0.014,3.193,0
			c0.238-0.016,0.448-0.016,0.561-0.057c0.07-0.014,0.126-0.069,0.168-0.069c0.056,0,0.084,0.056,0.084,0.11
			c0,0.084-0.056,0.226-0.098,0.562c-0.015,0.112-0.028,0.646-0.057,0.784c-0.014,0.057-0.056,0.126-0.112,0.126
			c-0.056,0-0.098-0.056-0.098-0.14c0-0.099-0.042-0.295-0.112-0.448c-0.069-0.154-0.364-0.351-0.84-0.351l-2.018-0.027
			c-0.07,0-0.098,0.027-0.098,0.126v3.25c0,0.069,0,0.11,0.084,0.11l1.681-0.014c0.21,0,0.393,0,0.561-0.014
			c0.294-0.028,0.462-0.07,0.574-0.211c0.056-0.069,0.112-0.127,0.154-0.127c0.056,0,0.069,0.043,0.069,0.1
			c0,0.07-0.084,0.266-0.111,0.658c-0.028,0.238-0.042,0.714-0.042,0.799c0,0.111-0.028,0.237-0.112,0.237
			c-0.07,0-0.084-0.056-0.084-0.111c-0.014-0.126-0.028-0.295-0.084-0.435c-0.057-0.168-0.252-0.322-0.631-0.379
			c-0.308-0.041-1.765-0.027-1.975-0.027c-0.07,0-0.084,0.027-0.084,0.111v0.953c0,1.176,0,2.114,0.056,2.576
			c0.042,0.352,0.112,0.574,0.448,0.631c0.183,0.028,0.448,0.057,0.561,0.057c0.07,0,0.098,0.057,0.098,0.099
			c0,0.056-0.056,0.099-0.195,0.099c-0.687,0-1.485-0.043-1.541-0.043c-0.07,0-0.841,0.043-1.219,0.043
			c-0.126,0-0.196-0.028-0.196-0.099c0-0.042,0.028-0.099,0.098-0.099c0.112,0,0.267-0.042,0.379-0.057
			c0.237-0.041,0.266-0.279,0.322-0.631c0.069-0.49,0.069-1.429,0.069-2.576L164.326,42.585L164.326,42.585z"/>
		<path d="M172.586,44.687c0,1.147,0,2.086,0.056,2.576c0.042,0.352,0.084,0.574,0.448,0.631c0.183,0.028,0.448,0.057,0.561,0.057
			c0.07,0,0.098,0.057,0.098,0.099c0,0.056-0.056,0.099-0.196,0.099c-0.686,0-1.484-0.043-1.54-0.043
			c-0.07,0-0.841,0.043-1.219,0.043c-0.126,0-0.196-0.028-0.196-0.099c0-0.042,0.028-0.099,0.098-0.099
			c0.112,0,0.267-0.027,0.379-0.057c0.238-0.057,0.28-0.279,0.322-0.631c0.056-0.49,0.069-1.429,0.069-2.576v-2.102
			c0-1.85,0-2.186-0.027-2.563c-0.028-0.406-0.126-0.59-0.393-0.646c-0.14-0.028-0.294-0.042-0.378-0.042
			c-0.057,0-0.099-0.057-0.099-0.1c0-0.068,0.057-0.098,0.196-0.098c0.406,0,1.177,0.028,1.247,0.028
			c0.056,0,0.854-0.028,1.232-0.028c0.14,0,0.196,0.028,0.196,0.098c0,0.043-0.057,0.1-0.099,0.1c-0.084,0-0.168,0-0.308,0.027
			c-0.336,0.07-0.406,0.238-0.435,0.658c-0.014,0.379-0.014,0.715-0.014,2.563v2.103H172.586z"/>
		<path d="M176.464,47.024c-1.205-1.037-1.499-2.396-1.499-3.529c0-0.799,0.294-2.186,1.387-3.25
			c0.742-0.714,1.863-1.273,3.754-1.273c0.49,0,1.19,0.041,1.793,0.139c0.462,0.084,0.854,0.168,1.261,0.184
			c0.126,0,0.154,0.057,0.154,0.126c0,0.099-0.028,0.238-0.057,0.672c-0.014,0.394-0.014,1.052-0.027,1.22
			c-0.015,0.183-0.07,0.252-0.141,0.252c-0.084,0-0.098-0.084-0.098-0.252c0-0.463-0.196-0.938-0.519-1.19
			c-0.435-0.364-1.331-0.658-2.423-0.658c-1.583,0-2.34,0.42-2.773,0.826c-0.911,0.841-1.107,1.905-1.107,3.108
			c0,2.285,1.808,4.314,4.44,4.314c0.925,0,1.541-0.068,2.031-0.561c0.267-0.267,0.435-0.771,0.477-0.994
			c0.028-0.126,0.042-0.168,0.126-0.168c0.056,0,0.112,0.084,0.112,0.168s-0.168,1.121-0.294,1.527
			c-0.07,0.224-0.099,0.266-0.309,0.35c-0.504,0.195-1.429,0.267-2.228,0.267C178.677,48.3,177.43,47.865,176.464,47.024z"/>
		<path d="M185.927,42.585c0-1.85,0-2.186-0.027-2.563c-0.028-0.406-0.099-0.604-0.505-0.658c-0.098-0.016-0.308-0.028-0.42-0.028
			c-0.042,0-0.099-0.058-0.099-0.099c0-0.069,0.057-0.098,0.196-0.098c0.561,0,1.359,0.027,1.429,0.027c0.084,0,2.662,0.014,2.942,0
			c0.237-0.016,0.462-0.057,0.56-0.07c0.057-0.014,0.112-0.056,0.168-0.056c0.042,0,0.057,0.056,0.057,0.11
			c0,0.084-0.07,0.226-0.099,0.562c-0.014,0.112-0.042,0.646-0.069,0.784c-0.015,0.057-0.057,0.126-0.112,0.126
			c-0.07,0-0.098-0.056-0.098-0.153c0-0.084-0.015-0.279-0.07-0.421c-0.084-0.194-0.21-0.28-0.883-0.364
			c-0.21-0.026-1.639-0.041-1.778-0.041c-0.057,0-0.07,0.041-0.07,0.125v3.236c0,0.084,0,0.126,0.07,0.126
			c0.153,0,1.778,0,2.059-0.028c0.294-0.026,0.477-0.041,0.603-0.168c0.084-0.084,0.14-0.153,0.182-0.153s0.07,0.028,0.07,0.099
			c0,0.071-0.07,0.266-0.098,0.658c-0.028,0.238-0.057,0.688-0.057,0.771c0,0.098-0.027,0.224-0.112,0.224
			c-0.056,0-0.084-0.042-0.084-0.111c0-0.112,0-0.237-0.056-0.394c-0.042-0.168-0.154-0.309-0.63-0.363
			c-0.337-0.042-1.653-0.057-1.863-0.057c-0.07,0-0.084,0.043-0.084,0.084v0.994c0,0.406-0.015,1.793,0,2.031
			c0.027,0.799,0.252,0.952,1.471,0.952c0.322,0,0.91,0,1.232-0.126c0.322-0.141,0.49-0.35,0.561-0.826
			c0.028-0.14,0.056-0.182,0.126-0.182s0.084,0.098,0.084,0.182s-0.098,0.896-0.168,1.148c-0.084,0.309-0.21,0.309-0.687,0.309
			c-0.925,0-1.639-0.027-2.144-0.042c-0.518-0.028-0.84-0.028-1.022-0.028c-0.027,0-0.266,0-0.532,0.015
			c-0.238,0.015-0.518,0.028-0.714,0.028c-0.126,0-0.196-0.028-0.196-0.099c0-0.042,0.028-0.099,0.098-0.099
			c0.112,0,0.267-0.042,0.379-0.057c0.237-0.041,0.266-0.279,0.322-0.631c0.069-0.49,0.069-1.429,0.069-2.576v-2.102H185.927z"/>
		<path d="M200.98,38.972c2.773,0,4.875,1.693,4.875,4.469c0,2.66-1.976,4.859-4.945,4.859c-3.376,0-4.818-2.535-4.818-4.679
			C196.091,41.702,197.576,38.972,200.98,38.972z M201.26,47.81c1.106,0,3.334-0.588,3.334-4.033c0-2.857-1.737-4.356-3.685-4.356
			c-2.059,0-3.544,1.288-3.544,3.88C197.366,46.072,199.033,47.81,201.26,47.81z"/>
		<path d="M208.075,42.585c0-1.85,0-2.186-0.027-2.563c-0.028-0.406-0.099-0.604-0.505-0.658c-0.098-0.016-0.308-0.028-0.42-0.028
			c-0.042,0-0.098-0.058-0.098-0.099c0-0.069,0.056-0.098,0.195-0.098c0.561,0,1.331,0.027,1.401,0.027c0.238,0,2.913,0.014,3.193,0
			c0.238-0.016,0.448-0.016,0.561-0.057c0.07-0.014,0.126-0.069,0.168-0.069c0.056,0,0.084,0.056,0.084,0.11
			c0,0.084-0.056,0.226-0.098,0.562c-0.015,0.112-0.028,0.646-0.057,0.784c-0.014,0.057-0.056,0.126-0.112,0.126
			c-0.056,0-0.098-0.056-0.098-0.14c0-0.099-0.042-0.295-0.112-0.448c-0.069-0.154-0.364-0.351-0.84-0.351l-2.018-0.027
			c-0.07,0-0.098,0.027-0.098,0.126v3.25c0,0.069,0,0.11,0.084,0.11l1.681-0.014c0.21,0,0.393,0,0.561-0.014
			c0.294-0.028,0.462-0.07,0.574-0.211c0.056-0.069,0.112-0.127,0.154-0.127c0.056,0,0.069,0.043,0.069,0.1
			c0,0.07-0.084,0.266-0.111,0.658c-0.028,0.238-0.042,0.714-0.042,0.799c0,0.111-0.028,0.237-0.112,0.237
			c-0.07,0-0.084-0.056-0.084-0.111c-0.015-0.126-0.028-0.295-0.084-0.435c-0.057-0.168-0.252-0.322-0.631-0.379
			c-0.308-0.041-1.765-0.027-1.975-0.027c-0.07,0-0.084,0.027-0.084,0.111v0.953c0,1.176,0,2.114,0.056,2.576
			c0.042,0.352,0.112,0.574,0.448,0.631c0.183,0.028,0.448,0.057,0.561,0.057c0.07,0,0.098,0.057,0.098,0.099
			c0,0.056-0.056,0.099-0.196,0.099c-0.686,0-1.484-0.043-1.54-0.043c-0.07,0-0.841,0.043-1.219,0.043
			c-0.126,0-0.196-0.028-0.196-0.099c0-0.042,0.028-0.099,0.098-0.099c0.112,0,0.267-0.042,0.379-0.057
			c0.238-0.041,0.266-0.279,0.322-0.631c0.069-0.49,0.069-1.429,0.069-2.576L208.075,42.585L208.075,42.585z"/>
		<path d="M221.754,37.906c0.168-0.464,0.224-0.548,0.308-0.548s0.141,0.07,0.309,0.506c0.21,0.531,2.409,6.316,3.264,8.445
			c0.504,1.248,0.91,1.472,1.204,1.556c0.211,0.069,0.421,0.084,0.561,0.084c0.084,0,0.141,0.015,0.141,0.084
			c0,0.084-0.126,0.112-0.28,0.112c-0.21,0-1.232,0-2.199-0.028c-0.267-0.015-0.42-0.015-0.42-0.099
			c0-0.056,0.042-0.084,0.098-0.098c0.084-0.027,0.168-0.154,0.084-0.379l-1.303-3.445c-0.028-0.057-0.056-0.084-0.126-0.084h-3.012
			c-0.07,0-0.112,0.043-0.14,0.111l-0.841,2.479c-0.126,0.352-0.196,0.688-0.196,0.938c0,0.28,0.294,0.406,0.532,0.406h0.141
			c0.098,0,0.14,0.028,0.14,0.084c0,0.084-0.084,0.112-0.21,0.112c-0.336,0-0.938-0.043-1.093-0.043
			c-0.155,0-0.925,0.043-1.583,0.043c-0.182,0-0.266-0.028-0.266-0.112c0-0.056,0.056-0.084,0.126-0.084
			c0.098,0,0.294-0.015,0.406-0.027c0.645-0.085,0.924-0.617,1.177-1.317L221.754,37.906z M223.21,43.509
			c0.07,0,0.07-0.042,0.057-0.098l-1.331-3.782c-0.07-0.21-0.14-0.21-0.21,0l-1.232,3.782c-0.028,0.07,0,0.098,0.042,0.098H223.21z"
			/>
		<path d="M229.986,44.714c0,1.751,0.027,2.465,0.252,2.676c0.196,0.195,0.672,0.279,1.639,0.279c0.645,0,1.19-0.014,1.485-0.363
			c0.153-0.183,0.252-0.435,0.294-0.673c0.014-0.084,0.056-0.153,0.126-0.153c0.056,0,0.084,0.057,0.084,0.183
			s-0.084,0.84-0.182,1.19c-0.085,0.279-0.127,0.321-0.785,0.321c-0.882,0-1.568-0.015-2.143-0.042
			c-0.561-0.015-0.98-0.027-1.345-0.027c-0.057,0-0.267,0-0.505,0.014c-0.252,0.015-0.518,0.027-0.714,0.027
			c-0.126,0-0.196-0.027-0.196-0.098c0-0.042,0.028-0.099,0.098-0.099c0.112,0,0.267-0.027,0.379-0.056
			c0.237-0.058,0.266-0.281,0.322-0.631c0.069-0.49,0.069-1.43,0.069-2.578v-2.101c0-1.851,0-2.187-0.027-2.563
			c-0.028-0.405-0.099-0.603-0.505-0.658c-0.098-0.014-0.308-0.027-0.42-0.027c-0.042,0-0.099-0.057-0.099-0.1
			c0-0.068,0.057-0.098,0.196-0.098c0.561,0,1.331,0.028,1.401,0.028c0.056,0,0.98-0.028,1.358-0.028
			c0.126,0,0.196,0.028,0.196,0.098c0,0.043-0.057,0.084-0.099,0.084c-0.084,0-0.266,0.016-0.406,0.029
			c-0.363,0.069-0.434,0.252-0.462,0.672c-0.014,0.379-0.014,0.715-0.014,2.563v2.13H229.986z"/>
		<path d="M235.306,42.585c0-1.85,0-2.186-0.028-2.563c-0.027-0.379-0.098-0.604-0.504-0.658c-0.099-0.016-0.309-0.028-0.421-0.028
			c-0.042,0-0.098-0.058-0.098-0.099c0-0.069,0.056-0.098,0.196-0.098c0.561,0,1.303,0.027,1.415,0.027s0.883-0.027,1.246-0.027
			c0.141,0,0.21,0.027,0.21,0.098c0,0.041-0.056,0.099-0.11,0.099c-0.086,0-0.154,0-0.31,0.028c-0.321,0.056-0.394,0.266-0.42,0.658
			c-0.028,0.377-0.028,0.713-0.028,2.563v1.666c0,1.725,0.379,2.438,0.91,2.914c0.604,0.546,1.135,0.645,1.836,0.645
			c0.756,0,1.484-0.336,1.904-0.841c0.574-0.687,0.7-1.667,0.7-2.886v-1.498c0-1.85-0.015-2.186-0.027-2.563
			c-0.015-0.379-0.084-0.604-0.489-0.658c-0.1-0.016-0.31-0.028-0.422-0.028c-0.056,0-0.098-0.058-0.098-0.099
			c0-0.069,0.057-0.098,0.195-0.098c0.547,0,1.262,0.027,1.33,0.027c0.084,0,0.674-0.027,1.037-0.027
			c0.141,0,0.196,0.027,0.196,0.098c0,0.041-0.042,0.099-0.099,0.099c-0.084,0-0.154,0-0.309,0.028
			c-0.336,0.068-0.406,0.266-0.435,0.658c-0.028,0.377-0.015,0.713-0.015,2.563v1.273c0,1.289-0.168,2.731-1.148,3.572
			c-0.896,0.771-1.85,0.868-2.577,0.868c-0.405,0-1.694-0.028-2.563-0.841c-0.602-0.561-1.077-1.387-1.077-3.123v-1.75H235.306z"/>
		<path d="M254.855,46.619c0.042,0.42,0.126,1.063,0.63,1.231c0.352,0.112,0.674,0.112,0.799,0.112c0.057,0,0.098,0.027,0.098,0.084
			c0,0.069-0.11,0.111-0.252,0.111c-0.279,0-1.651-0.015-2.101-0.056c-0.295-0.028-0.351-0.07-0.351-0.127
			c0-0.041,0.027-0.084,0.084-0.099c0.07-0.015,0.084-0.194,0.056-0.42l-0.588-6.051h-0.028l-2.97,6.079
			c-0.252,0.519-0.321,0.63-0.435,0.63c-0.111,0-0.182-0.111-0.42-0.546c-0.321-0.59-1.135-2.115-1.442-2.76
			c-0.364-0.757-1.358-2.76-1.567-3.25h-0.058l-0.478,5.379c-0.014,0.183-0.014,0.405-0.014,0.603c0,0.183,0.112,0.294,0.294,0.336
			c0.21,0.058,0.394,0.07,0.478,0.07c0.041,0,0.098,0.042,0.098,0.084c0,0.084-0.084,0.112-0.225,0.112
			c-0.461,0-1.051-0.043-1.147-0.043c-0.112,0-0.7,0.043-1.037,0.043c-0.126,0-0.21-0.028-0.21-0.112
			c0-0.042,0.057-0.084,0.126-0.084c0.099,0,0.183-0.015,0.364-0.042c0.406-0.07,0.42-0.504,0.477-0.952l0.896-7.774
			c0.014-0.126,0.07-0.21,0.14-0.21c0.085,0,0.183,0.042,0.253,0.183l3.727,7.396l3.586-7.382c0.056-0.112,0.111-0.196,0.195-0.196
			s0.153,0.099,0.183,0.322L254.855,46.619z"/>
		<path d="M258.728,46.521c0.028,0.98,0.14,1.274,0.478,1.358c0.224,0.058,0.504,0.07,0.615,0.07c0.057,0,0.098,0.042,0.098,0.099
			c0,0.069-0.084,0.098-0.224,0.098c-0.7,0-1.19-0.041-1.303-0.041s-0.632,0.041-1.19,0.041c-0.127,0-0.195-0.014-0.195-0.098
			c0-0.057,0.041-0.099,0.098-0.099c0.1,0,0.322-0.015,0.504-0.07c0.309-0.084,0.352-0.405,0.352-1.483v-6.821
			c0-0.478,0.069-0.603,0.168-0.603c0.141,0,0.351,0.237,0.477,0.363c0.195,0.196,1.988,2.102,3.895,4.063
			c1.219,1.261,2.535,2.676,2.914,3.067l-0.127-5.968c-0.014-0.771-0.084-1.036-0.462-1.105c-0.225-0.043-0.505-0.057-0.603-0.057
			c-0.084,0-0.1-0.07-0.1-0.111c0-0.07,0.1-0.084,0.238-0.084c0.561,0,1.148,0.027,1.289,0.027s0.546-0.027,1.051-0.027
			c0.127,0,0.225,0.014,0.225,0.084c0,0.041-0.057,0.111-0.141,0.111c-0.057,0-0.154,0-0.295,0.027
			c-0.406,0.085-0.434,0.322-0.434,1.037l-0.028,6.976c0,0.784-0.015,0.854-0.099,0.854c-0.125,0-0.252-0.099-0.938-0.729
			c-0.126-0.112-1.904-1.862-3.208-3.222c-1.429-1.5-2.815-2.955-3.192-3.377L258.728,46.521z"/>
		<path d="M270.362,44.687c0,1.147,0,2.086,0.057,2.576c0.041,0.352,0.084,0.574,0.447,0.631c0.184,0.028,0.448,0.057,0.561,0.057
			c0.07,0,0.099,0.057,0.099,0.099c0,0.056-0.056,0.099-0.196,0.099c-0.686,0-1.484-0.043-1.539-0.043
			c-0.07,0-0.842,0.043-1.22,0.043c-0.126,0-0.196-0.028-0.196-0.099c0-0.042,0.028-0.099,0.099-0.099
			c0.112,0,0.267-0.027,0.379-0.057c0.237-0.057,0.28-0.279,0.321-0.631c0.057-0.49,0.07-1.429,0.07-2.576v-2.102
			c0-1.85,0-2.186-0.027-2.563c-0.028-0.406-0.127-0.59-0.394-0.646c-0.14-0.028-0.294-0.042-0.378-0.042
			c-0.057,0-0.1-0.057-0.1-0.1c0-0.068,0.058-0.098,0.197-0.098c0.405,0,1.176,0.028,1.246,0.028c0.057,0,0.854-0.028,1.232-0.028
			c0.141,0,0.195,0.028,0.195,0.098c0,0.043-0.057,0.1-0.098,0.1c-0.084,0-0.168,0-0.309,0.027c-0.336,0.07-0.406,0.238-0.436,0.658
			c-0.014,0.379-0.014,0.715-0.014,2.563v2.103H270.362z"/>
		<path d="M278.86,41.618c0-2.186,0-2.577-0.027-3.025c-0.027-0.477-0.141-0.701-0.603-0.799c-0.112-0.027-0.351-0.042-0.478-0.042
			c-0.056,0-0.111-0.028-0.111-0.084c0-0.084,0.07-0.112,0.225-0.112c0.631,0,1.514,0.043,1.584,0.043
			c0.152,0,1.219-0.043,1.651-0.043c0.883,0,1.821,0.084,2.563,0.616c0.351,0.252,0.967,0.938,0.967,1.905
			c0,1.035-0.436,2.072-1.695,3.234c1.148,1.473,2.102,2.719,2.914,3.586c0.756,0.8,1.357,0.953,1.709,1.01
			c0.266,0.042,0.462,0.042,0.546,0.042c0.069,0,0.126,0.042,0.126,0.084c0,0.084-0.084,0.112-0.336,0.112H286.9
			c-0.784,0-1.134-0.07-1.498-0.268c-0.603-0.32-1.093-1.008-1.892-2.059c-0.588-0.771-1.246-1.709-1.526-2.073
			c-0.058-0.056-0.099-0.084-0.183-0.084l-1.723-0.028c-0.07,0-0.099,0.042-0.099,0.112v0.336c0,1.345,0,2.452,0.069,3.04
			c0.041,0.406,0.127,0.714,0.547,0.771c0.195,0.027,0.504,0.056,0.63,0.056c0.084,0,0.112,0.042,0.112,0.084
			c0,0.069-0.07,0.112-0.225,0.112c-0.771,0-1.652-0.043-1.724-0.043c-0.015,0-0.896,0.043-1.315,0.043
			c-0.154,0-0.226-0.028-0.226-0.112c0-0.042,0.028-0.084,0.112-0.084c0.125,0,0.293-0.027,0.42-0.056
			c0.279-0.058,0.351-0.365,0.406-0.771c0.069-0.588,0.069-1.695,0.069-3.04v-2.464H278.86z M279.981,42.837
			c0,0.069,0.027,0.126,0.098,0.168c0.211,0.126,0.854,0.225,1.471,0.225c0.336,0,0.729-0.043,1.052-0.267
			c0.489-0.336,0.854-1.093,0.854-2.157c0-1.75-0.926-2.802-2.425-2.802c-0.42,0-0.798,0.042-0.938,0.084
			c-0.068,0.028-0.11,0.084-0.11,0.168L279.981,42.837L279.981,42.837z"/>
		<path d="M288.743,42.585c0-1.85,0-2.186-0.027-2.563c-0.027-0.406-0.098-0.604-0.504-0.658c-0.099-0.016-0.309-0.028-0.42-0.028
			c-0.043,0-0.099-0.058-0.099-0.099c0-0.069,0.056-0.098,0.195-0.098c0.562,0,1.358,0.027,1.429,0.027c0.084,0,2.662,0.014,2.941,0
			c0.238-0.016,0.463-0.057,0.561-0.07c0.057-0.014,0.112-0.056,0.168-0.056c0.042,0,0.057,0.056,0.057,0.11
			c0,0.084-0.069,0.226-0.099,0.562c-0.014,0.112-0.042,0.646-0.069,0.784c-0.015,0.057-0.057,0.126-0.111,0.126
			c-0.07,0-0.098-0.056-0.098-0.153c0-0.084-0.016-0.279-0.07-0.421c-0.084-0.194-0.211-0.28-0.883-0.364
			c-0.211-0.026-1.639-0.041-1.779-0.041c-0.057,0-0.068,0.041-0.068,0.125v3.236c0,0.084,0,0.126,0.068,0.126
			c0.154,0,1.779,0,2.061-0.028c0.293-0.026,0.477-0.041,0.603-0.168c0.084-0.084,0.14-0.153,0.182-0.153s0.07,0.028,0.07,0.099
			c0,0.071-0.07,0.266-0.099,0.658c-0.027,0.238-0.057,0.688-0.057,0.771c0,0.098-0.027,0.224-0.111,0.224
			c-0.057,0-0.084-0.042-0.084-0.111c0-0.112,0-0.237-0.057-0.394c-0.042-0.168-0.154-0.309-0.63-0.363
			c-0.337-0.042-1.653-0.057-1.862-0.057c-0.07,0-0.085,0.043-0.085,0.084v0.994c0,0.406-0.015,1.793,0,2.031
			c0.027,0.799,0.253,0.952,1.472,0.952c0.322,0,0.91,0,1.231-0.126c0.322-0.141,0.49-0.35,0.562-0.826
			c0.027-0.14,0.056-0.182,0.125-0.182c0.07,0,0.084,0.098,0.084,0.182s-0.098,0.896-0.168,1.148
			c-0.084,0.309-0.209,0.309-0.687,0.309c-0.925,0-1.64-0.027-2.144-0.042c-0.519-0.028-0.84-0.028-1.022-0.028
			c-0.026,0-0.267,0-0.532,0.015c-0.238,0.015-0.518,0.028-0.714,0.028c-0.126,0-0.196-0.028-0.196-0.099
			c0-0.042,0.028-0.099,0.099-0.099c0.112,0,0.267-0.042,0.379-0.057c0.237-0.041,0.267-0.279,0.321-0.631
			c0.07-0.49,0.07-1.429,0.07-2.576v-2.102H288.743z"/>
		<path d="M297.228,44.714c0,1.751,0.026,2.465,0.252,2.676c0.196,0.195,0.672,0.279,1.64,0.279c0.645,0,1.189-0.014,1.484-0.363
			c0.152-0.183,0.252-0.435,0.294-0.673c0.015-0.084,0.056-0.153,0.126-0.153c0.057,0,0.084,0.057,0.084,0.183
			s-0.084,0.84-0.182,1.19c-0.086,0.279-0.127,0.321-0.785,0.321c-0.883,0-1.568-0.015-2.143-0.042
			c-0.562-0.015-0.98-0.027-1.346-0.027c-0.057,0-0.267,0-0.505,0.014c-0.252,0.015-0.519,0.027-0.714,0.027
			c-0.126,0-0.196-0.027-0.196-0.098c0-0.042,0.028-0.099,0.099-0.099c0.111,0,0.267-0.027,0.379-0.056
			c0.236-0.058,0.266-0.281,0.322-0.631c0.068-0.49,0.068-1.43,0.068-2.578v-2.101c0-1.851,0-2.187-0.027-2.563
			c-0.027-0.405-0.099-0.603-0.504-0.658c-0.099-0.014-0.309-0.027-0.421-0.027c-0.042,0-0.099-0.057-0.099-0.1
			c0-0.068,0.057-0.098,0.195-0.098c0.562,0,1.332,0.028,1.401,0.028c0.056,0,0.979-0.028,1.358-0.028
			c0.125,0,0.195,0.028,0.195,0.098c0,0.043-0.057,0.084-0.099,0.084c-0.084,0-0.267,0.016-0.405,0.029
			c-0.363,0.069-0.435,0.252-0.463,0.672c-0.014,0.379-0.014,0.715-0.014,2.563v2.13H297.228z"/>
		<path d="M305.25,39.377c0.153-0.394,0.211-0.463,0.295-0.463c0.125,0,0.168,0.169,0.293,0.435
			c0.225,0.506,2.199,5.422,2.955,7.229c0.449,1.063,0.785,1.218,1.051,1.302c0.184,0.057,0.365,0.07,0.49,0.07
			c0.07,0,0.154,0.027,0.154,0.099c0,0.069-0.141,0.099-0.279,0.099c-0.182,0-1.094,0-1.947-0.028
			c-0.238-0.015-0.434-0.015-0.434-0.084c0-0.056,0.027-0.056,0.084-0.084c0.068-0.027,0.195-0.126,0.111-0.322l-1.107-2.731
			c-0.026-0.056-0.041-0.068-0.111-0.068h-2.844c-0.057,0-0.098,0.027-0.125,0.098l-0.701,1.905
			c-0.111,0.294-0.182,0.588-0.182,0.798c0,0.238,0.209,0.322,0.42,0.322h0.111c0.098,0,0.126,0.042,0.126,0.099
			c0,0.069-0.069,0.099-0.182,0.099c-0.296,0-0.968-0.043-1.106-0.043c-0.127,0-0.742,0.043-1.246,0.043
			c-0.154,0-0.238-0.028-0.238-0.099c0-0.057,0.056-0.099,0.111-0.099c0.084,0,0.266-0.014,0.364-0.027
			c0.562-0.07,0.798-0.49,1.036-1.093L305.25,39.377z M306.624,44.336c0.056,0,0.056-0.028,0.041-0.085l-1.219-3.264
			c-0.07-0.182-0.14-0.182-0.21,0l-1.147,3.264c-0.016,0.057,0,0.085,0.041,0.085H306.624z"/>
		<path d="M313.553,44.687c0,1.147,0,2.086,0.057,2.576c0.043,0.352,0.098,0.574,0.477,0.631c0.168,0.028,0.447,0.057,0.561,0.057
			c0.084,0,0.098,0.057,0.098,0.099c0,0.056-0.055,0.099-0.195,0.099c-0.672,0-1.457-0.043-1.525-0.043
			c-0.057,0-0.91,0.043-1.275,0.043c-0.139,0-0.195-0.028-0.195-0.099c0-0.042,0.027-0.084,0.1-0.084
			c0.109,0,0.252-0.028,0.361-0.057c0.254-0.056,0.322-0.294,0.365-0.646c0.057-0.49,0.057-1.429,0.057-2.576v-5.002l-1.779,0.028
			c-0.771,0.015-1.064,0.099-1.246,0.378c-0.141,0.211-0.154,0.295-0.195,0.379c-0.027,0.098-0.07,0.111-0.127,0.111
			c-0.027,0-0.084-0.027-0.084-0.098c0-0.127,0.238-1.19,0.268-1.289c0.014-0.069,0.084-0.225,0.125-0.225
			c0.084,0,0.211,0.098,0.547,0.141c0.35,0.041,0.826,0.057,0.967,0.057h4.648c0.406,0,0.688-0.027,0.885-0.057
			c0.182-0.027,0.293-0.057,0.35-0.057s0.057,0.07,0.057,0.141c0,0.363-0.043,1.219-0.043,1.358c0,0.099-0.055,0.153-0.111,0.153
			s-0.084-0.042-0.098-0.21l-0.014-0.126c-0.043-0.364-0.309-0.63-1.486-0.658l-1.541-0.027v5.002H313.553z"/>
		<path d="M320.174,44.687c0,1.147,0,2.086,0.057,2.576c0.043,0.352,0.084,0.574,0.447,0.631c0.184,0.028,0.449,0.057,0.563,0.057
			c0.068,0,0.098,0.057,0.098,0.099c0,0.056-0.057,0.099-0.195,0.099c-0.688,0-1.484-0.043-1.541-0.043
			c-0.07,0-0.842,0.043-1.219,0.043c-0.127,0-0.197-0.028-0.197-0.099c0-0.042,0.029-0.099,0.1-0.099
			c0.111,0,0.266-0.027,0.379-0.057c0.236-0.057,0.279-0.279,0.322-0.631c0.055-0.49,0.068-1.429,0.068-2.576v-2.102
			c0-1.85,0-2.186-0.027-2.563c-0.027-0.406-0.127-0.59-0.393-0.646c-0.141-0.028-0.295-0.042-0.379-0.042
			c-0.057,0-0.098-0.057-0.098-0.1c0-0.068,0.057-0.098,0.195-0.098c0.406,0,1.178,0.028,1.246,0.028
			c0.057,0,0.855-0.028,1.232-0.028c0.141,0,0.197,0.028,0.197,0.098c0,0.043-0.059,0.1-0.1,0.1c-0.084,0-0.168,0-0.309,0.027
			c-0.336,0.07-0.406,0.238-0.436,0.658c-0.014,0.379-0.014,0.715-0.014,2.563v2.103H320.174z"/>
		<path d="M327.442,38.972c2.773,0,4.875,1.693,4.875,4.469c0,2.66-1.977,4.859-4.945,4.859c-3.375,0-4.818-2.535-4.818-4.679
			C322.553,41.702,324.038,38.972,327.442,38.972z M327.721,47.81c1.107,0,3.334-0.588,3.334-4.033c0-2.857-1.736-4.356-3.684-4.356
			c-2.059,0-3.545,1.288-3.545,3.88C323.829,46.072,325.495,47.81,327.721,47.81z"/>
		<path d="M335.055,46.521c0.029,0.98,0.141,1.274,0.479,1.358c0.223,0.058,0.504,0.07,0.615,0.07c0.057,0,0.098,0.042,0.098,0.099
			c0,0.069-0.084,0.098-0.223,0.098c-0.701,0-1.191-0.041-1.305-0.041c-0.111,0-0.631,0.041-1.189,0.041
			c-0.127,0-0.195-0.014-0.195-0.098c0-0.057,0.041-0.099,0.098-0.099c0.1,0,0.322-0.015,0.504-0.07
			c0.309-0.084,0.352-0.405,0.352-1.483v-6.821c0-0.478,0.07-0.603,0.168-0.603c0.141,0,0.35,0.237,0.477,0.363
			c0.195,0.196,1.988,2.102,3.895,4.063c1.219,1.261,2.535,2.676,2.914,3.067l-0.127-5.968c-0.014-0.771-0.084-1.036-0.461-1.105
			c-0.227-0.043-0.506-0.057-0.604-0.057c-0.084,0-0.1-0.07-0.1-0.111c0-0.07,0.1-0.084,0.238-0.084
			c0.561,0,1.148,0.027,1.289,0.027s0.547-0.027,1.051-0.027c0.127,0,0.225,0.014,0.225,0.084c0,0.041-0.057,0.111-0.141,0.111
			c-0.057,0-0.154,0-0.295,0.027c-0.406,0.085-0.434,0.322-0.434,1.037l-0.029,6.976c0,0.784-0.014,0.854-0.098,0.854
			c-0.125,0-0.252-0.099-0.938-0.729c-0.125-0.112-1.904-1.862-3.207-3.222c-1.43-1.5-2.816-2.955-3.193-3.377L335.055,46.521z"/>
		<path d="M344.813,47.978c-0.168-0.084-0.184-0.125-0.184-0.447c0-0.59,0.057-1.064,0.07-1.262c0-0.125,0.027-0.195,0.098-0.195
			s0.113,0.042,0.113,0.141c0,0.098,0,0.266,0.041,0.434c0.197,0.869,1.121,1.178,1.947,1.178c1.219,0,1.85-0.688,1.85-1.583
			c0-0.854-0.463-1.261-1.555-2.073l-0.561-0.42c-1.332-0.994-1.766-1.723-1.766-2.549c0-1.401,1.105-2.241,2.73-2.241
			c0.49,0,0.98,0.069,1.275,0.14c0.236,0.057,0.336,0.057,0.434,0.057c0.1,0,0.125,0.015,0.125,0.084
			c0,0.057-0.055,0.447-0.055,1.261c0,0.183-0.014,0.267-0.1,0.267c-0.084,0-0.098-0.057-0.111-0.154
			c-0.014-0.139-0.111-0.461-0.182-0.588c-0.084-0.141-0.49-0.588-1.598-0.588c-0.896,0-1.639,0.447-1.639,1.289
			c0,0.756,0.377,1.189,1.596,2.017l0.352,0.237c1.498,1.022,2.018,1.851,2.018,2.873c0,0.699-0.266,1.455-1.148,2.029
			c-0.52,0.337-1.289,0.421-1.961,0.421C346.032,48.3,345.317,48.216,344.813,47.978z"/>
		<path d="M355.565,45.246c0-1.64,1.051-2.731,2.145-3.376c-0.52-0.729-0.688-1.303-0.688-1.934c0-1.106,1.135-2.578,3.012-2.578
			c0.715,0,1.316,0.142,1.693,0.352c0.17,0.098,0.184,0.182,0.184,0.352c0,0.42-0.055,1.399-0.098,1.609s-0.086,0.238-0.141,0.238
			c-0.07,0-0.084-0.057-0.084-0.268c0-0.363-0.084-0.826-0.436-1.189c-0.309-0.322-0.783-0.616-1.4-0.616
			c-0.84,0-1.779,0.519-1.779,1.835c0,1.094,0.758,2.003,2.215,3.586c0.477,0.52,2.199,2.129,2.646,2.508
			c0.393-0.531,0.715-1.472,0.715-2.324c0-0.211-0.057-0.478-0.266-0.688c-0.184-0.184-0.479-0.225-0.688-0.225
			c-0.084,0-0.168-0.028-0.168-0.098c0-0.07,0.111-0.1,0.225-0.1c0.336,0,0.895,0.016,1.68,0.1c0.211,0.026,0.254,0.139,0.254,0.279
			c0,1.135-0.771,2.549-1.387,3.307c0.924,0.783,1.539,1.161,1.932,1.387c0.449,0.266,1.162,0.546,1.668,0.546
			c0.125,0,0.195,0.015,0.195,0.099c0,0.057-0.111,0.098-0.238,0.098h-1.373c-1.035,0-1.373-0.098-2.912-1.315
			c-0.322,0.321-1.43,1.513-3.502,1.513C356.518,48.342,355.565,46.465,355.565,45.246z M362.108,46.563
			c-0.785-0.646-2.174-1.976-2.535-2.367c-0.365-0.394-1.262-1.387-1.654-1.961c-0.729,0.477-1.26,1.231-1.26,2.354
			c0,1.751,1.23,3.012,2.801,3.012C360.762,47.601,361.629,47.053,362.108,46.563z"/>
		<path d="M372.057,41.618c0-2.186,0-2.577-0.027-3.025c-0.027-0.477-0.141-0.701-0.604-0.799c-0.111-0.027-0.35-0.042-0.477-0.042
			c-0.057,0-0.111-0.028-0.111-0.084c0-0.084,0.07-0.112,0.225-0.112c0.631,0,1.514,0.043,1.584,0.043
			c0.168,0,1.049-0.043,1.891-0.043c1.387,0,3.949-0.125,5.617,1.598c0.699,0.729,1.357,1.892,1.357,3.559
			c0,1.766-0.729,3.123-1.514,3.95c-0.602,0.63-1.863,1.61-4.244,1.61c-0.602,0-1.344-0.043-1.947-0.084
			c-0.615-0.043-1.092-0.084-1.16-0.084c-0.029,0-0.268,0-0.563,0.014c-0.279,0-0.602,0.027-0.813,0.027
			c-0.154,0-0.225-0.027-0.225-0.111c0-0.042,0.027-0.084,0.111-0.084c0.127,0,0.295-0.027,0.422-0.057
			c0.279-0.057,0.35-0.363,0.404-0.771c0.07-0.588,0.07-1.695,0.07-3.04v-2.465H372.057z M373.235,43.131
			c0,1.484,0.014,2.772,0.027,3.04c0.014,0.35,0.041,0.91,0.154,1.064c0.182,0.266,0.727,0.56,2.381,0.56
			c1.303,0,2.506-0.476,3.334-1.303c0.729-0.714,1.119-2.06,1.119-3.349c0-1.777-0.77-2.928-1.344-3.528
			c-1.316-1.388-2.914-1.583-4.58-1.583c-0.281,0-0.799,0.042-0.91,0.098c-0.127,0.057-0.17,0.126-0.17,0.28
			c-0.014,0.478-0.014,1.905-0.014,2.983v1.737H373.235z"/>
		<path d="M384.069,42.585c0-1.85,0-2.186-0.027-2.563c-0.027-0.406-0.098-0.604-0.504-0.658c-0.098-0.016-0.309-0.028-0.42-0.028
			c-0.043,0-0.1-0.058-0.1-0.099c0-0.069,0.057-0.098,0.195-0.098c0.563,0,1.359,0.027,1.43,0.027c0.084,0,2.662,0.014,2.941,0
			c0.238-0.016,0.463-0.057,0.561-0.07c0.057-0.014,0.111-0.056,0.168-0.056c0.041,0,0.057,0.056,0.057,0.11
			c0,0.084-0.07,0.226-0.1,0.562c-0.014,0.112-0.041,0.646-0.068,0.784c-0.016,0.057-0.057,0.126-0.111,0.126
			c-0.07,0-0.098-0.056-0.098-0.153c0-0.084-0.016-0.279-0.07-0.421c-0.084-0.194-0.211-0.28-0.883-0.364
			c-0.211-0.026-1.639-0.041-1.779-0.041c-0.057,0-0.068,0.041-0.068,0.125v3.236c0,0.084,0,0.126,0.068,0.126
			c0.154,0,1.779,0,2.061-0.028c0.293-0.026,0.477-0.041,0.602-0.168c0.084-0.084,0.141-0.153,0.184-0.153
			c0.041,0,0.068,0.028,0.068,0.099c0,0.071-0.068,0.266-0.098,0.658c-0.027,0.238-0.057,0.688-0.057,0.771
			c0,0.098-0.027,0.224-0.111,0.224c-0.057,0-0.084-0.042-0.084-0.111c0-0.112,0-0.237-0.057-0.394
			c-0.043-0.168-0.154-0.309-0.631-0.363c-0.336-0.042-1.652-0.057-1.861-0.057c-0.07,0-0.084,0.043-0.084,0.084v0.994
			c0,0.406-0.016,1.793,0,2.031c0.025,0.799,0.252,0.952,1.471,0.952c0.322,0,0.91,0,1.23-0.126c0.322-0.141,0.49-0.35,0.563-0.826
			c0.027-0.14,0.055-0.182,0.125-0.182s0.084,0.098,0.084,0.182s-0.098,0.896-0.168,1.148c-0.084,0.309-0.209,0.309-0.688,0.309
			c-0.924,0-1.639-0.027-2.143-0.042c-0.518-0.028-0.84-0.028-1.023-0.028c-0.025,0-0.266,0-0.531,0.015
			c-0.238,0.015-0.518,0.028-0.713,0.028c-0.127,0-0.197-0.028-0.197-0.099c0-0.042,0.027-0.099,0.098-0.099
			c0.113,0,0.268-0.042,0.379-0.057c0.238-0.041,0.268-0.279,0.322-0.631c0.07-0.49,0.07-1.429,0.07-2.576v-2.102H384.069z"/>
		<path d="M394.458,46.591c0.715-1.597,2.326-5.658,2.592-6.514c0.057-0.182,0.111-0.352,0.111-0.448s-0.041-0.21-0.168-0.252
			c-0.141-0.042-0.279-0.042-0.42-0.042c-0.07,0-0.141-0.042-0.141-0.1c0-0.068,0.084-0.098,0.279-0.098
			c0.49,0,1.051,0.028,1.205,0.028c0.07,0,0.602-0.028,0.967-0.028c0.125,0,0.195,0.028,0.195,0.084
			c0,0.057-0.041,0.112-0.139,0.112c-0.084,0-0.365,0-0.59,0.14c-0.168,0.112-0.363,0.28-0.688,1.094
			c-0.139,0.336-0.742,1.765-1.371,3.222c-0.758,1.737-1.303,3.024-1.584,3.614c-0.336,0.714-0.406,0.896-0.531,0.896
			c-0.141,0-0.225-0.153-0.463-0.729l-3.025-7.297c-0.279-0.674-0.447-0.799-0.854-0.896c-0.197-0.042-0.406-0.042-0.477-0.042
			s-0.1-0.069-0.1-0.112c0-0.07,0.127-0.084,0.322-0.084c0.588,0,1.289,0.028,1.443,0.028c0.125,0,0.672-0.028,1.148-0.028
			c0.223,0,0.336,0.028,0.336,0.084c0,0.057-0.043,0.112-0.127,0.112c-0.141,0-0.336,0.015-0.447,0.056
			c-0.127,0.058-0.141,0.127-0.141,0.211c0,0.153,0.154,0.519,0.336,0.994L394.458,46.591z"/>
		<path d="M400.545,42.585c0-1.85,0-2.186-0.027-2.563c-0.027-0.406-0.098-0.604-0.504-0.658c-0.098-0.016-0.309-0.028-0.42-0.028
			c-0.043,0-0.1-0.058-0.1-0.099c0-0.069,0.057-0.098,0.197-0.098c0.561,0,1.357,0.027,1.428,0.027c0.084,0,2.662,0.014,2.941,0
			c0.238-0.016,0.463-0.057,0.561-0.07c0.057-0.014,0.113-0.056,0.168-0.056c0.043,0,0.057,0.056,0.057,0.11
			c0,0.084-0.068,0.226-0.098,0.562c-0.014,0.112-0.043,0.646-0.07,0.784c-0.014,0.057-0.057,0.126-0.111,0.126
			c-0.07,0-0.098-0.056-0.098-0.153c0-0.084-0.016-0.279-0.07-0.421c-0.084-0.194-0.209-0.28-0.883-0.364
			c-0.211-0.026-1.639-0.041-1.777-0.041c-0.059,0-0.07,0.041-0.07,0.125v3.236c0,0.084,0,0.126,0.07,0.126
			c0.152,0,1.777,0,2.059-0.028c0.293-0.026,0.477-0.041,0.604-0.168c0.084-0.084,0.139-0.153,0.182-0.153
			c0.041,0,0.07,0.028,0.07,0.099c0,0.071-0.07,0.266-0.1,0.658c-0.027,0.238-0.057,0.688-0.057,0.771
			c0,0.098-0.027,0.224-0.111,0.224c-0.057,0-0.084-0.042-0.084-0.111c0-0.112,0-0.237-0.057-0.394
			c-0.041-0.168-0.154-0.309-0.629-0.363c-0.338-0.042-1.654-0.057-1.863-0.057c-0.07,0-0.084,0.043-0.084,0.084v0.994
			c0,0.406-0.016,1.793,0,2.031c0.027,0.799,0.252,0.952,1.471,0.952c0.322,0,0.91,0,1.232-0.126c0.322-0.141,0.49-0.35,0.561-0.826
			c0.027-0.14,0.057-0.182,0.125-0.182c0.07,0,0.084,0.098,0.084,0.182s-0.098,0.896-0.168,1.148
			c-0.084,0.309-0.209,0.309-0.686,0.309c-0.926,0-1.641-0.027-2.145-0.042c-0.518-0.028-0.84-0.028-1.021-0.028
			c-0.027,0-0.268,0-0.533,0.015c-0.238,0.015-0.518,0.028-0.713,0.028c-0.127,0-0.197-0.028-0.197-0.099
			c0-0.042,0.029-0.099,0.1-0.099c0.111,0,0.266-0.042,0.379-0.057c0.236-0.041,0.266-0.279,0.32-0.631
			c0.07-0.49,0.07-1.429,0.07-2.576v-2.102H400.545z"/>
		<path d="M409.032,44.714c0,1.751,0.025,2.465,0.252,2.676c0.195,0.195,0.672,0.279,1.639,0.279c0.645,0,1.189-0.014,1.484-0.363
			c0.152-0.183,0.252-0.435,0.295-0.673c0.014-0.084,0.055-0.153,0.125-0.153c0.057,0,0.084,0.057,0.084,0.183
			s-0.084,0.84-0.182,1.19c-0.084,0.279-0.127,0.321-0.785,0.321c-0.881,0-1.568-0.015-2.143-0.042
			c-0.561-0.015-0.98-0.027-1.346-0.027c-0.057,0-0.266,0-0.504,0.014c-0.252,0.015-0.52,0.027-0.715,0.027
			c-0.125,0-0.195-0.027-0.195-0.098c0-0.042,0.027-0.099,0.098-0.099c0.111,0,0.268-0.027,0.379-0.056
			c0.236-0.058,0.266-0.281,0.322-0.631c0.068-0.49,0.068-1.43,0.068-2.578v-2.101c0-1.851,0-2.187-0.027-2.563
			c-0.027-0.405-0.098-0.603-0.504-0.658c-0.098-0.014-0.309-0.027-0.42-0.027c-0.043,0-0.1-0.057-0.1-0.1
			c0-0.068,0.057-0.098,0.195-0.098c0.563,0,1.332,0.028,1.402,0.028c0.055,0,0.979-0.028,1.357-0.028
			c0.127,0,0.195,0.028,0.195,0.098c0,0.043-0.057,0.084-0.098,0.084c-0.084,0-0.268,0.016-0.406,0.029
			c-0.363,0.069-0.434,0.252-0.463,0.672c-0.014,0.379-0.014,0.715-0.014,2.563v2.13H409.032z"/>
		<path d="M418.231,38.972c2.773,0,4.875,1.693,4.875,4.469c0,2.66-1.977,4.859-4.945,4.859c-3.375,0-4.818-2.535-4.818-4.679
			C413.342,41.702,414.827,38.972,418.231,38.972z M418.51,47.81c1.107,0,3.334-0.588,3.334-4.033c0-2.857-1.736-4.356-3.684-4.356
			c-2.061,0-3.545,1.288-3.545,3.88C414.618,46.072,416.284,47.81,418.51,47.81z"/>
		<path d="M425.327,42.585c0-1.85,0-2.186-0.027-2.563c-0.029-0.406-0.1-0.604-0.506-0.658c-0.098-0.016-0.307-0.028-0.42-0.028
			c-0.041,0-0.098-0.058-0.098-0.099c0-0.069,0.057-0.098,0.195-0.098c0.561,0,1.33,0.027,1.43,0.027
			c0.266,0,1.189-0.027,1.75-0.027c1.584,0,2.145,0.489,2.354,0.672c0.281,0.252,0.617,0.785,0.617,1.43
			c0,1.709-1.289,2.843-3.18,2.843c-0.07,0-0.281,0-0.352-0.015c-0.057,0-0.127-0.055-0.127-0.111c0-0.098,0.07-0.126,0.322-0.126
			c1.332,0,2.283-0.84,2.283-1.919c0-0.393-0.041-1.162-0.699-1.807c-0.646-0.646-1.387-0.574-1.668-0.574
			c-0.209,0-0.561,0.056-0.686,0.084c-0.07,0.014-0.1,0.098-0.1,0.224v4.847c0,1.148,0,2.088,0.057,2.578
			c0.043,0.351,0.111,0.573,0.49,0.631c0.168,0.027,0.434,0.056,0.547,0.056c0.07,0,0.098,0.057,0.098,0.099
			c0,0.057-0.057,0.098-0.195,0.098c-0.672,0-1.484-0.041-1.541-0.041c-0.041,0-0.84,0.041-1.219,0.041
			c-0.125,0-0.195-0.027-0.195-0.098c0-0.042,0.027-0.099,0.098-0.099c0.111,0,0.268-0.027,0.379-0.056
			c0.236-0.058,0.266-0.28,0.322-0.631c0.068-0.49,0.068-1.43,0.068-2.578v-2.102H425.327z"/>
		<path d="M442.413,46.619c0.041,0.42,0.125,1.063,0.629,1.231c0.352,0.112,0.674,0.112,0.799,0.112c0.057,0,0.1,0.027,0.1,0.084
			c0,0.069-0.111,0.111-0.254,0.111c-0.279,0-1.65-0.015-2.1-0.056c-0.295-0.028-0.352-0.07-0.352-0.127
			c0-0.041,0.027-0.084,0.084-0.099c0.07-0.015,0.084-0.194,0.057-0.42l-0.588-6.051h-0.029l-2.969,6.079
			c-0.252,0.519-0.322,0.63-0.436,0.63c-0.111,0-0.182-0.111-0.42-0.546c-0.32-0.59-1.135-2.115-1.441-2.76
			c-0.365-0.757-1.359-2.76-1.568-3.25h-0.057l-0.479,5.379c-0.014,0.183-0.014,0.405-0.014,0.603c0,0.183,0.113,0.294,0.295,0.336
			c0.209,0.058,0.393,0.07,0.477,0.07c0.043,0,0.098,0.042,0.098,0.084c0,0.084-0.084,0.112-0.225,0.112
			c-0.461,0-1.051-0.043-1.146-0.043c-0.113,0-0.701,0.043-1.037,0.043c-0.127,0-0.211-0.028-0.211-0.112
			c0-0.042,0.057-0.084,0.127-0.084c0.098,0,0.182-0.015,0.363-0.042c0.406-0.07,0.42-0.504,0.477-0.952l0.896-7.774
			c0.014-0.126,0.07-0.21,0.141-0.21c0.084,0,0.184,0.042,0.252,0.183l3.727,7.396l3.586-7.382c0.057-0.112,0.111-0.196,0.195-0.196
			s0.154,0.099,0.184,0.322L442.413,46.619z"/>
		<path d="M445.766,42.585c0-1.85,0-2.186-0.027-2.563c-0.027-0.406-0.1-0.604-0.504-0.658c-0.1-0.016-0.309-0.028-0.42-0.028
			c-0.043,0-0.1-0.058-0.1-0.099c0-0.069,0.057-0.098,0.195-0.098c0.561,0,1.359,0.027,1.43,0.027c0.084,0,2.662,0.014,2.941,0
			c0.236-0.016,0.463-0.057,0.561-0.07c0.057-0.014,0.111-0.056,0.168-0.056c0.041,0,0.057,0.056,0.057,0.11
			c0,0.084-0.07,0.226-0.1,0.562c-0.014,0.112-0.041,0.646-0.068,0.784c-0.016,0.057-0.057,0.126-0.111,0.126
			c-0.07,0-0.098-0.056-0.098-0.153c0-0.084-0.016-0.279-0.07-0.421c-0.084-0.194-0.211-0.28-0.883-0.364
			c-0.211-0.026-1.641-0.041-1.779-0.041c-0.057,0-0.07,0.041-0.07,0.125v3.236c0,0.084,0,0.126,0.07,0.126
			c0.154,0,1.779,0,2.059-0.028c0.295-0.026,0.479-0.041,0.604-0.168c0.084-0.084,0.141-0.153,0.182-0.153
			c0.043,0,0.07,0.028,0.07,0.099c0,0.071-0.07,0.266-0.098,0.658c-0.027,0.238-0.057,0.688-0.057,0.771
			c0,0.098-0.027,0.224-0.111,0.224c-0.057,0-0.086-0.042-0.086-0.111c0-0.112,0-0.237-0.055-0.394
			c-0.043-0.168-0.154-0.309-0.631-0.363c-0.336-0.042-1.652-0.057-1.863-0.057c-0.068,0-0.084,0.043-0.084,0.084v0.994
			c0,0.406-0.014,1.793,0,2.031c0.027,0.799,0.252,0.952,1.473,0.952c0.32,0,0.908,0,1.23-0.126c0.322-0.141,0.49-0.35,0.563-0.826
			c0.027-0.14,0.055-0.182,0.125-0.182s0.084,0.098,0.084,0.182s-0.098,0.896-0.168,1.148c-0.084,0.309-0.209,0.309-0.688,0.309
			c-0.924,0-1.639-0.027-2.143-0.042c-0.52-0.028-0.84-0.028-1.023-0.028c-0.027,0-0.266,0-0.531,0.015
			c-0.238,0.015-0.518,0.028-0.715,0.028c-0.125,0-0.195-0.028-0.195-0.099c0-0.042,0.027-0.099,0.098-0.099
			c0.113,0,0.268-0.042,0.379-0.057c0.238-0.041,0.266-0.279,0.322-0.631c0.068-0.49,0.068-1.429,0.068-2.576V42.585L445.766,42.585
			z"/>
		<path d="M453.649,46.521c0.027,0.98,0.139,1.274,0.477,1.358c0.223,0.058,0.504,0.07,0.615,0.07c0.057,0,0.098,0.042,0.098,0.099
			c0,0.069-0.084,0.098-0.223,0.098c-0.701,0-1.191-0.041-1.305-0.041c-0.111,0-0.631,0.041-1.189,0.041
			c-0.127,0-0.195-0.014-0.195-0.098c0-0.057,0.041-0.099,0.098-0.099c0.1,0,0.322-0.015,0.504-0.07
			c0.309-0.084,0.352-0.405,0.352-1.483v-6.821c0-0.478,0.07-0.603,0.168-0.603c0.141,0,0.352,0.237,0.477,0.363
			c0.195,0.196,1.988,2.102,3.895,4.063c1.219,1.261,2.535,2.676,2.914,3.067l-0.127-5.968c-0.014-0.771-0.084-1.036-0.461-1.105
			c-0.227-0.043-0.506-0.057-0.604-0.057c-0.084,0-0.1-0.07-0.1-0.111c0-0.07,0.1-0.084,0.238-0.084
			c0.561,0,1.148,0.027,1.289,0.027s0.547-0.027,1.051-0.027c0.127,0,0.225,0.014,0.225,0.084c0,0.041-0.057,0.111-0.141,0.111
			c-0.057,0-0.154,0-0.295,0.027c-0.406,0.085-0.434,0.322-0.434,1.037l-0.027,6.976c0,0.784-0.016,0.854-0.1,0.854
			c-0.125,0-0.252-0.099-0.938-0.729c-0.125-0.112-1.904-1.862-3.207-3.222c-1.43-1.5-2.816-2.955-3.193-3.377L453.649,46.521z"/>
		<path d="M467.131,44.687c0,1.147,0,2.086,0.057,2.576c0.043,0.352,0.098,0.574,0.477,0.631c0.168,0.028,0.447,0.057,0.561,0.057
			c0.084,0,0.098,0.057,0.098,0.099c0,0.056-0.057,0.099-0.195,0.099c-0.672,0-1.457-0.043-1.527-0.043
			c-0.055,0-0.908,0.043-1.273,0.043c-0.139,0-0.195-0.028-0.195-0.099c0-0.042,0.027-0.084,0.1-0.084
			c0.109,0,0.252-0.028,0.361-0.057c0.254-0.056,0.322-0.294,0.365-0.646c0.057-0.49,0.057-1.429,0.057-2.576v-5.002l-1.779,0.028
			c-0.771,0.015-1.064,0.099-1.246,0.378c-0.141,0.211-0.154,0.295-0.195,0.379c-0.029,0.098-0.07,0.111-0.127,0.111
			c-0.027,0-0.084-0.027-0.084-0.098c0-0.127,0.238-1.19,0.266-1.289c0.016-0.069,0.084-0.225,0.127-0.225
			c0.084,0,0.209,0.098,0.547,0.141c0.35,0.041,0.826,0.057,0.967,0.057h4.648c0.406,0,0.688-0.027,0.885-0.057
			c0.182-0.027,0.293-0.057,0.35-0.057s0.057,0.07,0.057,0.141c0,0.363-0.043,1.219-0.043,1.358c0,0.099-0.055,0.153-0.111,0.153
			s-0.084-0.042-0.098-0.21l-0.014-0.126c-0.043-0.364-0.309-0.63-1.486-0.658l-1.541-0.027v5.002H467.131z"/>
	</g>
</g>
</svg>
