<?xml version="1.0" encoding="utf-8"?>
<!-- Generator: Adobe Illustrator 16.0.3, SVG Export Plug-In . SVG Version: 6.00 Build 0)  -->
<!DOCTYPE svg PUBLIC "-//W3C//DTD SVG 1.1//EN" "http://www.w3.org/Graphics/SVG/1.1/DTD/svg11.dtd">
<svg version="1.1" id="Layer_1" xmlns="http://www.w3.org/2000/svg" xmlns:xlink="http://www.w3.org/1999/xlink" x="0px" y="0px"
	 width="469.422px" height="48.342px" viewBox="0 0 469.422 48.342" enable-background="new 0 0 469.422 48.342"
	 xml:space="preserve">
<g id="Layer_1_1_">
	<g>
		<rect y="1.909" fill="#AA0000" width="30.379" height="30.16"/>
		<polygon fill="none" stroke="#FFFFFF" stroke-width="0.9387" points="3.951,11.708 25.952,11.665 14.952,3.847 		"/>
		<path fill="none" stroke="#FFFFFF" stroke-width="0.9387" d="M12.012,29.347c0.88,0,1.592-0.712,1.592-1.592V14.584
			c0-0.879-0.711-1.593-1.592-1.593l0,0c-0.879,0-1.592,0.714-1.592,1.593v13.171C10.42,28.635,11.133,29.347,12.012,29.347
			L12.012,29.347z"/>
		<path fill="none" stroke="#FFFFFF" stroke-width="0.9387" d="M17.469,29.327c0.88,0,1.592-0.712,1.592-1.592V14.563
			c0-0.878-0.712-1.592-1.592-1.592l0,0c-0.879,0-1.594,0.713-1.594,1.592v13.172C15.875,28.615,16.59,29.327,17.469,29.327
			L17.469,29.327z"/>
		<path fill="none" stroke="#FFFFFF" stroke-width="0.9387" d="M22.409,13.054c-0.88,0-1.375,0.712-1.375,1.592v13.169
			c0,0.881,0.495,1.594,1.375,1.594"/>
		<path fill="none" stroke="#FFFFFF" stroke-width="0.9387" d="M6.971,29.438c0.88,0,1.375-0.711,1.375-1.59V14.676
			c0-0.881-0.495-1.594-1.375-1.594"/>
		<rect x="0.877" y="2.896" fill="none" stroke="#FFFFFF" stroke-width="0.9126" width="28.625" height="28.294"/>
	</g>
	<g>
		<path fill="#231F20" d="M44.191,18.83c0,4.517,0,6.244-0.837,8.222c-0.585,1.393-1.813,2.704-4.069,4.268
			c-0.362,0.25-0.809,0.557-1.087,0.693c-0.055,0.029-0.111,0.057-0.196,0.057c-0.083,0-0.195-0.057-0.195-0.166
			c0-0.168,0.139-0.252,0.39-0.42c0.334-0.193,0.726-0.527,0.976-0.778c1.813-1.839,2.677-3.315,2.677-10.505v-8.057
			c0-4.348,0-5.128-0.057-6.019c-0.054-0.949-0.277-1.395-1.198-1.59c-0.223-0.055-0.698-0.083-0.947-0.083
			c-0.114,0-0.224-0.056-0.224-0.167c0-0.168,0.14-0.222,0.445-0.222c1.253,0,3.011,0.084,3.151,0.084
			c0.139,0,1.894-0.084,2.73-0.084c0.306,0,0.446,0.054,0.446,0.222c0,0.112-0.112,0.167-0.224,0.167
			c-0.195,0-0.362,0.027-0.695,0.083c-0.754,0.14-0.976,0.613-1.03,1.59c-0.057,0.891-0.057,1.671-0.057,6.019L44.191,18.83
			L44.191,18.83z"/>
		<path fill="#231F20" d="M48.391,15.841c0-4.885,2.787-7.339,6.51-7.339c3.524,0,6.782,2.879,6.782,8.231
			c0,6.489-4.149,7.649-6.156,7.649C51.512,24.383,48.391,21.038,48.391,15.841z M46.271,16.465c0,4.014,2.542,8.767,8.654,8.767
			c5.374,0,8.898-4.127,8.898-9.123c0-5.199-3.747-8.364-8.768-8.364C48.901,7.745,46.271,12.852,46.271,16.465z"/>
		<path fill="#231F20" d="M79.545,18.449c0,2.142,0,3.903,0.111,4.84c0.066,0.647,0.201,1.138,0.871,1.227
			c0.311,0.045,0.801,0.089,1.003,0.089c0.133,0,0.177,0.068,0.177,0.135c0,0.11-0.112,0.178-0.355,0.178
			c-1.227,0-2.631-0.065-2.743-0.065c-0.113,0-1.517,0.065-2.187,0.065c-0.244,0-0.356-0.044-0.356-0.178
			c0-0.067,0.044-0.135,0.178-0.135c0.199,0,0.467-0.044,0.669-0.089c0.446-0.089,0.558-0.579,0.647-1.227
			c0.112-0.937,0.112-2.699,0.112-4.84v-2.34c0-0.09-0.068-0.134-0.134-0.134h-9.457c-0.066,0-0.134,0.021-0.134,0.134v2.34
			c0,2.142,0,3.903,0.112,4.84c0.066,0.647,0.199,1.138,0.87,1.227c0.31,0.045,0.804,0.089,1.004,0.089
			c0.132,0,0.177,0.068,0.177,0.135c0,0.11-0.111,0.178-0.356,0.178c-1.229,0-2.631-0.065-2.743-0.065
			c-0.111,0-1.518,0.065-2.186,0.065c-0.246,0-0.357-0.044-0.357-0.178c0-0.067,0.044-0.135,0.178-0.135
			c0.202,0,0.47-0.044,0.67-0.089c0.447-0.089,0.557-0.579,0.647-1.227c0.111-0.937,0.111-2.699,0.111-4.84v-3.924
			c0-3.48,0-4.104-0.045-4.818c-0.046-0.758-0.224-1.115-0.958-1.271c-0.178-0.046-0.559-0.067-0.759-0.067
			c-0.088,0-0.177-0.044-0.177-0.133c0-0.134,0.111-0.18,0.356-0.18c1.002,0,2.409,0.069,2.521,0.069
			c0.112,0,1.515-0.069,2.185-0.069c0.247,0,0.358,0.046,0.358,0.18c0,0.09-0.09,0.133-0.18,0.133c-0.155,0-0.29,0.021-0.558,0.067
			c-0.602,0.112-0.781,0.49-0.825,1.271c-0.045,0.713-0.045,1.337-0.045,4.818v0.468c0,0.111,0.067,0.133,0.133,0.133h9.458
			c0.066,0,0.134-0.022,0.134-0.133v-0.468c0-3.48,0-4.104-0.045-4.818c-0.045-0.758-0.223-1.115-0.958-1.271
			C76.491,8.39,76.11,8.369,75.91,8.369c-0.09,0-0.179-0.044-0.179-0.133c0-0.134,0.111-0.18,0.359-0.18
			c1.002,0,2.406,0.069,2.519,0.069c0.112,0,1.516-0.069,2.185-0.069c0.246,0,0.357,0.046,0.357,0.18c0,0.09-0.09,0.133-0.178,0.133
			c-0.158,0-0.292,0.021-0.558,0.067c-0.603,0.112-0.781,0.49-0.825,1.271c-0.045,0.713-0.045,1.337-0.045,4.818V18.449
			L79.545,18.449z"/>
		<path fill="#231F20" d="M84.989,21.886c0.046,1.828,0.269,2.406,0.871,2.585c0.423,0.112,0.913,0.133,1.114,0.133
			c0.112,0,0.178,0.046,0.178,0.135c0,0.133-0.131,0.178-0.399,0.178c-1.273,0-2.165-0.066-2.366-0.066
			c-0.2,0-1.136,0.066-2.141,0.066c-0.223,0-0.357-0.021-0.357-0.178c0-0.09,0.067-0.135,0.179-0.135
			c0.178,0,0.58-0.021,0.915-0.133c0.559-0.157,0.67-0.803,0.67-2.832l0.02-12.78c0-0.869,0.068-1.114,0.246-1.114
			c0.178,0,0.558,0.49,0.781,0.713c0.335,0.379,3.658,3.97,7.091,7.651c2.209,2.362,4.639,5.083,5.353,5.82L96.9,10.6
			c-0.023-1.45-0.179-1.94-0.872-2.119c-0.401-0.09-0.914-0.111-1.092-0.111c-0.157,0-0.179-0.068-0.179-0.157
			c0-0.133,0.179-0.157,0.447-0.157c1.003,0,2.075,0.068,2.319,0.068c0.246,0,0.982-0.068,1.896-0.068
			c0.246,0,0.402,0.023,0.402,0.157c0,0.089-0.09,0.157-0.246,0.157c-0.111,0-0.267,0-0.534,0.067
			c-0.738,0.156-0.825,0.646-0.825,1.984L98.17,23.489c0,1.474-0.045,1.585-0.202,1.585c-0.176,0-0.445-0.246-1.628-1.426
			c-0.245-0.223-3.456-3.503-5.822-6.044c-2.586-2.789-5.106-5.597-5.82-6.401L84.989,21.886z"/>
		<path fill="#231F20" d="M133.461,21.533c0.112,1.004,0.307,2.565,1.505,2.954c0.807,0.252,1.532,0.252,1.813,0.252
			c0.139,0,0.221,0.027,0.221,0.139c0,0.168-0.252,0.252-0.584,0.252c-0.615,0-3.624-0.084-4.656-0.167
			c-0.642-0.057-0.78-0.14-0.78-0.28c0-0.111,0.057-0.166,0.196-0.195c0.14-0.028,0.167-0.501,0.111-1.002L129.95,9.103h-0.084
			l-6.829,14.493c-0.585,1.228-0.67,1.479-0.922,1.479c-0.193,0-0.332-0.28-0.862-1.282c-0.725-1.365-3.122-6.188-3.26-6.466
			c-0.252-0.501-3.373-7.191-3.68-7.944h-0.112l-1.114,12.932c-0.028,0.446-0.028,0.947-0.028,1.421
			c0,0.418,0.307,0.781,0.724,0.864c0.474,0.112,0.892,0.14,1.061,0.14c0.111,0,0.223,0.055,0.223,0.139
			c0,0.196-0.167,0.252-0.502,0.252c-1.028,0-2.367-0.084-2.59-0.084c-0.251,0-1.59,0.084-2.341,0.084
			c-0.281,0-0.475-0.056-0.475-0.252c0-0.084,0.14-0.139,0.281-0.139c0.223,0,0.417,0,0.833-0.083
			c0.92-0.168,1.005-1.254,1.116-2.314l2.007-18.172c0.056-0.306,0.141-0.501,0.307-0.501c0.167,0,0.278,0.112,0.417,0.417
			l8.529,17.532l8.194-17.505c0.111-0.249,0.223-0.445,0.417-0.445c0.196,0,0.277,0.224,0.336,0.752L133.461,21.533z"/>
		<path fill="#231F20" d="M142.229,17.536c-0.065,0-0.111-0.045-0.065-0.157l1.963-6.022c0.112-0.335,0.223-0.335,0.335,0
			l2.118,6.022c0.022,0.089,0.022,0.157-0.09,0.157H142.229z M139.107,22.464c-0.401,1.115-0.848,1.963-1.873,2.097
			c-0.179,0.022-0.491,0.044-0.647,0.044c-0.112,0-0.2,0.045-0.2,0.135c0,0.134,0.132,0.178,0.424,0.178
			c1.047,0,2.273-0.065,2.521-0.065c0.244,0,1.203,0.065,1.738,0.065c0.203,0,0.334-0.044,0.334-0.178
			c0-0.09-0.068-0.135-0.222-0.135h-0.224c-0.379,0-0.846-0.2-0.846-0.646c0-0.401,0.111-0.937,0.311-1.495l1.339-3.947
			c0.044-0.113,0.112-0.179,0.225-0.179h4.792c0.113,0,0.158,0.046,0.202,0.133l2.075,5.488c0.132,0.355,0,0.557-0.135,0.601
			c-0.09,0.023-0.157,0.067-0.157,0.157c0,0.134,0.247,0.134,0.669,0.157c1.541,0.044,3.167,0.044,3.503,0.044
			c0.246,0,0.446-0.044,0.446-0.178c0-0.112-0.088-0.135-0.224-0.135c-0.222,0-0.558-0.021-0.891-0.132
			c-0.468-0.134-1.113-0.491-1.918-2.475c-1.361-3.391-4.861-12.604-5.196-13.449c-0.27-0.692-0.358-0.803-0.493-0.803
			c-0.132,0-0.221,0.133-0.49,0.869L139.107,22.464z"/>
		<path fill="#231F20" d="M157.117,9.172c0-0.133,0.065-0.224,0.177-0.268c0.223-0.067,0.826-0.135,1.496-0.135
			c2.386,0,3.859,1.673,3.859,4.46c0,1.696-0.581,2.899-1.361,3.436c-0.514,0.357-1.138,0.423-1.674,0.423
			c-0.98,0-2.005-0.155-2.338-0.356c-0.112-0.067-0.158-0.157-0.158-0.268L157.117,9.172L157.117,9.172z M155.332,18.449
			c0,2.142,0,3.903-0.111,4.84c-0.091,0.647-0.202,1.138-0.647,1.227c-0.201,0.045-0.471,0.089-0.67,0.089
			c-0.131,0-0.178,0.068-0.178,0.135c0,0.134,0.111,0.178,0.357,0.178c0.668,0,2.074-0.065,2.097-0.065
			c0.11,0,1.516,0.065,2.743,0.065c0.243,0,0.356-0.065,0.356-0.178c0-0.067-0.046-0.135-0.179-0.135
			c-0.201,0-0.691-0.044-1.004-0.089c-0.667-0.089-0.803-0.579-0.868-1.227c-0.112-0.937-0.112-2.699-0.112-4.84v-0.534
			c0-0.112,0.046-0.179,0.158-0.179l2.742,0.045c0.131,0,0.2,0.044,0.29,0.134c0.446,0.579,1.494,2.073,2.431,3.3
			c1.271,1.672,2.052,2.766,3.011,3.279c0.58,0.313,1.138,0.424,2.386,0.424h1.584c0.402,0,0.535-0.044,0.535-0.178
			c0-0.067-0.09-0.135-0.201-0.135c-0.134,0-0.445,0-0.868-0.066c-0.559-0.09-1.517-0.335-2.723-1.604
			c-1.293-1.384-2.808-3.369-4.64-5.711c2.008-1.853,2.7-3.502,2.7-5.152c0-1.539-0.98-2.632-1.539-3.033
			c-1.182-0.849-2.676-0.983-4.083-0.983c-0.691,0-2.385,0.069-2.631,0.069c-0.111,0-1.517-0.069-2.521-0.069
			c-0.244,0-0.355,0.046-0.355,0.18c0,0.09,0.09,0.133,0.178,0.133c0.202,0,0.58,0.021,0.759,0.067
			c0.734,0.156,0.914,0.513,0.959,1.271c0.044,0.713,0.044,1.337,0.044,4.818V18.449L155.332,18.449z"/>
		<path fill="#231F20" d="M170.498,24.628c-0.312-0.157-0.333-0.245-0.333-0.848c0-1.116,0.089-2.005,0.11-2.364
			c0.023-0.246,0.067-0.357,0.179-0.357c0.133,0,0.156,0.068,0.156,0.245c0,0.203,0,0.514,0.067,0.825
			c0.336,1.651,1.806,2.275,3.301,2.275c2.141,0,3.19-1.539,3.19-2.967c0-1.537-0.647-2.431-2.566-4.013l-1.003-0.827
			c-2.363-1.94-2.901-3.324-2.901-4.839c0-2.386,1.786-4.015,4.618-4.015c0.871,0,1.518,0.089,2.075,0.223
			c0.423,0.088,0.603,0.111,0.78,0.111c0.177,0,0.222,0.045,0.222,0.157c0,0.112-0.087,0.848-0.087,2.365
			c0,0.357-0.044,0.513-0.158,0.513c-0.135,0-0.155-0.112-0.177-0.291c-0.022-0.268-0.157-0.869-0.29-1.115
			c-0.134-0.246-0.737-1.182-2.789-1.182c-1.539,0-2.744,0.958-2.744,2.588c0,1.271,0.626,2.03,2.721,3.746l0.625,0.491
			c2.633,2.075,3.257,3.457,3.257,5.241c0,0.916-0.357,2.611-1.895,3.701c-0.958,0.671-2.163,0.938-3.368,0.938
			C172.439,25.229,171.413,25.074,170.498,24.628z"/>
		<path fill="#231F20" d="M195.012,18.449c0,2.142,0,3.903,0.112,4.84c0.065,0.647,0.201,1.138,0.869,1.227
			c0.311,0.045,0.804,0.089,1.004,0.089c0.132,0,0.178,0.068,0.178,0.135c0,0.11-0.11,0.178-0.357,0.178
			c-1.225,0-2.63-0.065-2.742-0.065c-0.112,0-1.519,0.065-2.185,0.065c-0.245,0-0.357-0.044-0.357-0.178
			c0-0.067,0.045-0.135,0.177-0.135c0.201,0,0.47-0.044,0.671-0.089c0.444-0.089,0.557-0.579,0.646-1.227
			c0.112-0.937,0.112-2.699,0.112-4.84v-2.34c0-0.09-0.067-0.134-0.134-0.134h-9.456c-0.067,0-0.134,0.021-0.134,0.134v2.34
			c0,2.142,0,3.903,0.111,4.84c0.068,0.647,0.202,1.138,0.871,1.227c0.312,0.045,0.802,0.089,1.003,0.089
			c0.134,0,0.178,0.068,0.178,0.135c0,0.11-0.112,0.178-0.354,0.178c-1.228,0-2.633-0.065-2.745-0.065s-1.516,0.065-2.185,0.065
			c-0.246,0-0.358-0.044-0.358-0.178c0-0.067,0.044-0.135,0.179-0.135c0.199,0,0.468-0.044,0.668-0.089
			c0.447-0.089,0.559-0.579,0.646-1.227c0.112-0.937,0.112-2.699,0.112-4.84v-3.924c0-3.48,0-4.104-0.045-4.818
			c-0.043-0.758-0.222-1.115-0.959-1.271c-0.179-0.046-0.558-0.067-0.757-0.067c-0.09,0-0.179-0.044-0.179-0.133
			c0-0.134,0.111-0.18,0.357-0.18c1.004,0,2.408,0.069,2.52,0.069s1.518-0.069,2.186-0.069c0.245,0,0.356,0.046,0.356,0.18
			c0,0.09-0.089,0.133-0.178,0.133c-0.156,0-0.29,0.021-0.558,0.067c-0.602,0.112-0.779,0.49-0.825,1.271
			c-0.045,0.713-0.045,1.337-0.045,4.818v0.468c0,0.111,0.068,0.133,0.134,0.133h9.456c0.067,0,0.135-0.022,0.135-0.133v-0.468
			c0-3.48,0-4.104-0.045-4.818c-0.046-0.758-0.225-1.115-0.959-1.271c-0.179-0.046-0.558-0.067-0.756-0.067
			c-0.091,0-0.18-0.044-0.18-0.133c0-0.134,0.111-0.18,0.356-0.18c1.002,0,2.409,0.069,2.521,0.069c0.112,0,1.518-0.069,2.186-0.069
			c0.245,0,0.356,0.046,0.356,0.18c0,0.09-0.089,0.133-0.179,0.133c-0.154,0-0.289,0.021-0.558,0.067
			c-0.602,0.112-0.78,0.49-0.824,1.271c-0.045,0.713-0.045,1.337-0.045,4.818L195.012,18.449L195.012,18.449z"/>
		<path fill="#231F20" d="M202.984,17.536c-0.067,0-0.111-0.045-0.067-0.157l1.963-6.022c0.112-0.335,0.223-0.335,0.335,0
			l2.12,6.022c0.022,0.089,0.022,0.157-0.09,0.157H202.984z M199.862,22.464c-0.402,1.115-0.848,1.963-1.874,2.097
			c-0.179,0.022-0.491,0.044-0.645,0.044c-0.112,0-0.202,0.045-0.202,0.135c0,0.134,0.132,0.178,0.424,0.178
			c1.048,0,2.274-0.065,2.52-0.065c0.245,0,1.205,0.065,1.741,0.065c0.2,0,0.333-0.044,0.333-0.178c0-0.09-0.066-0.135-0.221-0.135
			h-0.224c-0.379,0-0.848-0.2-0.848-0.646c0-0.401,0.112-0.937,0.311-1.495l1.339-3.947c0.046-0.113,0.113-0.179,0.224-0.179h4.794
			c0.112,0,0.157,0.046,0.201,0.133l2.073,5.488c0.133,0.355,0,0.557-0.134,0.601c-0.089,0.023-0.155,0.067-0.155,0.157
			c0,0.134,0.245,0.134,0.669,0.157c1.537,0.044,3.166,0.044,3.501,0.044c0.245,0,0.445-0.044,0.445-0.178
			c0-0.112-0.089-0.135-0.223-0.135c-0.222,0-0.557-0.021-0.89-0.132c-0.47-0.134-1.116-0.491-1.919-2.475
			c-1.36-3.391-4.861-12.604-5.197-13.449c-0.268-0.692-0.355-0.803-0.489-0.803c-0.135,0-0.224,0.133-0.49,0.869L199.862,22.464z"
			/>
		<path fill="#231F20" d="M218.581,18.495c0,3.28,0.088,4.707,0.489,5.106c0.358,0.358,0.938,0.514,2.677,0.514
			c1.183,0,2.163-0.022,2.698-0.668c0.291-0.357,0.513-0.915,0.581-1.338c0.022-0.179,0.067-0.291,0.201-0.291
			c0.11,0,0.134,0.089,0.134,0.334c0,0.245-0.157,1.583-0.336,2.231c-0.156,0.513-0.224,0.603-1.405,0.603
			c-3.213,0-4.685-0.133-5.979-0.133c-0.089,0-0.466,0.021-0.914,0.021c-0.447,0.021-0.937,0.044-1.272,0.044
			c-0.243,0-0.355-0.044-0.355-0.178c0-0.067,0.044-0.135,0.178-0.135c0.199,0,0.468-0.044,0.667-0.089
			c0.447-0.089,0.558-0.579,0.647-1.227c0.112-0.937,0.112-2.699,0.112-4.84v-3.924c0-3.48,0-4.104-0.045-4.818
			c-0.044-0.758-0.223-1.115-0.959-1.271c-0.177-0.046-0.557-0.067-0.757-0.067c-0.089,0-0.179-0.044-0.179-0.133
			c0-0.134,0.112-0.18,0.357-0.18c1.004,0,2.411,0.068,2.52,0.068c0.114,0,1.741-0.068,2.409-0.068c0.247,0,0.357,0.046,0.357,0.18
			c0,0.09-0.089,0.133-0.178,0.133c-0.156,0-0.469,0.021-0.736,0.067c-0.646,0.112-0.825,0.49-0.871,1.271
			c-0.043,0.713-0.043,1.337-0.043,4.818v3.97H218.581z"/>
		<path fill="#231F20" d="M229.922,18.495c0,3.28,0.091,4.707,0.494,5.106c0.355,0.358,0.937,0.514,2.674,0.514
			c1.184,0,2.164-0.022,2.7-0.668c0.291-0.357,0.512-0.915,0.578-1.338c0.022-0.179,0.069-0.291,0.202-0.291
			c0.111,0,0.133,0.089,0.133,0.334c0,0.245-0.156,1.583-0.335,2.231c-0.157,0.513-0.224,0.603-1.405,0.603
			c-3.212,0-4.685-0.133-5.977-0.133c-0.09,0-0.469,0.021-0.916,0.021c-0.446,0.021-0.937,0.044-1.271,0.044
			c-0.246,0-0.356-0.044-0.356-0.178c0-0.067,0.042-0.135,0.178-0.135c0.201,0,0.466-0.044,0.668-0.089
			c0.446-0.089,0.559-0.579,0.647-1.227c0.111-0.937,0.111-2.699,0.111-4.84v-3.924c0-3.48,0-4.104-0.045-4.818
			c-0.044-0.758-0.223-1.115-0.959-1.271c-0.179-0.046-0.558-0.067-0.757-0.067c-0.091,0-0.179-0.044-0.179-0.133
			c0-0.134,0.112-0.18,0.357-0.18c1.004,0,2.409,0.068,2.521,0.068c0.113,0,1.74-0.068,2.407-0.068c0.245,0,0.357,0.046,0.357,0.18
			c0,0.09-0.089,0.133-0.178,0.133c-0.155,0-0.468,0.021-0.736,0.067c-0.647,0.112-0.825,0.49-0.871,1.271
			c-0.044,0.713-0.044,1.337-0.044,4.818v3.97H229.922z"/>
		<path fill="#231F20" d="M251.327,17.103c0,4.097,0.11,5.881,0.61,6.382c0.448,0.446,1.172,0.642,3.346,0.642
			c1.478,0,2.703-0.028,3.374-0.837c0.36-0.448,0.641-1.143,0.724-1.672c0.028-0.223,0.083-0.362,0.252-0.362
			c0.139,0,0.164,0.112,0.164,0.417c0,0.308-0.193,1.98-0.416,2.787c-0.195,0.643-0.277,0.753-1.756,0.753
			c-4.016,0-5.854-0.166-7.473-0.166c-0.246,0-1.894,0.084-2.729,0.084c-0.307,0-0.445-0.056-0.445-0.224
			c0-0.083,0.057-0.167,0.225-0.167c0.252,0,0.584-0.058,0.835-0.111c0.56-0.112,0.698-0.726,0.81-1.534
			c0.139-1.17,0.139-3.372,0.139-6.047v-4.905c0-4.348,0-5.128-0.055-6.019c-0.055-0.949-0.279-1.395-1.199-1.59
			c-0.224-0.055-0.696-0.083-0.946-0.083c-0.112,0-0.224-0.056-0.224-0.167c0-0.168,0.138-0.222,0.446-0.222
			c1.253,0,3.011,0.084,3.147,0.084c0.141,0,2.176-0.084,3.013-0.084c0.306,0,0.444,0.054,0.444,0.222
			c0,0.112-0.111,0.167-0.223,0.167c-0.197,0-0.586,0.027-0.922,0.083c-0.808,0.14-1.027,0.613-1.086,1.59
			c-0.055,0.891-0.055,1.671-0.055,6.019L251.327,17.103L251.327,17.103z"/>
		<path fill="#231F20" d="M265.68,17.536c-0.068,0-0.111-0.045-0.068-0.157l1.963-6.022c0.111-0.335,0.224-0.335,0.337,0
			l2.118,6.022c0.021,0.089,0.021,0.157-0.088,0.157H265.68z M262.557,22.464c-0.402,1.115-0.85,1.963-1.873,2.097
			c-0.18,0.022-0.49,0.044-0.646,0.044c-0.113,0-0.202,0.045-0.202,0.135c0,0.134,0.134,0.178,0.425,0.178
			c1.049,0,2.273-0.065,2.52-0.065c0.244,0,1.205,0.065,1.74,0.065c0.199,0,0.332-0.044,0.332-0.178c0-0.09-0.063-0.135-0.221-0.135
			h-0.224c-0.38,0-0.847-0.2-0.847-0.646c0-0.401,0.108-0.937,0.312-1.495l1.34-3.947c0.044-0.113,0.11-0.179,0.222-0.179h4.795
			c0.111,0,0.156,0.046,0.199,0.133l2.075,5.488c0.132,0.355,0,0.557-0.135,0.601c-0.089,0.023-0.155,0.067-0.155,0.157
			c0,0.134,0.245,0.134,0.669,0.157c1.538,0.044,3.167,0.044,3.501,0.044c0.245,0,0.446-0.044,0.446-0.178
			c0-0.112-0.089-0.135-0.224-0.135c-0.224,0-0.558-0.021-0.891-0.132c-0.471-0.134-1.115-0.491-1.921-2.475
			c-1.358-3.391-4.86-12.604-5.194-13.449c-0.27-0.692-0.358-0.803-0.49-0.803c-0.135,0-0.223,0.133-0.49,0.869L262.557,22.464z"/>
		<path fill="#231F20" d="M290.366,21.841h0.09c0.603-2.053,2.653-8.521,3.437-11.376c0.223-0.825,0.244-1.137,0.244-1.426
			c0-0.402-0.244-0.669-1.271-0.669c-0.111,0-0.201-0.068-0.201-0.157c0-0.112,0.11-0.157,0.379-0.157
			c1.14,0,2.076,0.068,2.274,0.068c0.158,0,1.115-0.068,1.81-0.068c0.199,0,0.312,0.045,0.312,0.134c0,0.112-0.067,0.179-0.2,0.179
			c-0.091,0-0.513,0.021-0.759,0.112c-0.668,0.245-1.025,1.182-1.451,2.409c-0.98,2.832-3.232,9.924-4.102,12.423
			c-0.58,1.651-0.691,1.918-0.938,1.918c-0.224,0-0.357-0.291-0.668-1.16l-4.372-12.401h-0.044
			c-0.806,2.142-3.859,10.303-4.662,12.378c-0.356,0.937-0.47,1.183-0.735,1.183c-0.226,0-0.337-0.246-0.781-1.763l-3.97-13.225
			c-0.356-1.182-0.647-1.517-1.228-1.741c-0.29-0.112-0.848-0.132-1.004-0.132c-0.111,0-0.199-0.021-0.199-0.157
			c0-0.112,0.134-0.157,0.355-0.157c1.158,0,2.387,0.068,2.631,0.068c0.201,0,1.183-0.068,2.3-0.068
			c0.312,0,0.399,0.068,0.399,0.157c0,0.134-0.111,0.157-0.223,0.157c-0.178,0-0.602,0-0.871,0.132
			c-0.132,0.067-0.289,0.246-0.289,0.537c0,0.289,0.201,1.069,0.424,2.051c0.334,1.427,2.653,9.612,2.988,10.796h0.045l4.729-12.713
			c0.336-0.914,0.424-1.026,0.56-1.026c0.157,0,0.289,0.29,0.556,1.049L290.366,21.841z"/>
		<path fill="#231F20" d="M307.31,24.769c-0.389-0.197-0.416-0.309-0.416-1.061c0-1.393,0.112-2.507,0.14-2.954
			c0.026-0.306,0.083-0.447,0.224-0.447c0.167,0,0.194,0.084,0.194,0.307c0,0.251,0,0.642,0.085,1.03
			c0.419,2.063,2.257,2.843,4.126,2.843c2.677,0,3.984-1.923,3.984-3.707c0-1.922-0.811-3.038-3.205-5.016l-1.254-1.033
			c-2.954-2.422-3.625-4.152-3.625-6.047c0-2.981,2.23-5.017,5.771-5.017c1.086,0,1.896,0.112,2.59,0.28
			c0.531,0.111,0.754,0.138,0.979,0.138c0.222,0,0.278,0.056,0.278,0.196c0,0.14-0.111,1.059-0.111,2.955
			c0,0.447-0.057,0.642-0.196,0.642c-0.165,0-0.194-0.14-0.223-0.362c-0.028-0.335-0.196-1.089-0.363-1.393
			c-0.166-0.308-0.918-1.478-3.484-1.478c-1.922,0-3.427,1.199-3.427,3.233c0,1.588,0.779,2.536,3.401,4.68l0.778,0.614
			c3.29,2.593,4.069,4.319,4.069,6.549c0,1.143-0.446,3.262-2.37,4.626c-1.199,0.837-2.703,1.171-4.208,1.171
			C309.736,25.519,308.454,25.324,307.31,24.769z"/>
		<path fill="#231F20" d="M321.808,22.821c-2.163-1.94-2.697-4.483-2.697-6.601c0-1.497,0.513-4.104,2.499-6.09
			c1.337-1.338,3.366-2.385,6.803-2.385c0.891,0,2.142,0.065,3.231,0.267c0.848,0.157,1.563,0.289,2.275,0.335
			c0.245,0.021,0.289,0.111,0.289,0.245c0,0.177-0.065,0.447-0.111,1.249c-0.042,0.736-0.042,1.963-0.065,2.297
			c-0.021,0.334-0.065,0.468-0.201,0.468c-0.155,0-0.179-0.157-0.179-0.468c0-0.871-0.355-1.785-0.937-2.274
			c-0.78-0.668-2.498-1.272-4.459-1.272c-2.967,0-4.35,0.87-5.131,1.629c-1.628,1.56-2.009,3.546-2.009,5.82
			c0,4.261,3.28,8.164,8.053,8.164c1.672,0,2.986-0.201,3.88-1.115c0.47-0.489,0.761-1.472,0.826-1.874
			c0.044-0.245,0.09-0.334,0.222-0.334c0.113,0,0.157,0.156,0.157,0.334c0,0.157-0.268,2.098-0.49,2.857
			c-0.132,0.422-0.178,0.467-0.58,0.645c-0.891,0.357-2.585,0.514-4.015,0.514C325.824,25.229,323.572,24.404,321.808,22.821z"/>
		<path fill="#231F20" d="M351.841,18.449c0,2.142,0,3.903,0.111,4.84c0.063,0.647,0.197,1.138,0.869,1.227
			c0.311,0.045,0.801,0.089,1.002,0.089c0.134,0,0.18,0.068,0.18,0.135c0,0.11-0.112,0.178-0.356,0.178
			c-1.228,0-2.633-0.065-2.741-0.065c-0.112,0-1.52,0.065-2.188,0.065c-0.247,0-0.357-0.044-0.357-0.178
			c0-0.067,0.044-0.135,0.18-0.135c0.199,0,0.468-0.044,0.669-0.089c0.445-0.089,0.557-0.579,0.647-1.227
			c0.109-0.937,0.109-2.699,0.109-4.84v-2.34c0-0.09-0.065-0.134-0.134-0.134h-9.457c-0.065,0-0.134,0.021-0.134,0.134v2.34
			c0,2.142,0,3.903,0.111,4.84c0.067,0.647,0.201,1.138,0.868,1.227c0.314,0.045,0.806,0.089,1.005,0.089
			c0.136,0,0.179,0.068,0.179,0.135c0,0.11-0.112,0.178-0.355,0.178c-1.228,0-2.632-0.065-2.744-0.065
			c-0.11,0-1.516,0.065-2.184,0.065c-0.247,0-0.358-0.044-0.358-0.178c0-0.067,0.046-0.135,0.182-0.135
			c0.197,0,0.467-0.044,0.666-0.089c0.449-0.089,0.56-0.579,0.646-1.227c0.111-0.937,0.111-2.699,0.111-4.84v-3.924
			c0-3.48,0-4.104-0.045-4.818c-0.044-0.758-0.223-1.115-0.959-1.271c-0.179-0.046-0.559-0.067-0.76-0.067
			c-0.088,0-0.178-0.044-0.178-0.133c0-0.134,0.113-0.18,0.356-0.18c1.005,0,2.409,0.069,2.521,0.069
			c0.112,0,1.518-0.069,2.188-0.069c0.245,0,0.355,0.046,0.355,0.18c0,0.09-0.092,0.133-0.18,0.133
			c-0.155,0-0.289,0.021-0.558,0.067c-0.601,0.112-0.781,0.49-0.825,1.271c-0.045,0.713-0.045,1.337-0.045,4.818v0.468
			c0,0.111,0.068,0.133,0.135,0.133h9.457c0.065,0,0.132-0.022,0.132-0.133v-0.468c0-3.48,0-4.104-0.044-4.818
			c-0.046-0.758-0.223-1.115-0.959-1.271c-0.179-0.046-0.561-0.067-0.759-0.067c-0.09,0-0.18-0.044-0.18-0.133
			c0-0.134,0.113-0.18,0.358-0.18c1.002,0,2.409,0.069,2.521,0.069c0.112,0,1.516-0.069,2.187-0.069c0.243,0,0.354,0.046,0.354,0.18
			c0,0.09-0.09,0.133-0.178,0.133c-0.157,0-0.289,0.021-0.558,0.067c-0.604,0.112-0.781,0.49-0.825,1.271
			c-0.044,0.713-0.044,1.337-0.044,4.818v3.924H351.841z"/>
		<path fill="#231F20" d="M356.94,15.841c0-4.885,2.786-7.339,6.512-7.339c3.523,0,6.78,2.879,6.78,8.231
			c0,6.489-4.148,7.649-6.155,7.649C360.064,24.383,356.94,21.038,356.94,15.841z M354.82,16.465c0,4.014,2.544,8.767,8.652,8.767
			c5.376,0,8.901-4.127,8.901-9.123c0-5.199-3.748-8.364-8.768-8.364C357.452,7.745,354.82,12.852,354.82,16.465z"/>
		<path fill="#231F20" d="M376.109,15.841c0-4.885,2.787-7.339,6.512-7.339c3.522,0,6.779,2.879,6.779,8.231
			c0,6.489-4.148,7.649-6.154,7.649C379.231,24.383,376.109,21.038,376.109,15.841z M373.991,16.465c0,4.014,2.541,8.767,8.65,8.767
			c5.378,0,8.899-4.127,8.899-9.123c0-5.199-3.746-8.364-8.764-8.364C376.621,7.745,373.991,12.852,373.991,16.465z"/>
		<path fill="#231F20" d="M396.284,18.495c0,3.28,0.091,4.707,0.493,5.106c0.354,0.358,0.936,0.514,2.675,0.514
			c1.182,0,2.164-0.022,2.7-0.668c0.289-0.357,0.512-0.915,0.578-1.338c0.022-0.179,0.066-0.291,0.198-0.291
			c0.113,0,0.136,0.089,0.136,0.334c0,0.245-0.157,1.583-0.336,2.231c-0.155,0.513-0.223,0.603-1.403,0.603
			c-3.212,0-4.684-0.133-5.977-0.133c-0.09,0-0.471,0.021-0.917,0.021c-0.445,0.021-0.937,0.044-1.271,0.044
			c-0.245,0-0.356-0.044-0.356-0.178c0-0.067,0.046-0.135,0.179-0.135c0.2,0,0.468-0.044,0.669-0.089
			c0.446-0.089,0.559-0.579,0.647-1.227c0.111-0.937,0.111-2.699,0.111-4.84v-3.924c0-3.48,0-4.104-0.046-4.818
			c-0.044-0.758-0.224-1.115-0.957-1.271c-0.179-0.046-0.561-0.067-0.759-0.067c-0.091,0-0.181-0.044-0.181-0.133
			c0-0.134,0.112-0.18,0.357-0.18c1.004,0,2.409,0.068,2.521,0.068c0.107,0,1.737-0.068,2.407-0.068c0.245,0,0.354,0.046,0.354,0.18
			c0,0.09-0.088,0.133-0.18,0.133c-0.153,0-0.467,0.021-0.734,0.067c-0.646,0.112-0.823,0.49-0.869,1.271
			c-0.046,0.713-0.046,1.337-0.046,4.818v3.97H396.284z"/>
		<g>
			<path fill="#231F20" d="M50.74,3.754c0,0.75,0,1.369,0.039,1.696c0.022,0.228,0.07,0.4,0.305,0.431
				c0.111,0.016,0.282,0.03,0.352,0.03c0.046,0,0.063,0.023,0.063,0.047c0,0.041-0.04,0.063-0.126,0.063
				C50.941,6.021,50.45,6,50.411,6c-0.04,0-0.533,0.022-0.767,0.022c-0.087,0-0.126-0.016-0.126-0.063
				c0-0.023,0.016-0.047,0.064-0.047c0.069,0,0.163-0.016,0.234-0.03c0.156-0.031,0.197-0.203,0.227-0.431
				c0.039-0.328,0.039-0.946,0.039-1.696V0.447l-1.157,0.015c-0.486,0.008-0.673,0.062-0.797,0.251
				c-0.087,0.132-0.111,0.188-0.135,0.242c-0.023,0.063-0.048,0.079-0.079,0.079c-0.022,0-0.038-0.022-0.038-0.071
				c0-0.078,0.156-0.749,0.172-0.813C48.064,0.102,48.095,0,48.128,0c0.054,0,0.131,0.079,0.343,0.093
				c0.227,0.023,0.523,0.039,0.617,0.039h2.934c0.5,0,0.71-0.079,0.774-0.079c0.04,0,0.04,0.048,0.04,0.094
				c0,0.234-0.023,0.773-0.023,0.862c0,0.069-0.024,0.1-0.055,0.1c-0.041,0-0.055-0.023-0.063-0.132L52.688,0.89
				c-0.032-0.234-0.21-0.415-0.96-0.431l-0.987-0.015L50.74,3.754L50.74,3.754z"/>
			<path fill="#231F20" d="M56.705,4.227c0,0.568,0,1.034,0.029,1.282c0.018,0.171,0.052,0.301,0.23,0.325
				c0.083,0.012,0.213,0.022,0.267,0.022c0.034,0,0.046,0.018,0.046,0.036c0,0.03-0.029,0.046-0.094,0.046
				c-0.324,0-0.697-0.017-0.726-0.017c-0.028,0-0.401,0.017-0.58,0.017c-0.064,0-0.093-0.01-0.093-0.046
				c0-0.018,0.012-0.036,0.047-0.036c0.053,0,0.123-0.011,0.177-0.022c0.119-0.024,0.148-0.154,0.171-0.325
				c0.028-0.248,0.028-0.713,0.028-1.282V3.608c0-0.024-0.017-0.036-0.035-0.036H53.67c-0.018,0-0.034,0.007-0.034,0.036v0.619
				c0,0.568,0,1.034,0.027,1.282c0.018,0.171,0.055,0.301,0.231,0.325c0.083,0.012,0.213,0.022,0.268,0.022
				c0.033,0,0.046,0.018,0.046,0.036c0,0.03-0.029,0.046-0.095,0.046c-0.323,0-0.695-0.017-0.725-0.017
				c-0.031,0-0.403,0.017-0.578,0.017c-0.066,0-0.096-0.01-0.096-0.046c0-0.018,0.014-0.036,0.049-0.036
				c0.054,0,0.124-0.011,0.176-0.022c0.119-0.024,0.147-0.154,0.172-0.325c0.027-0.248,0.027-0.713,0.027-1.282V3.189
				c0-0.921,0-1.086-0.011-1.276c-0.012-0.202-0.058-0.295-0.254-0.337c-0.048-0.012-0.146-0.018-0.199-0.018
				c-0.025,0-0.049-0.013-0.049-0.036c0-0.035,0.029-0.046,0.095-0.046c0.265,0,0.636,0.018,0.667,0.018
				c0.031,0,0.402-0.018,0.578-0.018c0.065,0,0.094,0.011,0.094,0.046c0,0.023-0.023,0.036-0.047,0.036
				c-0.044,0-0.078,0.006-0.147,0.018c-0.162,0.03-0.208,0.129-0.219,0.337c-0.011,0.19-0.011,0.354-0.011,1.276v0.123
				c0,0.03,0.017,0.037,0.034,0.037h2.503c0.018,0,0.035-0.007,0.035-0.037V3.189c0-0.921,0-1.086-0.012-1.276
				c-0.012-0.202-0.058-0.295-0.253-0.337c-0.047-0.012-0.147-0.018-0.199-0.018c-0.024,0-0.048-0.013-0.048-0.036
				c0-0.035,0.028-0.046,0.093-0.046c0.267,0,0.639,0.018,0.667,0.018c0.028,0,0.401-0.018,0.578-0.018
				c0.064,0,0.095,0.011,0.095,0.046c0,0.023-0.024,0.036-0.05,0.036c-0.04,0-0.076,0.006-0.146,0.018
				c-0.16,0.03-0.206,0.129-0.217,0.337c-0.013,0.19-0.013,0.354-0.013,1.276L56.705,4.227L56.705,4.227z"/>
			<path fill="#231F20" d="M58.151,3.189c0-0.921,0-1.086-0.013-1.276c-0.011-0.202-0.06-0.295-0.253-0.337
				c-0.049-0.012-0.148-0.018-0.201-0.018c-0.022,0-0.047-0.013-0.047-0.036c0-0.035,0.031-0.046,0.095-0.046
				c0.267,0,0.638,0.018,0.666,0.018c0.043,0,1.217,0,1.352-0.007c0.113-0.007,0.208-0.018,0.255-0.029
				c0.029-0.005,0.055-0.03,0.083-0.03c0.018,0,0.023,0.025,0.023,0.054c0,0.041-0.029,0.113-0.047,0.279
				c-0.006,0.058-0.019,0.318-0.03,0.389c-0.005,0.03-0.018,0.064-0.042,0.064c-0.035,0-0.047-0.03-0.047-0.078
				c0-0.041-0.006-0.142-0.035-0.211c-0.042-0.094-0.101-0.165-0.42-0.2c-0.101-0.014-0.743-0.018-0.81-0.018
				c-0.023,0-0.035,0.018-0.035,0.059v1.63c0,0.042,0.007,0.058,0.035,0.058c0.077,0,0.805,0,0.939-0.011
				C59.76,3.43,59.844,3.42,59.896,3.36c0.042-0.048,0.065-0.077,0.09-0.077c0.017,0,0.027,0.013,0.027,0.048
				s-0.027,0.136-0.046,0.329c-0.012,0.121-0.023,0.337-0.023,0.379c0,0.048,0,0.113-0.043,0.113c-0.029,0-0.041-0.023-0.041-0.053
				c0-0.06,0-0.118-0.024-0.196c-0.023-0.082-0.077-0.182-0.306-0.205c-0.16-0.018-0.745-0.03-0.845-0.03
				c-0.03,0-0.042,0.017-0.042,0.042v0.518c0,0.201-0.004,0.886,0,1.01c0.018,0.407,0.107,0.484,0.686,0.484
				c0.154,0,0.414,0,0.566-0.063c0.153-0.065,0.224-0.184,0.265-0.428c0.013-0.062,0.024-0.086,0.054-0.086
				c0.037,0,0.037,0.047,0.037,0.086c0,0.049-0.047,0.451-0.077,0.575c-0.042,0.153-0.089,0.153-0.318,0.153
				c-0.893,0-1.287-0.035-1.459-0.035c-0.012,0-0.113,0.006-0.235,0.006c-0.119,0.005-0.254,0.01-0.343,0.01
				c-0.064,0-0.094-0.01-0.094-0.046c0-0.018,0.012-0.036,0.047-0.036c0.053,0,0.125-0.011,0.179-0.022
				c0.117-0.025,0.146-0.154,0.169-0.326c0.03-0.248,0.03-0.713,0.03-1.281L58.151,3.189L58.151,3.189z"/>
		</g>
	</g>
	<g id="Layer_3" display="none">
		<g display="inline">
			<path d="M197.764,37.955c0,1.163,0,2.121,0.061,2.631c0.037,0.353,0.109,0.618,0.474,0.668c0.168,0.022,0.436,0.048,0.545,0.048
				c0.072,0,0.097,0.036,0.097,0.072c0,0.063-0.061,0.098-0.194,0.098c-0.667,0-1.43-0.035-1.492-0.035s-0.824,0.035-1.188,0.035
				c-0.133,0-0.194-0.023-0.194-0.098c0-0.036,0.023-0.072,0.097-0.072c0.109,0,0.254-0.023,0.363-0.048
				c0.242-0.05,0.303-0.315,0.352-0.668c0.061-0.51,0.061-1.468,0.061-2.631v-5.129l-1.794,0.024
				c-0.752,0.012-1.043,0.096-1.237,0.387c-0.133,0.205-0.17,0.291-0.206,0.377c-0.036,0.096-0.073,0.121-0.122,0.121
				c-0.037,0-0.06-0.035-0.06-0.108c0-0.122,0.241-1.164,0.267-1.261c0.024-0.072,0.073-0.231,0.122-0.231
				c0.084,0,0.205,0.122,0.533,0.146c0.352,0.036,0.812,0.061,0.957,0.061h4.547c0.388,0,0.667-0.024,0.86-0.061
				c0.182-0.023,0.291-0.06,0.34-0.06c0.061,0,0.061,0.072,0.061,0.146c0,0.362-0.037,1.2-0.037,1.334
				c0,0.108-0.037,0.157-0.085,0.157c-0.061,0-0.085-0.037-0.097-0.207l-0.012-0.131c-0.036-0.365-0.327-0.646-1.491-0.668
				l-1.528-0.024V37.955L197.764,37.955L197.764,37.955z"/>
			<path d="M209.375,38.476c0,0.994,0.012,1.808,0.06,2.23c0.038,0.304,0.061,0.497,0.389,0.547
				c0.146,0.023,0.387,0.048,0.472,0.048c0.073,0,0.097,0.05,0.097,0.087c0,0.049-0.06,0.084-0.182,0.084
				c-0.583,0-1.261-0.035-1.322-0.035c-0.048,0-0.739,0.035-1.055,0.035c-0.121,0-0.169-0.023-0.169-0.084
				c0-0.037,0.024-0.087,0.085-0.087c0.097,0,0.218-0.022,0.315-0.048c0.218-0.05,0.254-0.255,0.291-0.559
				c0.048-0.426,0.048-1.201,0.048-2.194v-1.03c0-0.049-0.023-0.061-0.06-0.061h-4.45c-0.036,0-0.06,0.012-0.06,0.061v1.03
				c0,0.993,0,1.782,0.049,2.206c0.036,0.304,0.073,0.497,0.387,0.547c0.159,0.023,0.388,0.048,0.486,0.048
				c0.06,0,0.085,0.05,0.085,0.087c0,0.049-0.049,0.084-0.171,0.084c-0.593,0-1.272-0.035-1.32-0.035
				c-0.061,0-0.739,0.035-1.066,0.035c-0.109,0-0.17-0.023-0.17-0.084c0-0.037,0.024-0.087,0.085-0.087
				c0.097,0,0.231-0.022,0.328-0.048c0.206-0.05,0.23-0.243,0.279-0.547c0.06-0.424,0.06-1.236,0.06-2.23v-1.817
				c0-1.603,0-1.894-0.023-2.22c-0.024-0.352-0.085-0.521-0.437-0.569c-0.085-0.013-0.267-0.022-0.364-0.022
				c-0.036,0-0.084-0.05-0.084-0.087c0-0.059,0.048-0.084,0.168-0.084c0.486,0,1.165,0.023,1.225,0.023
				c0.048,0,0.728-0.023,1.055-0.023c0.122,0,0.17,0.023,0.17,0.084c0,0.037-0.05,0.087-0.085,0.087c-0.072,0-0.145,0-0.267,0.022
				c-0.291,0.062-0.352,0.206-0.377,0.569c-0.012,0.328-0.012,0.644-0.012,2.244v0.217c0,0.062,0.024,0.062,0.06,0.062h4.45
				c0.037,0,0.06,0,0.06-0.062v-0.217c0-1.602-0.012-1.916-0.023-2.244c-0.024-0.352-0.072-0.521-0.424-0.569
				c-0.086-0.013-0.267-0.022-0.365-0.022c-0.047,0-0.084-0.05-0.084-0.087c0-0.059,0.049-0.084,0.169-0.084
				c0.473,0,1.164,0.023,1.211,0.023c0.061,0,0.74-0.023,1.056-0.023c0.121,0,0.182,0.023,0.182,0.084
				c0,0.037-0.049,0.087-0.097,0.087c-0.072,0-0.132,0-0.266,0.022c-0.279,0.062-0.34,0.206-0.363,0.569
				c-0.024,0.328-0.024,0.619-0.024,2.22v1.817H209.375z"/>
			<path d="M212.716,36.658c0-1.603,0-1.894-0.024-2.22c-0.023-0.352-0.086-0.521-0.437-0.569c-0.085-0.013-0.266-0.022-0.363-0.022
				c-0.037,0-0.085-0.05-0.085-0.087c0-0.06,0.049-0.084,0.169-0.084c0.485,0,1.177,0.024,1.238,0.024c0.072,0,2.304,0.012,2.546,0
				c0.205-0.014,0.399-0.051,0.485-0.061c0.049-0.014,0.097-0.051,0.146-0.051c0.036,0,0.049,0.051,0.049,0.098
				c0,0.071-0.061,0.193-0.086,0.484c-0.012,0.098-0.036,0.559-0.059,0.68c-0.014,0.049-0.049,0.108-0.097,0.108
				c-0.06,0-0.084-0.049-0.084-0.132c0-0.073-0.013-0.243-0.061-0.365c-0.073-0.169-0.182-0.242-0.764-0.314
				c-0.182-0.023-1.419-0.037-1.54-0.037c-0.048,0-0.06,0.037-0.06,0.109v2.803c0,0.071,0,0.106,0.06,0.106
				c0.133,0,1.54,0,1.783-0.022c0.255-0.023,0.413-0.037,0.522-0.146c0.072-0.072,0.122-0.134,0.157-0.134
				c0.037,0,0.061,0.024,0.061,0.087c0,0.059-0.061,0.229-0.084,0.568c-0.024,0.205-0.049,0.596-0.049,0.668
				c0,0.084-0.024,0.192-0.097,0.192c-0.048,0-0.074-0.036-0.074-0.096c0-0.097,0-0.206-0.047-0.34
				c-0.037-0.146-0.133-0.269-0.546-0.314c-0.292-0.036-1.43-0.05-1.613-0.05c-0.06,0-0.073,0.037-0.073,0.073v0.86
				c0,0.352-0.013,1.551,0,1.758c0.023,0.69,0.218,0.822,1.274,0.822c0.278,0,0.787,0,1.066-0.106
				c0.279-0.122,0.424-0.304,0.486-0.716c0.024-0.121,0.048-0.158,0.109-0.158s0.073,0.086,0.073,0.158s-0.084,0.774-0.146,0.992
				c-0.072,0.27-0.182,0.27-0.595,0.27c-0.801,0-1.418-0.023-1.855-0.037c-0.449-0.023-0.727-0.023-0.885-0.023
				c-0.023,0-0.23,0-0.46,0.013c-0.207,0.013-0.449,0.024-0.619,0.024c-0.108,0-0.169-0.024-0.169-0.087
				c0-0.034,0.024-0.085,0.085-0.085c0.097,0,0.231-0.035,0.328-0.048c0.207-0.037,0.23-0.243,0.279-0.547
				c0.06-0.424,0.06-1.237,0.06-2.229v-1.817H212.716z"/>
			<path d="M226.665,32.135c2.729,0,4.766,1.722,4.766,4.548c0,2.715-1.915,4.959-4.838,4.959c-3.322,0-4.704-2.582-4.704-4.767
				C221.888,34.911,223.319,32.135,226.665,32.135z M226.92,41.181c1.092,0,3.347-0.632,3.347-4.16c0-2.908-1.771-4.474-3.687-4.474
				c-2.024,0-3.54,1.334-3.54,3.988C223.04,39.36,224.738,41.181,226.92,41.181z"/>
			<path d="M233.509,36.658c0-1.603,0-1.894-0.022-2.22c-0.025-0.352-0.086-0.521-0.438-0.569c-0.084-0.013-0.266-0.022-0.364-0.022
				c-0.035,0-0.085-0.05-0.085-0.087c0-0.06,0.05-0.084,0.17-0.084c0.485,0,1.151,0.024,1.212,0.024c0.206,0,2.521,0.012,2.764,0
				c0.206-0.014,0.387-0.014,0.484-0.051c0.062-0.012,0.109-0.061,0.146-0.061c0.049,0,0.072,0.051,0.072,0.098
				c0,0.071-0.049,0.193-0.086,0.484c-0.012,0.098-0.022,0.559-0.049,0.68c-0.012,0.049-0.049,0.108-0.097,0.108
				c-0.049,0-0.086-0.049-0.086-0.121c0-0.086-0.034-0.255-0.096-0.388c-0.06-0.135-0.313-0.305-0.728-0.305l-1.747-0.022
				c-0.061,0-0.085,0.022-0.085,0.108v2.813c0,0.061,0,0.096,0.073,0.096l1.455-0.012c0.183,0,0.341,0,0.485-0.013
				c0.255-0.024,0.4-0.06,0.496-0.183c0.05-0.061,0.099-0.108,0.134-0.108c0.049,0,0.062,0.036,0.062,0.086
				c0,0.06-0.074,0.229-0.097,0.569c-0.024,0.205-0.037,0.617-0.037,0.69c0,0.097-0.022,0.205-0.097,0.205
				c-0.061,0-0.072-0.048-0.072-0.097c-0.012-0.108-0.023-0.256-0.072-0.377c-0.05-0.146-0.219-0.277-0.547-0.326
				c-0.267-0.036-1.528-0.023-1.71-0.023c-0.06,0-0.073,0.023-0.073,0.098v0.822c0,1.02,0,1.83,0.048,2.231
				c0.037,0.303,0.097,0.497,0.388,0.546c0.158,0.023,0.388,0.048,0.485,0.048c0.062,0,0.084,0.05,0.084,0.086
				c0,0.05-0.049,0.085-0.168,0.085c-0.596,0-1.286-0.035-1.333-0.035c-0.061,0-0.728,0.035-1.055,0.035
				c-0.109,0-0.169-0.023-0.169-0.085c0-0.036,0.024-0.086,0.084-0.086c0.097,0,0.231-0.036,0.328-0.048
				c0.205-0.036,0.23-0.243,0.279-0.546c0.06-0.425,0.06-1.238,0.06-2.231L233.509,36.658L233.509,36.658z"/>
			<path d="M239.824,36.658c0-1.603,0-1.894-0.023-2.22c-0.023-0.352-0.086-0.521-0.438-0.569c-0.086-0.013-0.268-0.022-0.364-0.022
				c-0.035,0-0.085-0.05-0.085-0.087c0-0.06,0.05-0.084,0.17-0.084c0.484,0,1.15,0.024,1.212,0.024c0.206,0,2.522,0.012,2.765,0
				c0.207-0.014,0.388-0.014,0.484-0.051c0.063-0.012,0.109-0.061,0.146-0.061c0.049,0,0.072,0.051,0.072,0.098
				c0,0.071-0.049,0.193-0.084,0.484c-0.014,0.098-0.023,0.559-0.05,0.68c-0.012,0.049-0.049,0.108-0.098,0.108
				c-0.048,0-0.085-0.049-0.085-0.121c0-0.086-0.035-0.255-0.098-0.388c-0.059-0.135-0.313-0.305-0.727-0.305l-1.746-0.022
				c-0.063,0-0.086,0.022-0.086,0.108v2.813c0,0.061,0,0.096,0.072,0.096l1.455-0.012c0.183,0,0.341,0,0.485-0.013
				c0.255-0.024,0.399-0.06,0.497-0.183c0.049-0.061,0.098-0.108,0.133-0.108c0.049,0,0.061,0.036,0.061,0.086
				c0,0.06-0.072,0.229-0.096,0.569c-0.024,0.205-0.037,0.617-0.037,0.69c0,0.097-0.023,0.205-0.096,0.205
				c-0.063,0-0.074-0.048-0.074-0.097c-0.012-0.108-0.023-0.256-0.071-0.377c-0.05-0.146-0.218-0.277-0.546-0.326
				c-0.268-0.036-1.528-0.023-1.711-0.023c-0.061,0-0.072,0.023-0.072,0.098v0.822c0,1.02,0,1.83,0.049,2.231
				c0.037,0.303,0.098,0.497,0.389,0.546c0.157,0.023,0.387,0.048,0.485,0.048c0.062,0,0.084,0.05,0.084,0.086
				c0,0.05-0.049,0.085-0.169,0.085c-0.594,0-1.285-0.035-1.334-0.035c-0.061,0-0.729,0.035-1.055,0.035
				c-0.109,0-0.17-0.023-0.17-0.085c0-0.036,0.023-0.086,0.084-0.086c0.098,0,0.231-0.036,0.328-0.048
				c0.205-0.036,0.23-0.243,0.279-0.546c0.059-0.425,0.059-1.238,0.059-2.231v-1.815h0.004V36.658z"/>
			<path d="M247.107,38.476c0,0.994,0,1.808,0.049,2.23c0.035,0.304,0.072,0.497,0.387,0.547c0.159,0.023,0.389,0.048,0.486,0.048
				c0.061,0,0.084,0.05,0.084,0.087c0,0.049-0.049,0.084-0.17,0.084c-0.594,0-1.283-0.035-1.332-0.035
				c-0.062,0-0.729,0.035-1.055,0.035c-0.109,0-0.171-0.023-0.171-0.084c0-0.037,0.024-0.087,0.085-0.087
				c0.098,0,0.23-0.022,0.328-0.048c0.205-0.05,0.242-0.243,0.278-0.547c0.049-0.424,0.062-1.236,0.062-2.23v-1.817
				c0-1.603,0-1.894-0.023-2.22c-0.024-0.352-0.11-0.51-0.342-0.558c-0.121-0.024-0.254-0.037-0.326-0.037
				c-0.049,0-0.086-0.049-0.086-0.085c0-0.061,0.05-0.086,0.17-0.086c0.353,0,1.019,0.025,1.078,0.025
				c0.05,0,0.74-0.025,1.066-0.025c0.122,0,0.17,0.025,0.17,0.086c0,0.036-0.05,0.085-0.084,0.085c-0.074,0-0.146,0-0.269,0.023
				c-0.29,0.062-0.353,0.206-0.377,0.571c-0.013,0.326-0.013,0.617-0.013,2.219v1.818H247.107L247.107,38.476z"/>
			<path d="M250.596,40.501c-1.043-0.896-1.298-2.074-1.298-3.055c0-0.692,0.255-1.893,1.201-2.813
				c0.642-0.618,1.612-1.104,3.249-1.104c0.424,0,1.029,0.037,1.553,0.123c0.398,0.072,0.738,0.146,1.09,0.158
				c0.11,0,0.135,0.049,0.135,0.107c0,0.086-0.023,0.206-0.049,0.582c-0.013,0.341-0.013,0.91-0.024,1.057
				c-0.013,0.157-0.062,0.217-0.121,0.217c-0.073,0-0.085-0.071-0.085-0.217c0-0.4-0.17-0.813-0.449-1.031
				c-0.376-0.313-1.15-0.569-2.098-0.569c-1.37,0-2.025,0.362-2.399,0.716c-0.789,0.729-0.959,1.648-0.959,2.691
				c0,1.977,1.566,3.734,3.843,3.734c0.803,0,1.334-0.062,1.76-0.486c0.23-0.23,0.377-0.668,0.412-0.86
				c0.024-0.108,0.037-0.146,0.109-0.146c0.049,0,0.096,0.071,0.096,0.146c0,0.072-0.146,0.97-0.252,1.321
				c-0.063,0.193-0.088,0.229-0.27,0.303c-0.438,0.17-1.236,0.23-1.928,0.23C252.512,41.604,251.432,41.229,250.596,40.501z"/>
			<path d="M258.921,36.658c0-1.603,0-1.894-0.022-2.22c-0.025-0.352-0.086-0.521-0.438-0.569c-0.085-0.013-0.267-0.022-0.362-0.022
				c-0.037,0-0.087-0.05-0.087-0.087c0-0.06,0.05-0.084,0.171-0.084c0.484,0,1.176,0.024,1.235,0.024c0.071,0,2.304,0.012,2.547,0
				c0.205-0.014,0.399-0.051,0.484-0.061c0.05-0.014,0.098-0.051,0.146-0.051c0.037,0,0.051,0.051,0.051,0.098
				c0,0.071-0.062,0.193-0.086,0.484c-0.013,0.098-0.037,0.559-0.061,0.68c-0.014,0.049-0.05,0.108-0.098,0.108
				c-0.062,0-0.084-0.049-0.084-0.132c0-0.073-0.015-0.243-0.063-0.365c-0.072-0.169-0.182-0.242-0.764-0.314
				c-0.182-0.023-1.418-0.037-1.538-0.037c-0.05,0-0.062,0.037-0.062,0.109v2.803c0,0.071,0,0.106,0.062,0.106
				c0.132,0,1.538,0,1.78-0.022c0.256-0.023,0.414-0.037,0.522-0.146c0.073-0.072,0.12-0.134,0.157-0.134
				c0.035,0,0.061,0.024,0.061,0.087c0,0.059-0.061,0.229-0.084,0.568c-0.024,0.205-0.051,0.596-0.051,0.668
				c0,0.084-0.021,0.192-0.097,0.192c-0.05,0-0.072-0.036-0.072-0.096c0-0.097,0-0.206-0.049-0.34
				c-0.036-0.146-0.134-0.269-0.545-0.314c-0.292-0.036-1.433-0.05-1.612-0.05c-0.063,0-0.072,0.037-0.072,0.073v0.86
				c0,0.352-0.015,1.551,0,1.758c0.023,0.69,0.219,0.822,1.272,0.822c0.278,0,0.788,0,1.065-0.106
				c0.279-0.122,0.426-0.304,0.485-0.716c0.022-0.121,0.05-0.158,0.109-0.158s0.071,0.086,0.071,0.158s-0.084,0.774-0.146,0.992
				c-0.071,0.27-0.183,0.27-0.594,0.27c-0.802,0-1.421-0.023-1.856-0.037c-0.447-0.023-0.727-0.023-0.884-0.023
				c-0.024,0-0.231,0-0.462,0.013c-0.205,0.013-0.448,0.024-0.617,0.024c-0.109,0-0.17-0.024-0.17-0.087
				c0-0.034,0.023-0.085,0.086-0.085c0.096,0,0.229-0.035,0.327-0.048c0.205-0.037,0.229-0.243,0.278-0.547
				c0.061-0.424,0.061-1.237,0.061-2.229L258.921,36.658L258.921,36.658z"/>
			<path d="M272.216,33.528c2.4,0,4.22,1.467,4.22,3.869c0,2.303-1.711,4.205-4.279,4.205c-2.924,0-4.172-2.192-4.172-4.049
				C267.984,35.894,269.268,33.528,272.216,33.528z M272.458,41.181c0.956,0,2.886-0.511,2.886-3.492
				c0-2.474-1.503-3.771-3.189-3.771c-1.782,0-3.066,1.116-3.066,3.356C269.087,39.676,270.529,41.181,272.458,41.181z"/>
			<path d="M278.492,36.658c0-1.603,0-1.894-0.023-2.22c-0.023-0.352-0.087-0.521-0.438-0.569c-0.084-0.013-0.266-0.022-0.363-0.022
				c-0.035,0-0.084-0.05-0.084-0.087c0-0.06,0.049-0.084,0.169-0.084c0.485,0,1.151,0.024,1.212,0.024c0.206,0,2.521,0.012,2.764,0
				c0.207-0.014,0.389-0.014,0.485-0.051c0.062-0.012,0.11-0.061,0.146-0.061c0.05,0,0.072,0.051,0.072,0.098
				c0,0.071-0.047,0.193-0.084,0.484c-0.014,0.098-0.022,0.559-0.049,0.68c-0.012,0.049-0.049,0.108-0.097,0.108
				c-0.05,0-0.086-0.049-0.086-0.121c0-0.086-0.036-0.255-0.097-0.388c-0.06-0.135-0.314-0.305-0.728-0.305l-1.747-0.022
				c-0.061,0-0.084,0.022-0.084,0.108v2.813c0,0.061,0,0.096,0.072,0.096l1.453-0.012c0.184,0,0.343,0,0.488-0.013
				c0.252-0.024,0.397-0.06,0.494-0.183c0.049-0.061,0.098-0.108,0.135-0.108c0.049,0,0.061,0.036,0.061,0.086
				c0,0.06-0.072,0.229-0.098,0.569c-0.024,0.205-0.037,0.617-0.037,0.69c0,0.097-0.022,0.205-0.096,0.205
				c-0.062,0-0.072-0.048-0.072-0.097c-0.012-0.108-0.023-0.256-0.072-0.377c-0.05-0.146-0.219-0.277-0.546-0.326
				c-0.269-0.036-1.528-0.023-1.71-0.023c-0.061,0-0.072,0.023-0.072,0.098v0.822c0,1.02,0,1.83,0.047,2.231
				c0.037,0.303,0.1,0.497,0.391,0.546c0.156,0.023,0.387,0.048,0.483,0.048c0.062,0,0.085,0.05,0.085,0.086
				c0,0.05-0.049,0.085-0.169,0.085c-0.594,0-1.284-0.035-1.334-0.035c-0.062,0-0.728,0.035-1.055,0.035
				c-0.108,0-0.169-0.023-0.169-0.085c0-0.036,0.023-0.086,0.084-0.086c0.097,0,0.23-0.036,0.328-0.048
				c0.205-0.036,0.229-0.243,0.279-0.546c0.059-0.425,0.059-1.238,0.059-2.231v-1.815h0.002V36.658z"/>
			<path d="M290.598,32.608c0.146-0.401,0.194-0.475,0.268-0.475c0.072,0,0.121,0.061,0.268,0.438
				c0.182,0.461,2.084,5.469,2.824,7.312c0.438,1.079,0.788,1.272,1.043,1.347c0.184,0.061,0.364,0.071,0.484,0.071
				c0.074,0,0.123,0.015,0.123,0.072c0,0.073-0.108,0.099-0.242,0.099c-0.184,0-1.066,0-1.903-0.025
				c-0.231-0.012-0.362-0.012-0.362-0.084c0-0.049,0.034-0.072,0.084-0.084c0.072-0.024,0.146-0.135,0.072-0.328l-1.128-2.982
				c-0.024-0.049-0.049-0.072-0.108-0.072h-2.607c-0.061,0-0.096,0.035-0.121,0.097l-0.729,2.146
				c-0.108,0.305-0.17,0.596-0.17,0.813c0,0.242,0.256,0.352,0.461,0.352h0.123c0.084,0,0.121,0.024,0.121,0.073
				c0,0.072-0.072,0.097-0.184,0.097c-0.29,0-0.813-0.035-0.943-0.035c-0.137,0-0.803,0.035-1.371,0.035
				c-0.158,0-0.23-0.023-0.23-0.097c0-0.049,0.049-0.073,0.107-0.073c0.086,0,0.256-0.012,0.353-0.023
				c0.56-0.071,0.8-0.533,1.021-1.139L290.598,32.608z M291.859,37.456c0.06,0,0.06-0.035,0.049-0.084l-1.153-3.273
				c-0.062-0.183-0.118-0.183-0.181,0l-1.066,3.273c-0.023,0.061,0,0.084,0.035,0.084H291.859z"/>
			<path d="M297.855,38.5c0,1.517,0.022,2.133,0.218,2.315c0.171,0.168,0.581,0.242,1.419,0.242c0.56,0,1.031-0.013,1.285-0.314
				c0.133-0.157,0.22-0.376,0.255-0.582c0.012-0.072,0.049-0.135,0.108-0.135c0.049,0,0.073,0.05,0.073,0.16
				c0,0.107-0.073,0.728-0.157,1.028c-0.074,0.242-0.109,0.279-0.68,0.279c-0.764,0-1.357-0.015-1.855-0.037
				c-0.485-0.013-0.848-0.022-1.164-0.022c-0.049,0-0.23,0-0.438,0.012c-0.218,0.014-0.447,0.023-0.617,0.023
				c-0.109,0-0.171-0.023-0.171-0.085c0-0.036,0.025-0.086,0.085-0.086c0.098,0,0.231-0.022,0.329-0.048
				c0.205-0.049,0.229-0.243,0.277-0.546c0.062-0.425,0.062-1.238,0.062-2.231v-1.816c0-1.604,0-1.893-0.023-2.219
				c-0.023-0.354-0.086-0.522-0.438-0.571c-0.085-0.013-0.266-0.023-0.362-0.023c-0.037,0-0.086-0.049-0.086-0.085
				c0-0.061,0.049-0.086,0.17-0.086c0.484,0,1.15,0.025,1.211,0.025c0.051,0,0.851-0.025,1.178-0.025
				c0.107,0,0.169,0.025,0.169,0.086c0,0.036-0.049,0.072-0.086,0.072c-0.072,0-0.229,0.013-0.353,0.023
				c-0.313,0.062-0.375,0.219-0.397,0.584c-0.013,0.326-0.013,0.617-0.013,2.219V38.5H297.855z"/>
			<path d="M302.593,36.658c0-1.603,0-1.894-0.022-2.22c-0.025-0.328-0.086-0.521-0.438-0.569c-0.085-0.013-0.269-0.022-0.362-0.022
				c-0.037,0-0.086-0.05-0.086-0.087c0-0.06,0.049-0.084,0.17-0.084c0.484,0,1.127,0.024,1.226,0.024
				c0.095,0,0.763-0.024,1.079-0.024c0.121,0,0.181,0.024,0.181,0.084c0,0.037-0.049,0.087-0.097,0.087
				c-0.072,0-0.133,0-0.268,0.022c-0.278,0.049-0.34,0.231-0.363,0.569c-0.023,0.328-0.023,0.619-0.023,2.22v1.442
				c0,1.491,0.326,2.108,0.788,2.521c0.521,0.472,0.981,0.559,1.588,0.559c0.655,0,1.284-0.291,1.647-0.729
				c0.497-0.595,0.606-1.442,0.606-2.497v-1.297c0-1.602-0.012-1.893-0.022-2.219c-0.015-0.328-0.073-0.521-0.425-0.57
				c-0.087-0.012-0.268-0.023-0.363-0.023c-0.049,0-0.086-0.049-0.086-0.086c0-0.06,0.049-0.084,0.171-0.084
				c0.472,0,1.09,0.024,1.149,0.024c0.073,0,0.582-0.024,0.898-0.024c0.12,0,0.169,0.024,0.169,0.084
				c0,0.037-0.036,0.086-0.087,0.086c-0.072,0-0.132,0-0.265,0.023c-0.293,0.061-0.353,0.23-0.377,0.57
				c-0.024,0.326-0.013,0.617-0.013,2.219v1.103c0,1.115-0.146,2.363-0.996,3.091c-0.773,0.668-1.6,0.752-2.229,0.752
				c-0.353,0-1.466-0.022-2.22-0.728c-0.521-0.485-0.933-1.2-0.933-2.703L302.593,36.658L302.593,36.658z"/>
			<path d="M319.648,40.149c0.034,0.363,0.107,0.922,0.544,1.065c0.305,0.097,0.584,0.097,0.69,0.097
				c0.05,0,0.087,0.023,0.087,0.073c0,0.06-0.097,0.097-0.219,0.097c-0.243,0-1.43-0.013-1.818-0.049
				c-0.256-0.023-0.305-0.061-0.305-0.108c0-0.036,0.025-0.072,0.073-0.084c0.061-0.015,0.072-0.171,0.049-0.365l-0.509-5.237
				h-0.025l-2.569,5.262c-0.219,0.449-0.278,0.545-0.375,0.545c-0.099,0-0.159-0.096-0.365-0.473
				c-0.278-0.509-0.982-1.83-1.247-2.389c-0.316-0.654-1.177-2.391-1.359-2.813h-0.048l-0.412,4.654
				c-0.014,0.158-0.014,0.352-0.014,0.521c0,0.158,0.099,0.256,0.255,0.293c0.182,0.048,0.34,0.059,0.413,0.059
				c0.037,0,0.084,0.036,0.084,0.073c0,0.071-0.072,0.097-0.192,0.097c-0.399,0-0.908-0.035-0.993-0.035
				c-0.099,0-0.606,0.035-0.897,0.035c-0.11,0-0.183-0.023-0.183-0.097c0-0.037,0.051-0.073,0.109-0.073
				c0.086,0,0.158-0.012,0.314-0.035c0.352-0.061,0.362-0.438,0.412-0.824l0.775-6.729c0.012-0.108,0.062-0.183,0.121-0.183
				c0.073,0,0.159,0.037,0.218,0.158l3.227,6.4l3.104-6.389c0.049-0.098,0.099-0.172,0.171-0.172s0.133,0.086,0.157,0.279
				L319.648,40.149z"/>
			<path d="M323.134,40.063c0.023,0.849,0.119,1.104,0.412,1.177c0.194,0.049,0.438,0.06,0.532,0.06
				c0.049,0,0.085,0.036,0.085,0.086c0,0.061-0.073,0.086-0.193,0.086c-0.605,0-1.03-0.037-1.127-0.037
				c-0.099,0-0.546,0.037-1.031,0.037c-0.109,0-0.169-0.014-0.169-0.086c0-0.05,0.035-0.086,0.084-0.086
				c0.088,0,0.279-0.012,0.438-0.06c0.267-0.073,0.304-0.353,0.304-1.285v-5.904c0-0.413,0.063-0.521,0.146-0.521
				c0.122,0,0.305,0.205,0.413,0.313c0.169,0.171,1.723,1.819,3.371,3.519c1.055,1.09,2.193,2.313,2.521,2.654l-0.109-5.166
				c-0.012-0.668-0.072-0.896-0.398-0.957c-0.194-0.037-0.438-0.05-0.522-0.05c-0.071,0-0.086-0.06-0.086-0.097
				c0-0.061,0.086-0.072,0.206-0.072c0.485,0,0.994,0.023,1.116,0.023c0.121,0,0.474-0.023,0.909-0.023
				c0.109,0,0.193,0.012,0.193,0.072c0,0.037-0.049,0.097-0.12,0.097c-0.051,0-0.135,0-0.257,0.023
				c-0.352,0.073-0.375,0.278-0.375,0.897l-0.022,6.039c0,0.678-0.012,0.738-0.085,0.738c-0.109,0-0.22-0.085-0.813-0.631
				c-0.106-0.1-1.646-1.613-2.774-2.79c-1.237-1.297-2.438-2.558-2.765-2.922L323.134,40.063z"/>
			<path d="M333.338,38.476c0,0.994,0,1.808,0.047,2.23c0.037,0.304,0.072,0.497,0.39,0.547c0.156,0.023,0.388,0.048,0.484,0.048
				c0.062,0,0.085,0.05,0.085,0.087c0,0.049-0.05,0.084-0.17,0.084c-0.595,0-1.284-0.035-1.333-0.035
				c-0.062,0-0.728,0.035-1.056,0.035c-0.107,0-0.169-0.023-0.169-0.084c0-0.037,0.023-0.087,0.085-0.087
				c0.096,0,0.23-0.022,0.328-0.048c0.204-0.05,0.24-0.243,0.277-0.547c0.05-0.424,0.061-1.236,0.061-2.23v-1.817
				c0-1.603,0-1.894-0.023-2.22c-0.023-0.352-0.109-0.51-0.34-0.558c-0.122-0.024-0.254-0.037-0.326-0.037
				c-0.051,0-0.087-0.049-0.087-0.085c0-0.061,0.05-0.086,0.169-0.086c0.353,0,1.021,0.025,1.081,0.025
				c0.047,0,0.738-0.025,1.066-0.025c0.12,0,0.169,0.025,0.169,0.086c0,0.036-0.049,0.085-0.086,0.085c-0.073,0-0.146,0-0.269,0.023
				c-0.291,0.062-0.35,0.206-0.375,0.571c-0.012,0.326-0.012,0.617-0.012,2.219v1.818H333.338L333.338,38.476z"/>
			<path d="M340.958,35.821c0-1.893,0-2.231-0.024-2.618c-0.022-0.413-0.12-0.606-0.521-0.69c-0.098-0.025-0.304-0.037-0.414-0.037
				c-0.047,0-0.097-0.023-0.097-0.074c0-0.071,0.062-0.096,0.194-0.096c0.546,0,1.311,0.036,1.37,0.036
				c0.132,0,1.057-0.036,1.432-0.036c0.764,0,1.574,0.072,2.218,0.532c0.305,0.218,0.837,0.813,0.837,1.649
				c0,0.896-0.377,1.794-1.468,2.8c0.994,1.274,1.818,2.353,2.521,3.104c0.654,0.69,1.175,0.823,1.479,0.873
				c0.229,0.035,0.399,0.035,0.474,0.035c0.062,0,0.108,0.036,0.108,0.072c0,0.072-0.073,0.098-0.291,0.098h-0.86
				c-0.68,0-0.981-0.061-1.297-0.229c-0.522-0.278-0.947-0.873-1.639-1.783c-0.51-0.667-1.078-1.479-1.32-1.794
				c-0.049-0.049-0.086-0.073-0.158-0.073l-1.491-0.022c-0.061,0-0.085,0.035-0.085,0.097v0.29c0,1.165,0,2.122,0.061,2.633
				c0.037,0.352,0.108,0.617,0.474,0.667c0.169,0.024,0.437,0.048,0.546,0.048c0.072,0,0.097,0.036,0.097,0.072
				c0,0.063-0.062,0.098-0.194,0.098c-0.666,0-1.43-0.035-1.49-0.035c-0.014,0-0.775,0.035-1.14,0.035
				c-0.134,0-0.194-0.023-0.194-0.098c0-0.036,0.023-0.072,0.096-0.072c0.11,0,0.257-0.023,0.364-0.048
				c0.241-0.05,0.304-0.315,0.353-0.667c0.061-0.511,0.061-1.468,0.061-2.633V35.821L340.958,35.821L340.958,35.821z
				 M341.929,36.877c0,0.06,0.023,0.106,0.085,0.146c0.182,0.107,0.738,0.193,1.272,0.193c0.291,0,0.631-0.035,0.909-0.23
				c0.425-0.291,0.738-0.944,0.738-1.866c0-1.517-0.8-2.427-2.098-2.427c-0.364,0-0.689,0.037-0.812,0.074
				c-0.061,0.023-0.098,0.071-0.098,0.145v3.966H341.929z"/>
			<path d="M349.647,36.658c0-1.603,0-1.894-0.024-2.22c-0.023-0.352-0.084-0.521-0.436-0.569c-0.086-0.013-0.269-0.022-0.363-0.022
				c-0.038,0-0.085-0.05-0.085-0.087c0-0.06,0.047-0.084,0.167-0.084c0.486,0,1.177,0.024,1.237,0.024c0.072,0,2.305,0.012,2.547,0
				c0.206-0.014,0.399-0.051,0.483-0.061c0.05-0.014,0.098-0.051,0.146-0.051c0.037,0,0.05,0.051,0.05,0.098
				c0,0.071-0.063,0.193-0.085,0.484c-0.014,0.098-0.037,0.559-0.062,0.68c-0.012,0.049-0.05,0.108-0.097,0.108
				c-0.061,0-0.085-0.049-0.085-0.132c0-0.073-0.013-0.243-0.061-0.365c-0.072-0.169-0.184-0.242-0.765-0.314
				c-0.183-0.023-1.419-0.037-1.54-0.037c-0.05,0-0.06,0.037-0.06,0.109v2.803c0,0.071,0,0.106,0.06,0.106
				c0.133,0,1.54,0,1.783-0.022c0.254-0.023,0.412-0.037,0.521-0.146c0.072-0.072,0.121-0.134,0.158-0.134
				c0.035,0,0.06,0.024,0.06,0.087c0,0.059-0.06,0.229-0.084,0.568c-0.023,0.205-0.049,0.596-0.049,0.668
				c0,0.084-0.024,0.192-0.098,0.192c-0.049,0-0.072-0.036-0.072-0.096c0-0.097,0-0.206-0.05-0.34
				c-0.035-0.146-0.133-0.269-0.544-0.314c-0.293-0.036-1.432-0.05-1.612-0.05c-0.062,0-0.072,0.037-0.072,0.073v0.86
				c0,0.352-0.015,1.551,0,1.758c0.021,0.69,0.218,0.822,1.272,0.822c0.278,0,0.787,0,1.066-0.106
				c0.277-0.122,0.423-0.304,0.485-0.716c0.022-0.121,0.049-0.158,0.106-0.158c0.063,0,0.073,0.086,0.073,0.158
				s-0.085,0.774-0.146,0.992c-0.071,0.27-0.181,0.27-0.594,0.27c-0.801,0-1.42-0.023-1.854-0.037
				c-0.448-0.023-0.729-0.023-0.886-0.023c-0.022,0-0.23,0-0.461,0.013c-0.207,0.013-0.447,0.024-0.616,0.024
				c-0.11,0-0.172-0.024-0.172-0.087c0-0.034,0.025-0.085,0.085-0.085c0.099,0,0.231-0.035,0.329-0.048
				c0.205-0.037,0.23-0.243,0.277-0.547c0.061-0.424,0.061-1.237,0.061-2.229L349.647,36.658L349.647,36.658z"/>
			<path d="M357.124,38.5c0,1.517,0.024,2.133,0.219,2.315c0.169,0.168,0.581,0.242,1.418,0.242c0.559,0,1.029-0.013,1.285-0.314
				c0.133-0.157,0.218-0.376,0.255-0.582c0.012-0.072,0.049-0.135,0.108-0.135c0.049,0,0.072,0.05,0.072,0.16
				c0,0.107-0.072,0.728-0.157,1.028c-0.072,0.242-0.109,0.279-0.681,0.279c-0.762,0-1.354-0.015-1.854-0.037
				c-0.484-0.013-0.849-0.022-1.164-0.022c-0.05,0-0.23,0-0.437,0.012c-0.219,0.014-0.448,0.023-0.619,0.023
				c-0.107,0-0.169-0.023-0.169-0.085c0-0.036,0.023-0.086,0.085-0.086c0.098,0,0.23-0.022,0.328-0.048
				c0.205-0.049,0.229-0.243,0.277-0.546c0.061-0.425,0.061-1.238,0.061-2.231v-1.816c0-1.604,0-1.893-0.022-2.219
				c-0.024-0.354-0.086-0.522-0.438-0.571c-0.084-0.013-0.268-0.023-0.363-0.023c-0.037,0-0.085-0.049-0.085-0.085
				c0-0.061,0.048-0.086,0.169-0.086c0.485,0,1.151,0.025,1.213,0.025c0.049,0,0.849-0.025,1.175-0.025
				c0.109,0,0.171,0.025,0.171,0.086c0,0.036-0.051,0.072-0.087,0.072c-0.072,0-0.229,0.013-0.352,0.023
				c-0.314,0.062-0.375,0.219-0.398,0.584c-0.014,0.326-0.014,0.617-0.014,2.219V38.5H357.124z"/>
			<path d="M364.201,33.881c0.134-0.34,0.183-0.397,0.255-0.397c0.11,0,0.146,0.145,0.256,0.375
				c0.192,0.437,1.901,4.691,2.558,6.257c0.388,0.921,0.679,1.055,0.909,1.127c0.157,0.05,0.314,0.062,0.425,0.062
				c0.06,0,0.133,0.023,0.133,0.084c0,0.062-0.122,0.086-0.242,0.086c-0.157,0-0.946,0-1.687-0.023
				c-0.206-0.014-0.375-0.014-0.375-0.073c0-0.048,0.023-0.048,0.072-0.071c0.061-0.024,0.169-0.109,0.097-0.279l-0.957-2.363
				c-0.022-0.049-0.036-0.061-0.097-0.061h-2.461c-0.051,0-0.086,0.023-0.11,0.086l-0.605,1.647
				c-0.097,0.255-0.157,0.509-0.157,0.69c0,0.205,0.181,0.279,0.363,0.279h0.097c0.086,0,0.109,0.035,0.109,0.084
				c0,0.062-0.062,0.086-0.157,0.086c-0.255,0-0.837-0.037-0.958-0.037c-0.11,0-0.643,0.037-1.079,0.037
				c-0.133,0-0.206-0.024-0.206-0.086c0-0.049,0.049-0.084,0.097-0.084c0.072,0,0.231-0.014,0.316-0.023
				c0.484-0.061,0.689-0.426,0.896-0.946L364.201,33.881z M365.389,38.173c0.05,0,0.05-0.023,0.035-0.072l-1.055-2.826
				c-0.061-0.156-0.12-0.156-0.181,0l-0.994,2.826c-0.015,0.049,0,0.072,0.037,0.072H365.389z"/>
			<path d="M371.52,38.476c0,0.994,0,1.808,0.051,2.23c0.037,0.304,0.084,0.497,0.412,0.547c0.146,0.023,0.387,0.048,0.484,0.048
				c0.072,0,0.084,0.05,0.084,0.087c0,0.049-0.047,0.084-0.169,0.084c-0.581,0-1.261-0.035-1.32-0.035
				c-0.049,0-0.786,0.035-1.104,0.035c-0.12,0-0.169-0.023-0.169-0.084c0-0.037,0.022-0.072,0.086-0.072
				c0.095,0,0.218-0.024,0.313-0.051c0.219-0.049,0.277-0.255,0.314-0.559c0.049-0.424,0.049-1.236,0.049-2.23v-4.328l-1.54,0.024
				c-0.668,0.013-0.921,0.085-1.078,0.326c-0.122,0.183-0.134,0.255-0.169,0.328c-0.023,0.085-0.062,0.096-0.109,0.096
				c-0.023,0-0.072-0.022-0.072-0.084c0-0.108,0.206-1.028,0.23-1.116c0.013-0.059,0.072-0.193,0.108-0.193
				c0.072,0,0.183,0.086,0.473,0.121c0.304,0.037,0.717,0.05,0.838,0.05h4.024c0.351,0,0.594-0.023,0.765-0.05
				c0.157-0.022,0.254-0.049,0.303-0.049c0.05,0,0.05,0.062,0.05,0.121c0,0.315-0.036,1.057-0.036,1.178
				c0,0.084-0.049,0.134-0.098,0.134c-0.048,0-0.073-0.037-0.085-0.183l-0.013-0.109c-0.037-0.314-0.267-0.547-1.283-0.57
				l-1.334-0.023v4.33h-0.006V38.476z"/>
			<path d="M377.385,38.476c0,0.994,0,1.808,0.049,2.23c0.035,0.304,0.072,0.497,0.388,0.547c0.159,0.023,0.389,0.048,0.486,0.048
				c0.06,0,0.084,0.05,0.084,0.087c0,0.049-0.049,0.084-0.169,0.084c-0.595,0-1.283-0.035-1.334-0.035
				c-0.061,0-0.729,0.035-1.055,0.035c-0.109,0-0.171-0.023-0.171-0.084c0-0.037,0.025-0.087,0.087-0.087
				c0.096,0,0.229-0.022,0.328-0.048c0.204-0.05,0.241-0.243,0.278-0.547c0.048-0.424,0.06-1.236,0.06-2.23v-1.817
				c0-1.603,0-1.894-0.023-2.22c-0.023-0.352-0.109-0.51-0.34-0.558c-0.122-0.024-0.256-0.037-0.328-0.037
				c-0.049,0-0.085-0.049-0.085-0.085c0-0.061,0.05-0.086,0.169-0.086c0.353,0,1.021,0.025,1.079,0.025
				c0.05,0,0.74-0.025,1.066-0.025c0.122,0,0.171,0.025,0.171,0.086c0,0.036-0.051,0.085-0.086,0.085c-0.073,0-0.146,0-0.268,0.023
				c-0.291,0.062-0.353,0.206-0.377,0.571c-0.013,0.326-0.013,0.617-0.013,2.219v1.818H377.385L377.385,38.476z"/>
			<path d="M383.809,33.528c2.4,0,4.219,1.467,4.219,3.869c0,2.303-1.709,4.205-4.278,4.205c-2.923,0-4.171-2.192-4.171-4.049
				C379.578,35.894,380.863,33.528,383.809,33.528z M384.052,41.181c0.957,0,2.886-0.511,2.886-3.492
				c0-2.474-1.504-3.771-3.188-3.771c-1.782,0-3.068,1.116-3.068,3.356C380.68,39.676,382.124,41.181,384.052,41.181z"/>
			<path d="M390.533,40.063c0.022,0.849,0.121,1.104,0.412,1.177c0.193,0.049,0.437,0.06,0.533,0.06
				c0.048,0,0.086,0.036,0.086,0.086c0,0.061-0.073,0.086-0.195,0.086c-0.604,0-1.029-0.037-1.127-0.037
				c-0.1,0-0.546,0.037-1.029,0.037c-0.11,0-0.171-0.014-0.171-0.086c0-0.05,0.037-0.086,0.086-0.086
				c0.085,0,0.277-0.012,0.438-0.06c0.267-0.073,0.303-0.353,0.303-1.285v-5.904c0-0.413,0.061-0.521,0.145-0.521
				c0.124,0,0.306,0.205,0.415,0.313c0.169,0.171,1.722,1.819,3.369,3.519c1.055,1.09,2.195,2.313,2.521,2.654l-0.107-5.166
				c-0.012-0.668-0.073-0.896-0.401-0.957c-0.193-0.037-0.436-0.05-0.521-0.05c-0.072,0-0.084-0.06-0.084-0.097
				c0-0.061,0.084-0.072,0.206-0.072c0.484,0,0.992,0.023,1.116,0.023c0.119,0,0.472-0.023,0.908-0.023
				c0.108,0,0.192,0.012,0.192,0.072c0,0.037-0.047,0.097-0.12,0.097c-0.049,0-0.133,0-0.255,0.023
				c-0.352,0.073-0.377,0.278-0.377,0.897l-0.023,6.039c0,0.678-0.012,0.738-0.085,0.738c-0.108,0-0.218-0.085-0.812-0.631
				c-0.109-0.1-1.649-1.613-2.777-2.79c-1.234-1.297-2.436-2.558-2.764-2.922L390.533,40.063z"/>
			<path d="M399.112,41.325c-0.146-0.072-0.159-0.109-0.159-0.389c0-0.51,0.049-0.922,0.062-1.092c0-0.107,0.023-0.17,0.084-0.17
				c0.062,0,0.1,0.037,0.1,0.122s0,0.229,0.035,0.376c0.171,0.753,0.971,1.02,1.686,1.02c1.055,0,1.602-0.596,1.602-1.37
				c0-0.739-0.4-1.091-1.347-1.794l-0.484-0.364c-1.152-0.86-1.528-1.49-1.528-2.206c0-1.212,0.957-1.938,2.364-1.938
				c0.424,0,0.849,0.059,1.104,0.119c0.204,0.049,0.291,0.049,0.375,0.049c0.087,0,0.108,0.015,0.108,0.072
				c0,0.049-0.047,0.389-0.047,1.094c0,0.156-0.014,0.229-0.087,0.229c-0.072,0-0.084-0.049-0.097-0.134
				c-0.012-0.121-0.097-0.399-0.157-0.51c-0.072-0.123-0.425-0.51-1.383-0.51c-0.775,0-1.419,0.387-1.419,1.116
				c0,0.654,0.326,1.029,1.382,1.745l0.305,0.206c1.297,0.885,1.746,1.603,1.746,2.485c0,0.605-0.229,1.261-0.994,1.759
				c-0.449,0.291-1.115,0.362-1.697,0.362C400.167,41.604,399.548,41.53,399.112,41.325z"/>
		</g>
	</g>
</g>
<g id="Layer_4">
	<g>
		<path d="M128.476,32.336c2.728,0,4.766,1.724,4.766,4.548c0,2.717-1.916,4.958-4.838,4.958c-3.322,0-4.704-2.581-4.704-4.765
			C123.699,35.112,125.13,32.336,128.476,32.336z M128.731,41.382c1.091,0,3.346-0.631,3.346-4.158c0-2.91-1.771-4.475-3.686-4.475
			c-2.024,0-3.54,1.334-3.54,3.988C124.852,39.563,126.549,41.382,128.731,41.382z"/>
		<path d="M135.187,36.858c0-1.601,0-1.892-0.023-2.217c-0.025-0.353-0.086-0.522-0.438-0.57c-0.084-0.014-0.267-0.023-0.364-0.023
			c-0.036,0-0.085-0.05-0.085-0.086c0-0.061,0.049-0.084,0.17-0.084c0.485,0,1.152,0.023,1.212,0.023c0.206,0,2.521,0.012,2.764,0
			c0.206-0.014,0.388-0.014,0.485-0.049c0.061-0.013,0.109-0.062,0.146-0.062c0.049,0,0.073,0.049,0.073,0.097
			c0,0.071-0.048,0.194-0.084,0.485c-0.013,0.097-0.024,0.56-0.05,0.679c-0.012,0.049-0.048,0.108-0.097,0.108
			s-0.085-0.048-0.085-0.12c0-0.086-0.036-0.256-0.097-0.389c-0.06-0.133-0.315-0.303-0.727-0.303l-1.747-0.024
			c-0.061,0-0.084,0.024-0.084,0.108v2.813c0,0.06,0,0.095,0.073,0.095l1.455-0.012c0.182,0,0.34,0,0.486-0.012
			c0.254-0.024,0.399-0.062,0.497-0.184c0.048-0.06,0.097-0.109,0.133-0.109c0.049,0,0.06,0.037,0.06,0.086
			c0,0.062-0.073,0.229-0.096,0.57c-0.024,0.207-0.037,0.617-0.037,0.69c0,0.097-0.024,0.205-0.097,0.205
			c-0.061,0-0.073-0.048-0.073-0.097c-0.012-0.108-0.024-0.254-0.073-0.375c-0.049-0.146-0.218-0.279-0.546-0.328
			c-0.266-0.035-1.527-0.023-1.709-0.023c-0.061,0-0.073,0.023-0.073,0.098v0.823c0,1.019,0,1.83,0.048,2.229
			c0.036,0.305,0.097,0.498,0.388,0.547c0.159,0.023,0.388,0.049,0.486,0.049c0.061,0,0.084,0.049,0.084,0.085
			c0,0.049-0.048,0.086-0.168,0.086c-0.595,0-1.286-0.037-1.334-0.037c-0.061,0-0.728,0.037-1.055,0.037
			c-0.109,0-0.17-0.024-0.17-0.086c0-0.036,0.024-0.085,0.085-0.085c0.097,0,0.231-0.036,0.328-0.049
			c0.205-0.036,0.23-0.242,0.279-0.547c0.06-0.424,0.06-1.236,0.06-2.229V36.858L135.187,36.858z"/>
		<path d="M141.368,36.858c0-1.601,0-1.892-0.024-2.217c-0.024-0.353-0.085-0.522-0.437-0.57c-0.085-0.014-0.267-0.023-0.363-0.023
			c-0.036,0-0.086-0.05-0.086-0.086c0-0.061,0.05-0.084,0.17-0.084c0.486,0,1.152,0.023,1.213,0.023c0.206,0,2.521,0.012,2.763,0
			c0.207-0.014,0.388-0.014,0.486-0.049c0.061-0.013,0.109-0.062,0.146-0.062c0.048,0,0.073,0.049,0.073,0.097
			c0,0.071-0.049,0.194-0.085,0.485c-0.013,0.097-0.024,0.56-0.049,0.679c-0.012,0.049-0.048,0.108-0.097,0.108
			c-0.048,0-0.084-0.048-0.084-0.12c0-0.086-0.036-0.256-0.097-0.389c-0.06-0.133-0.315-0.303-0.727-0.303l-1.747-0.024
			c-0.061,0-0.085,0.024-0.085,0.108v2.813c0,0.06,0,0.095,0.073,0.095l1.455-0.012c0.182,0,0.34,0,0.485-0.012
			c0.254-0.024,0.4-0.062,0.497-0.184c0.048-0.06,0.097-0.109,0.133-0.109c0.048,0,0.06,0.037,0.06,0.086
			c0,0.062-0.073,0.229-0.096,0.57c-0.024,0.207-0.037,0.617-0.037,0.69c0,0.097-0.024,0.205-0.097,0.205
			c-0.061,0-0.073-0.048-0.073-0.097c-0.012-0.108-0.024-0.254-0.073-0.375c-0.049-0.146-0.218-0.279-0.546-0.328
			c-0.267-0.035-1.528-0.023-1.709-0.023c-0.061,0-0.073,0.023-0.073,0.098v0.823c0,1.019,0,1.83,0.048,2.229
			c0.037,0.305,0.097,0.498,0.388,0.547c0.158,0.023,0.388,0.049,0.485,0.049c0.061,0,0.085,0.049,0.085,0.085
			c0,0.049-0.049,0.086-0.169,0.086c-0.595,0-1.285-0.037-1.333-0.037c-0.061,0-0.729,0.037-1.056,0.037
			c-0.109,0-0.169-0.024-0.169-0.086c0-0.036,0.024-0.085,0.085-0.085c0.097,0,0.231-0.036,0.328-0.049
			c0.205-0.036,0.23-0.242,0.278-0.547c0.06-0.424,0.06-1.236,0.06-2.229L141.368,36.858L141.368,36.858z"/>
		<path d="M148.518,38.679c0,0.993,0,1.807,0.048,2.229c0.037,0.305,0.073,0.497,0.388,0.547c0.158,0.024,0.388,0.049,0.485,0.049
			c0.061,0,0.085,0.05,0.085,0.085c0,0.049-0.048,0.086-0.169,0.086c-0.594,0-1.285-0.037-1.333-0.037
			c-0.061,0-0.728,0.037-1.055,0.037c-0.109,0-0.169-0.025-0.169-0.086c0-0.035,0.024-0.085,0.084-0.085
			c0.097,0,0.231-0.024,0.329-0.049c0.206-0.05,0.242-0.242,0.278-0.547c0.049-0.425,0.06-1.236,0.06-2.229V36.86
			c0-1.602,0-1.893-0.023-2.219c-0.024-0.352-0.109-0.511-0.34-0.559c-0.121-0.023-0.254-0.036-0.327-0.036
			c-0.05,0-0.086-0.049-0.086-0.087c0-0.059,0.049-0.084,0.17-0.084c0.351,0,1.019,0.023,1.08,0.023
			c0.048,0,0.739-0.023,1.066-0.023c0.121,0,0.169,0.023,0.169,0.084c0,0.038-0.049,0.087-0.085,0.087c-0.073,0-0.146,0-0.266,0.022
			c-0.291,0.062-0.352,0.207-0.377,0.57c-0.012,0.327-0.012,0.618-0.012,2.219V38.679L148.518,38.679L148.518,38.679z"/>
		<path d="M151.874,40.702c-1.043-0.896-1.297-2.073-1.297-3.055c0-0.691,0.254-1.893,1.201-2.813
			c0.642-0.617,1.612-1.103,3.249-1.103c0.424,0,1.03,0.035,1.552,0.121c0.4,0.071,0.739,0.146,1.092,0.157
			c0.109,0,0.133,0.05,0.133,0.109c0,0.085-0.024,0.206-0.049,0.582c-0.012,0.34-0.012,0.909-0.023,1.056
			c-0.013,0.158-0.061,0.219-0.122,0.219c-0.073,0-0.084-0.072-0.084-0.219c0-0.4-0.17-0.813-0.449-1.029
			c-0.377-0.315-1.152-0.57-2.098-0.57c-1.37,0-2.025,0.363-2.4,0.715c-0.788,0.729-0.958,1.648-0.958,2.689
			c0,1.979,1.565,3.735,3.843,3.735c0.801,0,1.333-0.06,1.758-0.485c0.231-0.23,0.377-0.666,0.413-0.859
			c0.024-0.109,0.036-0.146,0.109-0.146c0.048,0,0.097,0.072,0.097,0.146c0,0.072-0.146,0.97-0.255,1.32
			c-0.06,0.193-0.085,0.23-0.267,0.304c-0.437,0.169-1.237,0.229-1.929,0.229C153.79,41.808,152.71,41.431,151.874,40.702z"/>
		<path d="M160.064,36.858c0-1.601,0-1.892-0.023-2.217c-0.024-0.353-0.086-0.522-0.437-0.57c-0.085-0.014-0.267-0.023-0.364-0.023
			c-0.036,0-0.085-0.05-0.085-0.086c0-0.061,0.049-0.084,0.169-0.084c0.485,0,1.177,0.023,1.237,0.023c0.073,0,2.304,0.012,2.546,0
			c0.206-0.014,0.4-0.049,0.485-0.062c0.049-0.013,0.097-0.049,0.146-0.049c0.036,0,0.049,0.049,0.049,0.097
			c0,0.071-0.061,0.194-0.086,0.485c-0.012,0.097-0.036,0.56-0.06,0.679c-0.013,0.049-0.049,0.108-0.097,0.108
			c-0.061,0-0.085-0.048-0.085-0.132c0-0.073-0.013-0.242-0.061-0.365c-0.073-0.168-0.182-0.242-0.764-0.314
			c-0.182-0.022-1.419-0.035-1.539-0.035c-0.049,0-0.061,0.035-0.061,0.107v2.803c0,0.071,0,0.107,0.061,0.107
			c0.132,0,1.539,0,1.782-0.023c0.254-0.022,0.413-0.035,0.522-0.146c0.073-0.072,0.121-0.133,0.157-0.133
			c0.037,0,0.061,0.023,0.061,0.086c0,0.062-0.061,0.229-0.085,0.568c-0.024,0.207-0.05,0.596-0.05,0.668
			c0,0.084-0.023,0.193-0.097,0.193c-0.048,0-0.073-0.036-0.073-0.097c0-0.097,0-0.205-0.048-0.341
			c-0.037-0.146-0.133-0.268-0.545-0.313c-0.292-0.037-1.431-0.05-1.613-0.05c-0.06,0-0.073,0.038-0.073,0.072v0.86
			c0,0.353-0.013,1.552,0,1.759c0.024,0.69,0.218,0.823,1.273,0.823c0.279,0,0.788,0,1.066-0.108
			c0.279-0.121,0.424-0.303,0.486-0.715c0.024-0.121,0.048-0.158,0.109-0.158s0.073,0.086,0.073,0.158s-0.085,0.775-0.146,0.994
			c-0.073,0.268-0.182,0.268-0.595,0.268c-0.8,0-1.418-0.023-1.855-0.036c-0.449-0.025-0.727-0.025-0.885-0.025
			c-0.023,0-0.23,0-0.46,0.013c-0.206,0.014-0.448,0.025-0.618,0.025c-0.109,0-0.169-0.025-0.169-0.086
			c0-0.036,0.024-0.085,0.085-0.085c0.097,0,0.231-0.037,0.328-0.049c0.205-0.036,0.23-0.242,0.278-0.547
			c0.06-0.425,0.06-1.236,0.06-2.229L160.064,36.858L160.064,36.858L160.064,36.858z"/>
		<path d="M173.094,33.731c2.4,0,4.219,1.467,4.219,3.869c0,2.301-1.71,4.205-4.28,4.205c-2.922,0-4.17-2.193-4.17-4.05
			C168.862,36.097,170.148,33.731,173.094,33.731z M173.336,41.382c0.958,0,2.886-0.509,2.886-3.49c0-2.474-1.503-3.771-3.189-3.771
			c-1.782,0-3.067,1.115-3.067,3.357C169.966,39.877,171.409,41.382,173.336,41.382z"/>
		<path d="M179.235,36.858c0-1.601,0-1.892-0.023-2.217c-0.024-0.353-0.085-0.522-0.437-0.57c-0.085-0.014-0.267-0.023-0.364-0.023
			c-0.036,0-0.085-0.05-0.085-0.086c0-0.061,0.049-0.084,0.169-0.084c0.486,0,1.152,0.023,1.213,0.023c0.206,0,2.521,0.012,2.764,0
			c0.206-0.014,0.388-0.014,0.485-0.049c0.061-0.013,0.109-0.062,0.146-0.062c0.048,0,0.073,0.049,0.073,0.097
			c0,0.071-0.049,0.194-0.085,0.485c-0.013,0.097-0.024,0.56-0.049,0.679c-0.012,0.049-0.048,0.108-0.097,0.108
			c-0.048,0-0.084-0.048-0.084-0.12c0-0.086-0.037-0.256-0.097-0.389s-0.315-0.303-0.727-0.303l-1.747-0.024
			c-0.061,0-0.085,0.024-0.085,0.108v2.813c0,0.06,0,0.095,0.073,0.095l1.455-0.012c0.182,0,0.34,0,0.486-0.012
			c0.254-0.024,0.399-0.062,0.497-0.184c0.048-0.06,0.097-0.109,0.133-0.109c0.049,0,0.06,0.037,0.06,0.086
			c0,0.062-0.073,0.229-0.096,0.57c-0.024,0.207-0.037,0.617-0.037,0.69c0,0.097-0.024,0.205-0.097,0.205
			c-0.061,0-0.073-0.048-0.073-0.097c-0.013-0.108-0.024-0.254-0.073-0.375c-0.049-0.146-0.218-0.279-0.546-0.328
			c-0.267-0.035-1.528-0.023-1.709-0.023c-0.061,0-0.073,0.023-0.073,0.098v0.823c0,1.019,0,1.83,0.049,2.229
			c0.036,0.305,0.097,0.498,0.387,0.547c0.159,0.023,0.388,0.049,0.486,0.049c0.061,0,0.085,0.049,0.085,0.085
			c0,0.049-0.049,0.086-0.169,0.086c-0.594,0-1.285-0.037-1.333-0.037c-0.061,0-0.729,0.037-1.056,0.037
			c-0.109,0-0.169-0.024-0.169-0.086c0-0.036,0.024-0.085,0.085-0.085c0.097,0,0.231-0.036,0.328-0.049
			c0.206-0.036,0.23-0.242,0.278-0.547c0.06-0.424,0.06-1.236,0.06-2.229L179.235,36.858L179.235,36.858z"/>
		<path d="M191.075,32.81c0.146-0.4,0.194-0.474,0.267-0.474c0.073,0,0.122,0.062,0.268,0.438c0.182,0.459,2.085,5.468,2.825,7.311
			c0.437,1.08,0.788,1.273,1.042,1.346c0.183,0.062,0.364,0.073,0.485,0.073c0.073,0,0.122,0.013,0.122,0.072
			c0,0.073-0.109,0.098-0.242,0.098c-0.182,0-1.066,0-1.903-0.024c-0.231-0.012-0.363-0.012-0.363-0.086
			c0-0.047,0.036-0.071,0.085-0.084c0.072-0.022,0.145-0.133,0.072-0.328l-1.128-2.981c-0.024-0.049-0.048-0.071-0.109-0.071h-2.607
			c-0.06,0-0.097,0.036-0.121,0.096l-0.729,2.146c-0.109,0.306-0.169,0.597-0.169,0.813c0,0.242,0.254,0.351,0.46,0.351h0.122
			c0.085,0,0.121,0.024,0.121,0.074c0,0.071-0.072,0.097-0.182,0.097c-0.291,0-0.812-0.037-0.946-0.037
			c-0.134,0-0.8,0.037-1.37,0.037c-0.157,0-0.23-0.023-0.23-0.097c0-0.05,0.048-0.074,0.109-0.074c0.084,0,0.254-0.012,0.351-0.022
			c0.558-0.072,0.8-0.533,1.019-1.141L191.075,32.81z M192.335,37.659c0.061,0,0.061-0.036,0.049-0.084l-1.152-3.274
			c-0.061-0.182-0.122-0.182-0.182,0l-1.066,3.274c-0.025,0.061,0,0.084,0.036,0.084H192.335z"/>
		<path d="M198.2,38.702c0,1.516,0.024,2.134,0.218,2.316c0.17,0.168,0.582,0.24,1.419,0.24c0.558,0,1.03-0.012,1.285-0.314
			c0.132-0.156,0.218-0.375,0.255-0.582c0.012-0.071,0.048-0.133,0.109-0.133c0.048,0,0.073,0.049,0.073,0.158
			s-0.073,0.728-0.158,1.03c-0.074,0.242-0.11,0.278-0.68,0.278c-0.763,0-1.357-0.014-1.855-0.036
			c-0.485-0.013-0.848-0.024-1.164-0.024c-0.049,0-0.231,0-0.437,0.014c-0.218,0.013-0.448,0.022-0.618,0.022
			c-0.109,0-0.169-0.022-0.169-0.085c0-0.036,0.024-0.085,0.084-0.085c0.097,0,0.231-0.022,0.329-0.048
			c0.205-0.051,0.23-0.244,0.278-0.547c0.06-0.424,0.06-1.237,0.06-2.231v-1.817c0-1.603,0-1.894-0.023-2.219
			c-0.024-0.352-0.086-0.521-0.437-0.57c-0.085-0.012-0.267-0.022-0.364-0.022c-0.036,0-0.086-0.049-0.086-0.087
			c0-0.059,0.05-0.084,0.17-0.084c0.485,0,1.152,0.023,1.213,0.023c0.048,0,0.848-0.023,1.175-0.023
			c0.109,0,0.169,0.023,0.169,0.084c0,0.038-0.049,0.073-0.085,0.073c-0.073,0-0.23,0.014-0.352,0.024
			c-0.314,0.061-0.376,0.219-0.4,0.582c-0.012,0.327-0.012,0.618-0.012,2.219v1.844H198.2z"/>
		<path d="M202.805,36.858c0-1.601,0-1.892-0.024-2.217c-0.024-0.328-0.084-0.522-0.436-0.57c-0.086-0.014-0.268-0.023-0.364-0.023
			c-0.037,0-0.085-0.05-0.085-0.086c0-0.061,0.048-0.084,0.17-0.084c0.485,0,1.127,0.023,1.225,0.023
			c0.096,0,0.764-0.023,1.078-0.023c0.122,0,0.182,0.023,0.182,0.084c0,0.036-0.048,0.086-0.095,0.086c-0.075,0-0.134,0-0.268,0.023
			c-0.278,0.049-0.341,0.229-0.363,0.57c-0.025,0.325-0.025,0.616-0.025,2.217v1.442c0,1.493,0.328,2.109,0.788,2.522
			c0.522,0.473,0.982,0.558,1.589,0.558c0.654,0,1.285-0.291,1.648-0.728c0.497-0.596,0.606-1.443,0.606-2.498v-1.297
			c0-1.602-0.013-1.893-0.023-2.219c-0.013-0.328-0.073-0.521-0.424-0.568c-0.086-0.014-0.268-0.024-0.365-0.024
			c-0.048,0-0.085-0.05-0.085-0.086c0-0.06,0.049-0.084,0.169-0.084c0.473,0,1.092,0.022,1.151,0.022
			c0.073,0,0.583-0.022,0.898-0.022c0.122,0,0.17,0.022,0.17,0.084c0,0.036-0.037,0.086-0.085,0.086c-0.073,0-0.134,0-0.267,0.024
			c-0.291,0.059-0.352,0.229-0.376,0.568c-0.025,0.326-0.013,0.617-0.013,2.219v1.103c0,1.116-0.146,2.364-0.994,3.093
			c-0.776,0.666-1.601,0.752-2.231,0.752c-0.351,0-1.466-0.024-2.219-0.729c-0.521-0.484-0.932-1.2-0.932-2.703V36.858
			L202.805,36.858L202.805,36.858z"/>
		<path d="M219.726,40.353c0.036,0.362,0.109,0.92,0.545,1.064c0.305,0.098,0.583,0.098,0.691,0.098
			c0.049,0,0.084,0.023,0.084,0.072c0,0.061-0.095,0.098-0.218,0.098c-0.242,0-1.429-0.014-1.818-0.049
			c-0.255-0.023-0.303-0.062-0.303-0.109c0-0.035,0.023-0.072,0.073-0.086c0.061-0.012,0.073-0.168,0.048-0.362l-0.509-5.237h-0.024
			l-2.57,5.262c-0.218,0.448-0.278,0.545-0.376,0.545c-0.096,0-0.157-0.097-0.363-0.473c-0.278-0.511-0.982-1.831-1.249-2.389
			c-0.315-0.654-1.176-2.389-1.356-2.813h-0.05l-0.414,4.654c-0.012,0.158-0.012,0.352-0.012,0.521c0,0.158,0.097,0.254,0.254,0.291
			c0.182,0.05,0.34,0.06,0.413,0.06c0.036,0,0.084,0.037,0.084,0.074c0,0.071-0.072,0.097-0.194,0.097
			c-0.399,0-0.909-0.037-0.993-0.037c-0.097,0-0.606,0.037-0.897,0.037c-0.109,0-0.182-0.023-0.182-0.097
			c0-0.037,0.049-0.074,0.109-0.074c0.085,0,0.158-0.013,0.315-0.035c0.352-0.062,0.363-0.437,0.412-0.823l0.776-6.729
			c0.012-0.108,0.061-0.183,0.121-0.183c0.074,0,0.158,0.037,0.219,0.158l3.226,6.401l3.104-6.39c0.048-0.098,0.096-0.17,0.169-0.17
			c0.073,0,0.133,0.086,0.158,0.278L219.726,40.353z"/>
		<path d="M223.078,40.267c0.025,0.85,0.121,1.104,0.414,1.176c0.193,0.051,0.436,0.062,0.532,0.062
			c0.049,0,0.085,0.036,0.085,0.085c0,0.061-0.073,0.085-0.194,0.085c-0.606,0-1.03-0.036-1.127-0.036
			c-0.097,0-0.547,0.036-1.03,0.036c-0.11,0-0.169-0.012-0.169-0.085c0-0.049,0.036-0.085,0.085-0.085
			c0.086,0,0.279-0.013,0.436-0.062c0.267-0.072,0.304-0.352,0.304-1.283v-5.904c0-0.413,0.06-0.521,0.146-0.521
			c0.122,0,0.303,0.205,0.413,0.314c0.169,0.17,1.721,1.818,3.371,3.516c1.055,1.093,2.194,2.316,2.522,2.655l-0.11-5.165
			c-0.012-0.668-0.073-0.896-0.4-0.957c-0.194-0.037-0.437-0.049-0.521-0.049c-0.073,0-0.086-0.063-0.086-0.097
			c0-0.062,0.086-0.072,0.207-0.072c0.485,0,0.994,0.022,1.116,0.022c0.122,0,0.472-0.022,0.909-0.022
			c0.11,0,0.195,0.013,0.195,0.072c0,0.034-0.049,0.097-0.122,0.097c-0.049,0-0.133,0-0.255,0.023
			c-0.352,0.072-0.375,0.279-0.375,0.896l-0.024,6.038c0,0.679-0.013,0.739-0.085,0.739c-0.108,0-0.218-0.085-0.812-0.631
			c-0.109-0.098-1.648-1.612-2.777-2.789c-1.236-1.299-2.437-2.559-2.763-2.924L223.078,40.267z"/>
		<path d="M233.148,38.679c0,0.993,0,1.807,0.049,2.229c0.035,0.305,0.072,0.497,0.387,0.547c0.159,0.024,0.388,0.049,0.485,0.049
			c0.061,0,0.085,0.05,0.085,0.085c0,0.049-0.048,0.086-0.17,0.086c-0.593,0-1.285-0.037-1.332-0.037
			c-0.061,0-0.729,0.037-1.056,0.037c-0.109,0-0.17-0.025-0.17-0.086c0-0.035,0.024-0.085,0.085-0.085
			c0.097,0,0.231-0.024,0.328-0.049c0.206-0.05,0.243-0.242,0.278-0.547c0.049-0.425,0.061-1.236,0.061-2.229V36.86
			c0-1.602,0-1.893-0.023-2.219c-0.024-0.352-0.11-0.511-0.341-0.559c-0.121-0.023-0.254-0.036-0.327-0.036
			c-0.049,0-0.086-0.049-0.086-0.087c0-0.059,0.05-0.084,0.17-0.084c0.351,0,1.018,0.023,1.079,0.023
			c0.049,0,0.74-0.023,1.067-0.023c0.122,0,0.169,0.023,0.169,0.084c0,0.038-0.049,0.087-0.084,0.087c-0.073,0-0.146,0-0.267,0.022
			c-0.291,0.062-0.352,0.207-0.377,0.57c-0.012,0.327-0.012,0.618-0.012,2.219v1.82H233.148L233.148,38.679z"/>
		<path d="M240.503,36.022c0-1.893,0-2.23-0.022-2.619c-0.023-0.411-0.123-0.606-0.521-0.69c-0.098-0.022-0.305-0.036-0.413-0.036
			c-0.049,0-0.097-0.023-0.097-0.072c0-0.072,0.061-0.098,0.193-0.098c0.547,0,1.312,0.037,1.371,0.037
			c0.133,0,1.055-0.037,1.43-0.037c0.765,0,1.576,0.072,2.22,0.533c0.303,0.218,0.837,0.813,0.837,1.648
			c0,0.896-0.377,1.793-1.468,2.799c0.993,1.275,1.819,2.354,2.522,3.104c0.653,0.691,1.174,0.824,1.479,0.874
			c0.229,0.036,0.398,0.036,0.472,0.036c0.062,0,0.109,0.036,0.109,0.072c0,0.073-0.072,0.098-0.291,0.098h-0.861
			c-0.679,0-0.981-0.062-1.296-0.231c-0.521-0.276-0.945-0.873-1.639-1.781c-0.508-0.668-1.078-1.479-1.32-1.795
			c-0.05-0.049-0.085-0.072-0.158-0.072l-1.49-0.023c-0.062,0-0.086,0.035-0.086,0.097v0.291c0,1.163,0,2.122,0.061,2.632
			c0.035,0.352,0.109,0.617,0.474,0.668c0.169,0.023,0.437,0.048,0.545,0.048c0.073,0,0.099,0.036,0.099,0.072
			c0,0.062-0.062,0.098-0.194,0.098c-0.668,0-1.431-0.036-1.492-0.036c-0.013,0-0.774,0.036-1.139,0.036
			c-0.134,0-0.195-0.024-0.195-0.098c0-0.036,0.024-0.072,0.099-0.072c0.107,0,0.252-0.022,0.362-0.048
			c0.242-0.051,0.304-0.316,0.353-0.668c0.061-0.51,0.061-1.469,0.061-2.632L240.503,36.022L240.503,36.022L240.503,36.022z
			 M241.475,37.078c0,0.06,0.022,0.108,0.084,0.146c0.183,0.108,0.739,0.194,1.272,0.194c0.291,0,0.631-0.037,0.91-0.231
			c0.424-0.289,0.739-0.944,0.739-1.867c0-1.514-0.801-2.424-2.1-2.424c-0.363,0-0.689,0.035-0.813,0.071
			c-0.06,0.025-0.096,0.073-0.096,0.146L241.475,37.078L241.475,37.078z"/>
		<path d="M249.059,36.858c0-1.601,0-1.892-0.024-2.217c-0.022-0.353-0.084-0.522-0.437-0.57c-0.086-0.014-0.268-0.023-0.363-0.023
			c-0.037,0-0.086-0.05-0.086-0.086c0-0.061,0.049-0.084,0.17-0.084c0.486,0,1.176,0.023,1.236,0.023c0.072,0,2.305,0.012,2.547,0
			c0.205-0.014,0.399-0.049,0.483-0.062c0.05-0.013,0.099-0.049,0.146-0.049c0.037,0,0.049,0.049,0.049,0.097
			c0,0.071-0.059,0.194-0.084,0.485c-0.012,0.097-0.036,0.56-0.061,0.679c-0.013,0.049-0.05,0.108-0.097,0.108
			c-0.062,0-0.085-0.048-0.085-0.132c0-0.073-0.014-0.242-0.061-0.365c-0.072-0.168-0.184-0.242-0.765-0.314
			c-0.183-0.022-1.419-0.035-1.54-0.035c-0.05,0-0.061,0.035-0.061,0.107v2.803c0,0.071,0,0.107,0.061,0.107
			c0.133,0,1.54,0,1.783-0.023c0.254-0.022,0.412-0.035,0.521-0.146c0.071-0.072,0.121-0.133,0.156-0.133
			c0.036,0,0.061,0.023,0.061,0.086c0,0.062-0.061,0.229-0.084,0.568c-0.023,0.207-0.049,0.596-0.049,0.668
			c0,0.084-0.024,0.193-0.098,0.193c-0.049,0-0.072-0.036-0.072-0.097c0-0.097,0-0.205-0.05-0.341
			c-0.036-0.146-0.133-0.268-0.545-0.313c-0.292-0.037-1.431-0.05-1.612-0.05c-0.061,0-0.072,0.038-0.072,0.072v0.86
			c0,0.353-0.014,1.552,0,1.759c0.022,0.69,0.219,0.823,1.272,0.823c0.279,0,0.788,0,1.065-0.108
			c0.279-0.121,0.425-0.303,0.486-0.715c0.023-0.121,0.049-0.158,0.107-0.158c0.063,0,0.072,0.086,0.072,0.158
			s-0.084,0.775-0.146,0.994c-0.071,0.268-0.181,0.268-0.594,0.268c-0.802,0-1.42-0.023-1.854-0.036
			c-0.449-0.025-0.729-0.025-0.887-0.025c-0.021,0-0.23,0-0.46,0.013c-0.207,0.014-0.448,0.025-0.618,0.025
			c-0.109,0-0.17-0.025-0.17-0.086c0-0.036,0.024-0.085,0.086-0.085c0.098,0,0.23-0.037,0.327-0.049
			c0.206-0.036,0.231-0.242,0.278-0.547c0.061-0.425,0.061-1.236,0.061-2.229L249.059,36.858L249.059,36.858z"/>
		<path d="M256.402,38.702c0,1.516,0.022,2.134,0.219,2.316c0.17,0.168,0.581,0.24,1.419,0.24c0.558,0,1.028-0.012,1.285-0.314
			c0.132-0.156,0.218-0.375,0.254-0.582c0.013-0.071,0.049-0.133,0.108-0.133c0.049,0,0.072,0.049,0.072,0.158
			s-0.072,0.728-0.156,1.03c-0.074,0.242-0.109,0.278-0.681,0.278c-0.764,0-1.356-0.014-1.854-0.036
			c-0.484-0.013-0.848-0.024-1.164-0.024c-0.049,0-0.23,0-0.438,0.014c-0.218,0.013-0.449,0.022-0.617,0.022
			c-0.108,0-0.17-0.022-0.17-0.085c0-0.036,0.023-0.085,0.086-0.085c0.096,0,0.229-0.022,0.327-0.048
			c0.204-0.051,0.229-0.244,0.278-0.547c0.061-0.424,0.061-1.237,0.061-2.231v-1.817c0-1.603,0-1.894-0.023-2.219
			c-0.024-0.352-0.086-0.521-0.438-0.57c-0.084-0.012-0.268-0.022-0.363-0.022c-0.037,0-0.086-0.049-0.086-0.087
			c0-0.059,0.049-0.084,0.17-0.084c0.484,0,1.151,0.023,1.213,0.023c0.048,0,0.848-0.023,1.176-0.023
			c0.107,0,0.169,0.023,0.169,0.084c0,0.038-0.049,0.073-0.086,0.073c-0.072,0-0.229,0.014-0.351,0.024
			c-0.314,0.061-0.377,0.219-0.4,0.582c-0.012,0.327-0.012,0.618-0.012,2.219v1.844H256.402z"/>
		<path d="M263.346,34.083c0.133-0.341,0.184-0.4,0.256-0.4c0.107,0,0.146,0.146,0.254,0.377c0.193,0.438,1.902,4.691,2.558,6.258
			c0.39,0.92,0.68,1.054,0.91,1.125c0.157,0.051,0.315,0.063,0.424,0.063c0.062,0,0.134,0.023,0.134,0.085s-0.122,0.086-0.242,0.086
			c-0.156,0-0.945,0-1.686-0.024c-0.206-0.014-0.375-0.014-0.375-0.072c0-0.048,0.023-0.048,0.072-0.072
			c0.06-0.023,0.17-0.109,0.097-0.279l-0.958-2.363c-0.023-0.049-0.036-0.061-0.098-0.061h-2.461c-0.049,0-0.084,0.024-0.107,0.086
			l-0.607,1.648c-0.097,0.254-0.156,0.509-0.156,0.689c0,0.207,0.181,0.278,0.363,0.278h0.096c0.086,0,0.109,0.037,0.109,0.086
			c0,0.06-0.061,0.085-0.156,0.085c-0.258,0-0.838-0.037-0.959-0.037c-0.109,0-0.643,0.037-1.078,0.037
			c-0.133,0-0.207-0.023-0.207-0.085c0-0.049,0.05-0.086,0.098-0.086c0.072,0,0.229-0.012,0.314-0.022
			c0.486-0.062,0.69-0.424,0.896-0.945L263.346,34.083z M264.535,38.375c0.048,0,0.048-0.024,0.035-0.073l-1.055-2.824
			c-0.062-0.158-0.121-0.158-0.183,0l-0.993,2.824c-0.014,0.049,0,0.073,0.035,0.073H264.535z"/>
		<path d="M270.533,38.679c0,0.993,0,1.807,0.049,2.229c0.037,0.305,0.085,0.497,0.413,0.547c0.146,0.024,0.387,0.049,0.483,0.049
			c0.073,0,0.086,0.05,0.086,0.085c0,0.049-0.049,0.086-0.17,0.086c-0.582,0-1.262-0.037-1.319-0.037
			c-0.05,0-0.788,0.037-1.104,0.037c-0.119,0-0.169-0.025-0.169-0.086c0-0.035,0.023-0.072,0.087-0.072
			c0.094,0,0.219-0.023,0.313-0.05c0.22-0.048,0.278-0.254,0.315-0.559c0.049-0.425,0.049-1.236,0.049-2.229v-4.328l-1.539,0.023
			c-0.668,0.014-0.922,0.085-1.08,0.327c-0.12,0.183-0.133,0.255-0.168,0.327c-0.023,0.084-0.062,0.097-0.109,0.097
			c-0.023,0-0.072-0.022-0.072-0.084c0-0.11,0.205-1.03,0.23-1.116c0.012-0.06,0.072-0.193,0.107-0.193
			c0.073,0,0.184,0.084,0.475,0.121c0.303,0.035,0.715,0.049,0.837,0.049h4.022c0.353,0,0.596-0.022,0.767-0.049
			c0.157-0.023,0.254-0.049,0.303-0.049c0.05,0,0.05,0.062,0.05,0.121c0,0.314-0.037,1.055-0.037,1.178
			c0,0.084-0.049,0.131-0.098,0.131s-0.072-0.035-0.084-0.182l-0.012-0.109c-0.037-0.314-0.268-0.545-1.287-0.568l-1.334-0.023v4.33
			h-0.004V38.679z"/>
		<path d="M276.264,38.679c0,0.993,0,1.807,0.049,2.229c0.037,0.305,0.072,0.497,0.388,0.547c0.159,0.024,0.389,0.049,0.487,0.049
			c0.059,0,0.084,0.05,0.084,0.085c0,0.049-0.049,0.086-0.17,0.086c-0.595,0-1.285-0.037-1.334-0.037
			c-0.061,0-0.729,0.037-1.055,0.037c-0.109,0-0.171-0.025-0.171-0.086c0-0.035,0.024-0.085,0.086-0.085
			c0.097,0,0.229-0.024,0.328-0.049c0.205-0.05,0.242-0.242,0.278-0.547c0.048-0.425,0.06-1.236,0.06-2.229V36.86
			c0-1.602,0-1.893-0.022-2.219c-0.023-0.352-0.109-0.511-0.34-0.559c-0.121-0.023-0.256-0.036-0.328-0.036
			c-0.05,0-0.084-0.049-0.084-0.087c0-0.059,0.049-0.084,0.168-0.084c0.353,0,1.021,0.023,1.078,0.023
			c0.051,0,0.741-0.023,1.067-0.023c0.121,0,0.171,0.023,0.171,0.084c0,0.038-0.051,0.087-0.087,0.087c-0.072,0-0.146,0-0.267,0.022
			c-0.291,0.062-0.353,0.207-0.377,0.57c-0.013,0.327-0.013,0.618-0.013,2.219L276.264,38.679L276.264,38.679z"/>
		<path d="M282.555,33.731c2.399,0,4.219,1.467,4.219,3.869c0,2.301-1.711,4.205-4.279,4.205c-2.922,0-4.171-2.193-4.171-4.05
			C278.323,36.097,279.607,33.731,282.555,33.731z M282.795,41.382c0.959,0,2.887-0.509,2.887-3.49c0-2.474-1.504-3.771-3.188-3.771
			c-1.782,0-3.068,1.115-3.068,3.357C279.426,39.877,280.869,41.382,282.795,41.382z"/>
		<path d="M289.145,40.267c0.024,0.85,0.121,1.104,0.414,1.176c0.191,0.051,0.437,0.062,0.531,0.062
			c0.049,0,0.085,0.036,0.085,0.085c0,0.061-0.073,0.085-0.192,0.085c-0.606,0-1.031-0.036-1.129-0.036s-0.547,0.036-1.029,0.036
			c-0.11,0-0.169-0.012-0.169-0.085c0-0.049,0.034-0.085,0.084-0.085c0.086,0,0.278-0.013,0.437-0.062
			c0.268-0.072,0.305-0.352,0.305-1.283v-5.904c0-0.413,0.062-0.521,0.146-0.521c0.122,0,0.304,0.205,0.413,0.314
			c0.169,0.17,1.721,1.818,3.371,3.516c1.055,1.093,2.193,2.316,2.521,2.655l-0.109-5.165c-0.012-0.668-0.073-0.896-0.399-0.957
			c-0.196-0.037-0.438-0.049-0.522-0.049c-0.071,0-0.086-0.063-0.086-0.097c0-0.062,0.086-0.072,0.207-0.072
			c0.484,0,0.994,0.022,1.115,0.022s0.475-0.022,0.909-0.022c0.11,0,0.194,0.013,0.194,0.072c0,0.034-0.049,0.097-0.121,0.097
			c-0.051,0-0.135,0-0.256,0.023c-0.352,0.072-0.375,0.279-0.375,0.896l-0.025,6.038c0,0.679-0.012,0.739-0.085,0.739
			c-0.106,0-0.218-0.085-0.812-0.631c-0.107-0.098-1.647-1.612-2.775-2.789c-1.236-1.299-2.438-2.559-2.764-2.924L289.145,40.267z"
			/>
		<path d="M297.589,41.526c-0.146-0.071-0.157-0.107-0.157-0.387c0-0.511,0.049-0.922,0.061-1.093c0-0.108,0.023-0.169,0.085-0.169
			s0.098,0.036,0.098,0.122c0,0.084,0,0.229,0.035,0.375c0.171,0.752,0.972,1.021,1.687,1.021c1.055,0,1.602-0.596,1.602-1.371
			c0-0.739-0.4-1.092-1.346-1.795l-0.485-0.362c-1.153-0.86-1.528-1.491-1.528-2.206c0-1.213,0.957-1.939,2.363-1.939
			c0.424,0,0.85,0.061,1.104,0.12c0.205,0.05,0.291,0.05,0.377,0.05s0.106,0.012,0.106,0.072c0,0.049-0.047,0.387-0.047,1.092
			c0,0.157-0.013,0.23-0.086,0.23s-0.085-0.051-0.097-0.135c-0.012-0.119-0.098-0.398-0.157-0.508
			c-0.072-0.123-0.425-0.51-1.384-0.51c-0.775,0-1.418,0.387-1.418,1.115c0,0.654,0.326,1.029,1.382,1.746l0.305,0.205
			c1.296,0.885,1.746,1.602,1.746,2.486c0,0.604-0.229,1.26-0.994,1.756c-0.45,0.293-1.116,0.365-1.696,0.365
			C298.645,41.808,298.025,41.733,297.589,41.526z"/>
		<path d="M306.896,39.163c0-1.419,0.909-2.364,1.855-2.922c-0.45-0.631-0.595-1.129-0.595-1.674c0-0.959,0.98-2.231,2.605-2.231
			c0.619,0,1.141,0.122,1.466,0.304c0.146,0.086,0.159,0.157,0.159,0.305c0,0.363-0.048,1.212-0.085,1.395
			c-0.037,0.182-0.074,0.206-0.122,0.206c-0.061,0-0.071-0.049-0.071-0.231c0-0.313-0.073-0.715-0.377-1.029
			c-0.269-0.278-0.679-0.533-1.213-0.533c-0.728,0-1.54,0.449-1.54,1.589c0,0.946,0.655,1.733,1.917,3.104
			c0.412,0.449,1.903,1.843,2.29,2.171c0.341-0.46,0.619-1.274,0.619-2.013c0-0.183-0.049-0.414-0.229-0.596
			c-0.159-0.158-0.415-0.193-0.597-0.193c-0.071,0-0.146-0.024-0.146-0.084c0-0.063,0.097-0.088,0.194-0.088
			c0.291,0,0.773,0.015,1.454,0.088c0.183,0.021,0.22,0.119,0.22,0.24c0,0.982-0.668,2.206-1.2,2.862
			c0.8,0.678,1.332,1.006,1.672,1.2c0.389,0.229,1.006,0.473,1.444,0.473c0.106,0,0.169,0.014,0.169,0.085
			c0,0.05-0.097,0.085-0.207,0.085h-1.188c-0.896,0-1.188-0.085-2.521-1.139c-0.278,0.277-1.237,1.311-3.03,1.311
			C307.721,41.843,306.896,40.218,306.896,39.163z M312.559,40.304c-0.68-0.56-1.881-1.71-2.193-2.049
			c-0.315-0.34-1.092-1.201-1.433-1.697c-0.631,0.412-1.09,1.065-1.09,2.036c0,1.517,1.064,2.607,2.424,2.607
			C311.395,41.201,312.145,40.728,312.559,40.304z"/>
		<path d="M321.171,36.022c0-1.893,0-2.23-0.023-2.619c-0.023-0.411-0.121-0.606-0.521-0.69c-0.097-0.022-0.303-0.036-0.413-0.036
			c-0.049,0-0.097-0.023-0.097-0.072c0-0.072,0.062-0.098,0.194-0.098c0.547,0,1.311,0.037,1.371,0.037
			c0.146,0,0.907-0.037,1.637-0.037c1.199,0,3.419-0.107,4.861,1.383c0.605,0.631,1.176,1.637,1.176,3.08
			c0,1.528-0.632,2.703-1.312,3.42c-0.521,0.545-1.612,1.394-3.673,1.394c-0.521,0-1.163-0.037-1.687-0.072
			c-0.532-0.037-0.944-0.073-1.004-0.073c-0.024,0-0.231,0-0.486,0.014c-0.242,0-0.521,0.022-0.703,0.022
			c-0.134,0-0.194-0.022-0.194-0.097c0-0.036,0.023-0.072,0.096-0.072c0.11,0,0.257-0.023,0.365-0.049
			c0.242-0.05,0.303-0.314,0.352-0.667c0.061-0.509,0.061-1.468,0.061-2.632L321.171,36.022L321.171,36.022L321.171,36.022z
			 M322.191,37.332c0,1.285,0.012,2.399,0.022,2.632c0.012,0.303,0.035,0.787,0.134,0.921c0.157,0.23,0.629,0.484,2.062,0.484
			c1.127,0,2.169-0.411,2.886-1.128c0.63-0.617,0.969-1.782,0.969-2.898c0-1.537-0.666-2.533-1.163-3.054
			c-1.14-1.201-2.521-1.37-3.965-1.37c-0.243,0-0.69,0.036-0.787,0.085c-0.109,0.05-0.146,0.108-0.146,0.242
			c-0.012,0.413-0.012,1.649-0.012,2.582L322.191,37.332L322.191,37.332z"/>
		<path d="M331.568,36.858c0-1.601,0-1.892-0.023-2.217c-0.023-0.353-0.085-0.522-0.437-0.57c-0.084-0.014-0.268-0.023-0.363-0.023
			c-0.037,0-0.086-0.05-0.086-0.086c0-0.061,0.049-0.084,0.169-0.084c0.486,0,1.177,0.023,1.237,0.023c0.071,0,2.305,0.012,2.546,0
			c0.206-0.014,0.399-0.049,0.484-0.062c0.049-0.013,0.098-0.049,0.146-0.049c0.035,0,0.049,0.049,0.049,0.097
			c0,0.071-0.062,0.194-0.086,0.485c-0.012,0.097-0.036,0.56-0.061,0.679c-0.014,0.049-0.049,0.108-0.097,0.108
			c-0.061,0-0.084-0.048-0.084-0.132c0-0.073-0.014-0.242-0.061-0.365c-0.073-0.168-0.184-0.242-0.766-0.314
			c-0.183-0.022-1.418-0.035-1.54-0.035c-0.049,0-0.06,0.035-0.06,0.107v2.803c0,0.071,0,0.107,0.06,0.107
			c0.135,0,1.54,0,1.783-0.023c0.254-0.022,0.413-0.035,0.521-0.146c0.071-0.072,0.12-0.133,0.157-0.133
			c0.036,0,0.061,0.023,0.061,0.086c0,0.062-0.061,0.229-0.085,0.568c-0.023,0.207-0.049,0.596-0.049,0.668
			c0,0.084-0.023,0.193-0.098,0.193c-0.049,0-0.071-0.036-0.071-0.097c0-0.097,0-0.205-0.05-0.341
			c-0.037-0.146-0.134-0.268-0.546-0.313c-0.291-0.037-1.431-0.05-1.61-0.05c-0.062,0-0.073,0.038-0.073,0.072v0.86
			c0,0.353-0.013,1.552,0,1.759c0.021,0.69,0.219,0.823,1.272,0.823c0.279,0,0.788,0,1.065-0.108
			c0.278-0.121,0.424-0.303,0.486-0.715c0.022-0.121,0.048-0.158,0.107-0.158c0.061,0,0.072,0.086,0.072,0.158
			s-0.084,0.775-0.146,0.994c-0.071,0.268-0.181,0.268-0.595,0.268c-0.8,0-1.418-0.023-1.854-0.036
			c-0.448-0.025-0.728-0.025-0.887-0.025c-0.021,0-0.229,0-0.46,0.013c-0.206,0.014-0.447,0.025-0.616,0.025
			c-0.109,0-0.172-0.025-0.172-0.086c0-0.036,0.024-0.085,0.086-0.085c0.098,0,0.23-0.037,0.327-0.049
			c0.206-0.036,0.231-0.242,0.278-0.547c0.063-0.425,0.063-1.236,0.063-2.229v-1.818H331.568L331.568,36.858z"/>
		<path d="M340.56,40.327c0.618-1.383,2.015-4.896,2.243-5.639c0.049-0.156,0.098-0.305,0.098-0.389
			c0-0.083-0.036-0.182-0.146-0.218c-0.122-0.036-0.242-0.036-0.363-0.036c-0.062,0-0.122-0.036-0.122-0.087
			c0-0.06,0.072-0.084,0.242-0.084c0.424,0,0.909,0.024,1.043,0.024c0.062,0,0.521-0.024,0.837-0.024
			c0.107,0,0.169,0.024,0.169,0.071c0,0.051-0.035,0.099-0.119,0.099c-0.073,0-0.316,0-0.512,0.121
			c-0.146,0.097-0.313,0.242-0.595,0.946c-0.12,0.291-0.643,1.527-1.188,2.789c-0.655,1.502-1.128,2.617-1.371,3.127
			c-0.29,0.619-0.353,0.775-0.459,0.775c-0.122,0-0.195-0.133-0.401-0.632l-2.618-6.315c-0.242-0.584-0.388-0.69-0.739-0.775
			c-0.171-0.036-0.352-0.036-0.411-0.036c-0.061,0-0.087-0.062-0.087-0.099c0-0.061,0.109-0.071,0.278-0.071
			c0.509,0,1.116,0.024,1.25,0.024c0.107,0,0.581-0.024,0.993-0.024c0.193,0,0.291,0.024,0.291,0.071
			c0,0.051-0.037,0.099-0.109,0.099c-0.122,0-0.291,0.013-0.388,0.048c-0.109,0.049-0.121,0.11-0.121,0.184
			c0,0.133,0.133,0.449,0.29,0.859L340.56,40.327z"/>
		<path d="M345.83,36.858c0-1.601,0-1.892-0.024-2.217c-0.022-0.353-0.084-0.522-0.436-0.57c-0.085-0.014-0.269-0.023-0.363-0.023
			c-0.037,0-0.087-0.05-0.087-0.086c0-0.061,0.05-0.084,0.171-0.084c0.485,0,1.175,0.023,1.236,0.023c0.072,0,2.304,0.012,2.546,0
			c0.206-0.014,0.4-0.049,0.485-0.062c0.049-0.013,0.098-0.049,0.145-0.049c0.038,0,0.05,0.049,0.05,0.097
			c0,0.071-0.06,0.194-0.085,0.485c-0.012,0.097-0.037,0.56-0.061,0.679c-0.013,0.049-0.05,0.108-0.098,0.108
			c-0.061,0-0.084-0.048-0.084-0.132c0-0.073-0.014-0.242-0.062-0.365c-0.072-0.168-0.182-0.242-0.764-0.314
			c-0.184-0.022-1.42-0.035-1.539-0.035c-0.051,0-0.062,0.035-0.062,0.107v2.803c0,0.071,0,0.107,0.062,0.107
			c0.132,0,1.539,0,1.781-0.023c0.254-0.022,0.412-0.035,0.522-0.146c0.072-0.072,0.12-0.133,0.157-0.133
			c0.035,0,0.061,0.023,0.061,0.086c0,0.062-0.061,0.229-0.086,0.568c-0.023,0.207-0.049,0.596-0.049,0.668
			c0,0.084-0.023,0.193-0.097,0.193c-0.05,0-0.072-0.036-0.072-0.097c0-0.097,0-0.205-0.05-0.341
			c-0.035-0.146-0.134-0.268-0.544-0.313c-0.292-0.037-1.433-0.05-1.612-0.05c-0.063,0-0.073,0.038-0.073,0.072v0.86
			c0,0.353-0.014,1.552,0,1.759c0.023,0.69,0.218,0.823,1.273,0.823c0.277,0,0.787,0,1.065-0.108
			c0.279-0.121,0.424-0.303,0.485-0.715c0.022-0.121,0.049-0.158,0.108-0.158c0.061,0,0.071,0.086,0.071,0.158
			s-0.085,0.775-0.146,0.994c-0.072,0.268-0.182,0.268-0.593,0.268c-0.803,0-1.422-0.023-1.856-0.036
			c-0.448-0.025-0.728-0.025-0.885-0.025c-0.023,0-0.231,0-0.461,0.013c-0.206,0.014-0.448,0.025-0.617,0.025
			c-0.11,0-0.171-0.025-0.171-0.086c0-0.036,0.024-0.085,0.086-0.085c0.097,0,0.229-0.037,0.328-0.049
			c0.205-0.036,0.229-0.242,0.276-0.547c0.062-0.425,0.062-1.236,0.062-2.229L345.83,36.858L345.83,36.858z"/>
		<path d="M353.174,38.702c0,1.516,0.022,2.134,0.219,2.316c0.17,0.168,0.581,0.24,1.418,0.24c0.559,0,1.029-0.012,1.285-0.314
			c0.132-0.156,0.219-0.375,0.255-0.582c0.013-0.071,0.049-0.133,0.108-0.133c0.049,0,0.072,0.049,0.072,0.158
			s-0.072,0.728-0.157,1.03c-0.072,0.242-0.109,0.278-0.679,0.278c-0.764,0-1.358-0.014-1.855-0.036
			c-0.483-0.013-0.849-0.024-1.164-0.024c-0.049,0-0.229,0-0.437,0.014c-0.218,0.013-0.449,0.022-0.618,0.022
			c-0.108,0-0.17-0.022-0.17-0.085c0-0.036,0.023-0.085,0.085-0.085c0.097,0,0.23-0.022,0.328-0.048
			c0.204-0.051,0.229-0.244,0.277-0.547c0.061-0.424,0.061-1.237,0.061-2.231v-1.817c0-1.603,0-1.894-0.023-2.219
			c-0.022-0.352-0.085-0.521-0.437-0.57c-0.084-0.012-0.268-0.022-0.363-0.022c-0.037,0-0.086-0.049-0.086-0.087
			c0-0.059,0.049-0.084,0.169-0.084c0.486,0,1.152,0.023,1.214,0.023c0.047,0,0.847-0.023,1.175-0.023
			c0.109,0,0.169,0.023,0.169,0.084c0,0.038-0.049,0.073-0.085,0.073c-0.071,0-0.23,0.014-0.352,0.024
			c-0.314,0.061-0.375,0.219-0.4,0.582c-0.012,0.327-0.012,0.618-0.012,2.219v1.844H353.174z"/>
		<path d="M361.137,33.731c2.4,0,4.221,1.467,4.221,3.869c0,2.301-1.711,4.205-4.28,4.205c-2.922,0-4.171-2.193-4.171-4.05
			C356.906,36.097,358.191,33.731,361.137,33.731z M361.379,41.382c0.958,0,2.886-0.509,2.886-3.49c0-2.474-1.503-3.771-3.188-3.771
			c-1.784,0-3.068,1.115-3.068,3.357C358.009,39.877,359.452,41.382,361.379,41.382z"/>
		<path d="M367.279,36.858c0-1.601,0-1.892-0.023-2.217c-0.024-0.353-0.086-0.522-0.438-0.57c-0.085-0.014-0.267-0.023-0.364-0.023
			c-0.035,0-0.084-0.05-0.084-0.086c0-0.061,0.049-0.084,0.169-0.084c0.485,0,1.151,0.023,1.237,0.023
			c0.229,0,1.028-0.023,1.515-0.023c1.371,0,1.855,0.423,2.037,0.581c0.243,0.218,0.534,0.681,0.534,1.237
			c0,1.479-1.115,2.461-2.752,2.461c-0.062,0-0.243,0-0.306-0.014c-0.049,0-0.108-0.047-0.108-0.097
			c0-0.084,0.061-0.108,0.277-0.108c1.153,0,1.978-0.728,1.978-1.66c0-0.34-0.035-1.006-0.605-1.563
			c-0.56-0.56-1.2-0.497-1.442-0.497c-0.182,0-0.485,0.049-0.595,0.072c-0.061,0.012-0.086,0.085-0.086,0.193v4.195
			c0,0.993,0,1.807,0.049,2.23c0.037,0.304,0.098,0.496,0.426,0.546c0.146,0.022,0.375,0.049,0.473,0.049
			c0.063,0,0.085,0.05,0.085,0.085c0,0.049-0.049,0.085-0.169,0.085c-0.582,0-1.285-0.036-1.334-0.036
			c-0.035,0-0.727,0.036-1.055,0.036c-0.108,0-0.169-0.024-0.169-0.085c0-0.035,0.022-0.085,0.084-0.085
			c0.097,0,0.23-0.024,0.327-0.049c0.205-0.05,0.23-0.242,0.279-0.546c0.06-0.424,0.06-1.237,0.06-2.23L367.279,36.858
			L367.279,36.858z"/>
		<path d="M382.068,40.353c0.034,0.362,0.107,0.92,0.544,1.064c0.305,0.098,0.584,0.098,0.69,0.098c0.05,0,0.087,0.023,0.087,0.072
			c0,0.061-0.097,0.098-0.22,0.098c-0.242,0-1.429-0.014-1.816-0.049c-0.257-0.023-0.306-0.062-0.306-0.109
			c0-0.035,0.023-0.072,0.072-0.086c0.062-0.012,0.073-0.168,0.05-0.362l-0.509-5.237h-0.025l-2.569,5.262
			c-0.219,0.448-0.278,0.545-0.377,0.545c-0.097,0-0.157-0.097-0.363-0.473c-0.277-0.511-0.982-1.831-1.247-2.389
			c-0.316-0.654-1.177-2.389-1.358-2.813h-0.049l-0.414,4.654c-0.012,0.158-0.012,0.352-0.012,0.521
			c0,0.158,0.098,0.254,0.255,0.291c0.182,0.05,0.34,0.06,0.413,0.06c0.037,0,0.084,0.037,0.084,0.074
			c0,0.071-0.072,0.097-0.194,0.097c-0.397,0-0.909-0.037-0.992-0.037c-0.098,0-0.605,0.037-0.896,0.037
			c-0.11,0-0.183-0.023-0.183-0.097c0-0.037,0.049-0.074,0.108-0.074c0.085,0,0.157-0.013,0.314-0.035
			c0.353-0.062,0.363-0.437,0.413-0.823l0.774-6.729c0.013-0.108,0.063-0.183,0.122-0.183c0.073,0,0.159,0.037,0.218,0.158
			l3.227,6.401l3.104-6.39c0.049-0.098,0.097-0.17,0.169-0.17s0.135,0.086,0.159,0.278L382.068,40.353z"/>
		<path d="M384.97,36.858c0-1.601,0-1.892-0.022-2.217c-0.023-0.353-0.086-0.522-0.438-0.57c-0.086-0.014-0.267-0.023-0.363-0.023
			c-0.036,0-0.086-0.05-0.086-0.086c0-0.061,0.05-0.084,0.17-0.084c0.484,0,1.177,0.023,1.236,0.023c0.073,0,2.305,0.012,2.546,0
			c0.205-0.014,0.401-0.049,0.485-0.062c0.049-0.013,0.097-0.049,0.146-0.049c0.035,0,0.05,0.049,0.05,0.097
			c0,0.071-0.062,0.194-0.086,0.485c-0.013,0.097-0.036,0.56-0.061,0.679c-0.014,0.049-0.049,0.108-0.096,0.108
			c-0.063,0-0.085-0.048-0.085-0.132c0-0.073-0.015-0.242-0.062-0.365c-0.072-0.168-0.183-0.242-0.765-0.314
			c-0.183-0.022-1.42-0.035-1.54-0.035c-0.049,0-0.062,0.035-0.062,0.107v2.803c0,0.071,0,0.107,0.062,0.107
			c0.134,0,1.54,0,1.782-0.023c0.255-0.022,0.414-0.035,0.521-0.146c0.072-0.072,0.121-0.133,0.157-0.133
			c0.037,0,0.061,0.023,0.061,0.086c0,0.062-0.061,0.229-0.085,0.568c-0.022,0.207-0.049,0.596-0.049,0.668
			c0,0.084-0.022,0.193-0.096,0.193c-0.05,0-0.075-0.036-0.075-0.097c0-0.097,0-0.205-0.047-0.341
			c-0.037-0.146-0.134-0.268-0.546-0.313c-0.291-0.037-1.431-0.05-1.613-0.05c-0.059,0-0.071,0.038-0.071,0.072v0.86
			c0,0.353-0.013,1.552,0,1.759c0.022,0.69,0.218,0.823,1.273,0.823c0.277,0,0.786,0,1.065-0.108
			c0.277-0.121,0.424-0.303,0.485-0.715c0.024-0.121,0.048-0.158,0.108-0.158c0.06,0,0.073,0.086,0.073,0.158
			s-0.085,0.775-0.146,0.994c-0.073,0.268-0.182,0.268-0.596,0.268c-0.8,0-1.418-0.023-1.854-0.036
			c-0.448-0.025-0.727-0.025-0.886-0.025c-0.023,0-0.229,0-0.46,0.013c-0.206,0.014-0.447,0.025-0.618,0.025
			c-0.107,0-0.169-0.025-0.169-0.086c0-0.036,0.023-0.085,0.084-0.085c0.1,0,0.231-0.037,0.328-0.049
			c0.206-0.036,0.229-0.242,0.279-0.547c0.059-0.425,0.059-1.236,0.059-2.229v-1.818H384.97z"/>
		<path d="M391.793,40.267c0.023,0.85,0.12,1.104,0.412,1.176c0.193,0.051,0.437,0.062,0.533,0.062c0.049,0,0.084,0.036,0.084,0.085
			c0,0.061-0.072,0.085-0.192,0.085c-0.606,0-1.031-0.036-1.129-0.036c-0.097,0-0.547,0.036-1.03,0.036
			c-0.108,0-0.169-0.012-0.169-0.085c0-0.049,0.036-0.085,0.085-0.085c0.086,0,0.278-0.013,0.437-0.062
			c0.268-0.072,0.305-0.352,0.305-1.283v-5.904c0-0.413,0.062-0.521,0.146-0.521c0.12,0,0.304,0.205,0.411,0.314
			c0.17,0.17,1.722,1.818,3.371,3.516c1.056,1.093,2.194,2.316,2.522,2.655l-0.11-5.165c-0.012-0.668-0.071-0.896-0.397-0.957
			c-0.196-0.037-0.438-0.049-0.522-0.049c-0.073,0-0.086-0.063-0.086-0.097c0-0.062,0.086-0.072,0.206-0.072
			c0.485,0,0.994,0.022,1.115,0.022c0.122,0,0.474-0.022,0.91-0.022c0.108,0,0.193,0.013,0.193,0.072
			c0,0.034-0.049,0.097-0.122,0.097c-0.049,0-0.134,0-0.255,0.023c-0.352,0.072-0.376,0.279-0.376,0.896l-0.022,6.038
			c0,0.679-0.015,0.739-0.086,0.739c-0.108,0-0.219-0.085-0.813-0.631c-0.108-0.098-1.647-1.612-2.776-2.789
			c-1.236-1.299-2.438-2.559-2.764-2.924L391.793,40.267z"/>
		<path d="M403.463,38.679c0,0.993,0,1.807,0.049,2.229c0.037,0.305,0.085,0.497,0.412,0.547c0.146,0.024,0.389,0.049,0.485,0.049
			c0.073,0,0.085,0.05,0.085,0.085c0,0.049-0.049,0.086-0.169,0.086c-0.582,0-1.263-0.037-1.322-0.037
			c-0.047,0-0.786,0.037-1.103,0.037c-0.12,0-0.169-0.025-0.169-0.086c0-0.035,0.022-0.072,0.087-0.072
			c0.094,0,0.218-0.023,0.313-0.05c0.22-0.048,0.278-0.254,0.315-0.559c0.05-0.425,0.05-1.236,0.05-2.229v-4.328l-1.54,0.023
			c-0.668,0.014-0.922,0.085-1.079,0.327c-0.121,0.183-0.134,0.255-0.169,0.327c-0.025,0.084-0.062,0.097-0.109,0.097
			c-0.023,0-0.072-0.022-0.072-0.084c0-0.11,0.206-1.03,0.229-1.116c0.013-0.06,0.072-0.193,0.109-0.193
			c0.071,0,0.181,0.084,0.474,0.121c0.303,0.035,0.715,0.049,0.837,0.049h4.023c0.352,0,0.595-0.022,0.766-0.049
			c0.157-0.023,0.254-0.049,0.303-0.049c0.05,0,0.05,0.062,0.05,0.121c0,0.314-0.037,1.055-0.037,1.178
			c0,0.084-0.048,0.131-0.098,0.131c-0.049,0-0.071-0.035-0.084-0.182l-0.012-0.109c-0.038-0.314-0.268-0.545-1.287-0.568
			l-1.334-0.023v4.33h-0.003V38.679z"/>
	</g>
</g>
</svg>
