<?xml version="1.0" encoding="utf-8"?>
<!-- Generator: Adobe Illustrator 16.0.0, SVG Export Plug-In . SVG Version: 6.00 Build 0)  -->
<!DOCTYPE svg PUBLIC "-//W3C//DTD SVG 1.1//EN" "http://www.w3.org/Graphics/SVG/1.1/DTD/svg11.dtd">
<svg version="1.1" id="Layer_1" xmlns="http://www.w3.org/2000/svg" xmlns:xlink="http://www.w3.org/1999/xlink" x="0px" y="0px"
	 width="199.5px" height="111.5px" viewBox="0 0 199.5 111.5" enable-background="new 0 0 199.5 111.5" xml:space="preserve">
<g>
	<g>
		<path d="M31.592,69.913c0,3.771,0.102,5.415,0.563,5.877c0.412,0.409,1.078,0.591,3.081,0.591c1.361,0,2.49-0.028,3.104-0.77
			c0.334-0.41,0.59-1.054,0.668-1.541c0.026-0.204,0.077-0.334,0.229-0.334c0.128,0,0.154,0.104,0.154,0.384
			c0,0.283-0.178,1.823-0.383,2.567c-0.181,0.593-0.257,0.692-1.616,0.692c-3.697,0-5.39-0.152-6.88-0.152
			c-0.231,0-1.744,0.079-2.514,0.079c-0.284,0-0.411-0.054-0.411-0.208c0-0.076,0.051-0.154,0.205-0.154
			c0.231,0,0.538-0.051,0.771-0.104c0.513-0.102,0.642-0.667,0.745-1.412c0.127-1.077,0.127-3.104,0.127-5.566v-4.518
			c0-4.004,0-4.724-0.052-5.544c-0.051-0.873-0.256-1.283-1.103-1.463c-0.207-0.051-0.642-0.077-0.872-0.077
			c-0.104,0-0.207-0.051-0.207-0.153c0-0.154,0.129-0.205,0.411-0.205c1.155,0,2.771,0.078,2.899,0.078
			c0.129,0,2.002-0.078,2.773-0.078c0.281,0,0.409,0.051,0.409,0.205c0,0.103-0.102,0.153-0.205,0.153
			c-0.18,0-0.539,0.026-0.846,0.077c-0.745,0.128-0.951,0.565-1.003,1.463c-0.05,0.82-0.05,1.54-0.05,5.544V69.913z"/>
		<path d="M44.809,70.312c-0.062,0-0.103-0.041-0.062-0.144l1.807-5.544c0.103-0.309,0.206-0.309,0.308,0l1.951,5.544
			c0.021,0.082,0.021,0.144-0.082,0.144H44.809z M41.933,74.849c-0.369,1.028-0.78,1.808-1.724,1.931
			c-0.165,0.022-0.452,0.043-0.595,0.043c-0.104,0-0.185,0.039-0.185,0.122c0,0.123,0.122,0.166,0.39,0.166
			c0.965,0,2.095-0.062,2.321-0.062c0.225,0,1.109,0.062,1.603,0.062c0.184,0,0.307-0.043,0.307-0.166
			c0-0.083-0.06-0.122-0.205-0.122h-0.204c-0.351,0-0.782-0.185-0.782-0.596c0-0.369,0.102-0.862,0.288-1.378l1.232-3.636
			c0.041-0.1,0.103-0.161,0.205-0.161h4.415c0.103,0,0.144,0.039,0.184,0.123l1.912,5.052c0.123,0.33,0,0.513-0.124,0.553
			c-0.082,0.022-0.144,0.062-0.144,0.144c0,0.126,0.227,0.126,0.618,0.145c1.416,0.043,2.916,0.043,3.224,0.043
			c0.226,0,0.412-0.043,0.412-0.166c0-0.104-0.084-0.122-0.206-0.122c-0.206,0-0.514-0.021-0.822-0.122
			c-0.432-0.125-1.026-0.453-1.768-2.282c-1.251-3.122-4.476-11.603-4.784-12.384c-0.246-0.635-0.329-0.738-0.452-0.738
			c-0.123,0-0.205,0.122-0.451,0.8L41.933,74.849z"/>
		<path d="M67.541,74.276h0.083c0.554-1.89,2.443-7.847,3.162-10.475c0.205-0.759,0.225-1.048,0.225-1.314
			c0-0.37-0.225-0.616-1.169-0.616c-0.103,0-0.186-0.062-0.186-0.145c0-0.104,0.104-0.145,0.349-0.145
			c1.049,0,1.911,0.063,2.096,0.063c0.143,0,1.026-0.063,1.664-0.063c0.185,0,0.287,0.041,0.287,0.127
			c0,0.101-0.063,0.162-0.185,0.162c-0.082,0-0.473,0.021-0.699,0.104c-0.615,0.225-0.944,1.084-1.335,2.215
			c-0.903,2.61-2.978,9.141-3.778,11.44c-0.533,1.519-0.635,1.766-0.862,1.766c-0.205,0-0.33-0.266-0.617-1.067L62.55,64.908h-0.041
			c-0.739,1.975-3.553,9.493-4.292,11.401c-0.329,0.861-0.431,1.087-0.678,1.087c-0.206,0-0.308-0.226-0.718-1.623l-3.656-12.178
			c-0.328-1.089-0.595-1.396-1.129-1.602c-0.268-0.103-0.781-0.123-0.924-0.123c-0.102,0-0.185-0.021-0.185-0.145
			c0-0.104,0.124-0.145,0.328-0.145c1.068,0,2.199,0.063,2.425,0.063c0.184,0,1.087-0.063,2.115-0.063
			c0.286,0,0.369,0.063,0.369,0.145c0,0.123-0.103,0.145-0.206,0.145c-0.163,0-0.554,0-0.8,0.123
			c-0.124,0.063-0.268,0.227-0.268,0.493s0.184,0.986,0.39,1.89c0.309,1.314,2.445,8.851,2.753,9.938h0.041l4.354-11.705
			c0.309-0.843,0.391-0.945,0.514-0.945c0.144,0,0.268,0.267,0.514,0.965L67.541,74.276z"/>
		<path d="M83.143,76.971c-0.359-0.18-0.383-0.283-0.383-0.977c0-1.281,0.102-2.31,0.127-2.72c0.027-0.28,0.078-0.41,0.205-0.41
			c0.156,0,0.182,0.075,0.182,0.283c0,0.23,0,0.589,0.076,0.948c0.387,1.898,2.078,2.618,3.801,2.618
			c2.463,0,3.666-1.77,3.666-3.414c0-1.769-0.744-2.797-2.949-4.619l-1.154-0.949c-2.721-2.233-3.338-3.824-3.338-5.568
			c0-2.747,2.053-4.62,5.313-4.62c1.002,0,1.746,0.102,2.389,0.257c0.486,0.103,0.691,0.127,0.896,0.127s0.258,0.051,0.258,0.181
			c0,0.127-0.104,0.975-0.104,2.721c0,0.408-0.049,0.59-0.18,0.59c-0.152,0-0.18-0.127-0.205-0.334c-0.025-0.308-0.18-1-0.334-1.283
			c-0.154-0.281-0.848-1.361-3.209-1.361c-1.77,0-3.154,1.105-3.154,2.979c0,1.461,0.715,2.335,3.129,4.313l0.719,0.563
			c3.029,2.387,3.748,3.977,3.748,6.03c0,1.054-0.41,3.004-2.182,4.262c-1.104,0.769-2.492,1.077-3.875,1.077
			C85.377,77.663,84.195,77.484,83.143,76.971z"/>
		<path d="M96.492,75.179c-1.99-1.786-2.482-4.127-2.482-6.079c0-1.376,0.473-3.777,2.301-5.607c1.23-1.231,3.1-2.196,6.264-2.196
			c0.82,0,1.973,0.06,2.979,0.247c0.779,0.143,1.436,0.267,2.094,0.307c0.225,0.021,0.268,0.104,0.268,0.226
			c0,0.166-0.064,0.412-0.104,1.151c-0.043,0.679-0.043,1.809-0.061,2.116c-0.021,0.307-0.063,0.433-0.188,0.433
			c-0.141,0-0.162-0.146-0.162-0.433c0-0.801-0.33-1.642-0.863-2.096c-0.719-0.617-2.299-1.172-4.107-1.172
			c-2.732,0-4.006,0.803-4.725,1.5c-1.498,1.438-1.846,3.266-1.846,5.359c0,3.924,3.016,7.518,7.414,7.518
			c1.541,0,2.748-0.186,3.568-1.025c0.434-0.452,0.699-1.356,0.764-1.726c0.041-0.227,0.082-0.309,0.205-0.309
			c0.104,0,0.143,0.144,0.143,0.309c0,0.143-0.246,1.93-0.453,2.628c-0.123,0.387-0.162,0.431-0.533,0.594
			c-0.822,0.33-2.381,0.474-3.693,0.474C100.193,77.396,98.115,76.638,96.492,75.179z"/>
		<path d="M124.145,71.152c0,1.973,0,3.597,0.104,4.459c0.061,0.596,0.184,1.045,0.801,1.128c0.289,0.04,0.738,0.083,0.926,0.083
			c0.121,0,0.164,0.061,0.164,0.122c0,0.104-0.104,0.166-0.328,0.166c-1.129,0-2.426-0.062-2.525-0.062
			c-0.104,0-1.398,0.062-2.012,0.062c-0.227,0-0.332-0.043-0.332-0.166c0-0.062,0.043-0.122,0.164-0.122
			c0.186,0,0.434-0.043,0.617-0.083c0.412-0.083,0.514-0.532,0.596-1.128c0.104-0.862,0.104-2.486,0.104-4.459v-2.156
			c0-0.08-0.063-0.121-0.123-0.121h-8.709c-0.063,0-0.123,0.021-0.123,0.121v2.156c0,1.973,0,3.597,0.102,4.459
			c0.063,0.596,0.186,1.045,0.803,1.128c0.285,0.04,0.738,0.083,0.926,0.083c0.123,0,0.162,0.061,0.162,0.122
			c0,0.104-0.102,0.166-0.328,0.166c-1.131,0-2.424-0.062-2.527-0.062c-0.102,0-1.396,0.062-2.01,0.062
			c-0.227,0-0.33-0.043-0.33-0.166c0-0.062,0.039-0.122,0.164-0.122c0.184,0,0.43-0.043,0.617-0.083
			c0.412-0.083,0.512-0.532,0.594-1.128c0.102-0.862,0.102-2.486,0.102-4.459v-3.611c0-3.205,0-3.78-0.041-4.438
			c-0.041-0.697-0.203-1.027-0.883-1.171c-0.162-0.04-0.514-0.061-0.697-0.061c-0.08,0-0.164-0.04-0.164-0.123
			c0-0.125,0.102-0.166,0.328-0.166c0.924,0,2.219,0.063,2.32,0.063c0.104,0,1.396-0.063,2.014-0.063c0.227,0,0.33,0.041,0.33,0.166
			c0,0.083-0.086,0.123-0.168,0.123c-0.139,0-0.268,0.021-0.51,0.061c-0.555,0.103-0.719,0.453-0.762,1.171
			c-0.041,0.658-0.041,1.233-0.041,4.438v0.43c0,0.103,0.061,0.123,0.123,0.123h8.709c0.061,0,0.123-0.021,0.123-0.123v-0.43
			c0-3.205,0-3.78-0.045-4.438c-0.037-0.697-0.203-1.027-0.879-1.171c-0.166-0.04-0.514-0.061-0.701-0.061
			c-0.084,0-0.162-0.04-0.162-0.123c0-0.125,0.102-0.166,0.328-0.166c0.924,0,2.219,0.063,2.322,0.063
			c0.1,0,1.396-0.063,2.014-0.063c0.223,0,0.326,0.041,0.326,0.166c0,0.083-0.082,0.123-0.164,0.123
			c-0.145,0-0.266,0.021-0.516,0.061c-0.553,0.103-0.715,0.453-0.758,1.171c-0.043,0.658-0.043,1.233-0.043,4.438V71.152z"/>
		<path d="M128.842,68.75c0-4.497,2.566-6.756,5.998-6.756c3.246,0,6.246,2.649,6.246,7.577c0,5.979-3.824,7.046-5.67,7.046
			C131.719,76.617,128.842,73.536,128.842,68.75z M126.895,69.326c0,3.695,2.338,8.07,7.965,8.07c4.949,0,8.195-3.8,8.195-8.4
			c0-4.782-3.449-7.7-8.072-7.7C129.314,61.296,126.895,65.999,126.895,69.326z"/>
		<path d="M146.494,68.75c0-4.497,2.564-6.756,5.994-6.756c3.246,0,6.246,2.649,6.246,7.577c0,5.979-3.822,7.046-5.666,7.046
			C149.367,76.617,146.494,73.536,146.494,68.75z M144.543,69.326c0,3.695,2.342,8.07,7.969,8.07c4.947,0,8.191-3.8,8.191-8.4
			c0-4.782-3.451-7.7-8.07-7.7C146.965,61.296,144.543,65.999,144.543,69.326z"/>
		<path d="M165.072,71.196c0,3.017,0.082,4.33,0.451,4.701c0.33,0.329,0.863,0.473,2.465,0.473c1.088,0,1.994-0.019,2.484-0.616
			c0.268-0.327,0.475-0.842,0.535-1.233c0.021-0.162,0.063-0.265,0.184-0.265c0.105,0,0.125,0.083,0.125,0.307
			c0,0.227-0.145,1.459-0.309,2.055c-0.145,0.472-0.205,0.554-1.293,0.554c-2.957,0-4.313-0.122-5.502-0.122
			c-0.086,0-0.432,0.019-0.846,0.019c-0.412,0.021-0.861,0.043-1.172,0.043c-0.223,0-0.326-0.043-0.326-0.166
			c0-0.062,0.041-0.122,0.166-0.122c0.182,0,0.428-0.043,0.615-0.083c0.41-0.083,0.514-0.532,0.596-1.128
			c0.102-0.862,0.102-2.486,0.102-4.459v-3.611c0-3.205,0-3.78-0.043-4.438c-0.041-0.697-0.201-1.027-0.881-1.171
			c-0.164-0.04-0.514-0.061-0.699-0.061c-0.08,0-0.164-0.04-0.164-0.123c0-0.125,0.102-0.166,0.33-0.166
			c0.924,0,2.217,0.063,2.322,0.063c0.1,0,1.602-0.063,2.215-0.063c0.227,0,0.33,0.041,0.33,0.166c0,0.083-0.082,0.123-0.166,0.123
			c-0.145,0-0.43,0.021-0.678,0.061c-0.596,0.103-0.76,0.453-0.801,1.171c-0.041,0.658-0.041,1.233-0.041,4.438V71.196z"/>
	</g>
	<g>
		<path d="M13.118,46.865c0,4.18,0,5.778-0.775,7.611c-0.542,1.29-1.676,2.503-3.766,3.946c-0.336,0.232-0.749,0.518-1.007,0.646
			c-0.051,0.026-0.103,0.052-0.181,0.052c-0.077,0-0.18-0.052-0.18-0.154c0-0.154,0.129-0.232,0.361-0.389
			c0.311-0.18,0.671-0.491,0.902-0.723c1.678-1.702,2.477-3.069,2.477-9.726v-7.455c0-4.025,0-4.748-0.051-5.572
			c-0.053-0.878-0.258-1.291-1.109-1.47c-0.207-0.052-0.646-0.077-0.878-0.077c-0.104,0-0.206-0.051-0.206-0.156
			c0-0.155,0.128-0.206,0.411-0.206c1.162,0,2.787,0.078,2.916,0.078c0.129,0,1.755-0.078,2.528-0.078
			c0.284,0,0.414,0.051,0.414,0.206c0,0.104-0.104,0.156-0.207,0.156c-0.18,0-0.336,0.025-0.645,0.077
			c-0.697,0.128-0.902,0.567-0.954,1.47c-0.051,0.825-0.051,1.547-0.051,5.572V46.865z"/>
		<path d="M17.004,44.097c0-4.521,2.581-6.792,6.027-6.792c3.263,0,6.277,2.664,6.277,7.618c0,6.008-3.84,7.082-5.697,7.082
			C19.895,52.005,17.004,48.906,17.004,44.097z M15.043,44.675c0,3.716,2.351,8.113,8.009,8.113c4.975,0,8.238-3.819,8.238-8.443
			c0-4.81-3.469-7.741-8.114-7.741C17.479,36.604,15.043,41.331,15.043,44.675z"/>
		<path d="M45.841,46.512c0,1.982,0,3.612,0.104,4.479c0.062,0.599,0.185,1.052,0.804,1.137c0.29,0.042,0.745,0.083,0.931,0.083
			c0.124,0,0.164,0.061,0.164,0.122c0,0.104-0.104,0.166-0.331,0.166c-1.134,0-2.436-0.062-2.539-0.062
			c-0.103,0-1.404,0.062-2.022,0.062c-0.228,0-0.331-0.041-0.331-0.166c0-0.062,0.042-0.122,0.165-0.122
			c0.186,0,0.434-0.042,0.62-0.083c0.413-0.085,0.516-0.538,0.599-1.137c0.103-0.867,0.103-2.497,0.103-4.479v-2.167
			c0-0.083-0.063-0.124-0.125-0.124H35.23c-0.061,0-0.123,0.021-0.123,0.124v2.167c0,1.982,0,3.612,0.103,4.479
			c0.063,0.599,0.188,1.052,0.806,1.137c0.288,0.042,0.743,0.083,0.927,0.083c0.125,0,0.166,0.061,0.166,0.122
			c0,0.104-0.103,0.166-0.33,0.166c-1.135,0-2.437-0.062-2.539-0.062c-0.104,0-1.404,0.062-2.024,0.062
			c-0.227,0-0.33-0.041-0.33-0.166c0-0.062,0.042-0.122,0.166-0.122c0.186,0,0.433-0.042,0.619-0.083
			c0.414-0.085,0.517-0.538,0.599-1.137c0.103-0.867,0.103-2.497,0.103-4.479v-3.634c0-3.22,0-3.798-0.042-4.458
			c-0.04-0.703-0.207-1.032-0.888-1.177c-0.164-0.041-0.516-0.061-0.702-0.061c-0.083,0-0.165-0.042-0.165-0.124
			c0-0.125,0.104-0.166,0.33-0.166c0.93,0,2.23,0.062,2.334,0.062c0.102,0,1.403-0.062,2.022-0.062c0.228,0,0.331,0.041,0.331,0.166
			c0,0.082-0.083,0.124-0.167,0.124c-0.145,0-0.268,0.02-0.516,0.061c-0.557,0.103-0.722,0.454-0.763,1.177
			c-0.042,0.66-0.042,1.239-0.042,4.458v0.434c0,0.104,0.062,0.124,0.123,0.124h8.753c0.062,0,0.125-0.019,0.125-0.124v-0.434
			c0-3.22,0-3.798-0.042-4.458c-0.042-0.703-0.207-1.032-0.887-1.177c-0.167-0.041-0.516-0.061-0.704-0.061
			c-0.082,0-0.164-0.042-0.164-0.124c0-0.125,0.104-0.166,0.33-0.166c0.929,0,2.23,0.062,2.333,0.062
			c0.103,0,1.405-0.062,2.024-0.062c0.228,0,0.33,0.041,0.33,0.166c0,0.082-0.082,0.124-0.166,0.124
			c-0.145,0-0.268,0.02-0.516,0.061c-0.558,0.103-0.722,0.454-0.764,1.177c-0.041,0.66-0.041,1.239-0.041,4.458V46.512z"/>
		<path d="M50.881,49.691c0.041,1.694,0.247,2.23,0.805,2.396c0.394,0.104,0.847,0.125,1.032,0.125c0.103,0,0.166,0.04,0.166,0.122
			c0,0.125-0.123,0.166-0.371,0.166c-1.176,0-2.002-0.062-2.189-0.062c-0.186,0-1.052,0.062-1.981,0.062
			c-0.206,0-0.331-0.021-0.331-0.166c0-0.082,0.062-0.122,0.166-0.122c0.165,0,0.536-0.021,0.847-0.125
			c0.516-0.146,0.62-0.743,0.62-2.622l0.019-11.829c0-0.805,0.063-1.032,0.229-1.032s0.516,0.454,0.722,0.661
			c0.31,0.35,3.387,3.673,6.565,7.081c2.044,2.188,4.295,4.708,4.955,5.389l-0.226-10.487c-0.021-1.342-0.166-1.798-0.805-1.962
			c-0.372-0.083-0.847-0.103-1.012-0.103c-0.144,0-0.165-0.062-0.165-0.146c0-0.123,0.165-0.144,0.413-0.144
			c0.929,0,1.92,0.062,2.147,0.062c0.227,0,0.908-0.062,1.754-0.062c0.228,0,0.371,0.021,0.371,0.144
			c0,0.083-0.082,0.146-0.228,0.146c-0.103,0-0.246,0-0.494,0.061c-0.681,0.145-0.764,0.598-0.764,1.837l-0.042,12.099
			c0,1.362-0.041,1.464-0.185,1.464c-0.166,0-0.414-0.226-1.508-1.32c-0.227-0.207-3.2-3.242-5.388-5.595
			c-2.395-2.581-4.728-5.182-5.389-5.926L50.881,49.691z"/>
		<path d="M95.748,49.367c0.102,0.928,0.283,2.372,1.393,2.733c0.748,0.233,1.42,0.233,1.678,0.233c0.127,0,0.203,0.025,0.203,0.13
			c0,0.154-0.23,0.232-0.541,0.232c-0.568,0-3.352-0.078-4.307-0.154c-0.594-0.053-0.723-0.129-0.723-0.259
			c0-0.101,0.051-0.155,0.182-0.182c0.127-0.025,0.154-0.463,0.102-0.927l-1.236-13.312H92.42L86.1,51.274
			c-0.543,1.137-0.621,1.368-0.854,1.368c-0.18,0-0.309-0.257-0.797-1.188c-0.672-1.262-2.892-5.726-3.019-5.983
			c-0.232-0.465-3.122-6.656-3.406-7.353h-0.104l-1.03,11.969c-0.026,0.413-0.026,0.878-0.026,1.317c0,0.386,0.283,0.721,0.67,0.798
			c0.439,0.103,0.826,0.129,0.981,0.129c0.102,0,0.206,0.052,0.206,0.13c0,0.18-0.154,0.232-0.465,0.232
			c-0.953,0-2.191-0.078-2.398-0.078c-0.233,0-1.471,0.078-2.168,0.078c-0.259,0-0.438-0.052-0.438-0.232
			c0-0.078,0.129-0.13,0.259-0.13c0.206,0,0.387,0,0.774-0.076c0.85-0.157,0.926-1.161,1.031-2.142l1.856-16.821
			c0.052-0.283,0.13-0.465,0.284-0.465s0.258,0.104,0.388,0.389l7.892,16.226l7.588-16.202c0.102-0.23,0.205-0.413,0.387-0.413
			c0.18,0,0.256,0.208,0.307,0.697L95.748,49.367z"/>
		<path d="M103.865,45.666c-0.063,0-0.104-0.042-0.063-0.145l1.814-5.574c0.105-0.309,0.207-0.309,0.313,0l1.961,5.574
			c0.018,0.083,0.018,0.145-0.086,0.145H103.865z M100.973,50.229c-0.371,1.032-0.781,1.814-1.734,1.941
			c-0.166,0.021-0.453,0.042-0.598,0.042c-0.102,0-0.186,0.04-0.186,0.122c0,0.125,0.123,0.166,0.393,0.166
			c0.971,0,2.104-0.062,2.332-0.062c0.227,0,1.113,0.062,1.609,0.062c0.186,0,0.311-0.041,0.311-0.166
			c0-0.082-0.064-0.122-0.205-0.122h-0.207c-0.35,0-0.787-0.187-0.787-0.6c0-0.371,0.105-0.868,0.291-1.383l1.238-3.655
			c0.041-0.104,0.104-0.164,0.205-0.164h4.441c0.102,0,0.145,0.04,0.184,0.123l1.924,5.078c0.121,0.33,0,0.517-0.127,0.558
			c-0.082,0.021-0.146,0.062-0.146,0.143c0,0.125,0.229,0.125,0.619,0.145c1.426,0.041,2.936,0.041,3.244,0.041
			c0.225,0,0.412-0.041,0.412-0.166c0-0.102-0.08-0.122-0.207-0.122c-0.205,0-0.514-0.021-0.822-0.125
			c-0.436-0.125-1.037-0.455-1.779-2.292c-1.26-3.137-4.5-11.664-4.811-12.448c-0.246-0.64-0.33-0.742-0.455-0.742
			c-0.121,0-0.203,0.125-0.453,0.805L100.973,50.229z"/>
		<path d="M117.643,37.924c0-0.123,0.063-0.207,0.164-0.248c0.205-0.062,0.764-0.123,1.383-0.123c2.209,0,3.572,1.547,3.572,4.127
			c0,1.569-0.535,2.685-1.262,3.18c-0.475,0.33-1.051,0.393-1.547,0.393c-0.904,0-1.857-0.146-2.166-0.331
			c-0.104-0.062-0.145-0.145-0.145-0.248V37.924z M115.99,46.512c0,1.982,0,3.612-0.102,4.479c-0.082,0.599-0.189,1.052-0.6,1.137
			c-0.186,0.042-0.432,0.083-0.621,0.083c-0.123,0-0.164,0.061-0.164,0.122c0,0.125,0.102,0.166,0.332,0.166
			c0.619,0,1.918-0.062,1.939-0.062c0.102,0,1.404,0.062,2.537,0.062c0.229,0,0.332-0.062,0.332-0.166
			c0-0.062-0.041-0.122-0.164-0.122c-0.188,0-0.643-0.042-0.932-0.083c-0.617-0.085-0.742-0.538-0.805-1.137
			c-0.102-0.867-0.102-2.497-0.102-4.479v-0.496c0-0.104,0.041-0.166,0.145-0.166l2.539,0.043c0.123,0,0.188,0.041,0.268,0.123
			c0.414,0.537,1.383,1.92,2.252,3.055c1.178,1.55,1.898,2.561,2.787,3.035c0.535,0.29,1.053,0.393,2.207,0.393h1.467
			c0.371,0,0.496-0.041,0.496-0.166c0-0.062-0.082-0.122-0.188-0.122c-0.125,0-0.412,0-0.805-0.062
			c-0.514-0.083-1.404-0.311-2.518-1.488c-1.197-1.279-2.602-3.117-4.295-5.285c1.857-1.713,2.498-3.241,2.498-4.769
			c0-1.424-0.908-2.437-1.426-2.807c-1.094-0.785-2.477-0.909-3.777-0.909c-0.639,0-2.207,0.062-2.436,0.062
			c-0.104,0-1.402-0.062-2.334-0.062c-0.227,0-0.326,0.041-0.326,0.166c0,0.082,0.08,0.124,0.164,0.124
			c0.184,0,0.535,0.02,0.701,0.061c0.68,0.145,0.846,0.474,0.889,1.177c0.039,0.66,0.039,1.239,0.039,4.458V46.512z"/>
		<path d="M130.027,52.231c-0.287-0.145-0.307-0.227-0.307-0.787c0-1.031,0.082-1.857,0.104-2.187
			c0.018-0.227,0.061-0.331,0.164-0.331c0.123,0,0.146,0.062,0.146,0.227c0,0.185,0,0.475,0.061,0.764
			c0.309,1.527,1.672,2.106,3.053,2.106c1.984,0,2.955-1.425,2.955-2.745c0-1.425-0.6-2.252-2.377-3.716l-0.93-0.765
			c-2.188-1.794-2.68-3.076-2.68-4.48c0-2.208,1.65-3.714,4.273-3.714c0.803,0,1.402,0.082,1.92,0.206
			c0.391,0.083,0.557,0.104,0.719,0.104c0.166,0,0.209,0.041,0.209,0.145c0,0.102-0.082,0.783-0.082,2.188
			c0,0.33-0.045,0.474-0.145,0.474c-0.123,0-0.145-0.103-0.166-0.268c-0.02-0.25-0.145-0.805-0.268-1.033
			c-0.125-0.227-0.684-1.095-2.58-1.095c-1.428,0-2.541,0.889-2.541,2.396c0,1.177,0.578,1.88,2.52,3.469l0.576,0.455
			c2.436,1.919,3.016,3.198,3.016,4.851c0,0.845-0.33,2.415-1.756,3.427c-0.887,0.62-2.002,0.867-3.115,0.867
			C131.828,52.788,130.877,52.643,130.027,52.231z"/>
		<path d="M152.719,46.512c0,1.982,0,3.612,0.104,4.479c0.061,0.599,0.186,1.052,0.805,1.137c0.289,0.042,0.746,0.083,0.93,0.083
			c0.121,0,0.164,0.061,0.164,0.122c0,0.104-0.102,0.166-0.328,0.166c-1.139,0-2.436-0.062-2.541-0.062
			c-0.104,0-1.402,0.062-2.023,0.062c-0.227,0-0.33-0.041-0.33-0.166c0-0.062,0.041-0.122,0.164-0.122
			c0.188,0,0.434-0.042,0.621-0.083c0.412-0.085,0.518-0.538,0.6-1.137c0.102-0.867,0.102-2.497,0.102-4.479v-2.167
			c0-0.083-0.061-0.124-0.123-0.124h-8.754c-0.061,0-0.123,0.021-0.123,0.124v2.167c0,1.982,0,3.612,0.104,4.479
			c0.061,0.599,0.186,1.052,0.805,1.137c0.289,0.042,0.742,0.083,0.93,0.083c0.121,0,0.164,0.061,0.164,0.122
			c0,0.104-0.102,0.166-0.326,0.166c-1.139,0-2.438-0.062-2.545-0.062c-0.102,0-1.404,0.062-2.021,0.062
			c-0.229,0-0.33-0.041-0.33-0.166c0-0.062,0.041-0.122,0.164-0.122c0.189,0,0.436-0.042,0.623-0.083
			c0.41-0.085,0.516-0.538,0.596-1.137c0.105-0.867,0.105-2.497,0.105-4.479v-3.634c0-3.22,0-3.798-0.041-4.458
			c-0.041-0.703-0.211-1.032-0.891-1.177c-0.164-0.041-0.516-0.061-0.703-0.061c-0.08,0-0.162-0.042-0.162-0.124
			c0-0.125,0.104-0.166,0.33-0.166c0.926,0,2.229,0.062,2.33,0.062c0.107,0,1.406-0.062,2.027-0.062
			c0.225,0,0.328,0.041,0.328,0.166c0,0.082-0.082,0.124-0.164,0.124c-0.146,0-0.27,0.02-0.518,0.061
			c-0.557,0.103-0.723,0.454-0.762,1.177c-0.043,0.66-0.043,1.239-0.043,4.458v0.434c0,0.104,0.063,0.124,0.123,0.124h8.754
			c0.063,0,0.123-0.019,0.123-0.124v-0.434c0-3.22,0-3.798-0.041-4.458c-0.039-0.703-0.207-1.032-0.889-1.177
			c-0.164-0.041-0.516-0.061-0.701-0.061c-0.08,0-0.162-0.042-0.162-0.124c0-0.125,0.102-0.166,0.328-0.166
			c0.93,0,2.229,0.062,2.332,0.062c0.105,0,1.402-0.062,2.025-0.062c0.225,0,0.33,0.041,0.33,0.166c0,0.082-0.084,0.124-0.166,0.124
			c-0.145,0-0.268,0.02-0.516,0.061c-0.557,0.103-0.725,0.454-0.764,1.177c-0.043,0.66-0.043,1.239-0.043,4.458V46.512z"/>
		<path d="M160.098,45.666c-0.061,0-0.102-0.042-0.061-0.145l1.816-5.574c0.102-0.309,0.205-0.309,0.313,0l1.961,5.574
			c0.018,0.083,0.018,0.145-0.084,0.145H160.098z M157.209,50.229c-0.373,1.032-0.785,1.814-1.734,1.941
			c-0.164,0.021-0.455,0.042-0.598,0.042c-0.105,0-0.188,0.04-0.188,0.122c0,0.125,0.125,0.166,0.393,0.166
			c0.973,0,2.107-0.062,2.33-0.062c0.23,0,1.119,0.062,1.613,0.062c0.184,0,0.309-0.041,0.309-0.166
			c0-0.082-0.061-0.122-0.205-0.122h-0.205c-0.352,0-0.787-0.187-0.787-0.6c0-0.371,0.105-0.868,0.287-1.383l1.242-3.655
			c0.041-0.104,0.104-0.164,0.205-0.164h4.439c0.102,0,0.145,0.04,0.184,0.123l1.922,5.078c0.123,0.33,0,0.517-0.125,0.558
			c-0.082,0.021-0.145,0.062-0.145,0.143c0,0.125,0.225,0.125,0.621,0.145c1.422,0.041,2.93,0.041,3.24,0.041
			c0.229,0,0.412-0.041,0.412-0.166c0-0.102-0.08-0.122-0.207-0.122c-0.205,0-0.516-0.021-0.824-0.125
			c-0.434-0.125-1.031-0.455-1.775-2.292c-1.26-3.137-4.502-11.664-4.813-12.448c-0.246-0.64-0.326-0.742-0.455-0.742
			c-0.119,0-0.203,0.125-0.451,0.805L157.209,50.229z"/>
		<path d="M174.533,46.553c0,3.035,0.082,4.356,0.455,4.727c0.33,0.331,0.865,0.477,2.477,0.477c1.096,0,2.002-0.022,2.498-0.622
			c0.268-0.328,0.475-0.844,0.537-1.235c0.021-0.166,0.061-0.27,0.188-0.27c0.104,0,0.123,0.083,0.123,0.31
			c0,0.226-0.145,1.466-0.311,2.065c-0.143,0.473-0.209,0.555-1.299,0.555c-2.977,0-4.338-0.123-5.535-0.123
			c-0.082,0-0.434,0.021-0.846,0.021c-0.412,0.021-0.869,0.041-1.178,0.041c-0.225,0-0.33-0.041-0.33-0.166
			c0-0.062,0.039-0.122,0.166-0.122c0.186,0,0.432-0.042,0.619-0.083c0.412-0.085,0.514-0.538,0.596-1.137
			c0.107-0.867,0.107-2.497,0.107-4.479v-3.634c0-3.22,0-3.798-0.041-4.458c-0.043-0.703-0.207-1.032-0.891-1.177
			c-0.162-0.041-0.518-0.061-0.703-0.061c-0.08,0-0.162-0.042-0.162-0.124c0-0.125,0.104-0.166,0.332-0.166
			c0.926,0,2.227,0.062,2.33,0.062s1.611-0.062,2.229-0.062c0.229,0,0.33,0.041,0.33,0.166c0,0.082-0.08,0.124-0.162,0.124
			c-0.146,0-0.434,0.02-0.682,0.061c-0.6,0.103-0.766,0.454-0.809,1.177c-0.039,0.66-0.039,1.239-0.039,4.458V46.553z"/>
		<path d="M185.037,46.553c0,3.035,0.082,4.356,0.455,4.727c0.328,0.331,0.863,0.477,2.475,0.477c1.094,0,2.002-0.022,2.498-0.622
			c0.268-0.328,0.475-0.844,0.535-1.235c0.02-0.166,0.061-0.27,0.189-0.27c0.102,0,0.121,0.083,0.121,0.31
			c0,0.226-0.143,1.466-0.311,2.065c-0.145,0.473-0.203,0.555-1.297,0.555c-2.975,0-4.34-0.123-5.537-0.123
			c-0.082,0-0.432,0.021-0.844,0.021c-0.412,0.021-0.869,0.041-1.178,0.041c-0.229,0-0.332-0.041-0.332-0.166
			c0-0.062,0.043-0.122,0.168-0.122c0.184,0,0.432-0.042,0.617-0.083c0.416-0.085,0.516-0.538,0.6-1.137
			c0.104-0.867,0.104-2.497,0.104-4.479v-3.634c0-3.22,0-3.798-0.043-4.458c-0.041-0.703-0.205-1.032-0.885-1.177
			c-0.166-0.041-0.518-0.061-0.703-0.061c-0.082,0-0.164-0.042-0.164-0.124c0-0.125,0.104-0.166,0.33-0.166
			c0.93,0,2.229,0.062,2.33,0.062c0.105,0,1.613-0.062,2.23-0.062c0.229,0,0.332,0.041,0.332,0.166c0,0.082-0.082,0.124-0.164,0.124
			c-0.148,0-0.434,0.02-0.684,0.061c-0.6,0.103-0.762,0.454-0.805,1.177c-0.039,0.66-0.039,1.239-0.039,4.458V46.553z"/>
		<g>
			<path d="M19.178,30.591c0,0.696,0,1.267,0.036,1.57c0.022,0.211,0.065,0.37,0.282,0.398c0.102,0.015,0.261,0.029,0.327,0.029
				c0.043,0,0.057,0.021,0.057,0.044c0,0.036-0.037,0.057-0.115,0.057c-0.399,0-0.854-0.021-0.891-0.021
				c-0.037,0-0.493,0.021-0.709,0.021c-0.08,0-0.116-0.014-0.116-0.057c0-0.023,0.013-0.044,0.058-0.044
				c0.065,0,0.152-0.015,0.217-0.029c0.145-0.028,0.181-0.188,0.21-0.398c0.036-0.303,0.036-0.875,0.036-1.57V27.53l-1.072,0.014
				c-0.448,0.006-0.622,0.057-0.737,0.231C16.681,27.898,16.66,27.95,16.638,28c-0.022,0.058-0.043,0.072-0.072,0.072
				c-0.022,0-0.037-0.022-0.037-0.065c0-0.072,0.145-0.694,0.159-0.752c0.015-0.044,0.043-0.138,0.074-0.138
				c0.049,0,0.122,0.073,0.318,0.086c0.21,0.021,0.485,0.036,0.571,0.036h2.715c0.463,0,0.659-0.072,0.716-0.072
				c0.038,0,0.038,0.043,0.038,0.087c0,0.217-0.023,0.717-0.023,0.795c0,0.065-0.021,0.095-0.05,0.095
				c-0.038,0-0.052-0.023-0.059-0.124l-0.006-0.08c-0.029-0.217-0.195-0.384-0.89-0.398l-0.913-0.014V30.591z"/>
			<path d="M24.701,31.03c0,0.525,0,0.957,0.027,1.186c0.016,0.158,0.049,0.278,0.212,0.301c0.076,0.012,0.197,0.022,0.246,0.022
				c0.033,0,0.043,0.016,0.043,0.032c0,0.027-0.026,0.043-0.087,0.043c-0.299,0-0.645-0.016-0.673-0.016
				c-0.027,0-0.37,0.016-0.534,0.016c-0.061,0-0.088-0.011-0.088-0.043c0-0.016,0.011-0.032,0.043-0.032
				c0.05,0,0.115-0.011,0.164-0.022c0.111-0.022,0.138-0.143,0.159-0.301c0.028-0.229,0.028-0.661,0.028-1.186v-0.574
				c0-0.021-0.017-0.033-0.033-0.033h-2.318c-0.014,0-0.032,0.006-0.032,0.033v0.574c0,0.525,0,0.957,0.027,1.186
				c0.017,0.158,0.049,0.278,0.214,0.301c0.076,0.012,0.195,0.022,0.246,0.022c0.032,0,0.043,0.016,0.043,0.032
				c0,0.027-0.028,0.043-0.087,0.043c-0.301,0-0.645-0.016-0.673-0.016c-0.028,0-0.371,0.016-0.536,0.016
				c-0.06,0-0.086-0.011-0.086-0.043c0-0.016,0.01-0.032,0.043-0.032c0.049,0,0.115-0.011,0.164-0.022
				c0.109-0.022,0.137-0.143,0.16-0.301c0.026-0.229,0.026-0.661,0.026-1.186v-0.962c0-0.852,0-1.005-0.01-1.181
				c-0.011-0.186-0.055-0.273-0.235-0.312c-0.043-0.01-0.137-0.016-0.186-0.016c-0.022,0-0.043-0.01-0.043-0.033
				c0-0.032,0.027-0.043,0.088-0.043c0.246,0,0.589,0.018,0.617,0.018c0.028,0,0.372-0.018,0.535-0.018
				c0.061,0,0.088,0.011,0.088,0.043c0,0.022-0.022,0.033-0.043,0.033c-0.037,0-0.071,0.006-0.136,0.016
				c-0.147,0.028-0.191,0.121-0.203,0.312c-0.01,0.176-0.01,0.329-0.01,1.181v0.114c0,0.027,0.018,0.034,0.032,0.034h2.318
				c0.016,0,0.033-0.006,0.033-0.034v-0.114c0-0.852,0-1.005-0.012-1.181c-0.01-0.186-0.054-0.273-0.235-0.312
				c-0.044-0.01-0.136-0.016-0.186-0.016c-0.021,0-0.043-0.01-0.043-0.033c0-0.032,0.027-0.043,0.087-0.043
				c0.246,0,0.589,0.018,0.616,0.018c0.028,0,0.374-0.018,0.536-0.018c0.061,0,0.088,0.011,0.088,0.043
				c0,0.022-0.021,0.033-0.043,0.033c-0.037,0-0.071,0.006-0.137,0.016c-0.147,0.028-0.191,0.121-0.202,0.312
				c-0.01,0.176-0.01,0.329-0.01,1.181V31.03z"/>
			<path d="M26.038,30.068c0-0.852,0-1.005-0.01-1.181c-0.012-0.186-0.055-0.273-0.236-0.312c-0.043-0.01-0.137-0.016-0.185-0.016
				c-0.021,0-0.044-0.01-0.044-0.033c0-0.032,0.029-0.043,0.088-0.043c0.246,0,0.59,0.018,0.617,0.018c0.039,0,1.125,0,1.251-0.006
				c0.104-0.006,0.192-0.016,0.235-0.027c0.027-0.005,0.049-0.028,0.077-0.028c0.016,0,0.023,0.022,0.023,0.049
				c0,0.038-0.028,0.105-0.043,0.258c-0.007,0.054-0.018,0.295-0.029,0.36c-0.005,0.027-0.016,0.06-0.038,0.06
				c-0.033,0-0.044-0.027-0.044-0.07c0-0.039-0.004-0.13-0.032-0.197c-0.039-0.087-0.094-0.152-0.389-0.186
				c-0.092-0.012-0.688-0.017-0.748-0.017c-0.023,0-0.034,0.017-0.034,0.055v1.507c0,0.039,0.006,0.056,0.034,0.056
				c0.07,0,0.742,0,0.868-0.013c0.13-0.01,0.208-0.022,0.256-0.077c0.039-0.044,0.059-0.071,0.083-0.071
				c0.016,0,0.027,0.011,0.027,0.045c0,0.031-0.027,0.124-0.043,0.305c-0.012,0.109-0.023,0.311-0.023,0.349
				c0,0.044,0,0.104-0.038,0.104c-0.027,0-0.039-0.022-0.039-0.05c0-0.055,0-0.108-0.022-0.18c-0.021-0.076-0.07-0.168-0.283-0.191
				c-0.146-0.017-0.688-0.026-0.781-0.026c-0.027,0-0.039,0.015-0.039,0.037v0.481c0,0.186-0.005,0.819,0,0.936
				c0.017,0.377,0.098,0.447,0.634,0.447c0.143,0,0.382,0,0.525-0.059c0.143-0.061,0.207-0.171,0.246-0.395
				c0.01-0.061,0.021-0.083,0.049-0.083c0.033,0,0.033,0.043,0.033,0.083c0,0.043-0.043,0.415-0.071,0.53
				c-0.038,0.141-0.082,0.141-0.295,0.141c-0.826,0-1.19-0.032-1.35-0.032c-0.01,0-0.104,0.005-0.219,0.005
				c-0.108,0.006-0.234,0.011-0.316,0.011c-0.059,0-0.087-0.011-0.087-0.043c0-0.016,0.01-0.032,0.043-0.032
				c0.05,0,0.114-0.011,0.165-0.022c0.108-0.022,0.137-0.143,0.158-0.301c0.027-0.229,0.027-0.661,0.027-1.186V30.068z"/>
		</g>
	</g>
</g>
<g>
	<rect x="86.717" y="3.678" fill="#A91E22" width="24.901" height="24.724"/>
	<polygon fill="none" stroke="#FFFFFF" stroke-width="0.8741" points="89.954,11.709 107.992,11.675 98.972,5.266 	"/>
	<path fill="none" stroke="#FFFFFF" stroke-width="0.8741" d="M96.563,26.172c0.72,0,1.304-0.585,1.304-1.306V14.068
		c0-0.721-0.584-1.306-1.304-1.306l0,0c-0.724,0-1.305,0.584-1.305,1.306v10.797C95.259,25.586,95.84,26.172,96.563,26.172
		L96.563,26.172z"/>
	<path fill="none" stroke="#FFFFFF" stroke-width="0.8741" d="M101.036,26.154c0.721,0,1.305-0.584,1.305-1.305V14.052
		c0-0.722-0.584-1.305-1.305-1.305l0,0c-0.723,0-1.307,0.583-1.307,1.305V24.85C99.729,25.57,100.313,26.154,101.036,26.154
		L101.036,26.154z"/>
	<path fill="none" stroke="#FFFFFF" stroke-width="0.8741" d="M105.088,12.813c-0.723,0-1.131,0.584-1.131,1.305v10.798
		c0,0.72,0.408,1.304,1.131,1.304"/>
	<path fill="none" stroke="#FFFFFF" stroke-width="0.8741" d="M92.431,26.246c0.721,0,1.127-0.584,1.127-1.305V14.143
		c0-0.721-0.406-1.306-1.127-1.306"/>
	<rect x="87.435" y="4.487" fill="none" stroke="#FFFFFF" stroke-width="0.8499" width="23.468" height="23.197"/>
</g>
<rect x="4.259" y="86.609" fill="none" width="190" height="26.35"/>
<text transform="matrix(1 0 0 1 31.8965 93.6504)"><tspan x="0" y="0" font-family="'TrajanPro-Regular'" font-size="11">The Office of Alumni </tspan><tspan x="-13.387" y="12" font-family="'TrajanPro-Regular'" font-size="11">Relations &amp; Development</tspan></text>
</svg>
