<?xml version="1.0" encoding="utf-8"?>
<!-- Generator: Adobe Illustrator 16.0.3, SVG Export Plug-In . SVG Version: 6.00 Build 0)  -->
<!DOCTYPE svg PUBLIC "-//W3C//DTD SVG 1.1//EN" "http://www.w3.org/Graphics/SVG/1.1/DTD/svg11.dtd">
<svg version="1.1" id="Layer_1" xmlns="http://www.w3.org/2000/svg" xmlns:xlink="http://www.w3.org/1999/xlink" x="0px" y="0px"
	 width="199.5px" height="111.5px" viewBox="0 0 199.5 111.5" enable-background="new 0 0 199.5 111.5" xml:space="preserve">
<g>
	<g>
		<path d="M31.592,69.913c0,3.771,0.102,5.415,0.563,5.877c0.412,0.409,1.078,0.591,3.081,0.591c1.361,0,2.49-0.027,3.104-0.77
			c0.334-0.41,0.59-1.055,0.668-1.541c0.026-0.204,0.077-0.334,0.229-0.334c0.128,0,0.154,0.104,0.154,0.384
			c0,0.282-0.178,1.823-0.383,2.567c-0.181,0.593-0.257,0.691-1.616,0.691c-3.697,0-5.39-0.152-6.88-0.152
			c-0.231,0-1.744,0.08-2.514,0.08c-0.284,0-0.411-0.055-0.411-0.209c0-0.076,0.051-0.154,0.205-0.154
			c0.231,0,0.538-0.051,0.771-0.104c0.513-0.102,0.642-0.667,0.745-1.412c0.127-1.076,0.127-3.104,0.127-5.566v-4.518
			c0-4.004,0-4.724-0.052-5.544c-0.051-0.873-0.256-1.282-1.103-1.463c-0.207-0.051-0.642-0.077-0.872-0.077
			c-0.104,0-0.207-0.051-0.207-0.152c0-0.154,0.129-0.205,0.411-0.205c1.155,0,2.771,0.078,2.899,0.078
			c0.129,0,2.002-0.078,2.773-0.078c0.281,0,0.409,0.051,0.409,0.205c0,0.103-0.102,0.152-0.205,0.152
			c-0.18,0-0.539,0.026-0.846,0.077c-0.745,0.128-0.951,0.565-1.003,1.463c-0.05,0.82-0.05,1.54-0.05,5.544v4.569H31.592z"/>
		<path d="M44.809,70.313c-0.062,0-0.103-0.041-0.062-0.145l1.807-5.544c0.103-0.31,0.206-0.31,0.308,0l1.951,5.544
			c0.021,0.082,0.021,0.145-0.082,0.145H44.809z M41.933,74.85c-0.369,1.027-0.78,1.808-1.724,1.93
			c-0.165,0.022-0.452,0.044-0.595,0.044c-0.104,0-0.185,0.038-0.185,0.122c0,0.123,0.122,0.166,0.39,0.166
			c0.965,0,2.095-0.063,2.321-0.063c0.225,0,1.109,0.063,1.603,0.063c0.184,0,0.307-0.043,0.307-0.166
			c0-0.084-0.06-0.122-0.205-0.122h-0.204c-0.351,0-0.782-0.185-0.782-0.597c0-0.369,0.102-0.861,0.288-1.377l1.232-3.637
			c0.041-0.1,0.103-0.161,0.205-0.161h4.415c0.103,0,0.144,0.039,0.184,0.123l1.912,5.052c0.123,0.33,0,0.514-0.124,0.553
			c-0.082,0.022-0.144,0.063-0.144,0.145c0,0.126,0.227,0.126,0.618,0.145c1.416,0.043,2.916,0.043,3.224,0.043
			c0.226,0,0.412-0.043,0.412-0.166c0-0.104-0.084-0.121-0.206-0.121c-0.206,0-0.514-0.021-0.822-0.122
			c-0.432-0.125-1.026-0.453-1.768-2.282c-1.251-3.122-4.476-11.604-4.784-12.384c-0.246-0.636-0.329-0.738-0.452-0.738
			s-0.205,0.122-0.451,0.8L41.933,74.85z"/>
		<path d="M67.541,74.275h0.083c0.554-1.89,2.443-7.846,3.162-10.475c0.205-0.759,0.225-1.048,0.225-1.314
			c0-0.369-0.225-0.615-1.169-0.615c-0.103,0-0.186-0.063-0.186-0.145c0-0.104,0.104-0.146,0.349-0.146
			c1.049,0,1.911,0.063,2.096,0.063c0.143,0,1.026-0.063,1.664-0.063c0.185,0,0.287,0.041,0.287,0.127
			c0,0.101-0.063,0.162-0.185,0.162c-0.082,0-0.473,0.021-0.699,0.104c-0.615,0.225-0.944,1.084-1.335,2.215
			c-0.903,2.609-2.978,9.141-3.778,11.439c-0.533,1.52-0.635,1.766-0.862,1.766c-0.205,0-0.33-0.266-0.617-1.066l-4.026-11.42
			h-0.041c-0.739,1.975-3.553,9.492-4.292,11.4c-0.329,0.861-0.431,1.088-0.678,1.088c-0.206,0-0.308-0.227-0.718-1.623
			l-3.656-12.178c-0.328-1.09-0.595-1.396-1.129-1.603c-0.268-0.103-0.781-0.123-0.924-0.123c-0.102,0-0.185-0.021-0.185-0.146
			c0-0.104,0.124-0.145,0.328-0.145c1.068,0,2.199,0.063,2.425,0.063c0.184,0,1.087-0.063,2.115-0.063
			c0.286,0,0.369,0.063,0.369,0.145c0,0.123-0.103,0.146-0.206,0.146c-0.163,0-0.554,0-0.8,0.123
			c-0.124,0.063-0.268,0.228-0.268,0.493s0.184,0.986,0.39,1.89c0.309,1.313,2.445,8.851,2.753,9.938h0.041l4.354-11.705
			c0.309-0.844,0.391-0.945,0.514-0.945c0.144,0,0.268,0.268,0.514,0.965L67.541,74.275z"/>
		<path d="M83.143,76.971c-0.359-0.18-0.383-0.283-0.383-0.977c0-1.281,0.102-2.311,0.127-2.721
			c0.027-0.279,0.078-0.409,0.205-0.409c0.156,0,0.182,0.075,0.182,0.282c0,0.23,0,0.59,0.076,0.949
			c0.387,1.897,2.078,2.617,3.801,2.617c2.463,0,3.666-1.77,3.666-3.414c0-1.77-0.744-2.797-2.949-4.619l-1.154-0.949
			c-2.721-2.232-3.338-3.823-3.338-5.567c0-2.747,2.053-4.62,5.313-4.62c1.002,0,1.746,0.102,2.389,0.257
			c0.486,0.103,0.691,0.127,0.896,0.127s0.258,0.052,0.258,0.181c0,0.127-0.104,0.976-0.104,2.722c0,0.407-0.049,0.59-0.18,0.59
			c-0.152,0-0.18-0.127-0.205-0.334c-0.025-0.308-0.18-1-0.334-1.283c-0.154-0.28-0.848-1.36-3.209-1.36
			c-1.77,0-3.154,1.104-3.154,2.979c0,1.461,0.715,2.335,3.129,4.313l0.719,0.563c3.029,2.388,3.748,3.978,3.748,6.03
			c0,1.054-0.41,3.004-2.182,4.262c-1.104,0.77-2.492,1.077-3.875,1.077C85.377,77.663,84.195,77.484,83.143,76.971z"/>
		<path d="M96.492,75.18c-1.99-1.787-2.482-4.128-2.482-6.08c0-1.375,0.473-3.776,2.301-5.606c1.23-1.231,3.1-2.196,6.264-2.196
			c0.819,0,1.973,0.061,2.979,0.247c0.778,0.144,1.436,0.267,2.094,0.308c0.225,0.021,0.268,0.104,0.268,0.226
			c0,0.166-0.064,0.412-0.104,1.151c-0.043,0.679-0.043,1.809-0.062,2.115c-0.021,0.307-0.063,0.434-0.188,0.434
			c-0.141,0-0.162-0.146-0.162-0.434c0-0.801-0.33-1.642-0.862-2.096c-0.72-0.617-2.3-1.172-4.106-1.172
			c-2.732,0-4.007,0.803-4.726,1.5c-1.498,1.438-1.846,3.266-1.846,5.359c0,3.924,3.016,7.518,7.414,7.518
			c1.541,0,2.748-0.186,3.568-1.025c0.434-0.451,0.699-1.355,0.764-1.726c0.041-0.228,0.082-0.31,0.205-0.31
			c0.104,0,0.144,0.145,0.144,0.31c0,0.144-0.246,1.93-0.453,2.628c-0.123,0.387-0.162,0.431-0.533,0.594
			c-0.821,0.33-2.381,0.475-3.692,0.475C100.193,77.396,98.115,76.639,96.492,75.18z"/>
		<path d="M124.145,71.152c0,1.973,0,3.597,0.104,4.459c0.062,0.596,0.185,1.045,0.801,1.128c0.289,0.04,0.738,0.083,0.927,0.083
			c0.121,0,0.164,0.061,0.164,0.121c0,0.104-0.104,0.166-0.328,0.166c-1.129,0-2.427-0.062-2.525-0.062
			c-0.104,0-1.398,0.062-2.012,0.062c-0.228,0-0.332-0.043-0.332-0.166c0-0.062,0.043-0.121,0.164-0.121
			c0.186,0,0.434-0.043,0.617-0.083c0.411-0.083,0.514-0.532,0.596-1.128c0.104-0.862,0.104-2.486,0.104-4.459v-2.156
			c0-0.08-0.063-0.121-0.123-0.121h-8.709c-0.063,0-0.123,0.021-0.123,0.121v2.156c0,1.973,0,3.597,0.102,4.459
			c0.063,0.596,0.187,1.045,0.804,1.128c0.285,0.04,0.737,0.083,0.926,0.083c0.123,0,0.162,0.061,0.162,0.121
			c0,0.104-0.103,0.166-0.328,0.166c-1.131,0-2.424-0.062-2.526-0.062s-1.396,0.062-2.01,0.062c-0.228,0-0.33-0.043-0.33-0.166
			c0-0.062,0.039-0.121,0.164-0.121c0.184,0,0.43-0.043,0.616-0.083c0.412-0.083,0.513-0.532,0.595-1.128
			c0.102-0.862,0.102-2.486,0.102-4.459v-3.611c0-3.205,0-3.78-0.041-4.438c-0.041-0.697-0.203-1.027-0.883-1.172
			c-0.162-0.039-0.514-0.061-0.697-0.061c-0.08,0-0.164-0.04-0.164-0.123c0-0.125,0.102-0.166,0.328-0.166
			c0.924,0,2.219,0.063,2.32,0.063c0.104,0,1.396-0.063,2.014-0.063c0.227,0,0.33,0.041,0.33,0.166c0,0.083-0.086,0.123-0.168,0.123
			c-0.139,0-0.268,0.021-0.51,0.061c-0.556,0.104-0.719,0.453-0.763,1.172c-0.041,0.657-0.041,1.232-0.041,4.438v0.43
			c0,0.104,0.062,0.123,0.123,0.123h8.709c0.062,0,0.123-0.021,0.123-0.123v-0.43c0-3.205,0-3.78-0.045-4.438
			c-0.037-0.697-0.203-1.027-0.879-1.172c-0.166-0.039-0.515-0.061-0.701-0.061c-0.084,0-0.161-0.04-0.161-0.123
			c0-0.125,0.102-0.166,0.327-0.166c0.925,0,2.22,0.063,2.322,0.063c0.101,0,1.396-0.063,2.014-0.063
			c0.224,0,0.326,0.041,0.326,0.166c0,0.083-0.082,0.123-0.164,0.123c-0.146,0-0.267,0.021-0.517,0.061
			c-0.553,0.104-0.715,0.453-0.758,1.172c-0.043,0.657-0.043,1.232-0.043,4.438v3.611H124.145z"/>
		<path d="M128.842,68.75c0-4.497,2.566-6.756,5.998-6.756c3.246,0,6.246,2.648,6.246,7.576c0,5.979-3.824,7.047-5.67,7.047
			C131.719,76.617,128.842,73.536,128.842,68.75z M126.895,69.326c0,3.695,2.338,8.07,7.965,8.07c4.949,0,8.195-3.801,8.195-8.4
			c0-4.782-3.449-7.7-8.072-7.7C129.314,61.296,126.895,65.999,126.895,69.326z"/>
		<path d="M146.494,68.75c0-4.497,2.564-6.756,5.994-6.756c3.246,0,6.246,2.648,6.246,7.576c0,5.979-3.822,7.047-5.666,7.047
			C149.367,76.617,146.494,73.536,146.494,68.75z M144.543,69.326c0,3.695,2.342,8.07,7.969,8.07c4.947,0,8.191-3.801,8.191-8.4
			c0-4.782-3.451-7.7-8.07-7.7C146.965,61.296,144.543,65.999,144.543,69.326z"/>
		<path d="M165.072,71.195c0,3.018,0.082,4.33,0.451,4.701c0.33,0.33,0.863,0.474,2.465,0.474c1.088,0,1.994-0.019,2.484-0.616
			c0.268-0.327,0.475-0.842,0.534-1.232c0.021-0.162,0.063-0.266,0.185-0.266c0.104,0,0.125,0.083,0.125,0.307
			c0,0.228-0.146,1.459-0.31,2.056c-0.146,0.472-0.205,0.554-1.293,0.554c-2.957,0-4.313-0.122-5.502-0.122
			c-0.086,0-0.433,0.019-0.846,0.019c-0.412,0.021-0.861,0.043-1.173,0.043c-0.223,0-0.325-0.043-0.325-0.166
			c0-0.062,0.041-0.121,0.166-0.121c0.182,0,0.428-0.043,0.614-0.083c0.41-0.083,0.515-0.532,0.597-1.128
			c0.103-0.862,0.103-2.486,0.103-4.459v-3.611c0-3.205,0-3.779-0.043-4.438c-0.041-0.697-0.201-1.027-0.882-1.172
			c-0.164-0.039-0.514-0.061-0.698-0.061c-0.08,0-0.164-0.04-0.164-0.123c0-0.125,0.102-0.166,0.33-0.166
			c0.924,0,2.217,0.063,2.321,0.063c0.101,0,1.603-0.063,2.216-0.063c0.227,0,0.329,0.041,0.329,0.166
			c0,0.083-0.082,0.123-0.166,0.123c-0.146,0-0.43,0.021-0.678,0.061c-0.597,0.104-0.761,0.453-0.802,1.172
			c-0.041,0.658-0.041,1.232-0.041,4.438v3.652H165.072z"/>
	</g>
	<g>
		<path d="M13.118,46.865c0,4.18,0,5.778-0.775,7.611c-0.542,1.29-1.676,2.502-3.766,3.946c-0.336,0.232-0.749,0.518-1.007,0.646
			c-0.051,0.025-0.103,0.052-0.181,0.052c-0.077,0-0.18-0.052-0.18-0.154c0-0.153,0.129-0.231,0.361-0.389
			c0.311-0.181,0.671-0.491,0.902-0.724c1.678-1.702,2.477-3.068,2.477-9.726v-7.455c0-4.025,0-4.748-0.051-5.572
			c-0.053-0.878-0.258-1.291-1.109-1.47c-0.207-0.052-0.646-0.077-0.878-0.077c-0.104,0-0.206-0.051-0.206-0.156
			c0-0.155,0.128-0.206,0.411-0.206c1.162,0,2.787,0.078,2.916,0.078c0.129,0,1.755-0.078,2.528-0.078
			c0.284,0,0.414,0.051,0.414,0.206c0,0.104-0.104,0.156-0.207,0.156c-0.18,0-0.336,0.025-0.645,0.077
			c-0.697,0.128-0.902,0.567-0.954,1.47c-0.051,0.825-0.051,1.547-0.051,5.572L13.118,46.865L13.118,46.865z"/>
		<path d="M17.004,44.097c0-4.521,2.581-6.792,6.027-6.792c3.263,0,6.277,2.664,6.277,7.618c0,6.008-3.84,7.082-5.697,7.082
			C19.895,52.005,17.004,48.906,17.004,44.097z M15.043,44.675c0,3.716,2.351,8.113,8.009,8.113c4.975,0,8.238-3.819,8.238-8.443
			c0-4.81-3.469-7.741-8.114-7.741C17.479,36.604,15.043,41.331,15.043,44.675z"/>
		<path d="M45.841,46.512c0,1.982,0,3.612,0.104,4.479c0.062,0.599,0.185,1.052,0.804,1.137c0.29,0.042,0.745,0.083,0.931,0.083
			c0.124,0,0.164,0.061,0.164,0.122c0,0.104-0.104,0.166-0.331,0.166c-1.134,0-2.436-0.062-2.539-0.062s-1.404,0.062-2.022,0.062
			c-0.228,0-0.331-0.041-0.331-0.166c0-0.062,0.042-0.122,0.165-0.122c0.186,0,0.434-0.042,0.62-0.083
			c0.413-0.085,0.516-0.538,0.599-1.137c0.103-0.867,0.103-2.497,0.103-4.479v-2.167c0-0.083-0.063-0.124-0.125-0.124H35.23
			c-0.061,0-0.123,0.021-0.123,0.124v2.167c0,1.982,0,3.612,0.103,4.479c0.063,0.599,0.188,1.052,0.806,1.137
			c0.288,0.042,0.743,0.083,0.927,0.083c0.125,0,0.166,0.061,0.166,0.122c0,0.104-0.103,0.166-0.33,0.166
			c-1.135,0-2.437-0.062-2.539-0.062c-0.104,0-1.404,0.062-2.024,0.062c-0.227,0-0.33-0.041-0.33-0.166
			c0-0.062,0.042-0.122,0.166-0.122c0.186,0,0.433-0.042,0.619-0.083c0.414-0.085,0.517-0.538,0.599-1.137
			c0.103-0.867,0.103-2.497,0.103-4.479v-3.634c0-3.22,0-3.798-0.042-4.458c-0.04-0.703-0.207-1.032-0.888-1.177
			c-0.164-0.041-0.516-0.061-0.702-0.061c-0.083,0-0.165-0.042-0.165-0.124c0-0.125,0.104-0.166,0.33-0.166
			c0.93,0,2.23,0.062,2.334,0.062c0.102,0,1.403-0.062,2.022-0.062c0.228,0,0.331,0.041,0.331,0.166
			c0,0.082-0.083,0.124-0.167,0.124c-0.145,0-0.268,0.02-0.516,0.061c-0.557,0.103-0.722,0.454-0.763,1.177
			c-0.042,0.66-0.042,1.239-0.042,4.458v0.434c0,0.104,0.062,0.124,0.123,0.124h8.753c0.062,0,0.125-0.019,0.125-0.124v-0.434
			c0-3.22,0-3.798-0.042-4.458c-0.042-0.703-0.207-1.032-0.887-1.177c-0.167-0.041-0.516-0.061-0.704-0.061
			c-0.082,0-0.164-0.042-0.164-0.124c0-0.125,0.104-0.166,0.33-0.166c0.929,0,2.23,0.062,2.333,0.062s1.405-0.062,2.024-0.062
			c0.228,0,0.33,0.041,0.33,0.166c0,0.082-0.082,0.124-0.166,0.124c-0.145,0-0.268,0.02-0.516,0.061
			c-0.558,0.103-0.722,0.454-0.764,1.177c-0.041,0.66-0.041,1.239-0.041,4.458v3.634H45.841z"/>
		<path d="M50.881,49.691c0.041,1.694,0.247,2.23,0.805,2.396c0.394,0.104,0.847,0.125,1.032,0.125c0.103,0,0.166,0.04,0.166,0.122
			c0,0.125-0.123,0.166-0.371,0.166c-1.176,0-2.002-0.062-2.189-0.062c-0.186,0-1.052,0.062-1.981,0.062
			c-0.206,0-0.331-0.021-0.331-0.166c0-0.082,0.062-0.122,0.166-0.122c0.165,0,0.536-0.021,0.847-0.125
			c0.516-0.146,0.62-0.743,0.62-2.622l0.019-11.829c0-0.805,0.063-1.032,0.229-1.032s0.516,0.454,0.722,0.661
			c0.31,0.35,3.387,3.673,6.565,7.081c2.044,2.188,4.295,4.708,4.955,5.389l-0.226-10.487c-0.021-1.342-0.166-1.798-0.805-1.962
			c-0.372-0.083-0.847-0.103-1.012-0.103c-0.144,0-0.165-0.062-0.165-0.146c0-0.123,0.165-0.144,0.413-0.144
			c0.929,0,1.92,0.062,2.147,0.062s0.908-0.062,1.754-0.062c0.228,0,0.371,0.021,0.371,0.144c0,0.083-0.082,0.146-0.228,0.146
			c-0.103,0-0.246,0-0.494,0.061c-0.681,0.145-0.764,0.598-0.764,1.837L63.084,51.18c0,1.362-0.041,1.464-0.185,1.464
			c-0.166,0-0.414-0.226-1.508-1.32c-0.227-0.207-3.2-3.242-5.388-5.595c-2.395-2.581-4.728-5.182-5.389-5.926L50.881,49.691z"/>
		<path d="M95.748,49.367c0.102,0.928,0.283,2.372,1.393,2.733c0.748,0.233,1.42,0.233,1.678,0.233c0.127,0,0.203,0.025,0.203,0.13
			c0,0.154-0.23,0.232-0.541,0.232c-0.568,0-3.352-0.078-4.307-0.154c-0.594-0.053-0.723-0.129-0.723-0.259
			c0-0.101,0.051-0.155,0.182-0.182c0.127-0.025,0.154-0.463,0.102-0.927l-1.236-13.312H92.42L86.1,51.274
			c-0.543,1.137-0.621,1.368-0.854,1.368c-0.18,0-0.309-0.257-0.797-1.188c-0.672-1.262-2.892-5.726-3.019-5.983
			c-0.232-0.465-3.122-6.656-3.406-7.353H77.92l-1.03,11.969c-0.026,0.413-0.026,0.878-0.026,1.317c0,0.386,0.283,0.721,0.67,0.798
			c0.439,0.103,0.826,0.129,0.981,0.129c0.102,0,0.206,0.052,0.206,0.13c0,0.18-0.154,0.232-0.465,0.232
			c-0.953,0-2.191-0.078-2.398-0.078c-0.233,0-1.471,0.078-2.168,0.078c-0.259,0-0.438-0.052-0.438-0.232
			c0-0.078,0.129-0.13,0.259-0.13c0.206,0,0.387,0,0.774-0.076c0.85-0.157,0.926-1.161,1.031-2.142l1.856-16.821
			c0.052-0.283,0.13-0.465,0.284-0.465s0.258,0.104,0.388,0.389l7.892,16.226l7.588-16.202c0.102-0.23,0.205-0.413,0.387-0.413
			c0.18,0,0.256,0.208,0.307,0.697L95.748,49.367z"/>
		<path d="M103.865,45.666c-0.063,0-0.104-0.042-0.063-0.145l1.814-5.574c0.104-0.309,0.207-0.309,0.313,0l1.961,5.574
			c0.018,0.083,0.018,0.145-0.086,0.145H103.865z M100.973,50.229c-0.371,1.032-0.781,1.814-1.734,1.941
			c-0.166,0.021-0.453,0.042-0.598,0.042c-0.102,0-0.186,0.04-0.186,0.122c0,0.125,0.123,0.166,0.393,0.166
			c0.971,0,2.104-0.062,2.332-0.062s1.113,0.062,1.609,0.062c0.186,0,0.311-0.041,0.311-0.166c0-0.082-0.063-0.122-0.205-0.122
			h-0.207c-0.35,0-0.787-0.187-0.787-0.6c0-0.371,0.105-0.868,0.291-1.383l1.238-3.655c0.041-0.104,0.104-0.164,0.205-0.164h4.441
			c0.102,0,0.145,0.04,0.184,0.123l1.924,5.078c0.121,0.33,0,0.517-0.127,0.558c-0.082,0.021-0.146,0.062-0.146,0.143
			c0,0.125,0.229,0.125,0.618,0.145c1.427,0.041,2.937,0.041,3.244,0.041c0.226,0,0.412-0.041,0.412-0.166
			c0-0.102-0.08-0.122-0.207-0.122c-0.205,0-0.514-0.021-0.821-0.125c-0.437-0.125-1.037-0.455-1.779-2.292
			c-1.26-3.137-4.5-11.664-4.812-12.448c-0.246-0.64-0.33-0.742-0.455-0.742c-0.12,0-0.202,0.125-0.452,0.805L100.973,50.229z"/>
		<path d="M117.643,37.924c0-0.123,0.063-0.207,0.164-0.248c0.205-0.062,0.764-0.123,1.383-0.123c2.209,0,3.572,1.547,3.572,4.127
			c0,1.569-0.535,2.685-1.262,3.18c-0.475,0.33-1.051,0.393-1.547,0.393c-0.904,0-1.857-0.146-2.166-0.331
			c-0.104-0.062-0.145-0.145-0.145-0.248V37.924L117.643,37.924z M115.99,46.512c0,1.982,0,3.612-0.102,4.479
			c-0.082,0.599-0.189,1.052-0.601,1.137c-0.187,0.042-0.433,0.083-0.621,0.083c-0.123,0-0.164,0.061-0.164,0.122
			c0,0.125,0.103,0.166,0.332,0.166c0.619,0,1.918-0.062,1.938-0.062c0.103,0,1.404,0.062,2.537,0.062
			c0.229,0,0.332-0.062,0.332-0.166c0-0.062-0.041-0.122-0.164-0.122c-0.188,0-0.643-0.042-0.932-0.083
			c-0.617-0.085-0.742-0.538-0.805-1.137c-0.102-0.867-0.102-2.497-0.102-4.479v-0.496c0-0.104,0.041-0.166,0.145-0.166l2.539,0.043
			c0.123,0,0.188,0.041,0.268,0.123c0.414,0.537,1.383,1.92,2.252,3.055c1.178,1.55,1.898,2.561,2.787,3.035
			c0.535,0.29,1.053,0.393,2.207,0.393h1.467c0.371,0,0.496-0.041,0.496-0.166c0-0.062-0.082-0.122-0.188-0.122
			c-0.125,0-0.412,0-0.805-0.062c-0.515-0.083-1.404-0.311-2.519-1.488c-1.197-1.279-2.603-3.117-4.295-5.285
			c1.856-1.713,2.498-3.241,2.498-4.769c0-1.424-0.908-2.437-1.427-2.807c-1.094-0.785-2.477-0.909-3.776-0.909
			c-0.64,0-2.207,0.062-2.437,0.062c-0.104,0-1.401-0.062-2.334-0.062c-0.227,0-0.326,0.041-0.326,0.166
			c0,0.082,0.08,0.124,0.164,0.124c0.185,0,0.535,0.02,0.701,0.061c0.681,0.145,0.847,0.474,0.89,1.177
			c0.038,0.66,0.038,1.239,0.038,4.458v3.635H115.99z"/>
		<path d="M130.027,52.231c-0.287-0.145-0.307-0.227-0.307-0.787c0-1.031,0.081-1.857,0.104-2.187
			c0.018-0.227,0.061-0.331,0.164-0.331c0.123,0,0.146,0.062,0.146,0.227c0,0.185,0,0.475,0.062,0.764
			c0.309,1.527,1.672,2.106,3.053,2.106c1.984,0,2.955-1.425,2.955-2.745c0-1.425-0.6-2.252-2.377-3.716l-0.93-0.765
			c-2.188-1.794-2.681-3.076-2.681-4.48c0-2.208,1.65-3.714,4.272-3.714c0.804,0,1.402,0.082,1.921,0.206
			c0.391,0.083,0.557,0.104,0.719,0.104c0.166,0,0.209,0.041,0.209,0.145c0,0.102-0.082,0.783-0.082,2.188
			c0,0.33-0.045,0.474-0.146,0.474c-0.123,0-0.145-0.103-0.166-0.268c-0.02-0.25-0.145-0.805-0.268-1.033
			c-0.125-0.227-0.684-1.095-2.58-1.095c-1.428,0-2.541,0.889-2.541,2.396c0,1.177,0.578,1.88,2.521,3.469l0.575,0.455
			c2.437,1.919,3.017,3.198,3.017,4.851c0,0.845-0.33,2.415-1.756,3.427c-0.888,0.62-2.002,0.867-3.115,0.867
			C131.828,52.788,130.877,52.643,130.027,52.231z"/>
		<path d="M152.719,46.512c0,1.982,0,3.612,0.104,4.479c0.061,0.599,0.186,1.052,0.805,1.137c0.289,0.042,0.746,0.083,0.931,0.083
			c0.121,0,0.164,0.061,0.164,0.122c0,0.104-0.103,0.166-0.328,0.166c-1.14,0-2.437-0.062-2.541-0.062s-1.402,0.062-2.023,0.062
			c-0.227,0-0.33-0.041-0.33-0.166c0-0.062,0.041-0.122,0.164-0.122c0.188,0,0.434-0.042,0.621-0.083
			c0.412-0.085,0.518-0.538,0.6-1.137c0.102-0.867,0.102-2.497,0.102-4.479v-2.167c0-0.083-0.061-0.124-0.123-0.124h-8.754
			c-0.061,0-0.123,0.021-0.123,0.124v2.167c0,1.982,0,3.612,0.104,4.479c0.062,0.599,0.187,1.052,0.806,1.137
			c0.289,0.042,0.742,0.083,0.93,0.083c0.121,0,0.164,0.061,0.164,0.122c0,0.104-0.102,0.166-0.326,0.166
			c-1.139,0-2.438-0.062-2.545-0.062c-0.102,0-1.404,0.062-2.021,0.062c-0.229,0-0.33-0.041-0.33-0.166
			c0-0.062,0.041-0.122,0.164-0.122c0.189,0,0.437-0.042,0.623-0.083c0.41-0.085,0.516-0.538,0.596-1.137
			c0.105-0.867,0.105-2.497,0.105-4.479v-3.634c0-3.22,0-3.798-0.041-4.458c-0.041-0.703-0.211-1.032-0.891-1.177
			c-0.164-0.041-0.516-0.061-0.703-0.061c-0.08,0-0.162-0.042-0.162-0.124c0-0.125,0.104-0.166,0.33-0.166
			c0.926,0,2.229,0.062,2.33,0.062c0.107,0,1.406-0.062,2.027-0.062c0.225,0,0.328,0.041,0.328,0.166
			c0,0.082-0.082,0.124-0.164,0.124c-0.146,0-0.271,0.02-0.519,0.061c-0.558,0.103-0.724,0.454-0.763,1.177
			c-0.043,0.66-0.043,1.239-0.043,4.458v0.434c0,0.104,0.063,0.124,0.123,0.124h8.754c0.063,0,0.123-0.019,0.123-0.124v-0.434
			c0-3.22,0-3.798-0.041-4.458c-0.039-0.703-0.207-1.032-0.889-1.177c-0.164-0.041-0.516-0.061-0.701-0.061
			c-0.08,0-0.162-0.042-0.162-0.124c0-0.125,0.103-0.166,0.328-0.166c0.931,0,2.229,0.062,2.332,0.062
			c0.105,0,1.402-0.062,2.025-0.062c0.225,0,0.33,0.041,0.33,0.166c0,0.082-0.084,0.124-0.166,0.124
			c-0.145,0-0.268,0.02-0.516,0.061c-0.558,0.103-0.726,0.454-0.765,1.177c-0.043,0.66-0.043,1.239-0.043,4.458L152.719,46.512
			L152.719,46.512z"/>
		<path d="M160.098,45.666c-0.061,0-0.102-0.042-0.061-0.145l1.816-5.574c0.102-0.309,0.205-0.309,0.313,0l1.961,5.574
			c0.018,0.083,0.018,0.145-0.084,0.145H160.098z M157.209,50.229c-0.373,1.032-0.785,1.814-1.734,1.941
			c-0.164,0.021-0.455,0.042-0.598,0.042c-0.105,0-0.188,0.04-0.188,0.122c0,0.125,0.125,0.166,0.393,0.166
			c0.973,0,2.107-0.062,2.33-0.062c0.23,0,1.119,0.062,1.613,0.062c0.184,0,0.309-0.041,0.309-0.166
			c0-0.082-0.061-0.122-0.205-0.122h-0.205c-0.352,0-0.787-0.187-0.787-0.6c0-0.371,0.105-0.868,0.287-1.383l1.242-3.655
			c0.041-0.104,0.104-0.164,0.205-0.164h4.439c0.102,0,0.145,0.04,0.184,0.123l1.922,5.078c0.123,0.33,0,0.517-0.125,0.558
			c-0.082,0.021-0.145,0.062-0.145,0.143c0,0.125,0.225,0.125,0.621,0.145c1.422,0.041,2.93,0.041,3.239,0.041
			c0.229,0,0.412-0.041,0.412-0.166c0-0.102-0.08-0.122-0.207-0.122c-0.205,0-0.517-0.021-0.823-0.125
			c-0.435-0.125-1.031-0.455-1.775-2.292c-1.26-3.137-4.502-11.664-4.813-12.448c-0.245-0.64-0.325-0.742-0.454-0.742
			c-0.119,0-0.203,0.125-0.451,0.805L157.209,50.229z"/>
		<path d="M174.533,46.553c0,3.035,0.082,4.356,0.455,4.727c0.33,0.331,0.865,0.477,2.477,0.477c1.096,0,2.002-0.022,2.498-0.622
			c0.268-0.328,0.475-0.844,0.537-1.235c0.021-0.166,0.061-0.27,0.188-0.27c0.104,0,0.123,0.083,0.123,0.31
			c0,0.226-0.145,1.466-0.311,2.065c-0.143,0.473-0.209,0.555-1.299,0.555c-2.977,0-4.338-0.123-5.535-0.123
			c-0.082,0-0.434,0.021-0.846,0.021c-0.412,0.021-0.869,0.041-1.178,0.041c-0.226,0-0.33-0.041-0.33-0.166
			c0-0.062,0.039-0.122,0.166-0.122c0.186,0,0.432-0.042,0.619-0.083c0.411-0.085,0.514-0.538,0.596-1.137
			c0.106-0.867,0.106-2.497,0.106-4.479v-3.634c0-3.22,0-3.798-0.041-4.458c-0.043-0.703-0.206-1.032-0.891-1.177
			c-0.162-0.041-0.519-0.061-0.703-0.061c-0.08,0-0.162-0.042-0.162-0.124c0-0.125,0.104-0.166,0.332-0.166
			c0.927,0,2.228,0.062,2.33,0.062s1.61-0.062,2.229-0.062c0.229,0,0.33,0.041,0.33,0.166c0,0.082-0.08,0.124-0.162,0.124
			c-0.146,0-0.435,0.02-0.683,0.061c-0.601,0.103-0.767,0.454-0.81,1.177c-0.038,0.66-0.038,1.239-0.038,4.458L174.533,46.553
			L174.533,46.553z"/>
		<path d="M185.037,46.553c0,3.035,0.082,4.356,0.455,4.727c0.328,0.331,0.863,0.477,2.475,0.477c1.094,0,2.002-0.022,2.498-0.622
			c0.268-0.328,0.475-0.844,0.535-1.235c0.02-0.166,0.061-0.27,0.189-0.27c0.102,0,0.121,0.083,0.121,0.31
			c0,0.226-0.144,1.466-0.312,2.065c-0.146,0.473-0.203,0.555-1.297,0.555c-2.976,0-4.341-0.123-5.537-0.123
			c-0.082,0-0.433,0.021-0.845,0.021c-0.411,0.021-0.868,0.041-1.178,0.041c-0.229,0-0.332-0.041-0.332-0.166
			c0-0.062,0.043-0.122,0.168-0.122c0.185,0,0.433-0.042,0.617-0.083c0.416-0.085,0.516-0.538,0.6-1.137
			c0.104-0.867,0.104-2.497,0.104-4.479v-3.634c0-3.22,0-3.798-0.043-4.458c-0.041-0.703-0.204-1.032-0.885-1.177
			c-0.166-0.041-0.519-0.061-0.703-0.061c-0.082,0-0.164-0.042-0.164-0.124c0-0.125,0.104-0.166,0.33-0.166
			c0.931,0,2.229,0.062,2.33,0.062c0.104,0,1.612-0.062,2.229-0.062c0.229,0,0.332,0.041,0.332,0.166
			c0,0.082-0.082,0.124-0.164,0.124c-0.147,0-0.434,0.02-0.684,0.061c-0.6,0.103-0.762,0.454-0.805,1.177
			c-0.039,0.66-0.039,1.239-0.039,4.458v3.675H185.037z"/>
		<g>
			<path d="M19.178,30.591c0,0.696,0,1.267,0.036,1.57c0.022,0.211,0.065,0.37,0.282,0.398c0.102,0.015,0.261,0.029,0.327,0.029
				c0.043,0,0.057,0.021,0.057,0.044c0,0.036-0.037,0.057-0.115,0.057c-0.399,0-0.854-0.021-0.891-0.021s-0.493,0.021-0.709,0.021
				c-0.08,0-0.116-0.014-0.116-0.057c0-0.023,0.013-0.044,0.058-0.044c0.065,0,0.152-0.015,0.217-0.029
				c0.145-0.028,0.181-0.188,0.21-0.398c0.036-0.303,0.036-0.875,0.036-1.57V27.53l-1.072,0.014
				c-0.448,0.006-0.622,0.057-0.737,0.231c-0.08,0.123-0.101,0.175-0.123,0.225c-0.022,0.058-0.043,0.072-0.072,0.072
				c-0.022,0-0.037-0.022-0.037-0.065c0-0.072,0.145-0.694,0.159-0.752c0.015-0.044,0.043-0.138,0.074-0.138
				c0.049,0,0.122,0.073,0.318,0.086c0.21,0.021,0.485,0.036,0.571,0.036h2.715c0.463,0,0.659-0.072,0.716-0.072
				c0.038,0,0.038,0.043,0.038,0.087c0,0.217-0.023,0.717-0.023,0.795c0,0.065-0.021,0.095-0.05,0.095
				c-0.038,0-0.052-0.023-0.059-0.124l-0.006-0.08c-0.029-0.217-0.195-0.384-0.89-0.398l-0.913-0.014L19.178,30.591L19.178,30.591z"
				/>
			<path d="M24.701,31.03c0,0.525,0,0.957,0.027,1.186c0.016,0.158,0.049,0.278,0.212,0.301c0.076,0.012,0.197,0.022,0.246,0.022
				c0.033,0,0.043,0.016,0.043,0.032c0,0.027-0.026,0.043-0.087,0.043c-0.299,0-0.645-0.016-0.673-0.016
				c-0.027,0-0.37,0.016-0.534,0.016c-0.061,0-0.088-0.011-0.088-0.043c0-0.016,0.011-0.032,0.043-0.032
				c0.05,0,0.115-0.011,0.164-0.022c0.111-0.022,0.138-0.143,0.159-0.301c0.028-0.229,0.028-0.661,0.028-1.186v-0.574
				c0-0.021-0.017-0.033-0.033-0.033H21.89c-0.014,0-0.032,0.006-0.032,0.033v0.574c0,0.525,0,0.957,0.027,1.186
				c0.017,0.158,0.049,0.278,0.214,0.301c0.076,0.012,0.195,0.022,0.246,0.022c0.032,0,0.043,0.016,0.043,0.032
				c0,0.027-0.028,0.043-0.087,0.043c-0.301,0-0.645-0.016-0.673-0.016c-0.028,0-0.371,0.016-0.536,0.016
				c-0.06,0-0.086-0.011-0.086-0.043c0-0.016,0.01-0.032,0.043-0.032c0.049,0,0.115-0.011,0.164-0.022
				c0.109-0.022,0.137-0.143,0.16-0.301c0.026-0.229,0.026-0.661,0.026-1.186v-0.962c0-0.852,0-1.005-0.01-1.181
				c-0.011-0.186-0.055-0.273-0.235-0.312c-0.043-0.01-0.137-0.016-0.186-0.016c-0.022,0-0.043-0.01-0.043-0.033
				c0-0.032,0.027-0.043,0.088-0.043c0.246,0,0.589,0.018,0.617,0.018c0.028,0,0.372-0.018,0.535-0.018
				c0.061,0,0.088,0.011,0.088,0.043c0,0.022-0.022,0.033-0.043,0.033c-0.037,0-0.071,0.006-0.136,0.016
				c-0.147,0.028-0.191,0.121-0.203,0.312c-0.01,0.176-0.01,0.329-0.01,1.181v0.114c0,0.027,0.018,0.034,0.032,0.034h2.318
				c0.016,0,0.033-0.006,0.033-0.034v-0.114c0-0.852,0-1.005-0.012-1.181c-0.01-0.186-0.054-0.273-0.235-0.312
				c-0.044-0.01-0.136-0.016-0.186-0.016c-0.021,0-0.043-0.01-0.043-0.033c0-0.032,0.027-0.043,0.087-0.043
				c0.246,0,0.589,0.018,0.616,0.018c0.028,0,0.374-0.018,0.536-0.018c0.061,0,0.088,0.011,0.088,0.043
				c0,0.022-0.021,0.033-0.043,0.033c-0.037,0-0.071,0.006-0.137,0.016c-0.147,0.028-0.191,0.121-0.202,0.312
				c-0.01,0.176-0.01,0.329-0.01,1.181v0.962H24.701z"/>
			<path d="M26.038,30.068c0-0.852,0-1.005-0.01-1.181c-0.012-0.186-0.055-0.273-0.236-0.312c-0.043-0.01-0.137-0.016-0.185-0.016
				c-0.021,0-0.044-0.01-0.044-0.033c0-0.032,0.029-0.043,0.088-0.043c0.246,0,0.59,0.018,0.617,0.018c0.039,0,1.125,0,1.251-0.006
				c0.104-0.006,0.192-0.016,0.235-0.027c0.027-0.005,0.049-0.028,0.077-0.028c0.016,0,0.023,0.022,0.023,0.049
				c0,0.038-0.028,0.104-0.043,0.258c-0.007,0.054-0.018,0.295-0.029,0.36c-0.005,0.027-0.016,0.06-0.038,0.06
				c-0.033,0-0.044-0.027-0.044-0.07c0-0.039-0.004-0.13-0.032-0.197c-0.039-0.087-0.094-0.152-0.389-0.186
				c-0.092-0.012-0.688-0.017-0.748-0.017c-0.023,0-0.034,0.017-0.034,0.055v1.507c0,0.039,0.006,0.056,0.034,0.056
				c0.07,0,0.742,0,0.868-0.013c0.13-0.01,0.208-0.022,0.256-0.077c0.039-0.044,0.059-0.071,0.083-0.071
				c0.016,0,0.027,0.011,0.027,0.045c0,0.031-0.027,0.124-0.043,0.305c-0.012,0.109-0.023,0.311-0.023,0.349
				c0,0.044,0,0.104-0.038,0.104c-0.027,0-0.039-0.022-0.039-0.05c0-0.055,0-0.108-0.022-0.18c-0.021-0.076-0.07-0.168-0.283-0.191
				c-0.146-0.017-0.688-0.026-0.781-0.026c-0.027,0-0.039,0.015-0.039,0.037v0.481c0,0.186-0.005,0.819,0,0.936
				c0.017,0.377,0.098,0.447,0.634,0.447c0.143,0,0.382,0,0.525-0.059c0.143-0.061,0.207-0.171,0.246-0.395
				c0.01-0.061,0.021-0.083,0.049-0.083c0.033,0,0.033,0.043,0.033,0.083c0,0.043-0.043,0.415-0.071,0.53
				c-0.038,0.141-0.082,0.141-0.295,0.141c-0.826,0-1.19-0.032-1.35-0.032c-0.01,0-0.104,0.005-0.219,0.005
				c-0.108,0.006-0.234,0.011-0.316,0.011c-0.059,0-0.087-0.011-0.087-0.043c0-0.016,0.01-0.032,0.043-0.032
				c0.05,0,0.114-0.011,0.165-0.022c0.108-0.022,0.137-0.143,0.158-0.301c0.027-0.229,0.027-0.661,0.027-1.186L26.038,30.068
				L26.038,30.068z"/>
		</g>
	</g>
</g>
<g>
	<rect x="86.717" y="3.678" fill="#A91E22" width="24.901" height="24.724"/>
	<polygon fill="none" stroke="#FFFFFF" stroke-width="0.8741" points="89.954,11.709 107.992,11.675 98.972,5.266 	"/>
	<path fill="none" stroke="#FFFFFF" stroke-width="0.8741" d="M96.563,26.172c0.72,0,1.304-0.585,1.304-1.306V14.068
		c0-0.721-0.584-1.306-1.304-1.306l0,0c-0.724,0-1.305,0.584-1.305,1.306v10.797C95.259,25.586,95.84,26.172,96.563,26.172
		L96.563,26.172z"/>
	<path fill="none" stroke="#FFFFFF" stroke-width="0.8741" d="M101.036,26.154c0.721,0,1.305-0.584,1.305-1.305V14.052
		c0-0.722-0.584-1.305-1.305-1.305l0,0c-0.724,0-1.307,0.583-1.307,1.305V24.85C99.729,25.57,100.313,26.154,101.036,26.154
		L101.036,26.154z"/>
	<path fill="none" stroke="#FFFFFF" stroke-width="0.8741" d="M105.088,12.813c-0.723,0-1.131,0.584-1.131,1.305v10.798
		c0,0.72,0.408,1.304,1.131,1.304"/>
	<path fill="none" stroke="#FFFFFF" stroke-width="0.8741" d="M92.431,26.246c0.721,0,1.127-0.584,1.127-1.305V14.143
		c0-0.721-0.406-1.306-1.127-1.306"/>
	<rect x="87.435" y="4.487" fill="none" stroke="#FFFFFF" stroke-width="0.8499" width="23.467" height="23.197"/>
</g>
<g>
	<g>
		<path d="M51.478,85.212c2.476,0,4.324,1.563,4.324,4.126c0,2.464-1.738,4.5-4.391,4.5c-3.014,0-4.269-2.344-4.269-4.324
			C47.144,87.73,48.441,85.212,51.478,85.212z M51.709,93.419c0.989,0,3.036-0.571,3.036-3.772c0-2.641-1.605-4.061-3.344-4.061
			c-1.837,0-3.213,1.211-3.213,3.62C48.188,91.77,49.729,93.419,51.709,93.419z"/>
		<path d="M57.901,89.314c0-1.451,0-1.715-0.021-2.013c-0.022-0.319-0.077-0.474-0.396-0.518c-0.077-0.011-0.242-0.021-0.33-0.021
			c-0.033,0-0.077-0.045-0.077-0.078c0-0.055,0.044-0.076,0.154-0.076c0.44,0,1.045,0.021,1.1,0.021c0.188,0,2.289,0.012,2.509,0
			c0.187-0.012,0.352-0.012,0.439-0.045c0.056-0.011,0.1-0.055,0.132-0.055c0.044,0,0.066,0.044,0.066,0.088
			c0,0.066-0.044,0.177-0.077,0.439c-0.011,0.088-0.021,0.506-0.044,0.616c-0.011,0.044-0.044,0.099-0.088,0.099
			s-0.077-0.043-0.077-0.108c0-0.077-0.033-0.231-0.088-0.353c-0.055-0.123-0.286-0.275-0.66-0.275l-1.584-0.021
			c-0.055,0-0.077,0.021-0.077,0.1v2.553c0,0.055,0,0.088,0.066,0.088l1.32-0.011c0.165,0,0.308,0,0.439-0.013
			c0.231-0.021,0.363-0.055,0.451-0.164c0.044-0.055,0.088-0.1,0.121-0.1c0.044,0,0.055,0.033,0.055,0.077
			c0,0.056-0.065,0.209-0.088,0.517c-0.021,0.188-0.033,0.563-0.033,0.629c0,0.088-0.021,0.187-0.088,0.187
			c-0.055,0-0.065-0.044-0.065-0.088c-0.012-0.099-0.022-0.231-0.066-0.341c-0.044-0.133-0.198-0.254-0.495-0.297
			c-0.242-0.033-1.386-0.022-1.551-0.022c-0.055,0-0.066,0.022-0.066,0.088v0.748c0,0.925,0,1.661,0.044,2.024
			c0.033,0.275,0.088,0.451,0.353,0.494c0.143,0.022,0.352,0.045,0.439,0.045c0.056,0,0.077,0.044,0.077,0.076
			c0,0.045-0.044,0.078-0.153,0.078c-0.54,0-1.167-0.033-1.211-0.033c-0.055,0-0.659,0.033-0.956,0.033
			c-0.1,0-0.154-0.022-0.154-0.078c0-0.032,0.021-0.076,0.077-0.076c0.088,0,0.209-0.033,0.297-0.045
			c0.187-0.032,0.209-0.219,0.253-0.494c0.055-0.385,0.055-1.122,0.055-2.024V89.314L57.901,89.314z"/>
		<path d="M63.841,89.314c0-1.451,0-1.715-0.022-2.013c-0.021-0.319-0.077-0.474-0.396-0.518c-0.077-0.011-0.242-0.021-0.33-0.021
			c-0.033,0-0.077-0.045-0.077-0.078c0-0.055,0.044-0.076,0.154-0.076c0.439,0,1.045,0.021,1.1,0.021c0.187,0,2.289,0.012,2.508,0
			c0.188-0.012,0.353-0.012,0.44-0.045c0.055-0.011,0.099-0.055,0.132-0.055c0.044,0,0.066,0.044,0.066,0.088
			c0,0.066-0.045,0.177-0.077,0.439c-0.012,0.088-0.022,0.506-0.044,0.616c-0.012,0.044-0.044,0.099-0.088,0.099
			c-0.045,0-0.077-0.043-0.077-0.108c0-0.077-0.033-0.231-0.088-0.353c-0.056-0.123-0.286-0.275-0.66-0.275l-1.584-0.021
			c-0.056,0-0.077,0.021-0.077,0.1v2.553c0,0.055,0,0.088,0.065,0.088l1.32-0.011c0.165,0,0.308,0,0.44-0.013
			c0.23-0.021,0.362-0.055,0.45-0.164c0.045-0.055,0.089-0.1,0.121-0.1c0.044,0,0.056,0.033,0.056,0.077
			c0,0.056-0.066,0.209-0.088,0.517c-0.022,0.188-0.033,0.563-0.033,0.629c0,0.088-0.022,0.187-0.088,0.187
			c-0.056,0-0.066-0.044-0.066-0.088c-0.011-0.099-0.021-0.231-0.065-0.341c-0.045-0.133-0.198-0.254-0.495-0.297
			c-0.242-0.033-1.387-0.022-1.552-0.022c-0.055,0-0.065,0.022-0.065,0.088v0.748c0,0.925,0,1.661,0.044,2.024
			c0.033,0.275,0.088,0.451,0.352,0.494c0.144,0.022,0.353,0.045,0.44,0.045c0.055,0,0.077,0.044,0.077,0.076
			c0,0.045-0.044,0.078-0.154,0.078c-0.539,0-1.166-0.033-1.21-0.033c-0.055,0-0.66,0.033-0.957,0.033
			c-0.099,0-0.154-0.022-0.154-0.078c0-0.032,0.022-0.076,0.077-0.076c0.088,0,0.209-0.033,0.297-0.045
			c0.188-0.032,0.209-0.219,0.253-0.494c0.056-0.385,0.056-1.122,0.056-2.024V89.314L63.841,89.314z"/>
		<path d="M70.66,90.966c0,0.902,0,1.64,0.045,2.024c0.033,0.275,0.065,0.451,0.353,0.494c0.143,0.022,0.352,0.045,0.438,0.045
			c0.057,0,0.078,0.044,0.078,0.076c0,0.045-0.045,0.078-0.153,0.078c-0.539,0-1.166-0.033-1.211-0.033
			c-0.056,0-0.66,0.033-0.957,0.033c-0.1,0-0.154-0.022-0.154-0.078c0-0.032,0.021-0.076,0.077-0.076
			c0.088,0,0.209-0.021,0.297-0.045c0.188-0.043,0.22-0.219,0.253-0.494c0.044-0.385,0.055-1.122,0.055-2.024v-1.649
			c0-1.452,0-1.717-0.021-2.014c-0.022-0.318-0.1-0.462-0.309-0.506c-0.109-0.021-0.23-0.033-0.297-0.033
			c-0.044,0-0.077-0.043-0.077-0.076c0-0.056,0.044-0.078,0.154-0.078c0.319,0,0.924,0.022,0.979,0.022
			c0.045,0,0.672-0.022,0.969-0.022c0.108,0,0.154,0.022,0.154,0.078c0,0.033-0.046,0.076-0.077,0.076c-0.066,0-0.132,0-0.242,0.021
			c-0.265,0.056-0.319,0.188-0.341,0.518c-0.013,0.297-0.013,0.562-0.013,2.014V90.966L70.66,90.966z"/>
		<path d="M74.037,92.805c-0.944-0.814-1.177-1.883-1.177-2.772c0-0.628,0.231-1.718,1.089-2.554c0.584-0.562,1.463-1,2.949-1
			c0.385,0,0.936,0.032,1.408,0.108c0.363,0.065,0.671,0.134,0.99,0.144c0.099,0,0.121,0.045,0.121,0.1
			c0,0.077-0.022,0.188-0.046,0.527c-0.011,0.31-0.011,0.826-0.021,0.957c-0.012,0.145-0.055,0.199-0.11,0.199
			c-0.064,0-0.077-0.066-0.077-0.199c0-0.362-0.153-0.736-0.405-0.935c-0.342-0.286-1.045-0.519-1.904-0.519
			c-1.242,0-1.837,0.33-2.178,0.649c-0.715,0.66-0.869,1.496-0.869,2.442c0,1.793,1.419,3.389,3.487,3.389
			c0.726,0,1.21-0.056,1.595-0.439c0.209-0.209,0.342-0.605,0.375-0.781c0.021-0.1,0.033-0.132,0.099-0.132
			c0.044,0,0.088,0.065,0.088,0.132s-0.132,0.88-0.23,1.199c-0.055,0.176-0.076,0.209-0.241,0.275
			c-0.396,0.152-1.122,0.209-1.749,0.209C75.775,93.805,74.798,93.463,74.037,92.805z"/>
		<path d="M81.804,89.314c0-1.451,0-1.715-0.022-2.013c-0.021-0.319-0.076-0.474-0.396-0.518c-0.077-0.011-0.242-0.021-0.33-0.021
			c-0.032,0-0.077-0.045-0.077-0.078c0-0.055,0.045-0.076,0.154-0.076c0.438,0,1.065,0.021,1.122,0.021c0.064,0,2.091,0.012,2.311,0
			c0.188-0.012,0.362-0.045,0.44-0.056c0.043-0.011,0.088-0.044,0.131-0.044c0.033,0,0.045,0.044,0.045,0.088
			c0,0.066-0.055,0.177-0.077,0.439c-0.011,0.088-0.033,0.506-0.056,0.616c-0.011,0.044-0.043,0.099-0.088,0.099
			c-0.056,0-0.076-0.043-0.076-0.121c0-0.064-0.013-0.219-0.057-0.329c-0.064-0.153-0.165-0.22-0.691-0.286
			c-0.166-0.021-1.287-0.032-1.398-0.032c-0.043,0-0.055,0.032-0.055,0.099v2.541c0,0.066,0,0.101,0.055,0.101
			c0.121,0,1.398,0,1.618-0.022c0.231-0.021,0.374-0.033,0.473-0.132c0.066-0.065,0.11-0.121,0.145-0.121s0.055,0.022,0.055,0.077
			s-0.055,0.209-0.077,0.518c-0.021,0.188-0.044,0.539-0.044,0.604c0,0.077-0.021,0.176-0.088,0.176
			c-0.044,0-0.065-0.032-0.065-0.088c0-0.088,0-0.187-0.043-0.308c-0.033-0.133-0.121-0.242-0.496-0.286
			c-0.265-0.033-1.298-0.044-1.463-0.044c-0.056,0-0.066,0.033-0.066,0.064v0.781c0,0.319-0.011,1.408,0,1.596
			c0.022,0.627,0.198,0.748,1.156,0.748c0.252,0,0.715,0,0.967-0.1c0.254-0.109,0.386-0.273,0.441-0.648
			c0.021-0.109,0.043-0.144,0.098-0.144c0.056,0,0.065,0.077,0.065,0.144c0,0.065-0.075,0.705-0.132,0.901
			c-0.064,0.242-0.165,0.242-0.539,0.242c-0.726,0-1.287-0.021-1.683-0.032c-0.408-0.021-0.66-0.021-0.804-0.021
			c-0.022,0-0.209,0-0.418,0.011c-0.188,0.012-0.407,0.022-0.563,0.022c-0.099,0-0.154-0.022-0.154-0.078
			c0-0.032,0.022-0.076,0.078-0.076c0.088,0,0.209-0.033,0.297-0.045c0.188-0.032,0.209-0.219,0.254-0.494
			c0.055-0.385,0.055-1.122,0.055-2.024L81.804,89.314L81.804,89.314z"/>
		<path d="M94.289,86.479c2.178,0,3.828,1.33,3.828,3.51c0,2.09-1.551,3.816-3.883,3.816c-2.65,0-3.785-1.99-3.785-3.675
			C90.449,88.623,91.616,86.479,94.289,86.479z M94.51,93.419c0.869,0,2.617-0.462,2.617-3.168c0-2.244-1.363-3.422-2.894-3.422
			c-1.617,0-2.783,1.013-2.783,3.048C91.451,92.055,92.76,93.419,94.51,93.419z"/>
		<path d="M100.195,89.314c0-1.451,0-1.715-0.021-2.013c-0.021-0.319-0.076-0.474-0.396-0.518c-0.076-0.011-0.242-0.021-0.33-0.021
			c-0.032,0-0.076-0.045-0.076-0.078c0-0.055,0.044-0.076,0.154-0.076c0.438,0,1.045,0.021,1.101,0.021c0.188,0,2.289,0.012,2.508,0
			c0.188-0.012,0.354-0.012,0.44-0.045c0.056-0.011,0.099-0.055,0.132-0.055c0.045,0,0.065,0.044,0.065,0.088
			c0,0.066-0.045,0.177-0.076,0.439c-0.012,0.088-0.022,0.506-0.045,0.616c-0.013,0.044-0.043,0.099-0.088,0.099
			s-0.076-0.043-0.076-0.108c0-0.077-0.033-0.231-0.09-0.353c-0.056-0.121-0.285-0.275-0.658-0.275l-1.586-0.021
			c-0.056,0-0.076,0.021-0.076,0.1v2.553c0,0.055,0,0.088,0.066,0.088l1.319-0.011c0.164,0,0.308,0,0.439-0.013
			c0.23-0.021,0.363-0.055,0.451-0.164c0.043-0.055,0.088-0.1,0.121-0.1c0.043,0,0.055,0.033,0.055,0.077
			c0,0.056-0.066,0.209-0.088,0.517c-0.021,0.188-0.033,0.563-0.033,0.629c0,0.088-0.021,0.187-0.088,0.187
			c-0.055,0-0.066-0.044-0.066-0.088c-0.01-0.099-0.021-0.231-0.065-0.341c-0.043-0.133-0.197-0.254-0.494-0.297
			c-0.242-0.033-1.388-0.022-1.551-0.022c-0.056,0-0.066,0.022-0.066,0.088v0.748c0,0.925,0,1.661,0.043,2.024
			c0.033,0.275,0.091,0.451,0.354,0.494c0.143,0.022,0.352,0.045,0.439,0.045c0.055,0,0.075,0.044,0.075,0.076
			c0,0.045-0.043,0.078-0.151,0.078c-0.539,0-1.166-0.033-1.211-0.033c-0.056,0-0.66,0.033-0.957,0.033
			c-0.101,0-0.154-0.022-0.154-0.078c0-0.032,0.021-0.076,0.078-0.076c0.088,0,0.209-0.033,0.297-0.045
			c0.186-0.032,0.209-0.219,0.252-0.494c0.055-0.385,0.055-1.122,0.055-2.024v-1.651H100.195z"/>
		<path d="M111.604,85.643c0.131-0.363,0.176-0.431,0.24-0.431c0.065,0,0.11,0.056,0.242,0.396c0.166,0.418,1.893,4.963,2.563,6.635
			c0.396,0.979,0.715,1.154,0.944,1.221c0.166,0.057,0.33,0.066,0.441,0.066c0.064,0,0.109,0.011,0.109,0.066
			c0,0.064-0.1,0.088-0.221,0.088c-0.164,0-0.967,0-1.728-0.022c-0.209-0.011-0.33-0.011-0.33-0.077
			c0-0.044,0.033-0.064,0.076-0.076c0.065-0.021,0.133-0.121,0.065-0.298l-1.022-2.706c-0.021-0.044-0.043-0.066-0.099-0.066h-2.366
			c-0.056,0-0.089,0.033-0.109,0.09l-0.659,1.947c-0.099,0.273-0.154,0.539-0.154,0.735c0,0.222,0.231,0.319,0.418,0.319h0.111
			c0.075,0,0.108,0.021,0.108,0.066c0,0.064-0.065,0.088-0.164,0.088c-0.267,0-0.737-0.033-0.858-0.033s-0.728,0.033-1.242,0.033
			c-0.146,0-0.209-0.022-0.209-0.088c0-0.045,0.043-0.066,0.098-0.066c0.078,0,0.232-0.012,0.32-0.021
			c0.506-0.066,0.725-0.484,0.924-1.033L111.604,85.643z M112.746,90.042c0.055,0,0.055-0.033,0.045-0.077l-1.045-2.971
			c-0.055-0.165-0.111-0.165-0.166,0l-0.967,2.971c-0.023,0.055,0,0.077,0.031,0.077H112.746z"/>
		<path d="M118.4,90.988c0,1.375,0.023,1.936,0.199,2.101c0.154,0.154,0.527,0.222,1.287,0.222c0.506,0,0.936-0.012,1.166-0.287
			c0.121-0.144,0.197-0.34,0.229-0.527c0.013-0.064,0.045-0.121,0.101-0.121c0.043,0,0.065,0.044,0.065,0.145
			c0,0.099-0.065,0.66-0.144,0.935c-0.065,0.221-0.1,0.253-0.616,0.253c-0.693,0-1.231-0.012-1.685-0.032
			c-0.438-0.012-0.77-0.022-1.055-0.022c-0.045,0-0.211,0-0.396,0.012c-0.198,0.012-0.407,0.021-0.563,0.021
			c-0.098,0-0.152-0.021-0.152-0.076c0-0.033,0.021-0.077,0.076-0.077c0.088,0,0.209-0.021,0.297-0.044
			c0.188-0.045,0.209-0.221,0.254-0.495c0.056-0.386,0.056-1.122,0.056-2.024v-1.65c0-1.451,0-1.715-0.021-2.012
			c-0.023-0.32-0.078-0.475-0.396-0.519c-0.078-0.011-0.242-0.021-0.33-0.021c-0.033,0-0.078-0.045-0.078-0.078
			c0-0.055,0.045-0.076,0.154-0.076c0.441,0,1.045,0.021,1.102,0.021c0.043,0,0.77-0.021,1.066-0.021c0.1,0,0.154,0.021,0.154,0.076
			c0,0.033-0.045,0.065-0.078,0.065c-0.064,0-0.209,0.013-0.318,0.022c-0.285,0.055-0.342,0.197-0.363,0.527
			c-0.012,0.297-0.012,0.562-0.012,2.014V90.988L118.4,90.988z"/>
		<path d="M122.91,89.314c0-1.451,0-1.715-0.021-2.013c-0.021-0.297-0.075-0.474-0.396-0.518c-0.075-0.011-0.241-0.021-0.33-0.021
			c-0.032,0-0.075-0.045-0.075-0.078c0-0.055,0.043-0.076,0.153-0.076c0.438,0,1.022,0.021,1.111,0.021
			c0.088,0,0.692-0.021,0.979-0.021c0.108,0,0.163,0.021,0.163,0.076c0,0.033-0.043,0.078-0.088,0.078c-0.063,0-0.121,0-0.241,0.021
			c-0.253,0.044-0.308,0.209-0.328,0.518c-0.023,0.298-0.023,0.562-0.023,2.013v1.311c0,1.354,0.297,1.914,0.715,2.288
			c0.475,0.43,0.893,0.506,1.441,0.506c0.594,0,1.166-0.265,1.496-0.66c0.451-0.538,0.551-1.309,0.551-2.266v-1.179
			c0-1.451-0.012-1.715-0.021-2.013c-0.012-0.297-0.066-0.474-0.385-0.518c-0.078-0.011-0.242-0.021-0.33-0.021
			c-0.045,0-0.078-0.045-0.078-0.078c0-0.055,0.045-0.076,0.154-0.076c0.43,0,0.99,0.021,1.045,0.021
			c0.066,0,0.529-0.021,0.814-0.021c0.108,0,0.153,0.021,0.153,0.076c0,0.033-0.032,0.078-0.077,0.078c-0.064,0-0.121,0-0.242,0.021
			c-0.265,0.056-0.318,0.209-0.34,0.518c-0.021,0.298-0.013,0.562-0.013,2.013v1.002c0,1.013-0.131,2.146-0.901,2.806
			c-0.703,0.604-1.451,0.683-2.023,0.683c-0.318,0-1.332-0.021-2.014-0.66c-0.474-0.439-0.849-1.09-0.849-2.453L122.91,89.314
			L122.91,89.314z"/>
		<path d="M138.598,92.484c0.033,0.33,0.1,0.836,0.494,0.968c0.274,0.088,0.528,0.088,0.627,0.088c0.045,0,0.078,0.022,0.078,0.065
			c0,0.056-0.088,0.088-0.199,0.088c-0.219,0-1.297-0.01-1.648-0.043c-0.232-0.022-0.275-0.055-0.275-0.1
			c0-0.033,0.021-0.066,0.064-0.076c0.057-0.013,0.066-0.154,0.045-0.33l-0.463-4.754h-0.021l-2.332,4.774
			c-0.196,0.407-0.254,0.495-0.342,0.495s-0.143-0.088-0.33-0.43c-0.252-0.461-0.891-1.66-1.133-2.166
			c-0.285-0.596-1.066-2.168-1.232-2.554h-0.043l-0.375,4.226c-0.01,0.143-0.01,0.318-0.01,0.473c0,0.145,0.088,0.23,0.23,0.266
			c0.164,0.043,0.309,0.055,0.373,0.055c0.033,0,0.078,0.033,0.078,0.066c0,0.064-0.066,0.088-0.176,0.088
			c-0.363,0-0.826-0.033-0.902-0.033c-0.088,0-0.551,0.033-0.814,0.033c-0.1,0-0.164-0.022-0.164-0.088
			c0-0.033,0.043-0.066,0.099-0.066c0.077,0,0.146-0.012,0.286-0.033c0.318-0.055,0.33-0.396,0.373-0.748l0.705-6.105
			c0.011-0.1,0.056-0.164,0.109-0.164c0.066,0,0.143,0.032,0.197,0.143l2.928,5.811l2.816-5.799
			c0.043-0.089,0.088-0.154,0.154-0.154c0.063,0,0.121,0.078,0.143,0.254L138.598,92.484z"/>
		<path d="M141.975,92.407c0.021,0.771,0.109,1.001,0.373,1.067c0.176,0.043,0.396,0.055,0.484,0.055
			c0.045,0,0.077,0.033,0.077,0.076c0,0.056-0.065,0.078-0.178,0.078c-0.55,0-0.935-0.033-1.021-0.033
			c-0.091,0-0.496,0.033-0.937,0.033c-0.101,0-0.154-0.012-0.154-0.078c0-0.043,0.033-0.076,0.076-0.076
			c0.078,0,0.254-0.012,0.396-0.055c0.242-0.066,0.275-0.32,0.275-1.166V86.95c0-0.374,0.055-0.474,0.133-0.474
			c0.109,0,0.273,0.188,0.373,0.287c0.154,0.152,1.563,1.649,3.059,3.189c0.957,0.99,1.992,2.102,2.289,2.408l-0.1-4.687
			c-0.012-0.604-0.066-0.813-0.363-0.868c-0.176-0.033-0.396-0.045-0.473-0.045c-0.066,0-0.078-0.056-0.078-0.088
			c0-0.056,0.078-0.066,0.188-0.066c0.438,0,0.901,0.022,1.012,0.022s0.431-0.022,0.826-0.022c0.101,0,0.176,0.012,0.176,0.066
			c0,0.032-0.045,0.088-0.108,0.088c-0.045,0-0.121,0-0.232,0.021c-0.318,0.066-0.34,0.253-0.34,0.814l-0.023,5.479
			c0,0.615-0.01,0.671-0.076,0.671c-0.1,0-0.197-0.076-0.735-0.571c-0.101-0.089-1.496-1.464-2.521-2.531
			c-1.123-1.177-2.211-2.32-2.51-2.65L141.975,92.407z"/>
		<path d="M151.445,90.966c0,0.902,0,1.64,0.043,2.024c0.033,0.275,0.066,0.451,0.354,0.494c0.144,0.022,0.353,0.045,0.439,0.045
			c0.055,0,0.076,0.044,0.076,0.076c0,0.045-0.043,0.078-0.152,0.078c-0.539,0-1.166-0.033-1.211-0.033
			c-0.055,0-0.66,0.033-0.957,0.033c-0.1,0-0.154-0.022-0.154-0.078c0-0.032,0.021-0.076,0.078-0.076
			c0.088,0,0.209-0.021,0.297-0.045c0.187-0.043,0.22-0.219,0.252-0.494c0.045-0.385,0.056-1.122,0.056-2.024v-1.649
			c0-1.452,0-1.717-0.021-2.014c-0.021-0.318-0.101-0.462-0.31-0.506c-0.108-0.021-0.229-0.033-0.297-0.033
			c-0.043,0-0.076-0.043-0.076-0.076c0-0.056,0.043-0.078,0.153-0.078c0.318,0,0.925,0.022,0.979,0.022
			c0.046,0,0.673-0.022,0.97-0.022c0.108,0,0.153,0.022,0.153,0.078c0,0.033-0.045,0.076-0.077,0.076c-0.066,0-0.132,0-0.242,0.021
			c-0.265,0.056-0.318,0.188-0.34,0.518c-0.013,0.297-0.013,0.562-0.013,2.014L151.445,90.966L151.445,90.966z"/>
	</g>
	<g>
		<path d="M21.343,100.557c0-1.716,0-2.023-0.022-2.375c-0.022-0.375-0.11-0.552-0.473-0.629c-0.088-0.021-0.275-0.031-0.374-0.031
			c-0.044,0-0.088-0.022-0.088-0.066c0-0.064,0.055-0.088,0.176-0.088c0.495,0,1.188,0.033,1.243,0.033
			c0.121,0,0.957-0.033,1.298-0.033c0.693,0,1.43,0.066,2.013,0.484c0.275,0.196,0.759,0.735,0.759,1.496
			c0,0.813-0.341,1.627-1.331,2.541c0.902,1.154,1.65,2.135,2.289,2.815c0.594,0.627,1.067,0.748,1.342,0.792
			c0.209,0.033,0.363,0.033,0.429,0.033c0.055,0,0.099,0.033,0.099,0.066c0,0.064-0.066,0.088-0.264,0.088h-0.781
			c-0.616,0-0.892-0.057-1.177-0.209c-0.473-0.254-0.858-0.793-1.485-1.617c-0.462-0.605-0.979-1.344-1.199-1.629
			c-0.044-0.045-0.077-0.065-0.143-0.065l-1.353-0.022c-0.055,0-0.077,0.033-0.077,0.088v0.266c0,1.056,0,1.925,0.055,2.387
			c0.033,0.319,0.099,0.563,0.429,0.605c0.154,0.021,0.396,0.043,0.495,0.043c0.066,0,0.088,0.033,0.088,0.066
			c0,0.055-0.055,0.088-0.176,0.088c-0.605,0-1.298-0.033-1.353-0.033c-0.011,0-0.704,0.033-1.034,0.033
			c-0.121,0-0.176-0.021-0.176-0.088c0-0.033,0.022-0.066,0.088-0.066c0.099,0,0.231-0.021,0.33-0.043
			c0.22-0.045,0.275-0.286,0.319-0.605c0.055-0.462,0.055-1.331,0.055-2.387L21.343,100.557L21.343,100.557z M22.223,101.514
			c0,0.055,0.022,0.101,0.077,0.133c0.165,0.1,0.671,0.177,1.155,0.177c0.264,0,0.572-0.033,0.825-0.209
			c0.385-0.265,0.671-0.858,0.671-1.694c0-1.376-0.726-2.201-1.903-2.201c-0.33,0-0.627,0.033-0.737,0.066
			c-0.055,0.021-0.088,0.066-0.088,0.132V101.514L22.223,101.514z"/>
		<path d="M29.438,101.314c0-1.451,0-1.715-0.022-2.013c-0.022-0.319-0.077-0.474-0.396-0.518c-0.077-0.011-0.242-0.021-0.33-0.021
			c-0.033,0-0.077-0.045-0.077-0.078c0-0.055,0.044-0.076,0.154-0.076c0.44,0,1.067,0.021,1.122,0.021c0.066,0,2.09,0.012,2.311,0
			c0.187-0.012,0.363-0.045,0.44-0.056c0.044-0.011,0.088-0.044,0.132-0.044c0.033,0,0.044,0.044,0.044,0.088
			c0,0.066-0.055,0.177-0.077,0.439c-0.011,0.088-0.033,0.506-0.055,0.616c-0.011,0.044-0.044,0.099-0.088,0.099
			c-0.055,0-0.077-0.043-0.077-0.121c0-0.064-0.011-0.219-0.055-0.329c-0.066-0.153-0.165-0.22-0.693-0.286
			c-0.165-0.021-1.287-0.032-1.397-0.032c-0.044,0-0.055,0.032-0.055,0.099v2.541c0,0.066,0,0.101,0.055,0.101
			c0.121,0,1.397,0,1.618-0.022c0.231-0.021,0.374-0.033,0.473-0.132c0.066-0.065,0.11-0.121,0.143-0.121
			c0.033,0,0.055,0.022,0.055,0.077s-0.055,0.209-0.077,0.518c-0.022,0.188-0.044,0.539-0.044,0.604
			c0,0.077-0.022,0.176-0.088,0.176c-0.044,0-0.066-0.032-0.066-0.088c0-0.088,0-0.187-0.044-0.308
			c-0.033-0.133-0.121-0.242-0.495-0.286c-0.264-0.033-1.298-0.044-1.463-0.044c-0.055,0-0.066,0.033-0.066,0.064v0.781
			c0,0.319-0.011,1.408,0,1.596c0.022,0.627,0.198,0.748,1.155,0.748c0.253,0,0.715,0,0.968-0.1c0.253-0.109,0.385-0.273,0.44-0.648
			c0.022-0.109,0.044-0.144,0.099-0.144c0.055,0,0.066,0.077,0.066,0.144c0,0.065-0.077,0.705-0.132,0.901
			c-0.066,0.242-0.165,0.242-0.539,0.242c-0.726,0-1.287-0.021-1.683-0.032c-0.407-0.021-0.66-0.021-0.803-0.021
			c-0.022,0-0.209,0-0.418,0.011c-0.187,0.012-0.407,0.022-0.561,0.022c-0.099,0-0.154-0.022-0.154-0.078
			c0-0.032,0.022-0.076,0.077-0.076c0.088,0,0.209-0.033,0.297-0.045c0.188-0.032,0.209-0.219,0.253-0.494
			c0.055-0.385,0.055-1.122,0.055-2.024v-1.651H29.438z"/>
		<path d="M36.435,102.988c0,1.375,0.022,1.936,0.198,2.101c0.154,0.154,0.528,0.222,1.288,0.222c0.506,0,0.935-0.012,1.166-0.287
			c0.121-0.144,0.198-0.34,0.231-0.527c0.011-0.064,0.044-0.121,0.099-0.121c0.044,0,0.066,0.044,0.066,0.145
			c0,0.099-0.066,0.66-0.143,0.935c-0.066,0.221-0.099,0.253-0.616,0.253c-0.693,0-1.232-0.012-1.683-0.032
			c-0.44-0.012-0.77-0.022-1.056-0.022c-0.044,0-0.209,0-0.396,0.012c-0.198,0.012-0.407,0.021-0.561,0.021
			c-0.099,0-0.154-0.021-0.154-0.076c0-0.033,0.022-0.077,0.077-0.077c0.088,0,0.209-0.021,0.297-0.044
			c0.187-0.045,0.209-0.221,0.253-0.495c0.055-0.386,0.055-1.122,0.055-2.024v-1.65c0-1.451,0-1.715-0.022-2.012
			c-0.022-0.32-0.077-0.475-0.396-0.519c-0.077-0.011-0.242-0.021-0.33-0.021c-0.033,0-0.077-0.045-0.077-0.078
			c0-0.055,0.044-0.076,0.154-0.076c0.44,0,1.045,0.021,1.1,0.021c0.044,0,0.77-0.021,1.067-0.021c0.099,0,0.154,0.021,0.154,0.076
			c0,0.033-0.044,0.065-0.077,0.065c-0.066,0-0.209,0.013-0.319,0.022c-0.286,0.055-0.341,0.197-0.363,0.527
			c-0.011,0.297-0.011,0.562-0.011,2.014L36.435,102.988L36.435,102.988z"/>
		<path d="M43.067,98.797c0.121-0.309,0.165-0.363,0.231-0.363c0.099,0,0.132,0.133,0.231,0.342
			c0.176,0.396,1.727,4.258,2.321,5.677c0.352,0.836,0.616,0.957,0.825,1.022c0.143,0.045,0.286,0.055,0.385,0.055
			c0.055,0,0.121,0.022,0.121,0.078c0,0.055-0.11,0.076-0.22,0.076c-0.143,0-0.858,0-1.529-0.021
			c-0.187-0.012-0.341-0.012-0.341-0.064c0-0.045,0.022-0.045,0.066-0.066c0.055-0.021,0.154-0.1,0.088-0.254l-0.869-2.146
			c-0.022-0.044-0.033-0.055-0.088-0.055h-2.233c-0.044,0-0.077,0.021-0.099,0.077l-0.55,1.496
			c-0.088,0.229-0.143,0.461-0.143,0.627c0,0.187,0.165,0.252,0.33,0.252h0.088c0.077,0,0.099,0.033,0.099,0.078
			c0,0.055-0.055,0.076-0.143,0.076c-0.231,0-0.759-0.033-0.869-0.033c-0.099,0-0.583,0.033-0.979,0.033
			c-0.121,0-0.187-0.021-0.187-0.076c0-0.045,0.044-0.078,0.088-0.078c0.066,0,0.209-0.01,0.286-0.021
			c0.44-0.056,0.627-0.386,0.814-0.858L43.067,98.797z M44.146,102.691c0.044,0,0.044-0.022,0.033-0.066l-0.957-2.563
			c-0.055-0.144-0.11-0.144-0.165,0l-0.902,2.563c-0.011,0.044,0,0.066,0.033,0.066H44.146z"/>
		<path d="M49.92,102.966c0,0.902,0,1.64,0.044,2.024c0.033,0.275,0.077,0.451,0.375,0.494c0.132,0.022,0.352,0.045,0.44,0.045
			c0.066,0,0.077,0.044,0.077,0.076c0,0.045-0.044,0.078-0.154,0.078c-0.528,0-1.144-0.033-1.199-0.033
			c-0.044,0-0.715,0.033-1.001,0.033c-0.11,0-0.154-0.022-0.154-0.078c0-0.032,0.022-0.065,0.077-0.065
			c0.088,0,0.198-0.021,0.286-0.044c0.198-0.044,0.253-0.23,0.286-0.506c0.044-0.385,0.044-1.122,0.044-2.024v-3.928l-1.398,0.022
			c-0.605,0.012-0.836,0.078-0.979,0.297c-0.11,0.166-0.121,0.231-0.154,0.297c-0.022,0.078-0.055,0.089-0.099,0.089
			c-0.022,0-0.066-0.021-0.066-0.076c0-0.101,0.187-0.937,0.209-1.013c0.011-0.055,0.066-0.176,0.099-0.176
			c0.066,0,0.165,0.076,0.429,0.108c0.275,0.033,0.649,0.045,0.759,0.045h3.652c0.319,0,0.539-0.022,0.693-0.045
			c0.143-0.021,0.231-0.044,0.275-0.044s0.044,0.057,0.044,0.109c0,0.287-0.033,0.957-0.033,1.068c0,0.076-0.044,0.12-0.088,0.12
			c-0.044,0-0.066-0.032-0.077-0.165l-0.011-0.1c-0.033-0.286-0.242-0.495-1.166-0.518l-1.21-0.021V102.966L49.92,102.966z"/>
		<path d="M55.454,102.966c0,0.902,0,1.64,0.044,2.024c0.033,0.275,0.066,0.451,0.352,0.494c0.143,0.022,0.352,0.045,0.44,0.045
			c0.055,0,0.077,0.044,0.077,0.076c0,0.045-0.044,0.078-0.154,0.078c-0.54,0-1.167-0.033-1.21-0.033
			c-0.055,0-0.66,0.033-0.957,0.033c-0.099,0-0.154-0.022-0.154-0.078c0-0.032,0.022-0.076,0.077-0.076
			c0.088,0,0.209-0.021,0.297-0.045c0.187-0.043,0.22-0.219,0.253-0.494c0.044-0.385,0.055-1.122,0.055-2.024v-1.649
			c0-1.452,0-1.717-0.022-2.014c-0.022-0.318-0.099-0.462-0.308-0.506c-0.11-0.021-0.231-0.033-0.297-0.033
			c-0.044,0-0.077-0.043-0.077-0.076c0-0.056,0.044-0.078,0.154-0.078c0.319,0,0.924,0.022,0.979,0.022
			c0.044,0,0.671-0.022,0.968-0.022c0.11,0,0.154,0.022,0.154,0.078c0,0.033-0.044,0.076-0.077,0.076c-0.066,0-0.132,0-0.242,0.021
			c-0.264,0.056-0.319,0.188-0.341,0.518c-0.011,0.297-0.011,0.562-0.011,2.014V102.966z"/>
		<path d="M61.493,98.479c2.178,0,3.828,1.33,3.828,3.51c0,2.09-1.551,3.816-3.883,3.816c-2.651,0-3.785-1.99-3.785-3.675
			C57.652,100.623,58.819,98.479,61.493,98.479z M61.712,105.419c0.869,0,2.619-0.462,2.619-3.168c0-2.244-1.364-3.422-2.894-3.422
			c-1.617,0-2.783,1.013-2.783,3.048C58.655,104.055,59.963,105.419,61.712,105.419z"/>
		<path d="M67.806,104.407c0.022,0.771,0.11,1.001,0.374,1.067c0.176,0.043,0.396,0.055,0.484,0.055
			c0.044,0,0.077,0.033,0.077,0.076c0,0.056-0.066,0.078-0.176,0.078c-0.55,0-0.936-0.033-1.023-0.033s-0.495,0.033-0.935,0.033
			c-0.099,0-0.154-0.012-0.154-0.078c0-0.043,0.033-0.076,0.077-0.076c0.077,0,0.253-0.012,0.396-0.055
			c0.242-0.066,0.275-0.32,0.275-1.166V98.95c0-0.374,0.055-0.474,0.132-0.474c0.11,0,0.275,0.188,0.374,0.287
			c0.154,0.152,1.563,1.649,3.059,3.189c0.957,0.99,1.991,2.102,2.288,2.408l-0.099-4.687c-0.011-0.604-0.066-0.813-0.363-0.868
			c-0.176-0.033-0.396-0.045-0.473-0.045c-0.066,0-0.077-0.056-0.077-0.088c0-0.056,0.077-0.066,0.187-0.066
			c0.44,0,0.902,0.022,1.012,0.022c0.11,0,0.429-0.022,0.825-0.022c0.099,0,0.176,0.012,0.176,0.066c0,0.032-0.044,0.088-0.11,0.088
			c-0.044,0-0.121,0-0.231,0.021c-0.319,0.066-0.341,0.253-0.341,0.814l-0.022,5.479c0,0.615-0.011,0.671-0.077,0.671
			c-0.099,0-0.198-0.076-0.737-0.571c-0.099-0.089-1.496-1.464-2.519-2.531c-1.122-1.177-2.211-2.32-2.508-2.65L67.806,104.407z"/>
		<path d="M75.803,105.552c-0.132-0.065-0.143-0.1-0.143-0.353c0-0.463,0.044-0.836,0.055-0.99c0-0.1,0.022-0.154,0.077-0.154
			s0.088,0.033,0.088,0.11s0,0.209,0.033,0.341c0.154,0.684,0.88,0.926,1.529,0.926c0.957,0,1.452-0.539,1.452-1.244
			c0-0.672-0.363-0.989-1.221-1.629l-0.44-0.33c-1.045-0.779-1.386-1.353-1.386-2.002c0-1.101,0.869-1.76,2.146-1.76
			c0.385,0,0.77,0.055,1.001,0.109c0.187,0.044,0.264,0.044,0.341,0.044s0.099,0.012,0.099,0.065c0,0.045-0.044,0.353-0.044,0.99
			c0,0.143-0.011,0.209-0.077,0.209s-0.077-0.044-0.088-0.121c-0.011-0.109-0.088-0.363-0.143-0.462
			c-0.066-0.11-0.385-0.462-1.254-0.462c-0.704,0-1.287,0.352-1.287,1.012c0,0.594,0.297,0.937,1.254,1.584l0.275,0.188
			c1.177,0.804,1.584,1.452,1.584,2.255c0,0.551-0.209,1.145-0.902,1.596c-0.407,0.265-1.012,0.33-1.54,0.33
			C76.76,105.805,76.199,105.738,75.803,105.552z"/>
		<path d="M84.912,103.406c0-1.287,0.824-2.146,1.683-2.651c-0.407-0.571-0.539-1.022-0.539-1.519c0-0.869,0.892-2.024,2.365-2.024
			c0.562,0,1.034,0.11,1.331,0.274c0.133,0.078,0.143,0.144,0.143,0.275c0,0.33-0.043,1.1-0.076,1.266
			c-0.033,0.164-0.066,0.188-0.11,0.188c-0.055,0-0.065-0.044-0.065-0.209c0-0.285-0.066-0.648-0.342-0.936
			c-0.242-0.254-0.615-0.484-1.1-0.484c-0.66,0-1.397,0.407-1.397,1.441c0,0.857,0.595,1.572,1.738,2.815
			c0.374,0.407,1.728,1.673,2.079,1.97c0.309-0.418,0.561-1.154,0.561-1.826c0-0.164-0.043-0.373-0.209-0.538
			c-0.143-0.144-0.373-0.177-0.539-0.177c-0.065,0-0.131-0.021-0.131-0.078c0-0.055,0.088-0.075,0.176-0.075
			c0.264,0,0.703,0.011,1.32,0.075c0.164,0.022,0.197,0.111,0.197,0.222c0,0.892-0.605,2.002-1.089,2.597
			c0.726,0.615,1.21,0.912,1.519,1.09c0.352,0.209,0.912,0.428,1.309,0.428c0.1,0,0.154,0.012,0.154,0.078
			c0,0.043-0.088,0.076-0.188,0.076h-1.078c-0.813,0-1.078-0.076-2.288-1.033c-0.253,0.252-1.122,1.188-2.75,1.188
			C85.66,105.838,84.912,104.363,84.912,103.406z M90.047,104.439c-0.615-0.506-1.705-1.551-1.99-1.858
			c-0.287-0.31-0.99-1.089-1.299-1.54c-0.572,0.374-0.99,0.968-0.99,1.848c0,1.377,0.969,2.365,2.2,2.365
			C88.993,105.254,89.675,104.825,90.047,104.439z"/>
		<path d="M98.53,100.557c0-1.716,0-2.023-0.022-2.375c-0.021-0.375-0.109-0.552-0.473-0.629c-0.088-0.021-0.275-0.031-0.374-0.031
			c-0.044,0-0.089-0.022-0.089-0.066c0-0.064,0.056-0.088,0.177-0.088c0.495,0,1.188,0.033,1.243,0.033
			c0.132,0,0.825-0.033,1.485-0.033c1.089,0,3.103-0.1,4.411,1.254c0.551,0.572,1.066,1.484,1.066,2.795
			c0,1.386-0.57,2.453-1.188,3.104c-0.473,0.494-1.463,1.265-3.333,1.265c-0.474,0-1.057-0.033-1.529-0.065
			c-0.483-0.033-0.858-0.066-0.913-0.066c-0.021,0-0.209,0-0.439,0.012c-0.221,0-0.474,0.021-0.639,0.021
			c-0.121,0-0.176-0.021-0.176-0.088c0-0.033,0.021-0.065,0.088-0.065c0.099,0,0.23-0.021,0.33-0.044
			c0.22-0.045,0.275-0.286,0.318-0.605c0.056-0.462,0.056-1.331,0.056-2.387V100.557z M99.454,101.745
			c0,1.166,0.011,2.178,0.022,2.387c0.011,0.275,0.033,0.716,0.121,0.837c0.143,0.209,0.572,0.439,1.869,0.439
			c1.023,0,1.971-0.374,2.619-1.023c0.572-0.561,0.879-1.617,0.879-2.629c0-1.396-0.604-2.3-1.055-2.771
			c-1.035-1.09-2.289-1.243-3.599-1.243c-0.221,0-0.627,0.032-0.715,0.077c-0.1,0.043-0.133,0.099-0.133,0.22
			c-0.011,0.374-0.011,1.496-0.011,2.344v1.363H99.454z"/>
		<path d="M108.298,101.314c0-1.451,0-1.715-0.023-2.013c-0.021-0.319-0.076-0.474-0.395-0.518
			c-0.078-0.011-0.242-0.021-0.332-0.021c-0.031,0-0.076-0.045-0.076-0.078c0-0.055,0.045-0.076,0.154-0.076
			c0.438,0,1.065,0.021,1.123,0.021c0.063,0,2.09,0.012,2.309,0c0.188-0.012,0.363-0.045,0.441-0.056
			c0.043-0.011,0.088-0.044,0.131-0.044c0.033,0,0.045,0.044,0.045,0.088c0,0.066-0.055,0.177-0.078,0.439
			c-0.01,0.088-0.031,0.506-0.055,0.616c-0.01,0.044-0.043,0.099-0.088,0.099c-0.056,0-0.076-0.043-0.076-0.121
			c0-0.064-0.012-0.219-0.055-0.329c-0.066-0.153-0.166-0.22-0.693-0.286c-0.166-0.021-1.287-0.032-1.398-0.032
			c-0.043,0-0.055,0.032-0.055,0.099v2.541c0,0.066,0,0.101,0.055,0.101c0.121,0,1.398,0,1.617-0.022
			c0.232-0.021,0.375-0.033,0.475-0.132c0.064-0.065,0.109-0.121,0.143-0.121c0.035,0,0.056,0.022,0.056,0.077
			s-0.056,0.209-0.076,0.518c-0.022,0.188-0.045,0.539-0.045,0.604c0,0.077-0.021,0.176-0.088,0.176
			c-0.045,0-0.065-0.032-0.065-0.088c0-0.088,0-0.187-0.043-0.308c-0.033-0.133-0.121-0.242-0.496-0.286
			c-0.265-0.033-1.299-0.044-1.463-0.044c-0.056,0-0.066,0.033-0.066,0.064v0.781c0,0.319-0.01,1.408,0,1.596
			c0.021,0.627,0.199,0.748,1.156,0.748c0.252,0,0.715,0,0.967-0.1c0.254-0.109,0.385-0.273,0.441-0.648
			c0.021-0.109,0.043-0.144,0.098-0.144c0.057,0,0.066,0.077,0.066,0.144c0,0.065-0.076,0.705-0.132,0.901
			c-0.065,0.242-0.166,0.242-0.539,0.242c-0.727,0-1.286-0.021-1.684-0.032c-0.408-0.021-0.66-0.021-0.804-0.021
			c-0.022,0-0.209,0-0.42,0.011c-0.186,0.012-0.406,0.022-0.561,0.022c-0.098,0-0.154-0.022-0.154-0.078
			c0-0.032,0.023-0.076,0.078-0.076c0.088,0,0.209-0.033,0.297-0.045c0.188-0.032,0.209-0.219,0.252-0.494
			c0.057-0.385,0.057-1.122,0.057-2.024V101.314L108.298,101.314z"/>
		<path d="M116.788,104.462c0.563-1.254,1.828-4.444,2.037-5.114c0.043-0.145,0.088-0.275,0.088-0.354s-0.033-0.165-0.133-0.197
			c-0.109-0.033-0.221-0.033-0.33-0.033c-0.055,0-0.108-0.033-0.108-0.076c0-0.056,0.063-0.078,0.219-0.078
			c0.385,0,0.826,0.022,0.946,0.022c0.056,0,0.474-0.022,0.759-0.022c0.101,0,0.153,0.022,0.153,0.066
			c0,0.045-0.032,0.088-0.108,0.088c-0.065,0-0.285,0-0.463,0.109c-0.131,0.088-0.285,0.221-0.539,0.857
			c-0.108,0.265-0.582,1.388-1.078,2.53c-0.594,1.364-1.021,2.378-1.241,2.839c-0.265,0.562-0.318,0.705-0.419,0.705
			c-0.11,0-0.176-0.121-0.362-0.572l-2.377-5.731c-0.22-0.528-0.353-0.628-0.67-0.704c-0.154-0.033-0.32-0.033-0.375-0.033
			c-0.056,0-0.076-0.056-0.076-0.088c0-0.056,0.098-0.066,0.252-0.066c0.463,0,1.012,0.022,1.133,0.022
			c0.1,0,0.529-0.022,0.902-0.022c0.176,0,0.266,0.022,0.266,0.066c0,0.045-0.033,0.088-0.1,0.088c-0.111,0-0.265,0.012-0.353,0.045
			c-0.101,0.043-0.11,0.099-0.11,0.164c0,0.121,0.12,0.407,0.264,0.781L116.788,104.462z"/>
		<path d="M121.903,101.314c0-1.451,0-1.715-0.021-2.013c-0.021-0.319-0.075-0.474-0.396-0.518
			c-0.075-0.011-0.241-0.021-0.329-0.021c-0.033,0-0.076-0.045-0.076-0.078c0-0.055,0.043-0.076,0.153-0.076
			c0.438,0,1.066,0.021,1.121,0.021c0.065,0,2.093,0.012,2.312,0c0.188-0.012,0.362-0.045,0.438-0.056
			c0.045-0.011,0.09-0.044,0.134-0.044c0.032,0,0.045,0.044,0.045,0.088c0,0.066-0.058,0.177-0.078,0.439
			c-0.011,0.088-0.033,0.506-0.056,0.616c-0.012,0.044-0.045,0.099-0.088,0.099c-0.056,0-0.076-0.043-0.076-0.121
			c0-0.064-0.012-0.219-0.057-0.329c-0.063-0.153-0.164-0.22-0.693-0.286c-0.163-0.021-1.286-0.032-1.396-0.032
			c-0.043,0-0.055,0.032-0.055,0.099v2.541c0,0.066,0,0.101,0.055,0.101c0.121,0,1.396,0,1.617-0.022
			c0.229-0.021,0.375-0.033,0.473-0.132c0.066-0.065,0.111-0.121,0.145-0.121c0.031,0,0.055,0.022,0.055,0.077
			s-0.055,0.209-0.077,0.518c-0.021,0.188-0.043,0.539-0.043,0.604c0,0.077-0.021,0.176-0.089,0.176
			c-0.045,0-0.065-0.032-0.065-0.088c0-0.088,0-0.187-0.045-0.308c-0.033-0.133-0.121-0.242-0.494-0.286
			c-0.264-0.033-1.299-0.044-1.463-0.044c-0.056,0-0.065,0.033-0.065,0.064v0.781c0,0.319-0.013,1.408,0,1.596
			c0.021,0.627,0.196,0.748,1.153,0.748c0.254,0,0.718,0,0.97-0.1c0.254-0.109,0.385-0.273,0.438-0.648
			c0.022-0.109,0.045-0.144,0.101-0.144c0.055,0,0.065,0.077,0.065,0.144c0,0.065-0.078,0.705-0.134,0.901
			c-0.063,0.242-0.163,0.242-0.538,0.242c-0.726,0-1.287-0.021-1.685-0.032c-0.406-0.021-0.658-0.021-0.803-0.021
			c-0.021,0-0.209,0-0.418,0.011c-0.188,0.012-0.406,0.022-0.561,0.022c-0.101,0-0.154-0.022-0.154-0.078
			c0-0.032,0.021-0.076,0.078-0.076c0.088,0,0.209-0.033,0.297-0.045c0.186-0.032,0.209-0.219,0.252-0.494
			c0.055-0.385,0.055-1.122,0.055-2.024v-1.651H121.903z"/>
		<path d="M128.899,102.988c0,1.375,0.021,1.936,0.197,2.101c0.154,0.154,0.529,0.222,1.287,0.222c0.506,0,0.936-0.012,1.166-0.287
			c0.121-0.144,0.199-0.34,0.232-0.527c0.01-0.064,0.043-0.121,0.098-0.121c0.045,0,0.065,0.044,0.065,0.145
			c0,0.099-0.065,0.66-0.143,0.935c-0.066,0.221-0.101,0.253-0.615,0.253c-0.692,0-1.231-0.012-1.685-0.032
			c-0.44-0.012-0.771-0.022-1.057-0.022c-0.045,0-0.209,0-0.396,0.012c-0.197,0.012-0.406,0.021-0.562,0.021
			c-0.1,0-0.154-0.021-0.154-0.076c0-0.033,0.021-0.077,0.078-0.077c0.088,0,0.209-0.021,0.297-0.044
			c0.187-0.045,0.209-0.221,0.252-0.495c0.056-0.386,0.056-1.122,0.056-2.024v-1.65c0-1.451,0-1.715-0.021-2.012
			c-0.021-0.32-0.076-0.475-0.396-0.519c-0.076-0.011-0.242-0.021-0.33-0.021c-0.033,0-0.076-0.045-0.076-0.078
			c0-0.055,0.043-0.076,0.154-0.076c0.439,0,1.045,0.021,1.1,0.021c0.045,0,0.771-0.021,1.066-0.021c0.1,0,0.154,0.021,0.154,0.076
			c0,0.033-0.043,0.065-0.076,0.065c-0.066,0-0.209,0.013-0.32,0.022c-0.285,0.055-0.34,0.197-0.361,0.527
			c-0.012,0.297-0.012,0.562-0.012,2.014V102.988L128.899,102.988z"/>
		<path d="M136.456,98.479c2.179,0,3.828,1.33,3.828,3.51c0,2.09-1.551,3.816-3.883,3.816c-2.652,0-3.785-1.99-3.785-3.675
			C132.616,100.623,133.782,98.479,136.456,98.479z M136.677,105.419c0.869,0,2.617-0.462,2.617-3.168
			c0-2.244-1.363-3.422-2.894-3.422c-1.616,0-2.782,1.013-2.782,3.048C133.618,104.055,134.927,105.419,136.677,105.419z"/>
		<path d="M142.362,101.314c0-1.451,0-1.715-0.021-2.013c-0.021-0.319-0.076-0.474-0.396-0.518
			c-0.075-0.011-0.241-0.021-0.329-0.021c-0.033,0-0.076-0.045-0.076-0.078c0-0.055,0.043-0.076,0.153-0.076
			c0.438,0,1.046,0.021,1.121,0.021c0.209,0,0.937-0.021,1.375-0.021c1.244,0,1.685,0.385,1.851,0.527
			c0.219,0.198,0.483,0.616,0.483,1.122c0,1.343-1.014,2.233-2.498,2.233c-0.055,0-0.221,0-0.274-0.012
			c-0.043,0-0.101-0.045-0.101-0.088c0-0.076,0.058-0.1,0.255-0.1c1.045,0,1.793-0.66,1.793-1.507c0-0.31-0.033-0.913-0.552-1.42
			c-0.506-0.507-1.088-0.451-1.31-0.451c-0.164,0-0.438,0.044-0.539,0.065c-0.055,0.012-0.075,0.078-0.075,0.177v3.807
			c0,0.902,0,1.64,0.043,2.024c0.032,0.275,0.088,0.451,0.385,0.494c0.134,0.022,0.343,0.045,0.431,0.045
			c0.055,0,0.076,0.043,0.076,0.076c0,0.045-0.043,0.078-0.152,0.078c-0.529,0-1.166-0.033-1.211-0.033
			c-0.033,0-0.66,0.033-0.957,0.033c-0.101,0-0.154-0.022-0.154-0.078c0-0.033,0.021-0.076,0.078-0.076
			c0.088,0,0.209-0.021,0.297-0.045c0.186-0.043,0.209-0.219,0.252-0.494c0.055-0.385,0.055-1.122,0.055-2.024v-1.649H142.362z"/>
		<path d="M156.114,104.484c0.033,0.33,0.1,0.836,0.494,0.968c0.275,0.088,0.529,0.088,0.627,0.088c0.045,0,0.078,0.022,0.078,0.065
			c0,0.056-0.088,0.088-0.199,0.088c-0.219,0-1.297-0.01-1.647-0.043c-0.232-0.022-0.275-0.055-0.275-0.1
			c0-0.033,0.021-0.066,0.063-0.076c0.058-0.013,0.066-0.154,0.046-0.33l-0.464-4.754h-0.021l-2.332,4.774
			c-0.196,0.407-0.254,0.495-0.342,0.495s-0.144-0.088-0.33-0.43c-0.252-0.461-0.892-1.66-1.133-2.166
			c-0.285-0.596-1.065-2.168-1.231-2.554h-0.043l-0.375,4.226c-0.011,0.143-0.011,0.318-0.011,0.473c0,0.145,0.088,0.23,0.229,0.266
			c0.164,0.043,0.31,0.055,0.373,0.055c0.033,0,0.078,0.033,0.078,0.066c0,0.064-0.065,0.088-0.176,0.088
			c-0.363,0-0.826-0.033-0.902-0.033c-0.088,0-0.551,0.033-0.813,0.033c-0.101,0-0.164-0.022-0.164-0.088
			c0-0.033,0.043-0.066,0.099-0.066c0.078,0,0.145-0.012,0.287-0.033c0.317-0.055,0.329-0.396,0.373-0.748l0.704-6.105
			c0.011-0.1,0.056-0.164,0.109-0.164c0.065,0,0.143,0.032,0.196,0.143l2.929,5.811l2.815-5.799
			c0.043-0.089,0.088-0.154,0.154-0.154c0.064,0,0.121,0.078,0.143,0.254L156.114,104.484z"/>
		<path d="M159.083,101.314c0-1.451,0-1.715-0.021-2.013c-0.023-0.319-0.078-0.474-0.396-0.518c-0.078-0.011-0.242-0.021-0.33-0.021
			c-0.032,0-0.078-0.045-0.078-0.078c0-0.055,0.046-0.076,0.154-0.076c0.441,0,1.068,0.021,1.123,0.021c0.066,0,2.09,0.012,2.312,0
			c0.187-0.012,0.362-0.045,0.438-0.056c0.045-0.011,0.088-0.044,0.133-0.044c0.031,0,0.043,0.044,0.043,0.088
			c0,0.066-0.055,0.177-0.075,0.439c-0.013,0.088-0.033,0.506-0.056,0.616c-0.012,0.044-0.045,0.099-0.09,0.099
			c-0.055,0-0.076-0.043-0.076-0.121c0-0.064-0.012-0.219-0.055-0.329c-0.066-0.153-0.166-0.22-0.693-0.286
			c-0.166-0.021-1.287-0.032-1.396-0.032c-0.045,0-0.058,0.032-0.058,0.099v2.541c0,0.066,0,0.101,0.058,0.101
			c0.121,0,1.396,0,1.617-0.022c0.229-0.021,0.373-0.033,0.473-0.132c0.066-0.065,0.109-0.121,0.144-0.121
			c0.033,0,0.055,0.022,0.055,0.077s-0.055,0.209-0.076,0.518c-0.021,0.188-0.045,0.539-0.045,0.604
			c0,0.077-0.021,0.176-0.088,0.176c-0.043,0-0.066-0.032-0.066-0.088c0-0.088,0-0.187-0.043-0.308
			c-0.033-0.133-0.121-0.242-0.496-0.286c-0.264-0.033-1.297-0.044-1.463-0.044c-0.055,0-0.065,0.033-0.065,0.064v0.781
			c0,0.319-0.011,1.408,0,1.596c0.022,0.627,0.198,0.748,1.155,0.748c0.252,0,0.715,0,0.97-0.1c0.252-0.109,0.385-0.273,0.438-0.648
			c0.021-0.109,0.043-0.144,0.1-0.144c0.056,0,0.064,0.077,0.064,0.144c0,0.065-0.076,0.705-0.131,0.901
			c-0.066,0.242-0.166,0.242-0.539,0.242c-0.727,0-1.287-0.021-1.684-0.032c-0.406-0.021-0.66-0.021-0.803-0.021
			c-0.021,0-0.209,0-0.418,0.011c-0.188,0.012-0.408,0.022-0.563,0.022c-0.099,0-0.151-0.022-0.151-0.078
			c0-0.032,0.021-0.076,0.075-0.076c0.088,0,0.209-0.033,0.297-0.045c0.188-0.032,0.209-0.219,0.255-0.494
			c0.055-0.385,0.055-1.122,0.055-2.024v-1.651H159.083z"/>
		<path d="M165.606,104.407c0.021,0.771,0.109,1.001,0.373,1.067c0.176,0.043,0.396,0.055,0.484,0.055
			c0.045,0,0.078,0.033,0.078,0.076c0,0.056-0.066,0.078-0.178,0.078c-0.55,0-0.935-0.033-1.021-0.033
			c-0.09,0-0.496,0.033-0.936,0.033c-0.101,0-0.154-0.012-0.154-0.078c0-0.043,0.033-0.076,0.076-0.076
			c0.078,0,0.254-0.012,0.396-0.055c0.242-0.066,0.274-0.32,0.274-1.166V98.95c0-0.374,0.056-0.474,0.133-0.474
			c0.109,0,0.273,0.188,0.373,0.287c0.154,0.152,1.563,1.649,3.06,3.189c0.957,0.99,1.992,2.102,2.289,2.408l-0.101-4.687
			c-0.012-0.604-0.065-0.813-0.362-0.868c-0.177-0.033-0.396-0.045-0.474-0.045c-0.065,0-0.078-0.056-0.078-0.088
			c0-0.056,0.078-0.066,0.188-0.066c0.438,0,0.902,0.022,1.013,0.022s0.43-0.022,0.826-0.022c0.1,0,0.176,0.012,0.176,0.066
			c0,0.032-0.045,0.088-0.109,0.088c-0.045,0-0.121,0-0.232,0.021c-0.318,0.066-0.34,0.253-0.34,0.814l-0.023,5.479
			c0,0.615-0.01,0.671-0.075,0.671c-0.101,0-0.197-0.076-0.736-0.571c-0.1-0.089-1.496-1.464-2.521-2.531
			c-1.123-1.177-2.211-2.32-2.51-2.65L165.606,104.407z"/>
		<path d="M176.528,102.966c0,0.902,0,1.64,0.045,2.024c0.033,0.275,0.076,0.451,0.373,0.494c0.133,0.022,0.354,0.045,0.441,0.045
			c0.064,0,0.076,0.044,0.076,0.076c0,0.045-0.043,0.078-0.154,0.078c-0.527,0-1.145-0.033-1.199-0.033
			c-0.043,0-0.715,0.033-1,0.033c-0.111,0-0.154-0.022-0.154-0.078c0-0.032,0.021-0.065,0.076-0.065
			c0.088,0,0.199-0.021,0.287-0.044c0.197-0.044,0.252-0.23,0.285-0.506c0.045-0.385,0.045-1.122,0.045-2.024v-3.928l-1.398,0.022
			c-0.604,0.01-0.836,0.076-0.979,0.297c-0.109,0.164-0.121,0.23-0.154,0.297c-0.021,0.076-0.055,0.088-0.1,0.088
			c-0.021,0-0.064-0.021-0.064-0.076c0-0.1,0.187-0.936,0.209-1.014c0.01-0.055,0.064-0.176,0.099-0.176
			c0.065,0,0.166,0.078,0.43,0.109c0.274,0.033,0.647,0.045,0.761,0.045h3.651c0.317,0,0.539-0.021,0.692-0.045
			c0.144-0.021,0.23-0.044,0.275-0.044c0.043,0,0.043,0.056,0.043,0.11c0,0.285-0.033,0.957-0.033,1.066
			c0,0.077-0.043,0.121-0.088,0.121c-0.043,0-0.065-0.033-0.076-0.165l-0.012-0.1c-0.033-0.286-0.242-0.495-1.166-0.517
			l-1.211-0.022V102.966L176.528,102.966z"/>
	</g>
</g>
</svg>
